M48
;GenerationSoftware,Autodesk,EAGLE,9.1.1*%
;CreationDate,2018-07-18T04:49:29Z*%
FMAT,2
ICI,OFF
METRIC,TZ,000.000
T10C0.350
T9C0.381
T8C0.508
T7C0.762
T6C1.000
T5C1.016
T4C1.200
T3C2.184
T2C3.000
T1C4.500
%
G90
M71
T1
X95885Y23336
X95885Y29051
T2
X2540Y2540
X2540Y68580
X99060Y2540
X99060Y68580
T3
X49530Y55448
X11430Y55448
T4
X76438Y67151
X66438Y67151
X71438Y67151
T5
X10478Y21907
X13017Y24447
X10478Y24447
X13017Y26987
X10478Y26987
X13017Y29527
X10478Y29527
X13017Y32067
X10478Y32067
X13017Y34608
X39211Y30480
X10478Y34608
X13017Y37148
X7937Y42863
X10478Y37148
X13017Y42863
X13017Y40323
X10478Y42863
X10478Y40323
X7937Y40323
X5398Y42863
X5398Y40323
X80455Y19368
X80455Y21907
X13017Y16828
X80455Y24447
X10478Y16828
X13017Y19368
X80455Y29527
X18733Y19368
X18733Y21907
X18733Y24447
X18733Y26987
X18733Y29527
X18733Y32067
X18733Y34608
X18733Y37148
X18733Y39688
X18733Y42228
X80455Y42228
X80455Y39688
X80455Y37148
X80455Y34608
X80455Y32067
X80455Y26987
X10478Y14287
X13017Y14287
X10478Y11747
X13017Y11747
X10478Y9208
X13017Y9208
X10478Y6667
X13017Y6667
X10478Y4128
X13017Y4128
X10478Y19368
X13017Y21907
T6
X24130Y53657
X21590Y53657
X19050Y53657
X16510Y53657
X10319Y67310
X7779Y67310
X86995Y6032
X86995Y8573
X86995Y11112
X86995Y13652
X86995Y16192
X86995Y18733
X86995Y21273
X86995Y23812
X86995Y27305
X86995Y29845
X86995Y32385
X86995Y34925
X86995Y37465
X86995Y40005
X86995Y42545
X86995Y45085
X25981Y67151
X29481Y67151
X16615Y67151
X20115Y67151
X54610Y67310
X57150Y67310
X48577Y67310
X51117Y67310
X82655Y66675
X86155Y66675
X91227Y66675
X94727Y66675
X44450Y53657
X41910Y53657
X39370Y53657
X36830Y53657
X34290Y53657
X31750Y53657
X40269Y66993
X43769Y66993
X29210Y53657
X26670Y53657
T7
X66199Y56356
X59849Y68898
T8
X64294Y47466
X34766Y67628
X4286Y6826
X85408Y2223
T9
X34766Y6350
X12541Y45244
X14022Y45191
T10
X30162Y30797
X85090Y52705
X1587Y47149
X1587Y48736
X81756Y56832
X86360Y50641
X20161Y4604
X3175Y18891
X90646Y61595
X78588Y11589
X97155Y42386
X57944Y14129
X65087Y6826
X56674Y6191
X90646Y47942
X93186Y47942
X66516Y5715
X22514Y12859
X50482Y7620
X2223Y15784
X84866Y45496
X3475Y22207
X94456Y61595
X8255Y18098
X1429Y22384
M30