G04 EAGLE Gerber RS-274X export*
G75*
%MOMM*%
%FSLAX34Y34*%
%LPD*%
%AMOC8*
5,1,8,0,0,1.08239X$1,22.5*%
G01*
%ADD10C,0.254000*%


D10*
X0Y0D02*
X1016000Y0D01*
X1016000Y711200D01*
X0Y711200D01*
X0Y0D01*
X40400Y685264D02*
X40324Y684196D01*
X40171Y683135D01*
X39943Y682088D01*
X39641Y681060D01*
X39267Y680056D01*
X38822Y679081D01*
X38308Y678141D01*
X37729Y677240D01*
X37087Y676382D01*
X36385Y675572D01*
X35628Y674815D01*
X34818Y674113D01*
X33960Y673471D01*
X33059Y672892D01*
X32119Y672378D01*
X31144Y671933D01*
X30140Y671559D01*
X29112Y671257D01*
X28065Y671029D01*
X27004Y670876D01*
X25936Y670800D01*
X24864Y670800D01*
X23796Y670876D01*
X22735Y671029D01*
X21688Y671257D01*
X20660Y671559D01*
X19656Y671933D01*
X18681Y672378D01*
X17741Y672892D01*
X16840Y673471D01*
X15982Y674113D01*
X15172Y674815D01*
X14415Y675572D01*
X13713Y676382D01*
X13071Y677240D01*
X12492Y678141D01*
X11978Y679081D01*
X11533Y680056D01*
X11159Y681060D01*
X10857Y682088D01*
X10629Y683135D01*
X10476Y684196D01*
X10400Y685264D01*
X10400Y686336D01*
X10476Y687404D01*
X10629Y688465D01*
X10857Y689512D01*
X11159Y690540D01*
X11533Y691544D01*
X11978Y692519D01*
X12492Y693459D01*
X13071Y694360D01*
X13713Y695218D01*
X14415Y696028D01*
X15172Y696785D01*
X15982Y697487D01*
X16840Y698129D01*
X17741Y698708D01*
X18681Y699222D01*
X19656Y699667D01*
X20660Y700041D01*
X21688Y700343D01*
X22735Y700571D01*
X23796Y700724D01*
X24864Y700800D01*
X25936Y700800D01*
X27004Y700724D01*
X28065Y700571D01*
X29112Y700343D01*
X30140Y700041D01*
X31144Y699667D01*
X32119Y699222D01*
X33059Y698708D01*
X33960Y698129D01*
X34818Y697487D01*
X35628Y696785D01*
X36385Y696028D01*
X37087Y695218D01*
X37729Y694360D01*
X38308Y693459D01*
X38822Y692519D01*
X39267Y691544D01*
X39641Y690540D01*
X39943Y689512D01*
X40171Y688465D01*
X40324Y687404D01*
X40400Y686336D01*
X40400Y685264D01*
X40400Y24864D02*
X40324Y23796D01*
X40171Y22735D01*
X39943Y21688D01*
X39641Y20660D01*
X39267Y19656D01*
X38822Y18681D01*
X38308Y17741D01*
X37729Y16840D01*
X37087Y15982D01*
X36385Y15172D01*
X35628Y14415D01*
X34818Y13713D01*
X33960Y13071D01*
X33059Y12492D01*
X32119Y11978D01*
X31144Y11533D01*
X30140Y11159D01*
X29112Y10857D01*
X28065Y10629D01*
X27004Y10476D01*
X25936Y10400D01*
X24864Y10400D01*
X23796Y10476D01*
X22735Y10629D01*
X21688Y10857D01*
X20660Y11159D01*
X19656Y11533D01*
X18681Y11978D01*
X17741Y12492D01*
X16840Y13071D01*
X15982Y13713D01*
X15172Y14415D01*
X14415Y15172D01*
X13713Y15982D01*
X13071Y16840D01*
X12492Y17741D01*
X11978Y18681D01*
X11533Y19656D01*
X11159Y20660D01*
X10857Y21688D01*
X10629Y22735D01*
X10476Y23796D01*
X10400Y24864D01*
X10400Y25936D01*
X10476Y27004D01*
X10629Y28065D01*
X10857Y29112D01*
X11159Y30140D01*
X11533Y31144D01*
X11978Y32119D01*
X12492Y33059D01*
X13071Y33960D01*
X13713Y34818D01*
X14415Y35628D01*
X15172Y36385D01*
X15982Y37087D01*
X16840Y37729D01*
X17741Y38308D01*
X18681Y38822D01*
X19656Y39267D01*
X20660Y39641D01*
X21688Y39943D01*
X22735Y40171D01*
X23796Y40324D01*
X24864Y40400D01*
X25936Y40400D01*
X27004Y40324D01*
X28065Y40171D01*
X29112Y39943D01*
X30140Y39641D01*
X31144Y39267D01*
X32119Y38822D01*
X33059Y38308D01*
X33960Y37729D01*
X34818Y37087D01*
X35628Y36385D01*
X36385Y35628D01*
X37087Y34818D01*
X37729Y33960D01*
X38308Y33059D01*
X38822Y32119D01*
X39267Y31144D01*
X39641Y30140D01*
X39943Y29112D01*
X40171Y28065D01*
X40324Y27004D01*
X40400Y25936D01*
X40400Y24864D01*
X1005600Y24864D02*
X1005524Y23796D01*
X1005371Y22735D01*
X1005143Y21688D01*
X1004841Y20660D01*
X1004467Y19656D01*
X1004022Y18681D01*
X1003508Y17741D01*
X1002929Y16840D01*
X1002287Y15982D01*
X1001585Y15172D01*
X1000828Y14415D01*
X1000018Y13713D01*
X999160Y13071D01*
X998259Y12492D01*
X997319Y11978D01*
X996344Y11533D01*
X995340Y11159D01*
X994312Y10857D01*
X993265Y10629D01*
X992204Y10476D01*
X991136Y10400D01*
X990064Y10400D01*
X988996Y10476D01*
X987935Y10629D01*
X986888Y10857D01*
X985860Y11159D01*
X984856Y11533D01*
X983881Y11978D01*
X982941Y12492D01*
X982040Y13071D01*
X981182Y13713D01*
X980372Y14415D01*
X979615Y15172D01*
X978913Y15982D01*
X978271Y16840D01*
X977692Y17741D01*
X977178Y18681D01*
X976733Y19656D01*
X976359Y20660D01*
X976057Y21688D01*
X975829Y22735D01*
X975676Y23796D01*
X975600Y24864D01*
X975600Y25936D01*
X975676Y27004D01*
X975829Y28065D01*
X976057Y29112D01*
X976359Y30140D01*
X976733Y31144D01*
X977178Y32119D01*
X977692Y33059D01*
X978271Y33960D01*
X978913Y34818D01*
X979615Y35628D01*
X980372Y36385D01*
X981182Y37087D01*
X982040Y37729D01*
X982941Y38308D01*
X983881Y38822D01*
X984856Y39267D01*
X985860Y39641D01*
X986888Y39943D01*
X987935Y40171D01*
X988996Y40324D01*
X990064Y40400D01*
X991136Y40400D01*
X992204Y40324D01*
X993265Y40171D01*
X994312Y39943D01*
X995340Y39641D01*
X996344Y39267D01*
X997319Y38822D01*
X998259Y38308D01*
X999160Y37729D01*
X1000018Y37087D01*
X1000828Y36385D01*
X1001585Y35628D01*
X1002287Y34818D01*
X1002929Y33960D01*
X1003508Y33059D01*
X1004022Y32119D01*
X1004467Y31144D01*
X1004841Y30140D01*
X1005143Y29112D01*
X1005371Y28065D01*
X1005524Y27004D01*
X1005600Y25936D01*
X1005600Y24864D01*
X1005600Y685264D02*
X1005524Y684196D01*
X1005371Y683135D01*
X1005143Y682088D01*
X1004841Y681060D01*
X1004467Y680056D01*
X1004022Y679081D01*
X1003508Y678141D01*
X1002929Y677240D01*
X1002287Y676382D01*
X1001585Y675572D01*
X1000828Y674815D01*
X1000018Y674113D01*
X999160Y673471D01*
X998259Y672892D01*
X997319Y672378D01*
X996344Y671933D01*
X995340Y671559D01*
X994312Y671257D01*
X993265Y671029D01*
X992204Y670876D01*
X991136Y670800D01*
X990064Y670800D01*
X988996Y670876D01*
X987935Y671029D01*
X986888Y671257D01*
X985860Y671559D01*
X984856Y671933D01*
X983881Y672378D01*
X982941Y672892D01*
X982040Y673471D01*
X981182Y674113D01*
X980372Y674815D01*
X979615Y675572D01*
X978913Y676382D01*
X978271Y677240D01*
X977692Y678141D01*
X977178Y679081D01*
X976733Y680056D01*
X976359Y681060D01*
X976057Y682088D01*
X975829Y683135D01*
X975676Y684196D01*
X975600Y685264D01*
X975600Y686336D01*
X975676Y687404D01*
X975829Y688465D01*
X976057Y689512D01*
X976359Y690540D01*
X976733Y691544D01*
X977178Y692519D01*
X977692Y693459D01*
X978271Y694360D01*
X978913Y695218D01*
X979615Y696028D01*
X980372Y696785D01*
X981182Y697487D01*
X982040Y698129D01*
X982941Y698708D01*
X983881Y699222D01*
X984856Y699667D01*
X985860Y700041D01*
X986888Y700343D01*
X987935Y700571D01*
X988996Y700724D01*
X990064Y700800D01*
X991136Y700800D01*
X992204Y700724D01*
X993265Y700571D01*
X994312Y700343D01*
X995340Y700041D01*
X996344Y699667D01*
X997319Y699222D01*
X998259Y698708D01*
X999160Y698129D01*
X1000018Y697487D01*
X1000828Y696785D01*
X1001585Y696028D01*
X1002287Y695218D01*
X1002929Y694360D01*
X1003508Y693459D01*
X1004022Y692519D01*
X1004467Y691544D01*
X1004841Y690540D01*
X1005143Y689512D01*
X1005371Y688465D01*
X1005524Y687404D01*
X1005600Y686336D01*
X1005600Y685264D01*
M02*
