G04 EAGLE Gerber RS-274X export*
G75*
%MOMM*%
%FSLAX34Y34*%
%LPD*%
%AMOC8*
5,1,8,0,0,1.08239X$1,22.5*%
G01*
%ADD10R,1.981200X0.558800*%
%ADD11R,1.800000X1.600000*%
%ADD12R,1.600000X2.000000*%
%ADD13R,2.000000X1.600000*%
%ADD14R,3.500000X0.420000*%
%ADD15R,6.300000X14.000000*%
%ADD16R,1.600000X1.800000*%
%ADD17R,2.900000X5.400000*%
%ADD18R,1.800000X1.700000*%
%ADD19R,1.642403X1.277900*%
%ADD20C,0.147500*%
%ADD21R,1.500000X0.700000*%
%ADD22R,0.900000X0.600000*%
%ADD23R,3.000000X1.400000*%
%ADD24R,1.600000X1.803000*%
%ADD25R,1.803000X1.600000*%
%ADD26R,1.400000X3.000000*%


D10*
X724662Y533400D03*
X724662Y520700D03*
X724662Y508000D03*
X724662Y495300D03*
X773938Y495300D03*
X773938Y508000D03*
X773938Y520700D03*
X773938Y533400D03*
D11*
X347663Y618838D03*
X347663Y590838D03*
X673100Y474950D03*
X673100Y502950D03*
X698500Y474950D03*
X698500Y502950D03*
D12*
X767050Y558800D03*
X795050Y558800D03*
X661700Y533400D03*
X633700Y533400D03*
X292388Y615950D03*
X320388Y615950D03*
D13*
X246063Y592425D03*
X246063Y620425D03*
D11*
X800100Y528350D03*
X800100Y500350D03*
X825500Y528350D03*
X825500Y500350D03*
X190500Y590838D03*
X190500Y618838D03*
X165100Y590838D03*
X165100Y618838D03*
D13*
X381000Y617250D03*
X381000Y589250D03*
D12*
X716250Y558800D03*
X744250Y558800D03*
D14*
X425430Y177800D03*
X425430Y184300D03*
X425430Y190640D03*
X425430Y196840D03*
X425430Y203340D03*
X425430Y209680D03*
X425430Y215880D03*
X425430Y222380D03*
X425430Y228720D03*
X425430Y234920D03*
X425430Y241420D03*
X425430Y247620D03*
X425430Y254120D03*
X425430Y260460D03*
X425430Y266660D03*
X425430Y273160D03*
X425430Y279500D03*
X425430Y285700D03*
X269940Y285700D03*
X269940Y279200D03*
X269940Y273000D03*
X269940Y266500D03*
X269940Y260300D03*
X269940Y253800D03*
X269940Y247600D03*
X269940Y241100D03*
X269940Y234900D03*
X269940Y228400D03*
X269940Y222200D03*
X269940Y215700D03*
X269940Y209500D03*
X269940Y203000D03*
D15*
X348085Y231770D03*
D14*
X269940Y196820D03*
X269940Y190320D03*
X269940Y183980D03*
X269940Y177640D03*
X425430Y323850D03*
X425430Y330350D03*
X425430Y336690D03*
X425430Y342890D03*
X425430Y349390D03*
X425430Y355730D03*
X425430Y361930D03*
X425430Y368430D03*
X425430Y374770D03*
X425430Y380970D03*
X425430Y387470D03*
X425430Y393670D03*
X425430Y400170D03*
X425430Y406510D03*
X425430Y412710D03*
X425430Y419210D03*
X425430Y425550D03*
X425430Y431750D03*
X269940Y431750D03*
X269940Y425250D03*
X269940Y419050D03*
X269940Y412550D03*
X269940Y406350D03*
X269940Y399850D03*
X269940Y393650D03*
X269940Y387150D03*
X269940Y380950D03*
X269940Y374450D03*
X269940Y368250D03*
X269940Y361750D03*
X269940Y355550D03*
X269940Y349050D03*
D15*
X348085Y377820D03*
D14*
X269940Y342870D03*
X269940Y336370D03*
X269940Y330030D03*
X269940Y323690D03*
D10*
X247841Y107950D03*
X247841Y95250D03*
X247841Y82550D03*
X247841Y69850D03*
X295085Y69850D03*
X295085Y82550D03*
X295085Y95250D03*
X295085Y107950D03*
D16*
X279113Y138113D03*
X251113Y138113D03*
D17*
X378038Y68850D03*
X474038Y69350D03*
D18*
X303350Y131763D03*
X344350Y131763D03*
D16*
X225138Y103188D03*
X197138Y103188D03*
D12*
X268575Y47625D03*
X296575Y47625D03*
X217775Y46038D03*
X245775Y46038D03*
X225138Y74613D03*
X197138Y74613D03*
D13*
X322263Y78075D03*
X322263Y106075D03*
D11*
X350838Y106075D03*
X350838Y78075D03*
X976313Y547975D03*
X976313Y575975D03*
D16*
X934750Y503238D03*
X906750Y503238D03*
D19*
X612313Y119422D03*
D20*
X629612Y137900D02*
X629612Y152926D01*
X634038Y152926D01*
X634038Y137900D01*
X629612Y137900D01*
X629612Y139301D02*
X634038Y139301D01*
X634038Y140702D02*
X629612Y140702D01*
X629612Y142103D02*
X634038Y142103D01*
X634038Y143504D02*
X629612Y143504D01*
X629612Y144905D02*
X634038Y144905D01*
X634038Y146306D02*
X629612Y146306D01*
X629612Y147707D02*
X634038Y147707D01*
X634038Y149108D02*
X629612Y149108D01*
X629612Y150509D02*
X634038Y150509D01*
X634038Y151910D02*
X629612Y151910D01*
X616912Y152926D02*
X616912Y137900D01*
X616912Y152926D02*
X621338Y152926D01*
X621338Y137900D01*
X616912Y137900D01*
X616912Y139301D02*
X621338Y139301D01*
X621338Y140702D02*
X616912Y140702D01*
X616912Y142103D02*
X621338Y142103D01*
X621338Y143504D02*
X616912Y143504D01*
X616912Y144905D02*
X621338Y144905D01*
X621338Y146306D02*
X616912Y146306D01*
X616912Y147707D02*
X621338Y147707D01*
X621338Y149108D02*
X616912Y149108D01*
X616912Y150509D02*
X621338Y150509D01*
X621338Y151910D02*
X616912Y151910D01*
X604212Y152926D02*
X604212Y137900D01*
X604212Y152926D02*
X608638Y152926D01*
X608638Y137900D01*
X604212Y137900D01*
X604212Y139301D02*
X608638Y139301D01*
X608638Y140702D02*
X604212Y140702D01*
X604212Y142103D02*
X608638Y142103D01*
X608638Y143504D02*
X604212Y143504D01*
X604212Y144905D02*
X608638Y144905D01*
X608638Y146306D02*
X604212Y146306D01*
X604212Y147707D02*
X608638Y147707D01*
X608638Y149108D02*
X604212Y149108D01*
X604212Y150509D02*
X608638Y150509D01*
X608638Y151910D02*
X604212Y151910D01*
X591512Y152926D02*
X591512Y137900D01*
X591512Y152926D02*
X595938Y152926D01*
X595938Y137900D01*
X591512Y137900D01*
X591512Y139301D02*
X595938Y139301D01*
X595938Y140702D02*
X591512Y140702D01*
X591512Y142103D02*
X595938Y142103D01*
X595938Y143504D02*
X591512Y143504D01*
X591512Y144905D02*
X595938Y144905D01*
X595938Y146306D02*
X591512Y146306D01*
X591512Y147707D02*
X595938Y147707D01*
X595938Y149108D02*
X591512Y149108D01*
X591512Y150509D02*
X595938Y150509D01*
X595938Y151910D02*
X591512Y151910D01*
X591512Y100226D02*
X591512Y85200D01*
X591512Y100226D02*
X595938Y100226D01*
X595938Y85200D01*
X591512Y85200D01*
X591512Y86601D02*
X595938Y86601D01*
X595938Y88002D02*
X591512Y88002D01*
X591512Y89403D02*
X595938Y89403D01*
X595938Y90804D02*
X591512Y90804D01*
X591512Y92205D02*
X595938Y92205D01*
X595938Y93606D02*
X591512Y93606D01*
X591512Y95007D02*
X595938Y95007D01*
X595938Y96408D02*
X591512Y96408D01*
X591512Y97809D02*
X595938Y97809D01*
X595938Y99210D02*
X591512Y99210D01*
X604212Y100226D02*
X604212Y85200D01*
X604212Y100226D02*
X608638Y100226D01*
X608638Y85200D01*
X604212Y85200D01*
X604212Y86601D02*
X608638Y86601D01*
X608638Y88002D02*
X604212Y88002D01*
X604212Y89403D02*
X608638Y89403D01*
X608638Y90804D02*
X604212Y90804D01*
X604212Y92205D02*
X608638Y92205D01*
X608638Y93606D02*
X604212Y93606D01*
X604212Y95007D02*
X608638Y95007D01*
X608638Y96408D02*
X604212Y96408D01*
X604212Y97809D02*
X608638Y97809D01*
X608638Y99210D02*
X604212Y99210D01*
X616912Y100226D02*
X616912Y85200D01*
X616912Y100226D02*
X621338Y100226D01*
X621338Y85200D01*
X616912Y85200D01*
X616912Y86601D02*
X621338Y86601D01*
X621338Y88002D02*
X616912Y88002D01*
X616912Y89403D02*
X621338Y89403D01*
X621338Y90804D02*
X616912Y90804D01*
X616912Y92205D02*
X621338Y92205D01*
X621338Y93606D02*
X616912Y93606D01*
X616912Y95007D02*
X621338Y95007D01*
X621338Y96408D02*
X616912Y96408D01*
X616912Y97809D02*
X621338Y97809D01*
X621338Y99210D02*
X616912Y99210D01*
X629612Y100226D02*
X629612Y85200D01*
X629612Y100226D02*
X634038Y100226D01*
X634038Y85200D01*
X629612Y85200D01*
X629612Y86601D02*
X634038Y86601D01*
X634038Y88002D02*
X629612Y88002D01*
X629612Y89403D02*
X634038Y89403D01*
X634038Y90804D02*
X629612Y90804D01*
X629612Y92205D02*
X634038Y92205D01*
X634038Y93606D02*
X629612Y93606D01*
X629612Y95007D02*
X634038Y95007D01*
X634038Y96408D02*
X629612Y96408D01*
X629612Y97809D02*
X634038Y97809D01*
X634038Y99210D02*
X629612Y99210D01*
D16*
X658525Y168275D03*
X630525Y168275D03*
D11*
X608013Y194975D03*
X608013Y166975D03*
X612775Y64800D03*
X612775Y36800D03*
D13*
X635000Y64800D03*
X635000Y36800D03*
X584200Y194975D03*
X584200Y166975D03*
D11*
X588963Y64800D03*
X588963Y36800D03*
D21*
X925390Y468313D03*
X925390Y455613D03*
X925390Y442913D03*
X925390Y430213D03*
X925390Y417513D03*
X925390Y404813D03*
X925390Y392113D03*
X925390Y379413D03*
X992310Y379413D03*
X992310Y392113D03*
X992310Y404813D03*
X992310Y417513D03*
X992310Y430213D03*
X992310Y442913D03*
X992310Y455613D03*
X992310Y468313D03*
X926978Y144463D03*
X926978Y131763D03*
X926978Y119063D03*
X926978Y106363D03*
X926978Y93663D03*
X926978Y80963D03*
X926978Y68263D03*
X926978Y55563D03*
X993898Y55563D03*
X993898Y68263D03*
X993898Y80963D03*
X993898Y93663D03*
X993898Y106363D03*
X993898Y119063D03*
X993898Y131763D03*
X993898Y144463D03*
D22*
X20250Y214288D03*
X20250Y204788D03*
X20250Y195288D03*
X43250Y195288D03*
X43250Y204788D03*
X43250Y214288D03*
D23*
X512575Y39688D03*
X560575Y39688D03*
X512575Y112713D03*
X560575Y112713D03*
D22*
X58350Y214288D03*
X58350Y204788D03*
X58350Y195288D03*
X81350Y195288D03*
X81350Y204788D03*
X81350Y214288D03*
D24*
X57083Y296863D03*
X28643Y296863D03*
X57083Y273050D03*
X28643Y273050D03*
X57083Y249238D03*
X28643Y249238D03*
D25*
X71438Y352358D03*
X71438Y323918D03*
X47625Y352358D03*
X47625Y323918D03*
X23813Y352358D03*
X23813Y323918D03*
X44450Y172970D03*
X44450Y144530D03*
X22225Y172970D03*
X22225Y144530D03*
X66675Y144530D03*
X66675Y172970D03*
D17*
X689188Y68850D03*
X785188Y69350D03*
D26*
X906463Y531625D03*
X906463Y579625D03*
M02*
