G04 EAGLE Gerber RS-274X export*
G75*
%MOMM*%
%FSLAX34Y34*%
%LPD*%
%AMOC8*
5,1,8,0,0,1.08239X$1,22.5*%
G01*
%ADD10C,3.203194*%
%ADD11C,2.387600*%
%ADD12R,2.184400X0.762000*%
%ADD13R,2.003200X1.803200*%
%ADD14R,1.803200X2.203200*%
%ADD15R,2.203200X1.803200*%
%ADD16C,1.711200*%
%ADD17C,1.727200*%
%ADD18R,3.703200X0.623200*%
%ADD19R,6.503200X14.203200*%
%ADD20C,4.013200*%
%ADD21P,2.034460X8X22.500000*%
%ADD22P,2.034460X8X292.500000*%
%ADD23R,1.803200X2.003200*%
%ADD24R,3.103200X5.603200*%
%ADD25R,2.003200X1.903200*%
%ADD26C,0.349006*%
%ADD27R,3.303200X2.613200*%
%ADD28C,5.719200*%
%ADD29R,1.703200X0.903200*%
%ADD30R,1.103200X0.803200*%
%ADD31R,3.203200X1.603200*%
%ADD32R,1.803200X2.006200*%
%ADD33R,2.006200X1.803200*%
%ADD34R,1.603200X3.203200*%
%ADD35C,0.959600*%
%ADD36C,0.990600*%
%ADD37C,1.117600*%
%ADD38C,1.727200*%
%ADD39C,1.371600*%
%ADD40C,1.219200*%
%ADD41C,1.473200*%


D10*
X25400Y685800D03*
X25400Y25400D03*
X990600Y25400D03*
X990600Y685800D03*
D11*
X826550Y666750D03*
X861550Y666750D03*
X912275Y666750D03*
X947275Y666750D03*
D12*
X724662Y533400D03*
X724662Y520700D03*
X724662Y508000D03*
X724662Y495300D03*
X773938Y495300D03*
X773938Y508000D03*
X773938Y520700D03*
X773938Y533400D03*
D13*
X347663Y618838D03*
X347663Y590838D03*
X673100Y474950D03*
X673100Y502950D03*
X698500Y474950D03*
X698500Y502950D03*
D14*
X767050Y558800D03*
X795050Y558800D03*
X661700Y533400D03*
X633700Y533400D03*
X292388Y615950D03*
X320388Y615950D03*
D15*
X246063Y592425D03*
X246063Y620425D03*
D16*
X444500Y544115D02*
X444500Y529035D01*
X419100Y529035D02*
X419100Y544115D01*
X393700Y544115D02*
X393700Y529035D01*
X368300Y529035D02*
X368300Y544115D01*
X342900Y544115D02*
X342900Y529035D01*
X317500Y529035D02*
X317500Y544115D01*
X292100Y544115D02*
X292100Y529035D01*
X266700Y529035D02*
X266700Y544115D01*
X241300Y544115D02*
X241300Y529035D01*
X215900Y529035D02*
X215900Y544115D01*
X190500Y544115D02*
X190500Y529035D01*
X165100Y529035D02*
X165100Y544115D01*
X77788Y665560D02*
X77788Y680640D01*
X103188Y680640D02*
X103188Y665560D01*
D13*
X800100Y528350D03*
X800100Y500350D03*
X825500Y528350D03*
X825500Y500350D03*
X190500Y590838D03*
X190500Y618838D03*
X165100Y590838D03*
X165100Y618838D03*
D15*
X381000Y617250D03*
X381000Y589250D03*
D14*
X716250Y558800D03*
X744250Y558800D03*
D17*
X194945Y193675D02*
X179705Y193675D01*
X179705Y219075D02*
X194945Y219075D01*
X194945Y244475D02*
X179705Y244475D01*
X179705Y269875D02*
X194945Y269875D01*
X194945Y295275D02*
X179705Y295275D01*
X179705Y320675D02*
X194945Y320675D01*
X194945Y346075D02*
X179705Y346075D01*
X179705Y371475D02*
X194945Y371475D01*
X194945Y396875D02*
X179705Y396875D01*
X179705Y422275D02*
X194945Y422275D01*
X796925Y422275D02*
X812165Y422275D01*
X812165Y396875D02*
X796925Y396875D01*
X796925Y371475D02*
X812165Y371475D01*
X812165Y346075D02*
X796925Y346075D01*
X796925Y320675D02*
X812165Y320675D01*
X812165Y295275D02*
X796925Y295275D01*
X796925Y269875D02*
X812165Y269875D01*
X812165Y244475D02*
X796925Y244475D01*
X796925Y219075D02*
X812165Y219075D01*
X812165Y193675D02*
X796925Y193675D01*
D16*
X862410Y60325D02*
X877490Y60325D01*
X877490Y85725D02*
X862410Y85725D01*
X862410Y111125D02*
X877490Y111125D01*
X877490Y136525D02*
X862410Y136525D01*
X862410Y161925D02*
X877490Y161925D01*
X877490Y187325D02*
X862410Y187325D01*
X862410Y212725D02*
X877490Y212725D01*
X877490Y238125D02*
X862410Y238125D01*
X862410Y273050D02*
X877490Y273050D01*
X877490Y298450D02*
X862410Y298450D01*
X862410Y323850D02*
X877490Y323850D01*
X877490Y349250D02*
X862410Y349250D01*
X862410Y374650D02*
X877490Y374650D01*
X877490Y400050D02*
X862410Y400050D01*
X862410Y425450D02*
X877490Y425450D01*
X877490Y450850D02*
X862410Y450850D01*
D18*
X425430Y177800D03*
X425430Y184300D03*
X425430Y190640D03*
X425430Y196840D03*
X425430Y203340D03*
X425430Y209680D03*
X425430Y215880D03*
X425430Y222380D03*
X425430Y228720D03*
X425430Y234920D03*
X425430Y241420D03*
X425430Y247620D03*
X425430Y254120D03*
X425430Y260460D03*
X425430Y266660D03*
X425430Y273160D03*
X425430Y279500D03*
X425430Y285700D03*
X269940Y285700D03*
X269940Y279200D03*
X269940Y273000D03*
X269940Y266500D03*
X269940Y260300D03*
X269940Y253800D03*
X269940Y247600D03*
X269940Y241100D03*
X269940Y234900D03*
X269940Y228400D03*
X269940Y222200D03*
X269940Y215700D03*
X269940Y209500D03*
X269940Y203000D03*
D19*
X348085Y231770D03*
D18*
X269940Y196820D03*
X269940Y190320D03*
X269940Y183980D03*
X269940Y177640D03*
X425430Y323850D03*
X425430Y330350D03*
X425430Y336690D03*
X425430Y342890D03*
X425430Y349390D03*
X425430Y355730D03*
X425430Y361930D03*
X425430Y368430D03*
X425430Y374770D03*
X425430Y380970D03*
X425430Y387470D03*
X425430Y393670D03*
X425430Y400170D03*
X425430Y406510D03*
X425430Y412710D03*
X425430Y419210D03*
X425430Y425550D03*
X425430Y431750D03*
X269940Y431750D03*
X269940Y425250D03*
X269940Y419050D03*
X269940Y412550D03*
X269940Y406350D03*
X269940Y399850D03*
X269940Y393650D03*
X269940Y387150D03*
X269940Y380950D03*
X269940Y374450D03*
X269940Y368250D03*
X269940Y361750D03*
X269940Y355550D03*
X269940Y349050D03*
D19*
X348085Y377820D03*
D18*
X269940Y342870D03*
X269940Y336370D03*
X269940Y330030D03*
X269940Y323690D03*
D20*
X114300Y554482D03*
X495300Y554482D03*
D11*
X764375Y671513D03*
X714375Y671513D03*
X664375Y671513D03*
X259813Y671513D03*
X294813Y671513D03*
X166150Y671513D03*
X201150Y671513D03*
D16*
X546100Y665560D02*
X546100Y680640D01*
X571500Y680640D02*
X571500Y665560D01*
X485775Y665560D02*
X485775Y680640D01*
X511175Y680640D02*
X511175Y665560D01*
D21*
X53975Y403225D03*
X53975Y428625D03*
X79375Y403225D03*
X79375Y428625D03*
X104775Y403225D03*
X104775Y428625D03*
X130175Y403225D03*
X130175Y428625D03*
D22*
X104775Y371475D03*
X130175Y371475D03*
X104775Y346075D03*
X130175Y346075D03*
X104775Y320675D03*
X130175Y320675D03*
X104775Y295275D03*
X130175Y295275D03*
X104775Y269875D03*
X130175Y269875D03*
X104775Y244475D03*
X130175Y244475D03*
X104775Y219075D03*
X130175Y219075D03*
X104775Y193675D03*
X130175Y193675D03*
X104775Y168275D03*
X130175Y168275D03*
X104775Y142875D03*
X130175Y142875D03*
X104775Y117475D03*
X130175Y117475D03*
X104775Y92075D03*
X130175Y92075D03*
X104775Y66675D03*
X130175Y66675D03*
X104775Y41275D03*
X130175Y41275D03*
D11*
X402688Y669925D03*
X437688Y669925D03*
D12*
X247841Y107950D03*
X247841Y95250D03*
X247841Y82550D03*
X247841Y69850D03*
X295085Y69850D03*
X295085Y82550D03*
X295085Y95250D03*
X295085Y107950D03*
D23*
X279113Y138113D03*
X251113Y138113D03*
D24*
X378038Y68850D03*
X474038Y69350D03*
D25*
X303350Y131763D03*
X344350Y131763D03*
D23*
X225138Y103188D03*
X197138Y103188D03*
D14*
X268575Y47625D03*
X296575Y47625D03*
X217775Y46038D03*
X245775Y46038D03*
X225138Y74613D03*
X197138Y74613D03*
D15*
X322263Y78075D03*
X322263Y106075D03*
D13*
X350838Y106075D03*
X350838Y78075D03*
X976313Y547975D03*
X976313Y575975D03*
D23*
X934750Y503238D03*
X906750Y503238D03*
D26*
X629604Y152934D02*
X629604Y137892D01*
X629604Y152934D02*
X634046Y152934D01*
X634046Y137892D01*
X629604Y137892D01*
X629604Y141207D02*
X634046Y141207D01*
X634046Y144522D02*
X629604Y144522D01*
X629604Y147837D02*
X634046Y147837D01*
X634046Y151152D02*
X629604Y151152D01*
X616904Y152934D02*
X616904Y137892D01*
X616904Y152934D02*
X621346Y152934D01*
X621346Y137892D01*
X616904Y137892D01*
X616904Y141207D02*
X621346Y141207D01*
X621346Y144522D02*
X616904Y144522D01*
X616904Y147837D02*
X621346Y147837D01*
X621346Y151152D02*
X616904Y151152D01*
X604204Y152934D02*
X604204Y137892D01*
X604204Y152934D02*
X608646Y152934D01*
X608646Y137892D01*
X604204Y137892D01*
X604204Y141207D02*
X608646Y141207D01*
X608646Y144522D02*
X604204Y144522D01*
X604204Y147837D02*
X608646Y147837D01*
X608646Y151152D02*
X604204Y151152D01*
X591504Y152934D02*
X591504Y137892D01*
X591504Y152934D02*
X595946Y152934D01*
X595946Y137892D01*
X591504Y137892D01*
X591504Y141207D02*
X595946Y141207D01*
X595946Y144522D02*
X591504Y144522D01*
X591504Y147837D02*
X595946Y147837D01*
X595946Y151152D02*
X591504Y151152D01*
X591504Y100234D02*
X591504Y85192D01*
X591504Y100234D02*
X595946Y100234D01*
X595946Y85192D01*
X591504Y85192D01*
X591504Y88507D02*
X595946Y88507D01*
X595946Y91822D02*
X591504Y91822D01*
X591504Y95137D02*
X595946Y95137D01*
X595946Y98452D02*
X591504Y98452D01*
X604204Y100234D02*
X604204Y85192D01*
X604204Y100234D02*
X608646Y100234D01*
X608646Y85192D01*
X604204Y85192D01*
X604204Y88507D02*
X608646Y88507D01*
X608646Y91822D02*
X604204Y91822D01*
X604204Y95137D02*
X608646Y95137D01*
X608646Y98452D02*
X604204Y98452D01*
X616904Y100234D02*
X616904Y85192D01*
X616904Y100234D02*
X621346Y100234D01*
X621346Y85192D01*
X616904Y85192D01*
X616904Y88507D02*
X621346Y88507D01*
X621346Y91822D02*
X616904Y91822D01*
X616904Y95137D02*
X621346Y95137D01*
X621346Y98452D02*
X616904Y98452D01*
X629604Y100234D02*
X629604Y85192D01*
X629604Y100234D02*
X634046Y100234D01*
X634046Y85192D01*
X629604Y85192D01*
X629604Y88507D02*
X634046Y88507D01*
X634046Y91822D02*
X629604Y91822D01*
X629604Y95137D02*
X634046Y95137D01*
X634046Y98452D02*
X629604Y98452D01*
D27*
X612775Y119063D03*
D23*
X658525Y168275D03*
X630525Y168275D03*
D13*
X608013Y194975D03*
X608013Y166975D03*
X612775Y64800D03*
X612775Y36800D03*
D15*
X635000Y64800D03*
X635000Y36800D03*
X584200Y194975D03*
X584200Y166975D03*
D13*
X588963Y64800D03*
X588963Y36800D03*
D28*
X958850Y290513D03*
X958850Y233363D03*
D29*
X925390Y468313D03*
X925390Y455613D03*
X925390Y442913D03*
X925390Y430213D03*
X925390Y417513D03*
X925390Y404813D03*
X925390Y392113D03*
X925390Y379413D03*
X992310Y379413D03*
X992310Y392113D03*
X992310Y404813D03*
X992310Y417513D03*
X992310Y430213D03*
X992310Y442913D03*
X992310Y455613D03*
X992310Y468313D03*
X926978Y144463D03*
X926978Y131763D03*
X926978Y119063D03*
X926978Y106363D03*
X926978Y93663D03*
X926978Y80963D03*
X926978Y68263D03*
X926978Y55563D03*
X993898Y55563D03*
X993898Y68263D03*
X993898Y80963D03*
X993898Y93663D03*
X993898Y106363D03*
X993898Y119063D03*
X993898Y131763D03*
X993898Y144463D03*
D30*
X20250Y214288D03*
X20250Y204788D03*
X20250Y195288D03*
X43250Y195288D03*
X43250Y204788D03*
X43250Y214288D03*
D31*
X512575Y39688D03*
X560575Y39688D03*
X512575Y112713D03*
X560575Y112713D03*
D30*
X58350Y214288D03*
X58350Y204788D03*
X58350Y195288D03*
X81350Y195288D03*
X81350Y204788D03*
X81350Y214288D03*
D32*
X57083Y296863D03*
X28643Y296863D03*
X57083Y273050D03*
X28643Y273050D03*
X57083Y249238D03*
X28643Y249238D03*
D33*
X71438Y352358D03*
X71438Y323918D03*
X47625Y352358D03*
X47625Y323918D03*
X23813Y352358D03*
X23813Y323918D03*
X44450Y172970D03*
X44450Y144530D03*
X22225Y172970D03*
X22225Y144530D03*
X66675Y144530D03*
X66675Y172970D03*
D24*
X689188Y68850D03*
X785188Y69350D03*
D34*
X906463Y531625D03*
X906463Y579625D03*
D35*
X201613Y46038D03*
X971550Y423863D03*
D36*
X347663Y63500D03*
D35*
X14288Y223838D03*
X31750Y188913D03*
X863600Y506413D03*
X817563Y568325D03*
X15875Y487363D03*
X15875Y471488D03*
D37*
X347663Y676275D03*
X854075Y22225D03*
X42863Y68263D03*
D35*
X850900Y527050D03*
X301625Y307975D03*
X944563Y615950D03*
D38*
X392113Y304800D03*
D35*
X34748Y222073D03*
X22225Y157836D03*
X566738Y61913D03*
X504825Y76200D03*
X785879Y115888D03*
X906463Y615950D03*
D37*
X642938Y474663D03*
D35*
X82550Y180975D03*
D39*
X598488Y688975D03*
X661988Y563563D03*
D35*
X848664Y454964D03*
D40*
X140225Y451913D03*
X125413Y452438D03*
D41*
X225138Y128588D03*
D35*
X665163Y57150D03*
X931863Y479425D03*
X906463Y479425D03*
X650875Y68263D03*
X579438Y141288D03*
M02*
