G04 EAGLE Gerber RS-274X export*
G75*
%MOMM*%
%FSLAX34Y34*%
%LPD*%
%AMOC8*
5,1,8,0,0,1.08239X$1,22.5*%
G01*
%ADD10C,3.203194*%
%ADD11C,2.387600*%
%ADD12C,1.711200*%
%ADD13C,1.727200*%
%ADD14C,4.013200*%
%ADD15P,2.034460X8X22.500000*%
%ADD16P,2.034460X8X292.500000*%
%ADD17R,0.863600X2.235200*%
%ADD18C,5.719200*%
%ADD19C,0.959600*%
%ADD20C,0.990600*%
%ADD21C,1.117600*%
%ADD22C,1.727200*%
%ADD23C,1.371600*%
%ADD24C,1.219200*%
%ADD25C,1.473200*%


D10*
X25400Y685800D03*
X25400Y25400D03*
X990600Y25400D03*
X990600Y685800D03*
D11*
X826550Y666750D03*
X861550Y666750D03*
X912275Y666750D03*
X947275Y666750D03*
D12*
X444500Y544115D02*
X444500Y529035D01*
X419100Y529035D02*
X419100Y544115D01*
X393700Y544115D02*
X393700Y529035D01*
X368300Y529035D02*
X368300Y544115D01*
X342900Y544115D02*
X342900Y529035D01*
X317500Y529035D02*
X317500Y544115D01*
X292100Y544115D02*
X292100Y529035D01*
X266700Y529035D02*
X266700Y544115D01*
X241300Y544115D02*
X241300Y529035D01*
X215900Y529035D02*
X215900Y544115D01*
X190500Y544115D02*
X190500Y529035D01*
X165100Y529035D02*
X165100Y544115D01*
X77788Y665560D02*
X77788Y680640D01*
X103188Y680640D02*
X103188Y665560D01*
D13*
X179705Y193675D02*
X194945Y193675D01*
X194945Y219075D02*
X179705Y219075D01*
X179705Y244475D02*
X194945Y244475D01*
X194945Y269875D02*
X179705Y269875D01*
X179705Y295275D02*
X194945Y295275D01*
X194945Y320675D02*
X179705Y320675D01*
X179705Y346075D02*
X194945Y346075D01*
X194945Y371475D02*
X179705Y371475D01*
X179705Y396875D02*
X194945Y396875D01*
X194945Y422275D02*
X179705Y422275D01*
X796925Y422275D02*
X812165Y422275D01*
X812165Y396875D02*
X796925Y396875D01*
X796925Y371475D02*
X812165Y371475D01*
X812165Y346075D02*
X796925Y346075D01*
X796925Y320675D02*
X812165Y320675D01*
X812165Y295275D02*
X796925Y295275D01*
X796925Y269875D02*
X812165Y269875D01*
X812165Y244475D02*
X796925Y244475D01*
X796925Y219075D02*
X812165Y219075D01*
X812165Y193675D02*
X796925Y193675D01*
D12*
X862410Y60325D02*
X877490Y60325D01*
X877490Y85725D02*
X862410Y85725D01*
X862410Y111125D02*
X877490Y111125D01*
X877490Y136525D02*
X862410Y136525D01*
X862410Y161925D02*
X877490Y161925D01*
X877490Y187325D02*
X862410Y187325D01*
X862410Y212725D02*
X877490Y212725D01*
X877490Y238125D02*
X862410Y238125D01*
X862410Y273050D02*
X877490Y273050D01*
X877490Y298450D02*
X862410Y298450D01*
X862410Y323850D02*
X877490Y323850D01*
X877490Y349250D02*
X862410Y349250D01*
X862410Y374650D02*
X877490Y374650D01*
X877490Y400050D02*
X862410Y400050D01*
X862410Y425450D02*
X877490Y425450D01*
X877490Y450850D02*
X862410Y450850D01*
D14*
X114300Y554482D03*
X495300Y554482D03*
D11*
X764375Y671513D03*
X714375Y671513D03*
X664375Y671513D03*
X259813Y671513D03*
X294813Y671513D03*
X166150Y671513D03*
X201150Y671513D03*
D12*
X546100Y665560D02*
X546100Y680640D01*
X571500Y680640D02*
X571500Y665560D01*
X485775Y665560D02*
X485775Y680640D01*
X511175Y680640D02*
X511175Y665560D01*
D15*
X53975Y403225D03*
X53975Y428625D03*
X79375Y403225D03*
X79375Y428625D03*
X104775Y403225D03*
X104775Y428625D03*
X130175Y403225D03*
X130175Y428625D03*
D16*
X104775Y371475D03*
X130175Y371475D03*
X104775Y346075D03*
X130175Y346075D03*
X104775Y320675D03*
X130175Y320675D03*
X104775Y295275D03*
X130175Y295275D03*
X104775Y269875D03*
X130175Y269875D03*
X104775Y244475D03*
X130175Y244475D03*
X104775Y219075D03*
X130175Y219075D03*
X104775Y193675D03*
X130175Y193675D03*
X104775Y168275D03*
X130175Y168275D03*
X104775Y142875D03*
X130175Y142875D03*
X104775Y117475D03*
X130175Y117475D03*
X104775Y92075D03*
X130175Y92075D03*
X104775Y66675D03*
X130175Y66675D03*
X104775Y41275D03*
X130175Y41275D03*
D11*
X402688Y669925D03*
X437688Y669925D03*
D17*
X969963Y501841D03*
X957263Y501841D03*
X944563Y501841D03*
X931863Y501841D03*
X919163Y501841D03*
X906463Y501841D03*
X893763Y501841D03*
X881063Y501841D03*
X881063Y599885D03*
X893763Y599885D03*
X906463Y599885D03*
X919163Y599885D03*
X931863Y599885D03*
X944563Y599885D03*
X957263Y599885D03*
X969963Y599885D03*
D18*
X958850Y290513D03*
X958850Y233363D03*
D19*
X201613Y46038D03*
X971550Y423863D03*
D20*
X347663Y63500D03*
D19*
X14288Y223838D03*
X31750Y188913D03*
X863600Y506413D03*
X817563Y568325D03*
X15875Y487363D03*
X15875Y471488D03*
D21*
X347663Y676275D03*
X854075Y22225D03*
X42863Y68263D03*
D19*
X850900Y527050D03*
X301625Y307975D03*
X944563Y615950D03*
D22*
X392113Y304800D03*
D19*
X34748Y222073D03*
X22225Y157836D03*
X566738Y61913D03*
X504825Y76200D03*
X785879Y115888D03*
X906463Y615950D03*
D21*
X642938Y474663D03*
D19*
X82550Y180975D03*
D23*
X598488Y688975D03*
X661988Y563563D03*
D19*
X848664Y454964D03*
D24*
X140225Y451913D03*
X125413Y452438D03*
D25*
X225138Y128588D03*
D19*
X665163Y57150D03*
X931863Y479425D03*
X906463Y479425D03*
X650875Y68263D03*
X579438Y141288D03*
M02*
