G04 EAGLE Gerber RS-274X export*
G75*
%MOMM*%
%FSLAX34Y34*%
%LPD*%
%AMOC8*
5,1,8,0,0,1.08239X$1,22.5*%
G01*
%ADD10C,0.050800*%
%ADD11C,0.152400*%
%ADD12C,0.025400*%
%ADD13C,0.000000*%


D10*
X-39624Y2794D02*
X-40894Y2794D01*
X-40964Y2796D01*
X-41034Y2802D01*
X-41103Y2811D01*
X-41172Y2825D01*
X-41240Y2842D01*
X-41306Y2863D01*
X-41372Y2887D01*
X-41436Y2915D01*
X-41498Y2947D01*
X-41559Y2982D01*
X-41618Y3020D01*
X-41674Y3062D01*
X-41728Y3106D01*
X-41780Y3154D01*
X-41828Y3204D01*
X-41874Y3257D01*
X-41917Y3312D01*
X-41957Y3369D01*
X-41994Y3429D01*
X-42027Y3491D01*
X-42057Y3554D01*
X-42083Y3619D01*
X-42106Y3685D01*
X-42125Y3752D01*
X-42140Y3821D01*
X-42152Y3890D01*
X-42160Y3959D01*
X-42164Y4029D01*
X-42164Y4099D01*
X-42160Y4169D01*
X-42152Y4238D01*
X-42140Y4307D01*
X-42125Y4376D01*
X-42106Y4443D01*
X-42083Y4509D01*
X-42057Y4574D01*
X-42027Y4637D01*
X-41994Y4699D01*
X-41957Y4759D01*
X-41917Y4816D01*
X-41874Y4871D01*
X-41828Y4924D01*
X-41780Y4974D01*
X-41728Y5022D01*
X-41674Y5066D01*
X-41618Y5108D01*
X-41559Y5146D01*
X-41498Y5181D01*
X-41436Y5213D01*
X-41372Y5241D01*
X-41306Y5265D01*
X-41240Y5286D01*
X-41172Y5303D01*
X-41103Y5317D01*
X-41034Y5326D01*
X-40964Y5332D01*
X-40894Y5334D01*
X-41148Y7366D02*
X-39624Y7366D01*
X-41148Y7366D02*
X-41211Y7364D01*
X-41273Y7358D01*
X-41335Y7349D01*
X-41396Y7335D01*
X-41456Y7318D01*
X-41515Y7297D01*
X-41573Y7273D01*
X-41629Y7245D01*
X-41683Y7214D01*
X-41735Y7179D01*
X-41785Y7142D01*
X-41832Y7101D01*
X-41877Y7057D01*
X-41920Y7011D01*
X-41959Y6962D01*
X-41995Y6911D01*
X-42028Y6858D01*
X-42057Y6803D01*
X-42084Y6746D01*
X-42106Y6688D01*
X-42125Y6628D01*
X-42140Y6567D01*
X-42152Y6506D01*
X-42160Y6444D01*
X-42164Y6381D01*
X-42164Y6319D01*
X-42160Y6256D01*
X-42152Y6194D01*
X-42140Y6133D01*
X-42125Y6072D01*
X-42106Y6012D01*
X-42084Y5954D01*
X-42057Y5897D01*
X-42028Y5842D01*
X-41995Y5789D01*
X-41959Y5738D01*
X-41920Y5689D01*
X-41877Y5643D01*
X-41832Y5599D01*
X-41785Y5558D01*
X-41735Y5521D01*
X-41683Y5486D01*
X-41629Y5455D01*
X-41573Y5427D01*
X-41515Y5403D01*
X-41456Y5382D01*
X-41396Y5365D01*
X-41335Y5351D01*
X-41273Y5342D01*
X-41211Y5336D01*
X-41148Y5334D01*
X-40132Y5334D01*
X-43967Y3048D02*
X-43967Y2794D01*
X-43967Y3048D02*
X-44221Y3048D01*
X-44221Y2794D01*
X-43967Y2794D01*
X-46025Y2794D02*
X-47295Y2794D01*
X-47365Y2796D01*
X-47435Y2802D01*
X-47504Y2811D01*
X-47573Y2825D01*
X-47641Y2842D01*
X-47707Y2863D01*
X-47773Y2887D01*
X-47837Y2915D01*
X-47899Y2947D01*
X-47960Y2982D01*
X-48019Y3020D01*
X-48075Y3062D01*
X-48129Y3106D01*
X-48181Y3154D01*
X-48229Y3204D01*
X-48275Y3257D01*
X-48318Y3312D01*
X-48358Y3369D01*
X-48395Y3429D01*
X-48428Y3491D01*
X-48458Y3554D01*
X-48484Y3619D01*
X-48507Y3685D01*
X-48526Y3752D01*
X-48541Y3821D01*
X-48553Y3890D01*
X-48561Y3959D01*
X-48565Y4029D01*
X-48565Y4099D01*
X-48561Y4169D01*
X-48553Y4238D01*
X-48541Y4307D01*
X-48526Y4376D01*
X-48507Y4443D01*
X-48484Y4509D01*
X-48458Y4574D01*
X-48428Y4637D01*
X-48395Y4699D01*
X-48358Y4759D01*
X-48318Y4816D01*
X-48275Y4871D01*
X-48229Y4924D01*
X-48181Y4974D01*
X-48129Y5022D01*
X-48075Y5066D01*
X-48019Y5108D01*
X-47960Y5146D01*
X-47899Y5181D01*
X-47837Y5213D01*
X-47773Y5241D01*
X-47707Y5265D01*
X-47641Y5286D01*
X-47573Y5303D01*
X-47504Y5317D01*
X-47435Y5326D01*
X-47365Y5332D01*
X-47295Y5334D01*
X-47549Y7366D02*
X-46025Y7366D01*
X-47549Y7366D02*
X-47612Y7364D01*
X-47674Y7358D01*
X-47736Y7349D01*
X-47797Y7335D01*
X-47857Y7318D01*
X-47916Y7297D01*
X-47974Y7273D01*
X-48030Y7245D01*
X-48084Y7214D01*
X-48136Y7179D01*
X-48186Y7142D01*
X-48233Y7101D01*
X-48278Y7057D01*
X-48321Y7011D01*
X-48360Y6962D01*
X-48396Y6911D01*
X-48429Y6858D01*
X-48458Y6803D01*
X-48485Y6746D01*
X-48507Y6688D01*
X-48526Y6628D01*
X-48541Y6567D01*
X-48553Y6506D01*
X-48561Y6444D01*
X-48565Y6381D01*
X-48565Y6319D01*
X-48561Y6256D01*
X-48553Y6194D01*
X-48541Y6133D01*
X-48526Y6072D01*
X-48507Y6012D01*
X-48485Y5954D01*
X-48458Y5897D01*
X-48429Y5842D01*
X-48396Y5789D01*
X-48360Y5738D01*
X-48321Y5689D01*
X-48278Y5643D01*
X-48233Y5599D01*
X-48186Y5558D01*
X-48136Y5521D01*
X-48084Y5486D01*
X-48030Y5455D01*
X-47974Y5427D01*
X-47916Y5403D01*
X-47857Y5382D01*
X-47797Y5365D01*
X-47736Y5351D01*
X-47674Y5342D01*
X-47612Y5336D01*
X-47549Y5334D01*
X-46533Y5334D01*
X-50343Y7366D02*
X-51867Y2794D01*
X-53391Y7366D01*
X-55372Y20574D02*
X-56134Y20574D01*
X-56134Y18034D01*
X-54610Y18034D01*
X-54549Y18036D01*
X-54488Y18041D01*
X-54427Y18051D01*
X-54367Y18064D01*
X-54308Y18080D01*
X-54250Y18100D01*
X-54193Y18124D01*
X-54138Y18150D01*
X-54084Y18181D01*
X-54033Y18214D01*
X-53983Y18250D01*
X-53936Y18290D01*
X-53892Y18332D01*
X-53850Y18376D01*
X-53810Y18423D01*
X-53774Y18473D01*
X-53741Y18524D01*
X-53710Y18578D01*
X-53684Y18633D01*
X-53660Y18690D01*
X-53640Y18748D01*
X-53624Y18807D01*
X-53611Y18867D01*
X-53601Y18928D01*
X-53596Y18989D01*
X-53594Y19050D01*
X-53594Y21590D01*
X-53596Y21651D01*
X-53601Y21712D01*
X-53611Y21773D01*
X-53624Y21833D01*
X-53640Y21892D01*
X-53660Y21950D01*
X-53684Y22007D01*
X-53710Y22062D01*
X-53741Y22116D01*
X-53774Y22167D01*
X-53810Y22217D01*
X-53850Y22264D01*
X-53892Y22308D01*
X-53936Y22350D01*
X-53983Y22390D01*
X-54033Y22426D01*
X-54084Y22459D01*
X-54138Y22490D01*
X-54193Y22516D01*
X-54250Y22540D01*
X-54308Y22560D01*
X-54367Y22576D01*
X-54427Y22589D01*
X-54488Y22599D01*
X-54549Y22604D01*
X-54610Y22606D01*
X-56134Y22606D01*
X-58471Y22606D02*
X-58471Y18034D01*
X-61011Y18034D02*
X-58471Y22606D01*
X-61011Y22606D02*
X-61011Y18034D01*
X-63348Y18034D02*
X-63348Y22606D01*
X-64618Y22606D01*
X-64687Y22604D01*
X-64755Y22599D01*
X-64823Y22589D01*
X-64891Y22576D01*
X-64958Y22560D01*
X-65024Y22540D01*
X-65088Y22516D01*
X-65151Y22489D01*
X-65213Y22458D01*
X-65273Y22424D01*
X-65331Y22387D01*
X-65387Y22347D01*
X-65440Y22304D01*
X-65491Y22258D01*
X-65540Y22209D01*
X-65586Y22158D01*
X-65629Y22105D01*
X-65669Y22049D01*
X-65706Y21991D01*
X-65740Y21931D01*
X-65771Y21869D01*
X-65798Y21806D01*
X-65822Y21742D01*
X-65842Y21676D01*
X-65858Y21609D01*
X-65871Y21541D01*
X-65881Y21473D01*
X-65886Y21405D01*
X-65888Y21336D01*
X-65888Y19304D01*
X-65886Y19235D01*
X-65881Y19167D01*
X-65871Y19099D01*
X-65858Y19031D01*
X-65842Y18964D01*
X-65822Y18898D01*
X-65798Y18834D01*
X-65771Y18771D01*
X-65740Y18709D01*
X-65706Y18649D01*
X-65669Y18591D01*
X-65629Y18535D01*
X-65586Y18482D01*
X-65540Y18431D01*
X-65491Y18382D01*
X-65440Y18336D01*
X-65387Y18293D01*
X-65331Y18253D01*
X-65273Y18216D01*
X-65213Y18182D01*
X-65151Y18151D01*
X-65088Y18124D01*
X-65024Y18100D01*
X-64958Y18080D01*
X-64891Y18064D01*
X-64823Y18051D01*
X-64755Y18041D01*
X-64687Y18036D01*
X-64618Y18034D01*
X-63348Y18034D01*
X-75438Y9144D02*
X-75499Y9146D01*
X-75560Y9151D01*
X-75621Y9161D01*
X-75681Y9174D01*
X-75740Y9190D01*
X-75798Y9210D01*
X-75855Y9234D01*
X-75910Y9260D01*
X-75964Y9291D01*
X-76015Y9324D01*
X-76065Y9360D01*
X-76112Y9400D01*
X-76156Y9442D01*
X-76198Y9486D01*
X-76238Y9533D01*
X-76274Y9583D01*
X-76307Y9634D01*
X-76338Y9688D01*
X-76364Y9743D01*
X-76388Y9800D01*
X-76408Y9858D01*
X-76424Y9917D01*
X-76437Y9977D01*
X-76447Y10038D01*
X-76452Y10099D01*
X-76454Y10160D01*
X-75438Y9144D02*
X-75349Y9146D01*
X-75260Y9151D01*
X-75171Y9161D01*
X-75083Y9174D01*
X-74995Y9190D01*
X-74908Y9210D01*
X-74823Y9234D01*
X-74738Y9262D01*
X-74654Y9292D01*
X-74572Y9327D01*
X-74491Y9364D01*
X-74412Y9405D01*
X-74334Y9450D01*
X-74259Y9497D01*
X-74185Y9548D01*
X-74114Y9601D01*
X-74045Y9658D01*
X-73978Y9717D01*
X-73914Y9779D01*
X-74041Y12700D02*
X-74043Y12761D01*
X-74048Y12822D01*
X-74058Y12883D01*
X-74071Y12943D01*
X-74087Y13002D01*
X-74107Y13060D01*
X-74131Y13117D01*
X-74157Y13172D01*
X-74188Y13226D01*
X-74221Y13277D01*
X-74257Y13327D01*
X-74297Y13374D01*
X-74339Y13418D01*
X-74383Y13460D01*
X-74430Y13500D01*
X-74480Y13536D01*
X-74531Y13569D01*
X-74585Y13600D01*
X-74640Y13626D01*
X-74697Y13650D01*
X-74755Y13670D01*
X-74814Y13686D01*
X-74874Y13699D01*
X-74935Y13709D01*
X-74996Y13714D01*
X-75057Y13716D01*
X-75139Y13714D01*
X-75220Y13709D01*
X-75301Y13700D01*
X-75382Y13688D01*
X-75462Y13672D01*
X-75542Y13653D01*
X-75621Y13631D01*
X-75698Y13605D01*
X-75774Y13576D01*
X-75849Y13543D01*
X-75923Y13508D01*
X-75995Y13469D01*
X-76065Y13427D01*
X-76134Y13383D01*
X-76200Y13335D01*
X-74549Y11811D02*
X-74496Y11845D01*
X-74445Y11881D01*
X-74396Y11921D01*
X-74350Y11964D01*
X-74306Y12010D01*
X-74265Y12058D01*
X-74228Y12108D01*
X-74193Y12161D01*
X-74162Y12216D01*
X-74134Y12272D01*
X-74110Y12330D01*
X-74089Y12390D01*
X-74072Y12450D01*
X-74058Y12512D01*
X-74049Y12574D01*
X-74043Y12637D01*
X-74041Y12700D01*
X-75946Y11049D02*
X-75999Y11015D01*
X-76050Y10979D01*
X-76099Y10939D01*
X-76145Y10896D01*
X-76189Y10850D01*
X-76230Y10802D01*
X-76267Y10752D01*
X-76302Y10699D01*
X-76333Y10644D01*
X-76361Y10588D01*
X-76385Y10530D01*
X-76406Y10470D01*
X-76423Y10410D01*
X-76437Y10348D01*
X-76446Y10286D01*
X-76452Y10223D01*
X-76454Y10160D01*
X-75946Y11049D02*
X-74549Y11811D01*
X-78689Y13716D02*
X-78689Y9144D01*
X-78181Y9144D02*
X-79197Y9144D01*
X-79197Y13716D02*
X-78181Y13716D01*
X-83007Y11684D02*
X-83769Y11684D01*
X-83769Y9144D01*
X-82245Y9144D01*
X-82184Y9146D01*
X-82123Y9151D01*
X-82062Y9161D01*
X-82002Y9174D01*
X-81943Y9190D01*
X-81885Y9210D01*
X-81828Y9234D01*
X-81773Y9260D01*
X-81719Y9291D01*
X-81668Y9324D01*
X-81618Y9360D01*
X-81571Y9400D01*
X-81527Y9442D01*
X-81485Y9486D01*
X-81445Y9533D01*
X-81409Y9583D01*
X-81376Y9634D01*
X-81345Y9688D01*
X-81319Y9743D01*
X-81295Y9800D01*
X-81275Y9858D01*
X-81259Y9917D01*
X-81246Y9977D01*
X-81236Y10038D01*
X-81231Y10099D01*
X-81229Y10160D01*
X-81229Y12700D01*
X-81231Y12761D01*
X-81236Y12822D01*
X-81246Y12883D01*
X-81259Y12943D01*
X-81275Y13002D01*
X-81295Y13060D01*
X-81319Y13117D01*
X-81345Y13172D01*
X-81376Y13226D01*
X-81409Y13277D01*
X-81445Y13327D01*
X-81485Y13374D01*
X-81527Y13418D01*
X-81571Y13460D01*
X-81618Y13500D01*
X-81668Y13536D01*
X-81719Y13569D01*
X-81773Y13600D01*
X-81828Y13626D01*
X-81885Y13650D01*
X-81943Y13670D01*
X-82002Y13686D01*
X-82062Y13699D01*
X-82123Y13709D01*
X-82184Y13714D01*
X-82245Y13716D01*
X-83769Y13716D01*
D11*
X118788Y26195D02*
X136988Y26195D01*
X136988Y-4245D02*
X118788Y-4245D01*
D12*
X115191Y9482D02*
X113540Y9482D01*
X113491Y9484D01*
X113443Y9489D01*
X113395Y9499D01*
X113348Y9512D01*
X113303Y9528D01*
X113258Y9548D01*
X113216Y9571D01*
X113175Y9598D01*
X113136Y9627D01*
X113100Y9659D01*
X113066Y9695D01*
X113035Y9732D01*
X113007Y9772D01*
X112982Y9814D01*
X112961Y9857D01*
X112942Y9902D01*
X112928Y9949D01*
X112917Y9996D01*
X112909Y10044D01*
X112905Y10093D01*
X112905Y10141D01*
X112909Y10190D01*
X112917Y10238D01*
X112928Y10285D01*
X112942Y10332D01*
X112961Y10377D01*
X112982Y10420D01*
X113007Y10462D01*
X113035Y10502D01*
X113066Y10539D01*
X113100Y10575D01*
X113136Y10607D01*
X113175Y10636D01*
X113216Y10663D01*
X113258Y10686D01*
X113303Y10706D01*
X113348Y10722D01*
X113395Y10735D01*
X113443Y10745D01*
X113491Y10750D01*
X113540Y10752D01*
X115191Y10752D01*
X114683Y11844D02*
X115191Y12479D01*
X112905Y12479D01*
X112905Y11844D02*
X112905Y13114D01*
D11*
X57209Y-7544D02*
X54161Y-7544D01*
X48065Y-7544D01*
X45017Y-7544D01*
D13*
X48065Y-7544D02*
X48067Y-7435D01*
X48073Y-7327D01*
X48082Y-7218D01*
X48096Y-7110D01*
X48113Y-7003D01*
X48135Y-6896D01*
X48160Y-6790D01*
X48188Y-6685D01*
X48221Y-6581D01*
X48257Y-6479D01*
X48297Y-6378D01*
X48340Y-6278D01*
X48387Y-6180D01*
X48438Y-6083D01*
X48492Y-5989D01*
X48549Y-5896D01*
X48609Y-5806D01*
X48673Y-5717D01*
X48740Y-5631D01*
X48809Y-5548D01*
X48882Y-5467D01*
X48958Y-5389D01*
X49036Y-5313D01*
X49117Y-5240D01*
X49200Y-5171D01*
X49286Y-5104D01*
X49375Y-5040D01*
X49465Y-4980D01*
X49558Y-4923D01*
X49652Y-4869D01*
X49749Y-4818D01*
X49847Y-4771D01*
X49947Y-4728D01*
X50048Y-4688D01*
X50150Y-4652D01*
X50254Y-4619D01*
X50359Y-4591D01*
X50465Y-4566D01*
X50572Y-4544D01*
X50679Y-4527D01*
X50787Y-4513D01*
X50896Y-4504D01*
X51004Y-4498D01*
X51113Y-4496D01*
X51222Y-4498D01*
X51330Y-4504D01*
X51439Y-4513D01*
X51547Y-4527D01*
X51654Y-4544D01*
X51761Y-4566D01*
X51867Y-4591D01*
X51972Y-4619D01*
X52076Y-4652D01*
X52178Y-4688D01*
X52279Y-4728D01*
X52379Y-4771D01*
X52477Y-4818D01*
X52574Y-4869D01*
X52668Y-4923D01*
X52761Y-4980D01*
X52851Y-5040D01*
X52940Y-5104D01*
X53026Y-5171D01*
X53109Y-5240D01*
X53190Y-5313D01*
X53268Y-5389D01*
X53344Y-5467D01*
X53417Y-5548D01*
X53486Y-5631D01*
X53553Y-5717D01*
X53617Y-5806D01*
X53677Y-5896D01*
X53734Y-5989D01*
X53788Y-6083D01*
X53839Y-6180D01*
X53886Y-6278D01*
X53929Y-6378D01*
X53969Y-6479D01*
X54005Y-6581D01*
X54038Y-6685D01*
X54066Y-6790D01*
X54091Y-6896D01*
X54113Y-7003D01*
X54130Y-7110D01*
X54144Y-7218D01*
X54153Y-7327D01*
X54159Y-7435D01*
X54161Y-7544D01*
D12*
X49503Y-10630D02*
X49503Y-12281D01*
X49503Y-10630D02*
X49505Y-10581D01*
X49510Y-10533D01*
X49520Y-10485D01*
X49533Y-10438D01*
X49549Y-10393D01*
X49569Y-10348D01*
X49592Y-10306D01*
X49619Y-10265D01*
X49648Y-10226D01*
X49680Y-10190D01*
X49716Y-10156D01*
X49753Y-10125D01*
X49793Y-10097D01*
X49835Y-10072D01*
X49878Y-10051D01*
X49923Y-10032D01*
X49970Y-10018D01*
X50017Y-10007D01*
X50065Y-9999D01*
X50114Y-9995D01*
X50162Y-9995D01*
X50211Y-9999D01*
X50259Y-10007D01*
X50306Y-10018D01*
X50353Y-10032D01*
X50398Y-10051D01*
X50441Y-10072D01*
X50483Y-10097D01*
X50523Y-10125D01*
X50560Y-10156D01*
X50596Y-10190D01*
X50628Y-10226D01*
X50657Y-10265D01*
X50684Y-10306D01*
X50707Y-10348D01*
X50727Y-10393D01*
X50743Y-10438D01*
X50756Y-10485D01*
X50766Y-10533D01*
X50771Y-10581D01*
X50773Y-10630D01*
X50773Y-12281D01*
X51865Y-9995D02*
X52500Y-9995D01*
X52549Y-9997D01*
X52597Y-10002D01*
X52645Y-10012D01*
X52692Y-10025D01*
X52737Y-10041D01*
X52782Y-10061D01*
X52824Y-10084D01*
X52865Y-10111D01*
X52904Y-10140D01*
X52940Y-10172D01*
X52974Y-10208D01*
X53005Y-10245D01*
X53033Y-10285D01*
X53058Y-10327D01*
X53079Y-10370D01*
X53098Y-10415D01*
X53112Y-10462D01*
X53123Y-10509D01*
X53131Y-10557D01*
X53135Y-10606D01*
X53135Y-10654D01*
X53131Y-10703D01*
X53123Y-10751D01*
X53112Y-10798D01*
X53098Y-10845D01*
X53079Y-10890D01*
X53058Y-10933D01*
X53033Y-10975D01*
X53005Y-11015D01*
X52974Y-11052D01*
X52940Y-11088D01*
X52904Y-11120D01*
X52865Y-11149D01*
X52824Y-11176D01*
X52782Y-11199D01*
X52737Y-11219D01*
X52692Y-11235D01*
X52645Y-11248D01*
X52597Y-11258D01*
X52549Y-11263D01*
X52500Y-11265D01*
X52627Y-12281D02*
X51865Y-12281D01*
X52627Y-12281D02*
X52671Y-12279D01*
X52715Y-12273D01*
X52758Y-12264D01*
X52801Y-12250D01*
X52842Y-12233D01*
X52881Y-12213D01*
X52918Y-12189D01*
X52954Y-12162D01*
X52986Y-12132D01*
X53016Y-12100D01*
X53043Y-12064D01*
X53067Y-12027D01*
X53087Y-11988D01*
X53104Y-11947D01*
X53118Y-11904D01*
X53127Y-11861D01*
X53133Y-11817D01*
X53135Y-11773D01*
X53133Y-11729D01*
X53127Y-11685D01*
X53118Y-11642D01*
X53104Y-11599D01*
X53087Y-11558D01*
X53067Y-11519D01*
X53043Y-11482D01*
X53016Y-11446D01*
X52986Y-11414D01*
X52954Y-11384D01*
X52918Y-11357D01*
X52881Y-11333D01*
X52842Y-11313D01*
X52801Y-11296D01*
X52758Y-11282D01*
X52715Y-11273D01*
X52671Y-11267D01*
X52627Y-11265D01*
X52119Y-11265D01*
X90549Y21227D02*
X90549Y23513D01*
X89914Y23513D01*
X89865Y23511D01*
X89817Y23506D01*
X89769Y23496D01*
X89722Y23483D01*
X89677Y23467D01*
X89632Y23447D01*
X89590Y23424D01*
X89549Y23397D01*
X89510Y23368D01*
X89474Y23336D01*
X89440Y23300D01*
X89409Y23263D01*
X89381Y23223D01*
X89356Y23181D01*
X89335Y23138D01*
X89316Y23093D01*
X89302Y23046D01*
X89291Y22999D01*
X89283Y22951D01*
X89279Y22902D01*
X89279Y22854D01*
X89283Y22805D01*
X89291Y22757D01*
X89302Y22710D01*
X89316Y22663D01*
X89335Y22618D01*
X89356Y22575D01*
X89381Y22533D01*
X89409Y22493D01*
X89440Y22456D01*
X89474Y22420D01*
X89510Y22388D01*
X89549Y22359D01*
X89590Y22332D01*
X89632Y22309D01*
X89677Y22289D01*
X89722Y22273D01*
X89769Y22260D01*
X89817Y22250D01*
X89865Y22245D01*
X89914Y22243D01*
X90549Y22243D01*
X89787Y22243D02*
X89279Y21227D01*
X88280Y21227D02*
X87645Y21227D01*
X87596Y21229D01*
X87548Y21234D01*
X87500Y21244D01*
X87453Y21257D01*
X87408Y21273D01*
X87363Y21293D01*
X87321Y21316D01*
X87280Y21343D01*
X87241Y21372D01*
X87205Y21404D01*
X87171Y21440D01*
X87140Y21477D01*
X87112Y21517D01*
X87087Y21559D01*
X87066Y21602D01*
X87047Y21647D01*
X87033Y21694D01*
X87022Y21741D01*
X87014Y21789D01*
X87010Y21838D01*
X87010Y21886D01*
X87014Y21935D01*
X87022Y21983D01*
X87033Y22030D01*
X87047Y22077D01*
X87066Y22122D01*
X87087Y22165D01*
X87112Y22207D01*
X87140Y22247D01*
X87171Y22284D01*
X87205Y22320D01*
X87241Y22352D01*
X87280Y22381D01*
X87321Y22408D01*
X87363Y22431D01*
X87408Y22451D01*
X87453Y22467D01*
X87500Y22480D01*
X87548Y22490D01*
X87596Y22495D01*
X87645Y22497D01*
X87518Y23513D02*
X88280Y23513D01*
X87518Y23513D02*
X87474Y23511D01*
X87430Y23505D01*
X87387Y23496D01*
X87344Y23482D01*
X87303Y23465D01*
X87264Y23445D01*
X87227Y23421D01*
X87191Y23394D01*
X87159Y23364D01*
X87129Y23332D01*
X87102Y23296D01*
X87078Y23259D01*
X87058Y23220D01*
X87041Y23179D01*
X87027Y23136D01*
X87018Y23093D01*
X87012Y23049D01*
X87010Y23005D01*
X87012Y22961D01*
X87018Y22917D01*
X87027Y22874D01*
X87041Y22831D01*
X87058Y22790D01*
X87078Y22751D01*
X87102Y22714D01*
X87129Y22678D01*
X87159Y22646D01*
X87191Y22616D01*
X87227Y22589D01*
X87264Y22565D01*
X87303Y22545D01*
X87344Y22528D01*
X87387Y22514D01*
X87430Y22505D01*
X87474Y22499D01*
X87518Y22497D01*
X88026Y22497D01*
X78198Y41036D02*
X75912Y41036D01*
X78198Y41036D02*
X78198Y41671D01*
X78196Y41720D01*
X78191Y41768D01*
X78181Y41816D01*
X78168Y41863D01*
X78152Y41908D01*
X78132Y41953D01*
X78109Y41995D01*
X78082Y42036D01*
X78053Y42075D01*
X78021Y42111D01*
X77985Y42145D01*
X77948Y42176D01*
X77908Y42204D01*
X77866Y42229D01*
X77823Y42250D01*
X77778Y42269D01*
X77731Y42283D01*
X77684Y42294D01*
X77636Y42302D01*
X77587Y42306D01*
X77539Y42306D01*
X77490Y42302D01*
X77442Y42294D01*
X77395Y42283D01*
X77348Y42269D01*
X77303Y42250D01*
X77260Y42229D01*
X77218Y42204D01*
X77178Y42176D01*
X77141Y42145D01*
X77105Y42111D01*
X77073Y42075D01*
X77044Y42036D01*
X77017Y41995D01*
X76994Y41953D01*
X76974Y41908D01*
X76958Y41863D01*
X76945Y41816D01*
X76935Y41768D01*
X76930Y41720D01*
X76928Y41671D01*
X76928Y41036D01*
X76928Y41798D02*
X75912Y42306D01*
X76420Y43306D02*
X78198Y43814D01*
X76420Y43306D02*
X76420Y44576D01*
X76928Y44195D02*
X75912Y44195D01*
X75065Y-13668D02*
X75065Y-14176D01*
X75067Y-14220D01*
X75073Y-14264D01*
X75082Y-14307D01*
X75096Y-14350D01*
X75113Y-14391D01*
X75133Y-14430D01*
X75157Y-14467D01*
X75184Y-14503D01*
X75214Y-14535D01*
X75246Y-14565D01*
X75282Y-14592D01*
X75319Y-14616D01*
X75358Y-14636D01*
X75399Y-14653D01*
X75442Y-14667D01*
X75485Y-14676D01*
X75529Y-14682D01*
X75573Y-14684D01*
X76843Y-14684D01*
X76887Y-14682D01*
X76931Y-14676D01*
X76974Y-14667D01*
X77017Y-14653D01*
X77058Y-14636D01*
X77097Y-14616D01*
X77134Y-14592D01*
X77170Y-14565D01*
X77202Y-14535D01*
X77232Y-14503D01*
X77259Y-14467D01*
X77283Y-14430D01*
X77303Y-14391D01*
X77320Y-14350D01*
X77334Y-14307D01*
X77343Y-14264D01*
X77349Y-14220D01*
X77351Y-14176D01*
X77351Y-13668D01*
X77351Y-12074D02*
X77349Y-12029D01*
X77344Y-11985D01*
X77335Y-11940D01*
X77323Y-11897D01*
X77307Y-11855D01*
X77289Y-11814D01*
X77267Y-11775D01*
X77242Y-11738D01*
X77214Y-11703D01*
X77183Y-11670D01*
X77150Y-11639D01*
X77115Y-11611D01*
X77078Y-11586D01*
X77039Y-11564D01*
X76998Y-11546D01*
X76956Y-11530D01*
X76913Y-11518D01*
X76868Y-11509D01*
X76824Y-11504D01*
X76779Y-11502D01*
X77350Y-12074D02*
X77348Y-12125D01*
X77343Y-12176D01*
X77334Y-12227D01*
X77322Y-12276D01*
X77306Y-12325D01*
X77286Y-12373D01*
X77264Y-12419D01*
X77238Y-12463D01*
X77210Y-12506D01*
X77178Y-12546D01*
X77144Y-12584D01*
X77107Y-12620D01*
X77067Y-12653D01*
X77026Y-12683D01*
X76982Y-12710D01*
X76937Y-12734D01*
X76890Y-12755D01*
X76842Y-12772D01*
X76334Y-11693D02*
X76367Y-11661D01*
X76401Y-11632D01*
X76438Y-11605D01*
X76476Y-11582D01*
X76517Y-11561D01*
X76558Y-11543D01*
X76601Y-11528D01*
X76644Y-11517D01*
X76689Y-11509D01*
X76734Y-11504D01*
X76779Y-11502D01*
X76335Y-11693D02*
X75065Y-12772D01*
X75065Y-11502D01*
X-10556Y5210D02*
X-11064Y5210D01*
X-10556Y5210D02*
X-10512Y5212D01*
X-10468Y5218D01*
X-10425Y5227D01*
X-10382Y5241D01*
X-10341Y5258D01*
X-10302Y5278D01*
X-10265Y5302D01*
X-10229Y5329D01*
X-10197Y5359D01*
X-10167Y5391D01*
X-10140Y5427D01*
X-10116Y5464D01*
X-10096Y5503D01*
X-10079Y5544D01*
X-10065Y5587D01*
X-10056Y5630D01*
X-10050Y5674D01*
X-10048Y5718D01*
X-10048Y6988D01*
X-10050Y7032D01*
X-10056Y7076D01*
X-10065Y7119D01*
X-10079Y7162D01*
X-10096Y7203D01*
X-10116Y7242D01*
X-10140Y7279D01*
X-10167Y7315D01*
X-10197Y7347D01*
X-10229Y7377D01*
X-10265Y7404D01*
X-10302Y7428D01*
X-10341Y7448D01*
X-10382Y7465D01*
X-10425Y7479D01*
X-10468Y7488D01*
X-10512Y7494D01*
X-10556Y7496D01*
X-11064Y7496D01*
X-11961Y5210D02*
X-12596Y5210D01*
X-12645Y5212D01*
X-12693Y5217D01*
X-12741Y5227D01*
X-12788Y5240D01*
X-12833Y5256D01*
X-12878Y5276D01*
X-12920Y5299D01*
X-12961Y5326D01*
X-13000Y5355D01*
X-13036Y5387D01*
X-13070Y5423D01*
X-13101Y5460D01*
X-13129Y5500D01*
X-13154Y5542D01*
X-13175Y5585D01*
X-13194Y5630D01*
X-13208Y5677D01*
X-13219Y5724D01*
X-13227Y5772D01*
X-13231Y5821D01*
X-13231Y5869D01*
X-13227Y5918D01*
X-13219Y5966D01*
X-13208Y6013D01*
X-13194Y6060D01*
X-13175Y6105D01*
X-13154Y6148D01*
X-13129Y6190D01*
X-13101Y6230D01*
X-13070Y6267D01*
X-13036Y6303D01*
X-13000Y6335D01*
X-12961Y6364D01*
X-12920Y6391D01*
X-12878Y6414D01*
X-12833Y6434D01*
X-12788Y6450D01*
X-12741Y6463D01*
X-12693Y6473D01*
X-12645Y6478D01*
X-12596Y6480D01*
X-12723Y7496D02*
X-11961Y7496D01*
X-12723Y7496D02*
X-12767Y7494D01*
X-12811Y7488D01*
X-12854Y7479D01*
X-12897Y7465D01*
X-12938Y7448D01*
X-12977Y7428D01*
X-13014Y7404D01*
X-13050Y7377D01*
X-13082Y7347D01*
X-13112Y7315D01*
X-13139Y7279D01*
X-13163Y7242D01*
X-13183Y7203D01*
X-13200Y7162D01*
X-13214Y7119D01*
X-13223Y7076D01*
X-13229Y7032D01*
X-13231Y6988D01*
X-13229Y6944D01*
X-13223Y6900D01*
X-13214Y6857D01*
X-13200Y6814D01*
X-13183Y6773D01*
X-13163Y6734D01*
X-13139Y6697D01*
X-13112Y6661D01*
X-13082Y6629D01*
X-13050Y6599D01*
X-13014Y6572D01*
X-12977Y6548D01*
X-12938Y6528D01*
X-12897Y6511D01*
X-12854Y6497D01*
X-12811Y6488D01*
X-12767Y6482D01*
X-12723Y6480D01*
X-12215Y6480D01*
X7200Y9559D02*
X9486Y9559D01*
X9486Y10194D01*
X9484Y10243D01*
X9479Y10291D01*
X9469Y10339D01*
X9456Y10386D01*
X9440Y10431D01*
X9420Y10476D01*
X9397Y10518D01*
X9370Y10559D01*
X9341Y10598D01*
X9309Y10634D01*
X9273Y10668D01*
X9236Y10699D01*
X9196Y10727D01*
X9154Y10752D01*
X9111Y10773D01*
X9066Y10792D01*
X9019Y10806D01*
X8972Y10817D01*
X8924Y10825D01*
X8875Y10829D01*
X8827Y10829D01*
X8778Y10825D01*
X8730Y10817D01*
X8683Y10806D01*
X8636Y10792D01*
X8591Y10773D01*
X8548Y10752D01*
X8506Y10727D01*
X8466Y10699D01*
X8429Y10668D01*
X8393Y10634D01*
X8361Y10598D01*
X8332Y10559D01*
X8305Y10518D01*
X8282Y10476D01*
X8262Y10431D01*
X8246Y10386D01*
X8233Y10339D01*
X8223Y10291D01*
X8218Y10243D01*
X8216Y10194D01*
X8216Y9559D01*
X8216Y10321D02*
X7200Y10829D01*
X7200Y11828D02*
X7200Y12590D01*
X7202Y12634D01*
X7208Y12678D01*
X7217Y12721D01*
X7231Y12764D01*
X7248Y12805D01*
X7268Y12844D01*
X7292Y12881D01*
X7319Y12917D01*
X7349Y12949D01*
X7381Y12979D01*
X7417Y13006D01*
X7454Y13030D01*
X7493Y13050D01*
X7534Y13067D01*
X7577Y13081D01*
X7620Y13090D01*
X7664Y13096D01*
X7708Y13098D01*
X7962Y13098D01*
X8006Y13096D01*
X8050Y13090D01*
X8093Y13081D01*
X8136Y13067D01*
X8177Y13050D01*
X8216Y13030D01*
X8253Y13006D01*
X8289Y12979D01*
X8321Y12949D01*
X8351Y12917D01*
X8378Y12881D01*
X8402Y12844D01*
X8422Y12805D01*
X8439Y12764D01*
X8453Y12721D01*
X8462Y12678D01*
X8468Y12634D01*
X8470Y12590D01*
X8470Y11828D01*
X9486Y11828D01*
X9486Y13098D01*
M02*
