G04 EAGLE Gerber RS-274X export*
G75*
%MOMM*%
%FSLAX34Y34*%
%LPD*%
%AMOC8*
5,1,8,0,0,1.08239X$1,22.5*%
G01*
%ADD10C,2.203200*%
%ADD11R,1.203200X0.803200*%
%ADD12R,1.524000X0.762000*%
%ADD13R,1.203200X1.303200*%
%ADD14R,1.303200X1.203200*%
%ADD15R,1.283200X1.253200*%
%ADD16C,1.727200*%
%ADD17R,1.253200X1.283200*%
%ADD18C,0.990600*%
%ADD19C,0.959600*%


D10*
X168750Y-50000D03*
X168750Y75000D03*
D11*
X141388Y10975D03*
X114388Y20475D03*
X114388Y1475D03*
D12*
X37397Y-1448D03*
X37397Y7950D03*
X37397Y17348D03*
X64829Y17348D03*
X64829Y-1448D03*
D13*
X80338Y16020D03*
X97338Y16020D03*
D14*
X84675Y50663D03*
X84675Y33663D03*
D15*
X82708Y-5545D03*
X82708Y-23045D03*
D16*
X160505Y51250D02*
X175745Y51250D01*
X175745Y25850D02*
X160505Y25850D01*
X160505Y450D02*
X175745Y450D01*
X175745Y-24950D02*
X160505Y-24950D01*
D17*
X-22378Y14123D03*
X-4878Y14123D03*
D14*
X15663Y20963D03*
X15663Y3963D03*
D18*
X-48260Y19050D03*
D19*
X91440Y5080D03*
X111760Y33020D03*
X69850Y-19050D03*
D18*
X-34290Y5080D03*
D19*
X97790Y31750D03*
X92710Y-33020D03*
X50800Y17780D03*
X98069Y49530D03*
X38100Y31750D03*
X50800Y2540D03*
X27739Y26670D03*
D18*
X-64770Y11430D03*
M02*
