M48
;GenerationSoftware,Autodesk,EAGLE,9.0.1*%
;CreationDate,2018-05-25T19:12:11Z*%
FMAT,2
ICI,OFF
METRIC,TZ,000.000
T7C0.350
T6C0.500
T5C1.000
T4C1.016
T3C1.400
T2C2.000
T1C3.000
%
G90
M71
T1
X14672Y47520
X14672Y94720
T2
X6667Y4445
X54927Y26035
X54927Y5715
X6667Y26035
X6667Y15240
T3
X9633Y56420
X9633Y60620
X9633Y64820
X9633Y69020
X9633Y73220
X9633Y77420
X9633Y81620
X9633Y85820
X9633Y90020
X15132Y52220
X15132Y90020
X15132Y56420
X15132Y85820
X15132Y81620
X15132Y77420
X15132Y73220
X15132Y69020
X15132Y64820
X15132Y60620
X9633Y52220
T4
X78105Y15875
X83185Y10795
X80645Y10795
X78105Y10795
X94615Y20955
X92075Y20955
X89535Y20955
X94615Y15875
X92075Y15875
X89535Y15875
X94615Y10795
X68580Y16192
X89535Y10795
X60007Y16510
X80328Y27940
X82868Y27940
X85408Y27940
X2857Y26670
X2857Y24130
X2857Y21590
X2857Y19050
X2857Y16510
X2857Y13970
X2857Y11430
X2857Y8890
X2857Y6350
X2857Y3810
X60007Y26670
X60007Y24130
X60007Y21590
X60007Y19050
X87947Y27940
X60007Y13970
X60007Y11430
X60007Y8890
X60007Y6350
X60007Y3810
X90487Y27940
X93027Y27940
X71120Y3492
X71120Y6032
X71120Y8573
X71120Y11112
X71120Y13652
X71120Y16192
X68580Y3492
X68580Y6032
X68580Y8573
X68580Y11112
X68580Y13652
X36195Y79058
X36195Y73978
X36195Y76518
X36195Y81598
X36195Y84138
X36195Y86678
X36195Y89217
X36195Y91757
X36195Y94297
X36195Y96837
X93345Y96837
X93345Y94297
X93345Y91757
X93345Y89217
X93345Y86678
X93345Y84138
X93345Y81598
X93345Y79058
X93345Y76518
X93345Y73978
X92075Y10795
X83185Y20955
X80645Y20955
X78105Y20955
X83185Y15875
X80645Y15875
T5
X81280Y36195
X88582Y48577
X83503Y48577
X32280Y39053
X28780Y39053
X24025Y39053
X70803Y48577
X20525Y39053
X12270Y39053
X7515Y39053
X4015Y39053
X26670Y54927
X26670Y52387
X47307Y5715
X44767Y5715
X42228Y5715
X40958Y39053
X13970Y17145
X45085Y17145
X13970Y24765
X45085Y24765
X60642Y48577
X63182Y48577
X65723Y48577
X68263Y48577
X15770Y39053
X73343Y48577
X75883Y48577
X78423Y48577
X80963Y48577
X86043Y48577
X43498Y39053
X88265Y33655
X88160Y4128
X84660Y4128
X88265Y36195
X81280Y33655
T6
X23148Y79305
T7
X34270Y50780
X35560Y58420
X32721Y53041
X41910Y54610
X48577Y46990
X83185Y79058
X96520Y34925
X23812Y95885
X20003Y95885
X27622Y95885
X31432Y96202
X43180Y54610
X83185Y79058
M30