G04 EAGLE Gerber X2 export*
G75*
%MOMM*%
%FSLAX34Y34*%
%LPD*%
%AMOC8*
5,1,8,0,0,1.08239X$1,22.5*%
G01*
%ADD10C,0.254000*%


D10*
X0Y0D02*
X1000000Y0D01*
X1000000Y1000000D01*
X0Y1000000D01*
X0Y0D01*
X146189Y460200D02*
X145121Y460276D01*
X144060Y460429D01*
X143013Y460657D01*
X141985Y460959D01*
X140981Y461333D01*
X140006Y461778D01*
X139066Y462292D01*
X138165Y462871D01*
X137307Y463513D01*
X136497Y464215D01*
X135740Y464972D01*
X135038Y465782D01*
X134396Y466640D01*
X133817Y467541D01*
X133303Y468481D01*
X132858Y469456D01*
X132484Y470460D01*
X132182Y471488D01*
X131954Y472535D01*
X131801Y473596D01*
X131725Y474664D01*
X131725Y475736D01*
X131801Y476804D01*
X131954Y477865D01*
X132182Y478912D01*
X132484Y479940D01*
X132858Y480944D01*
X133303Y481919D01*
X133817Y482859D01*
X134396Y483760D01*
X135038Y484618D01*
X135740Y485428D01*
X136497Y486185D01*
X137307Y486887D01*
X138165Y487529D01*
X139066Y488108D01*
X140006Y488622D01*
X140981Y489067D01*
X141985Y489441D01*
X143013Y489743D01*
X144060Y489971D01*
X145121Y490124D01*
X146189Y490200D01*
X147261Y490200D01*
X148329Y490124D01*
X149390Y489971D01*
X150437Y489743D01*
X151465Y489441D01*
X152469Y489067D01*
X153444Y488622D01*
X154384Y488108D01*
X155285Y487529D01*
X156143Y486887D01*
X156953Y486185D01*
X157710Y485428D01*
X158412Y484618D01*
X159054Y483760D01*
X159633Y482859D01*
X160147Y481919D01*
X160592Y480944D01*
X160966Y479940D01*
X161268Y478912D01*
X161496Y477865D01*
X161649Y476804D01*
X161725Y475736D01*
X161725Y474664D01*
X161649Y473596D01*
X161496Y472535D01*
X161268Y471488D01*
X160966Y470460D01*
X160592Y469456D01*
X160147Y468481D01*
X159633Y467541D01*
X159054Y466640D01*
X158412Y465782D01*
X157710Y464972D01*
X156953Y464215D01*
X156143Y463513D01*
X155285Y462871D01*
X154384Y462292D01*
X153444Y461778D01*
X152469Y461333D01*
X151465Y460959D01*
X150437Y460657D01*
X149390Y460429D01*
X148329Y460276D01*
X147261Y460200D01*
X146189Y460200D01*
X146189Y932200D02*
X145121Y932276D01*
X144060Y932429D01*
X143013Y932657D01*
X141985Y932959D01*
X140981Y933333D01*
X140006Y933778D01*
X139066Y934292D01*
X138165Y934871D01*
X137307Y935513D01*
X136497Y936215D01*
X135740Y936972D01*
X135038Y937782D01*
X134396Y938640D01*
X133817Y939541D01*
X133303Y940481D01*
X132858Y941456D01*
X132484Y942460D01*
X132182Y943488D01*
X131954Y944535D01*
X131801Y945596D01*
X131725Y946664D01*
X131725Y947736D01*
X131801Y948804D01*
X131954Y949865D01*
X132182Y950912D01*
X132484Y951940D01*
X132858Y952944D01*
X133303Y953919D01*
X133817Y954859D01*
X134396Y955760D01*
X135038Y956618D01*
X135740Y957428D01*
X136497Y958185D01*
X137307Y958887D01*
X138165Y959529D01*
X139066Y960108D01*
X140006Y960622D01*
X140981Y961067D01*
X141985Y961441D01*
X143013Y961743D01*
X144060Y961971D01*
X145121Y962124D01*
X146189Y962200D01*
X147261Y962200D01*
X148329Y962124D01*
X149390Y961971D01*
X150437Y961743D01*
X151465Y961441D01*
X152469Y961067D01*
X153444Y960622D01*
X154384Y960108D01*
X155285Y959529D01*
X156143Y958887D01*
X156953Y958185D01*
X157710Y957428D01*
X158412Y956618D01*
X159054Y955760D01*
X159633Y954859D01*
X160147Y953919D01*
X160592Y952944D01*
X160966Y951940D01*
X161268Y950912D01*
X161496Y949865D01*
X161649Y948804D01*
X161725Y947736D01*
X161725Y946664D01*
X161649Y945596D01*
X161496Y944535D01*
X161268Y943488D01*
X160966Y942460D01*
X160592Y941456D01*
X160147Y940481D01*
X159633Y939541D01*
X159054Y938640D01*
X158412Y937782D01*
X157710Y936972D01*
X156953Y936215D01*
X156143Y935513D01*
X155285Y934871D01*
X154384Y934292D01*
X153444Y933778D01*
X152469Y933333D01*
X151465Y932959D01*
X150437Y932657D01*
X149390Y932429D01*
X148329Y932276D01*
X147261Y932200D01*
X146189Y932200D01*
M02*
