G04 EAGLE Gerber X2 export*
G75*
%MOMM*%
%FSLAX34Y34*%
%LPD*%
%AMOC8*
5,1,8,0,0,1.08239X$1,22.5*%
G01*
%ADD10C,0.127000*%
%ADD11C,0.101600*%


D10*
X41275Y298450D02*
X41275Y6350D01*
X587375Y6350D01*
X587375Y298450D01*
X41275Y298450D01*
X107950Y298450D02*
X107950Y120650D01*
X107950Y298450D02*
X482600Y298450D01*
X482600Y120650D01*
X107950Y120650D01*
D11*
X471250Y279908D02*
X471250Y291592D01*
X468004Y291592D01*
X467891Y291590D01*
X467778Y291584D01*
X467665Y291574D01*
X467552Y291560D01*
X467440Y291543D01*
X467329Y291521D01*
X467219Y291496D01*
X467109Y291466D01*
X467001Y291433D01*
X466894Y291396D01*
X466788Y291356D01*
X466684Y291311D01*
X466581Y291263D01*
X466480Y291212D01*
X466381Y291157D01*
X466284Y291099D01*
X466189Y291037D01*
X466096Y290972D01*
X466006Y290904D01*
X465918Y290833D01*
X465832Y290758D01*
X465749Y290681D01*
X465669Y290601D01*
X465592Y290518D01*
X465517Y290432D01*
X465446Y290344D01*
X465378Y290254D01*
X465313Y290161D01*
X465251Y290066D01*
X465193Y289969D01*
X465138Y289870D01*
X465087Y289769D01*
X465039Y289666D01*
X464994Y289562D01*
X464954Y289456D01*
X464917Y289349D01*
X464884Y289241D01*
X464854Y289131D01*
X464829Y289021D01*
X464807Y288910D01*
X464790Y288798D01*
X464776Y288685D01*
X464766Y288572D01*
X464760Y288459D01*
X464758Y288346D01*
X464759Y288346D02*
X464759Y283154D01*
X464758Y283154D02*
X464760Y283041D01*
X464766Y282928D01*
X464776Y282815D01*
X464790Y282702D01*
X464807Y282590D01*
X464829Y282479D01*
X464854Y282369D01*
X464884Y282259D01*
X464917Y282151D01*
X464954Y282044D01*
X464994Y281938D01*
X465039Y281834D01*
X465087Y281731D01*
X465138Y281630D01*
X465193Y281531D01*
X465251Y281434D01*
X465313Y281339D01*
X465378Y281246D01*
X465446Y281156D01*
X465517Y281068D01*
X465592Y280982D01*
X465669Y280899D01*
X465749Y280819D01*
X465832Y280742D01*
X465918Y280667D01*
X466006Y280596D01*
X466096Y280528D01*
X466189Y280463D01*
X466284Y280401D01*
X466381Y280343D01*
X466480Y280288D01*
X466581Y280237D01*
X466684Y280189D01*
X466788Y280144D01*
X466894Y280104D01*
X467001Y280067D01*
X467109Y280034D01*
X467219Y280004D01*
X467329Y279979D01*
X467440Y279957D01*
X467552Y279940D01*
X467665Y279926D01*
X467778Y279916D01*
X467891Y279910D01*
X468004Y279908D01*
X471250Y279908D01*
X456875Y279908D02*
X454279Y279908D01*
X456875Y279908D02*
X456974Y279910D01*
X457074Y279916D01*
X457173Y279925D01*
X457271Y279938D01*
X457369Y279955D01*
X457467Y279976D01*
X457563Y280001D01*
X457658Y280029D01*
X457752Y280061D01*
X457845Y280096D01*
X457937Y280135D01*
X458027Y280178D01*
X458115Y280223D01*
X458202Y280273D01*
X458286Y280325D01*
X458369Y280381D01*
X458449Y280439D01*
X458527Y280501D01*
X458602Y280566D01*
X458675Y280634D01*
X458745Y280704D01*
X458813Y280777D01*
X458878Y280852D01*
X458940Y280930D01*
X458998Y281010D01*
X459054Y281093D01*
X459106Y281177D01*
X459156Y281264D01*
X459201Y281352D01*
X459244Y281442D01*
X459283Y281534D01*
X459318Y281627D01*
X459350Y281721D01*
X459378Y281816D01*
X459403Y281912D01*
X459424Y282010D01*
X459441Y282108D01*
X459454Y282206D01*
X459463Y282305D01*
X459469Y282405D01*
X459471Y282504D01*
X459472Y282504D02*
X459472Y288996D01*
X459471Y288996D02*
X459469Y289095D01*
X459463Y289195D01*
X459454Y289294D01*
X459441Y289392D01*
X459424Y289490D01*
X459403Y289588D01*
X459378Y289684D01*
X459350Y289779D01*
X459318Y289873D01*
X459283Y289966D01*
X459244Y290058D01*
X459201Y290148D01*
X459156Y290236D01*
X459106Y290323D01*
X459054Y290407D01*
X458998Y290490D01*
X458940Y290570D01*
X458878Y290648D01*
X458813Y290723D01*
X458745Y290796D01*
X458675Y290866D01*
X458602Y290934D01*
X458527Y290999D01*
X458449Y291061D01*
X458369Y291119D01*
X458286Y291175D01*
X458202Y291227D01*
X458115Y291277D01*
X458027Y291322D01*
X457937Y291365D01*
X457845Y291404D01*
X457752Y291439D01*
X457658Y291471D01*
X457563Y291499D01*
X457467Y291524D01*
X457369Y291545D01*
X457271Y291562D01*
X457173Y291575D01*
X457074Y291584D01*
X456974Y291590D01*
X456875Y291592D01*
X454279Y291592D01*
X449801Y284452D02*
X442011Y284452D01*
X436579Y279908D02*
X436579Y291592D01*
X433333Y291592D01*
X433220Y291590D01*
X433107Y291584D01*
X432994Y291574D01*
X432881Y291560D01*
X432769Y291543D01*
X432658Y291521D01*
X432548Y291496D01*
X432438Y291466D01*
X432330Y291433D01*
X432223Y291396D01*
X432117Y291356D01*
X432013Y291311D01*
X431910Y291263D01*
X431809Y291212D01*
X431710Y291157D01*
X431613Y291099D01*
X431518Y291037D01*
X431425Y290972D01*
X431335Y290904D01*
X431247Y290833D01*
X431161Y290758D01*
X431078Y290681D01*
X430998Y290601D01*
X430921Y290518D01*
X430846Y290432D01*
X430775Y290344D01*
X430707Y290254D01*
X430642Y290161D01*
X430580Y290066D01*
X430522Y289969D01*
X430467Y289870D01*
X430416Y289769D01*
X430368Y289666D01*
X430323Y289562D01*
X430283Y289456D01*
X430246Y289349D01*
X430213Y289241D01*
X430183Y289131D01*
X430158Y289021D01*
X430136Y288910D01*
X430119Y288798D01*
X430105Y288685D01*
X430095Y288572D01*
X430089Y288459D01*
X430087Y288346D01*
X430088Y288346D02*
X430088Y283154D01*
X430087Y283154D02*
X430089Y283041D01*
X430095Y282928D01*
X430105Y282815D01*
X430119Y282702D01*
X430136Y282590D01*
X430158Y282479D01*
X430183Y282369D01*
X430213Y282259D01*
X430246Y282151D01*
X430283Y282044D01*
X430323Y281938D01*
X430368Y281834D01*
X430416Y281731D01*
X430467Y281630D01*
X430522Y281531D01*
X430580Y281434D01*
X430642Y281339D01*
X430707Y281246D01*
X430775Y281156D01*
X430846Y281068D01*
X430921Y280982D01*
X430998Y280899D01*
X431078Y280819D01*
X431161Y280742D01*
X431247Y280667D01*
X431335Y280596D01*
X431425Y280528D01*
X431518Y280463D01*
X431613Y280401D01*
X431710Y280343D01*
X431809Y280288D01*
X431910Y280237D01*
X432013Y280189D01*
X432117Y280144D01*
X432223Y280104D01*
X432330Y280067D01*
X432438Y280034D01*
X432548Y280004D01*
X432658Y279979D01*
X432769Y279957D01*
X432881Y279940D01*
X432994Y279926D01*
X433107Y279916D01*
X433220Y279910D01*
X433333Y279908D01*
X436579Y279908D01*
X422204Y279908D02*
X419608Y279908D01*
X422204Y279908D02*
X422303Y279910D01*
X422403Y279916D01*
X422502Y279925D01*
X422600Y279938D01*
X422698Y279955D01*
X422796Y279976D01*
X422892Y280001D01*
X422987Y280029D01*
X423081Y280061D01*
X423174Y280096D01*
X423266Y280135D01*
X423356Y280178D01*
X423444Y280223D01*
X423531Y280273D01*
X423615Y280325D01*
X423698Y280381D01*
X423778Y280439D01*
X423856Y280501D01*
X423931Y280566D01*
X424004Y280634D01*
X424074Y280704D01*
X424142Y280777D01*
X424207Y280852D01*
X424269Y280930D01*
X424327Y281010D01*
X424383Y281093D01*
X424435Y281177D01*
X424485Y281264D01*
X424530Y281352D01*
X424573Y281442D01*
X424612Y281534D01*
X424647Y281627D01*
X424679Y281721D01*
X424707Y281816D01*
X424732Y281912D01*
X424753Y282010D01*
X424770Y282108D01*
X424783Y282206D01*
X424792Y282305D01*
X424798Y282405D01*
X424800Y282504D01*
X424801Y282504D02*
X424801Y288996D01*
X424800Y288996D02*
X424798Y289095D01*
X424792Y289195D01*
X424783Y289294D01*
X424770Y289392D01*
X424753Y289490D01*
X424732Y289588D01*
X424707Y289684D01*
X424679Y289779D01*
X424647Y289873D01*
X424612Y289966D01*
X424573Y290058D01*
X424530Y290148D01*
X424485Y290236D01*
X424435Y290323D01*
X424383Y290407D01*
X424327Y290490D01*
X424269Y290570D01*
X424207Y290648D01*
X424142Y290723D01*
X424074Y290796D01*
X424004Y290866D01*
X423931Y290934D01*
X423856Y290999D01*
X423778Y291061D01*
X423698Y291119D01*
X423615Y291175D01*
X423531Y291227D01*
X423444Y291277D01*
X423356Y291322D01*
X423266Y291365D01*
X423174Y291404D01*
X423081Y291439D01*
X422987Y291471D01*
X422892Y291499D01*
X422796Y291524D01*
X422698Y291545D01*
X422600Y291562D01*
X422502Y291575D01*
X422403Y291584D01*
X422303Y291590D01*
X422204Y291592D01*
X419608Y291592D01*
X193167Y900490D02*
X181483Y900490D01*
X193167Y900490D02*
X193167Y903735D01*
X193165Y903848D01*
X193159Y903961D01*
X193149Y904074D01*
X193135Y904187D01*
X193118Y904299D01*
X193096Y904410D01*
X193071Y904520D01*
X193041Y904630D01*
X193008Y904738D01*
X192971Y904845D01*
X192931Y904951D01*
X192886Y905055D01*
X192838Y905158D01*
X192787Y905259D01*
X192732Y905358D01*
X192674Y905455D01*
X192612Y905550D01*
X192547Y905643D01*
X192479Y905733D01*
X192408Y905821D01*
X192333Y905907D01*
X192256Y905990D01*
X192176Y906070D01*
X192093Y906147D01*
X192007Y906222D01*
X191919Y906293D01*
X191829Y906361D01*
X191736Y906426D01*
X191641Y906488D01*
X191544Y906546D01*
X191445Y906601D01*
X191344Y906652D01*
X191241Y906700D01*
X191137Y906745D01*
X191031Y906785D01*
X190924Y906822D01*
X190816Y906855D01*
X190706Y906885D01*
X190596Y906910D01*
X190485Y906932D01*
X190373Y906949D01*
X190260Y906963D01*
X190147Y906973D01*
X190034Y906979D01*
X189921Y906981D01*
X189808Y906979D01*
X189695Y906973D01*
X189582Y906963D01*
X189469Y906949D01*
X189357Y906932D01*
X189246Y906910D01*
X189136Y906885D01*
X189026Y906855D01*
X188918Y906822D01*
X188811Y906785D01*
X188705Y906745D01*
X188601Y906700D01*
X188498Y906652D01*
X188397Y906601D01*
X188298Y906546D01*
X188201Y906488D01*
X188106Y906426D01*
X188013Y906361D01*
X187923Y906293D01*
X187835Y906222D01*
X187749Y906147D01*
X187666Y906070D01*
X187586Y905990D01*
X187509Y905907D01*
X187434Y905821D01*
X187363Y905733D01*
X187295Y905643D01*
X187230Y905550D01*
X187168Y905455D01*
X187110Y905358D01*
X187055Y905259D01*
X187004Y905158D01*
X186956Y905055D01*
X186911Y904951D01*
X186871Y904845D01*
X186834Y904738D01*
X186801Y904630D01*
X186771Y904520D01*
X186746Y904410D01*
X186724Y904299D01*
X186707Y904187D01*
X186693Y904074D01*
X186683Y903961D01*
X186677Y903848D01*
X186675Y903735D01*
X186676Y903735D02*
X186676Y900490D01*
X186676Y904384D02*
X181483Y906981D01*
X190571Y911846D02*
X193167Y915091D01*
X181483Y915091D01*
X181483Y911846D02*
X181483Y918337D01*
X190571Y923276D02*
X193167Y926521D01*
X181483Y926521D01*
X181483Y923276D02*
X181483Y929767D01*
X248158Y899033D02*
X259842Y899033D01*
X259842Y902279D01*
X259840Y902392D01*
X259834Y902505D01*
X259824Y902618D01*
X259810Y902731D01*
X259793Y902843D01*
X259771Y902954D01*
X259746Y903064D01*
X259716Y903174D01*
X259683Y903282D01*
X259646Y903389D01*
X259606Y903495D01*
X259561Y903599D01*
X259513Y903702D01*
X259462Y903803D01*
X259407Y903902D01*
X259349Y903999D01*
X259287Y904094D01*
X259222Y904187D01*
X259154Y904277D01*
X259083Y904365D01*
X259008Y904451D01*
X258931Y904534D01*
X258851Y904614D01*
X258768Y904691D01*
X258682Y904766D01*
X258594Y904837D01*
X258504Y904905D01*
X258411Y904970D01*
X258316Y905032D01*
X258219Y905090D01*
X258120Y905145D01*
X258019Y905196D01*
X257916Y905244D01*
X257812Y905289D01*
X257706Y905329D01*
X257599Y905366D01*
X257491Y905399D01*
X257381Y905429D01*
X257271Y905454D01*
X257160Y905476D01*
X257048Y905493D01*
X256935Y905507D01*
X256822Y905517D01*
X256709Y905523D01*
X256596Y905525D01*
X256483Y905523D01*
X256370Y905517D01*
X256257Y905507D01*
X256144Y905493D01*
X256032Y905476D01*
X255921Y905454D01*
X255811Y905429D01*
X255701Y905399D01*
X255593Y905366D01*
X255486Y905329D01*
X255380Y905289D01*
X255276Y905244D01*
X255173Y905196D01*
X255072Y905145D01*
X254973Y905090D01*
X254876Y905032D01*
X254781Y904970D01*
X254688Y904905D01*
X254598Y904837D01*
X254510Y904766D01*
X254424Y904691D01*
X254341Y904614D01*
X254261Y904534D01*
X254184Y904451D01*
X254109Y904365D01*
X254038Y904277D01*
X253970Y904187D01*
X253905Y904094D01*
X253843Y903999D01*
X253785Y903902D01*
X253730Y903803D01*
X253679Y903702D01*
X253631Y903599D01*
X253586Y903495D01*
X253546Y903389D01*
X253509Y903282D01*
X253476Y903174D01*
X253446Y903064D01*
X253421Y902954D01*
X253399Y902843D01*
X253382Y902731D01*
X253368Y902618D01*
X253358Y902505D01*
X253352Y902392D01*
X253350Y902279D01*
X253351Y902279D02*
X253351Y899033D01*
X253351Y902928D02*
X248158Y905524D01*
X257246Y910389D02*
X259842Y913635D01*
X248158Y913635D01*
X248158Y916880D02*
X248158Y910389D01*
X259842Y925389D02*
X259840Y925496D01*
X259834Y925602D01*
X259824Y925708D01*
X259811Y925814D01*
X259793Y925920D01*
X259772Y926024D01*
X259747Y926128D01*
X259718Y926231D01*
X259686Y926332D01*
X259649Y926432D01*
X259609Y926531D01*
X259566Y926629D01*
X259519Y926725D01*
X259468Y926819D01*
X259414Y926911D01*
X259357Y927001D01*
X259297Y927089D01*
X259233Y927174D01*
X259166Y927257D01*
X259096Y927338D01*
X259024Y927416D01*
X258948Y927492D01*
X258870Y927564D01*
X258789Y927634D01*
X258706Y927701D01*
X258621Y927765D01*
X258533Y927825D01*
X258443Y927882D01*
X258351Y927936D01*
X258257Y927987D01*
X258161Y928034D01*
X258063Y928077D01*
X257964Y928117D01*
X257864Y928154D01*
X257763Y928186D01*
X257660Y928215D01*
X257556Y928240D01*
X257452Y928261D01*
X257346Y928279D01*
X257240Y928292D01*
X257134Y928302D01*
X257028Y928308D01*
X256921Y928310D01*
X259842Y925389D02*
X259840Y925268D01*
X259834Y925147D01*
X259824Y925027D01*
X259811Y924906D01*
X259793Y924787D01*
X259772Y924667D01*
X259747Y924549D01*
X259718Y924432D01*
X259685Y924315D01*
X259649Y924200D01*
X259608Y924086D01*
X259565Y923973D01*
X259517Y923861D01*
X259466Y923752D01*
X259411Y923644D01*
X259353Y923537D01*
X259292Y923433D01*
X259227Y923331D01*
X259159Y923231D01*
X259088Y923133D01*
X259014Y923037D01*
X258937Y922944D01*
X258856Y922854D01*
X258773Y922766D01*
X258687Y922681D01*
X258598Y922598D01*
X258507Y922519D01*
X258413Y922442D01*
X258317Y922369D01*
X258219Y922299D01*
X258118Y922232D01*
X258015Y922168D01*
X257910Y922108D01*
X257803Y922051D01*
X257695Y921997D01*
X257585Y921947D01*
X257473Y921901D01*
X257360Y921858D01*
X257245Y921819D01*
X254649Y927337D02*
X254726Y927416D01*
X254807Y927492D01*
X254890Y927565D01*
X254975Y927635D01*
X255063Y927702D01*
X255153Y927766D01*
X255245Y927826D01*
X255340Y927883D01*
X255436Y927937D01*
X255534Y927988D01*
X255634Y928035D01*
X255736Y928079D01*
X255839Y928119D01*
X255943Y928155D01*
X256049Y928187D01*
X256155Y928216D01*
X256263Y928241D01*
X256371Y928263D01*
X256481Y928280D01*
X256590Y928294D01*
X256700Y928303D01*
X256811Y928309D01*
X256921Y928311D01*
X254649Y927337D02*
X248158Y921819D01*
X248158Y928310D01*
X273558Y802065D02*
X285242Y802065D01*
X285242Y805310D01*
X285240Y805423D01*
X285234Y805536D01*
X285224Y805649D01*
X285210Y805762D01*
X285193Y805874D01*
X285171Y805985D01*
X285146Y806095D01*
X285116Y806205D01*
X285083Y806313D01*
X285046Y806420D01*
X285006Y806526D01*
X284961Y806630D01*
X284913Y806733D01*
X284862Y806834D01*
X284807Y806933D01*
X284749Y807030D01*
X284687Y807125D01*
X284622Y807218D01*
X284554Y807308D01*
X284483Y807396D01*
X284408Y807482D01*
X284331Y807565D01*
X284251Y807645D01*
X284168Y807722D01*
X284082Y807797D01*
X283994Y807868D01*
X283904Y807936D01*
X283811Y808001D01*
X283716Y808063D01*
X283619Y808121D01*
X283520Y808176D01*
X283419Y808227D01*
X283316Y808275D01*
X283212Y808320D01*
X283106Y808360D01*
X282999Y808397D01*
X282891Y808430D01*
X282781Y808460D01*
X282671Y808485D01*
X282560Y808507D01*
X282448Y808524D01*
X282335Y808538D01*
X282222Y808548D01*
X282109Y808554D01*
X281996Y808556D01*
X281883Y808554D01*
X281770Y808548D01*
X281657Y808538D01*
X281544Y808524D01*
X281432Y808507D01*
X281321Y808485D01*
X281211Y808460D01*
X281101Y808430D01*
X280993Y808397D01*
X280886Y808360D01*
X280780Y808320D01*
X280676Y808275D01*
X280573Y808227D01*
X280472Y808176D01*
X280373Y808121D01*
X280276Y808063D01*
X280181Y808001D01*
X280088Y807936D01*
X279998Y807868D01*
X279910Y807797D01*
X279824Y807722D01*
X279741Y807645D01*
X279661Y807565D01*
X279584Y807482D01*
X279509Y807396D01*
X279438Y807308D01*
X279370Y807218D01*
X279305Y807125D01*
X279243Y807030D01*
X279185Y806933D01*
X279130Y806834D01*
X279079Y806733D01*
X279031Y806630D01*
X278986Y806526D01*
X278946Y806420D01*
X278909Y806313D01*
X278876Y806205D01*
X278846Y806095D01*
X278821Y805985D01*
X278799Y805874D01*
X278782Y805762D01*
X278768Y805649D01*
X278758Y805536D01*
X278752Y805423D01*
X278750Y805310D01*
X278751Y805310D02*
X278751Y802065D01*
X278751Y805959D02*
X273558Y808556D01*
X282646Y813421D02*
X285242Y816666D01*
X273558Y816666D01*
X273558Y813421D02*
X273558Y819912D01*
X273558Y824851D02*
X273558Y828096D01*
X273560Y828209D01*
X273566Y828322D01*
X273576Y828435D01*
X273590Y828548D01*
X273607Y828660D01*
X273629Y828771D01*
X273654Y828881D01*
X273684Y828991D01*
X273717Y829099D01*
X273754Y829206D01*
X273794Y829312D01*
X273839Y829416D01*
X273887Y829519D01*
X273938Y829620D01*
X273993Y829719D01*
X274051Y829816D01*
X274113Y829911D01*
X274178Y830004D01*
X274246Y830094D01*
X274317Y830182D01*
X274392Y830268D01*
X274469Y830351D01*
X274549Y830431D01*
X274632Y830508D01*
X274718Y830583D01*
X274806Y830654D01*
X274896Y830722D01*
X274989Y830787D01*
X275084Y830849D01*
X275181Y830907D01*
X275280Y830962D01*
X275381Y831013D01*
X275484Y831061D01*
X275588Y831106D01*
X275694Y831146D01*
X275801Y831183D01*
X275909Y831216D01*
X276019Y831246D01*
X276129Y831271D01*
X276240Y831293D01*
X276352Y831310D01*
X276465Y831324D01*
X276578Y831334D01*
X276691Y831340D01*
X276804Y831342D01*
X276917Y831340D01*
X277030Y831334D01*
X277143Y831324D01*
X277256Y831310D01*
X277368Y831293D01*
X277479Y831271D01*
X277589Y831246D01*
X277699Y831216D01*
X277807Y831183D01*
X277914Y831146D01*
X278020Y831106D01*
X278124Y831061D01*
X278227Y831013D01*
X278328Y830962D01*
X278427Y830907D01*
X278524Y830849D01*
X278619Y830787D01*
X278712Y830722D01*
X278802Y830654D01*
X278890Y830583D01*
X278976Y830508D01*
X279059Y830431D01*
X279139Y830351D01*
X279216Y830268D01*
X279291Y830182D01*
X279362Y830094D01*
X279430Y830004D01*
X279495Y829911D01*
X279557Y829816D01*
X279615Y829719D01*
X279670Y829620D01*
X279721Y829519D01*
X279769Y829416D01*
X279814Y829312D01*
X279854Y829206D01*
X279891Y829099D01*
X279924Y828991D01*
X279954Y828881D01*
X279979Y828771D01*
X280001Y828660D01*
X280018Y828548D01*
X280032Y828435D01*
X280042Y828322D01*
X280048Y828209D01*
X280050Y828096D01*
X285242Y828746D02*
X285242Y824851D01*
X285242Y828746D02*
X285240Y828847D01*
X285234Y828947D01*
X285224Y829047D01*
X285211Y829147D01*
X285193Y829246D01*
X285172Y829345D01*
X285147Y829442D01*
X285118Y829539D01*
X285085Y829634D01*
X285049Y829728D01*
X285009Y829820D01*
X284966Y829911D01*
X284919Y830000D01*
X284869Y830087D01*
X284815Y830173D01*
X284758Y830256D01*
X284698Y830336D01*
X284635Y830415D01*
X284568Y830491D01*
X284499Y830564D01*
X284427Y830634D01*
X284353Y830702D01*
X284276Y830767D01*
X284196Y830828D01*
X284114Y830887D01*
X284030Y830942D01*
X283944Y830994D01*
X283856Y831043D01*
X283766Y831088D01*
X283674Y831130D01*
X283581Y831168D01*
X283486Y831202D01*
X283391Y831233D01*
X283294Y831260D01*
X283196Y831283D01*
X283097Y831303D01*
X282997Y831318D01*
X282897Y831330D01*
X282797Y831338D01*
X282696Y831342D01*
X282596Y831342D01*
X282495Y831338D01*
X282395Y831330D01*
X282295Y831318D01*
X282195Y831303D01*
X282096Y831283D01*
X281998Y831260D01*
X281901Y831233D01*
X281806Y831202D01*
X281711Y831168D01*
X281618Y831130D01*
X281526Y831088D01*
X281436Y831043D01*
X281348Y830994D01*
X281262Y830942D01*
X281178Y830887D01*
X281096Y830828D01*
X281016Y830767D01*
X280939Y830702D01*
X280865Y830634D01*
X280793Y830564D01*
X280724Y830491D01*
X280657Y830415D01*
X280594Y830336D01*
X280534Y830256D01*
X280477Y830173D01*
X280423Y830087D01*
X280373Y830000D01*
X280326Y829911D01*
X280283Y829820D01*
X280243Y829728D01*
X280207Y829634D01*
X280174Y829539D01*
X280145Y829442D01*
X280120Y829345D01*
X280099Y829246D01*
X280081Y829147D01*
X280068Y829047D01*
X280058Y828947D01*
X280052Y828847D01*
X280050Y828746D01*
X280049Y828746D02*
X280049Y826149D01*
X308483Y802065D02*
X320167Y802065D01*
X320167Y805310D01*
X320165Y805423D01*
X320159Y805536D01*
X320149Y805649D01*
X320135Y805762D01*
X320118Y805874D01*
X320096Y805985D01*
X320071Y806095D01*
X320041Y806205D01*
X320008Y806313D01*
X319971Y806420D01*
X319931Y806526D01*
X319886Y806630D01*
X319838Y806733D01*
X319787Y806834D01*
X319732Y806933D01*
X319674Y807030D01*
X319612Y807125D01*
X319547Y807218D01*
X319479Y807308D01*
X319408Y807396D01*
X319333Y807482D01*
X319256Y807565D01*
X319176Y807645D01*
X319093Y807722D01*
X319007Y807797D01*
X318919Y807868D01*
X318829Y807936D01*
X318736Y808001D01*
X318641Y808063D01*
X318544Y808121D01*
X318445Y808176D01*
X318344Y808227D01*
X318241Y808275D01*
X318137Y808320D01*
X318031Y808360D01*
X317924Y808397D01*
X317816Y808430D01*
X317706Y808460D01*
X317596Y808485D01*
X317485Y808507D01*
X317373Y808524D01*
X317260Y808538D01*
X317147Y808548D01*
X317034Y808554D01*
X316921Y808556D01*
X316808Y808554D01*
X316695Y808548D01*
X316582Y808538D01*
X316469Y808524D01*
X316357Y808507D01*
X316246Y808485D01*
X316136Y808460D01*
X316026Y808430D01*
X315918Y808397D01*
X315811Y808360D01*
X315705Y808320D01*
X315601Y808275D01*
X315498Y808227D01*
X315397Y808176D01*
X315298Y808121D01*
X315201Y808063D01*
X315106Y808001D01*
X315013Y807936D01*
X314923Y807868D01*
X314835Y807797D01*
X314749Y807722D01*
X314666Y807645D01*
X314586Y807565D01*
X314509Y807482D01*
X314434Y807396D01*
X314363Y807308D01*
X314295Y807218D01*
X314230Y807125D01*
X314168Y807030D01*
X314110Y806933D01*
X314055Y806834D01*
X314004Y806733D01*
X313956Y806630D01*
X313911Y806526D01*
X313871Y806420D01*
X313834Y806313D01*
X313801Y806205D01*
X313771Y806095D01*
X313746Y805985D01*
X313724Y805874D01*
X313707Y805762D01*
X313693Y805649D01*
X313683Y805536D01*
X313677Y805423D01*
X313675Y805310D01*
X313676Y805310D02*
X313676Y802065D01*
X313676Y805959D02*
X308483Y808556D01*
X317571Y813421D02*
X320167Y816666D01*
X308483Y816666D01*
X308483Y813421D02*
X308483Y819912D01*
X311079Y824851D02*
X320167Y827447D01*
X311079Y824851D02*
X311079Y831342D01*
X313676Y829395D02*
X308483Y829395D01*
X250317Y802065D02*
X238633Y802065D01*
X250317Y802065D02*
X250317Y805310D01*
X250315Y805423D01*
X250309Y805536D01*
X250299Y805649D01*
X250285Y805762D01*
X250268Y805874D01*
X250246Y805985D01*
X250221Y806095D01*
X250191Y806205D01*
X250158Y806313D01*
X250121Y806420D01*
X250081Y806526D01*
X250036Y806630D01*
X249988Y806733D01*
X249937Y806834D01*
X249882Y806933D01*
X249824Y807030D01*
X249762Y807125D01*
X249697Y807218D01*
X249629Y807308D01*
X249558Y807396D01*
X249483Y807482D01*
X249406Y807565D01*
X249326Y807645D01*
X249243Y807722D01*
X249157Y807797D01*
X249069Y807868D01*
X248979Y807936D01*
X248886Y808001D01*
X248791Y808063D01*
X248694Y808121D01*
X248595Y808176D01*
X248494Y808227D01*
X248391Y808275D01*
X248287Y808320D01*
X248181Y808360D01*
X248074Y808397D01*
X247966Y808430D01*
X247856Y808460D01*
X247746Y808485D01*
X247635Y808507D01*
X247523Y808524D01*
X247410Y808538D01*
X247297Y808548D01*
X247184Y808554D01*
X247071Y808556D01*
X246958Y808554D01*
X246845Y808548D01*
X246732Y808538D01*
X246619Y808524D01*
X246507Y808507D01*
X246396Y808485D01*
X246286Y808460D01*
X246176Y808430D01*
X246068Y808397D01*
X245961Y808360D01*
X245855Y808320D01*
X245751Y808275D01*
X245648Y808227D01*
X245547Y808176D01*
X245448Y808121D01*
X245351Y808063D01*
X245256Y808001D01*
X245163Y807936D01*
X245073Y807868D01*
X244985Y807797D01*
X244899Y807722D01*
X244816Y807645D01*
X244736Y807565D01*
X244659Y807482D01*
X244584Y807396D01*
X244513Y807308D01*
X244445Y807218D01*
X244380Y807125D01*
X244318Y807030D01*
X244260Y806933D01*
X244205Y806834D01*
X244154Y806733D01*
X244106Y806630D01*
X244061Y806526D01*
X244021Y806420D01*
X243984Y806313D01*
X243951Y806205D01*
X243921Y806095D01*
X243896Y805985D01*
X243874Y805874D01*
X243857Y805762D01*
X243843Y805649D01*
X243833Y805536D01*
X243827Y805423D01*
X243825Y805310D01*
X243826Y805310D02*
X243826Y802065D01*
X243826Y805959D02*
X238633Y808556D01*
X247721Y813421D02*
X250317Y816666D01*
X238633Y816666D01*
X238633Y813421D02*
X238633Y819912D01*
X238633Y824851D02*
X238633Y828746D01*
X238635Y828845D01*
X238641Y828945D01*
X238650Y829044D01*
X238663Y829142D01*
X238680Y829240D01*
X238701Y829338D01*
X238726Y829434D01*
X238754Y829529D01*
X238786Y829623D01*
X238821Y829716D01*
X238860Y829808D01*
X238903Y829898D01*
X238948Y829986D01*
X238998Y830073D01*
X239050Y830157D01*
X239106Y830240D01*
X239164Y830320D01*
X239226Y830398D01*
X239291Y830473D01*
X239359Y830546D01*
X239429Y830616D01*
X239502Y830684D01*
X239577Y830749D01*
X239655Y830811D01*
X239735Y830869D01*
X239818Y830925D01*
X239902Y830977D01*
X239989Y831027D01*
X240077Y831072D01*
X240167Y831115D01*
X240259Y831154D01*
X240352Y831189D01*
X240446Y831221D01*
X240541Y831249D01*
X240637Y831274D01*
X240735Y831295D01*
X240833Y831312D01*
X240931Y831325D01*
X241030Y831334D01*
X241130Y831340D01*
X241229Y831342D01*
X242528Y831342D01*
X242627Y831340D01*
X242727Y831334D01*
X242826Y831325D01*
X242924Y831312D01*
X243022Y831295D01*
X243120Y831274D01*
X243216Y831249D01*
X243311Y831221D01*
X243405Y831189D01*
X243498Y831154D01*
X243590Y831115D01*
X243680Y831072D01*
X243768Y831027D01*
X243855Y830977D01*
X243939Y830925D01*
X244022Y830869D01*
X244102Y830811D01*
X244180Y830749D01*
X244255Y830684D01*
X244328Y830616D01*
X244398Y830546D01*
X244466Y830473D01*
X244531Y830398D01*
X244593Y830320D01*
X244651Y830240D01*
X244707Y830157D01*
X244759Y830073D01*
X244809Y829986D01*
X244854Y829898D01*
X244897Y829808D01*
X244936Y829716D01*
X244971Y829623D01*
X245003Y829529D01*
X245031Y829434D01*
X245056Y829338D01*
X245077Y829240D01*
X245094Y829142D01*
X245107Y829044D01*
X245116Y828945D01*
X245122Y828845D01*
X245124Y828746D01*
X245124Y824851D01*
X250317Y824851D01*
X250317Y831342D01*
X209042Y802065D02*
X197358Y802065D01*
X209042Y802065D02*
X209042Y805310D01*
X209040Y805423D01*
X209034Y805536D01*
X209024Y805649D01*
X209010Y805762D01*
X208993Y805874D01*
X208971Y805985D01*
X208946Y806095D01*
X208916Y806205D01*
X208883Y806313D01*
X208846Y806420D01*
X208806Y806526D01*
X208761Y806630D01*
X208713Y806733D01*
X208662Y806834D01*
X208607Y806933D01*
X208549Y807030D01*
X208487Y807125D01*
X208422Y807218D01*
X208354Y807308D01*
X208283Y807396D01*
X208208Y807482D01*
X208131Y807565D01*
X208051Y807645D01*
X207968Y807722D01*
X207882Y807797D01*
X207794Y807868D01*
X207704Y807936D01*
X207611Y808001D01*
X207516Y808063D01*
X207419Y808121D01*
X207320Y808176D01*
X207219Y808227D01*
X207116Y808275D01*
X207012Y808320D01*
X206906Y808360D01*
X206799Y808397D01*
X206691Y808430D01*
X206581Y808460D01*
X206471Y808485D01*
X206360Y808507D01*
X206248Y808524D01*
X206135Y808538D01*
X206022Y808548D01*
X205909Y808554D01*
X205796Y808556D01*
X205683Y808554D01*
X205570Y808548D01*
X205457Y808538D01*
X205344Y808524D01*
X205232Y808507D01*
X205121Y808485D01*
X205011Y808460D01*
X204901Y808430D01*
X204793Y808397D01*
X204686Y808360D01*
X204580Y808320D01*
X204476Y808275D01*
X204373Y808227D01*
X204272Y808176D01*
X204173Y808121D01*
X204076Y808063D01*
X203981Y808001D01*
X203888Y807936D01*
X203798Y807868D01*
X203710Y807797D01*
X203624Y807722D01*
X203541Y807645D01*
X203461Y807565D01*
X203384Y807482D01*
X203309Y807396D01*
X203238Y807308D01*
X203170Y807218D01*
X203105Y807125D01*
X203043Y807030D01*
X202985Y806933D01*
X202930Y806834D01*
X202879Y806733D01*
X202831Y806630D01*
X202786Y806526D01*
X202746Y806420D01*
X202709Y806313D01*
X202676Y806205D01*
X202646Y806095D01*
X202621Y805985D01*
X202599Y805874D01*
X202582Y805762D01*
X202568Y805649D01*
X202558Y805536D01*
X202552Y805423D01*
X202550Y805310D01*
X202551Y805310D02*
X202551Y802065D01*
X202551Y805959D02*
X197358Y808556D01*
X206446Y813421D02*
X209042Y816666D01*
X197358Y816666D01*
X197358Y813421D02*
X197358Y819912D01*
X203849Y824851D02*
X203849Y828746D01*
X203847Y828845D01*
X203841Y828945D01*
X203832Y829044D01*
X203819Y829142D01*
X203802Y829240D01*
X203781Y829338D01*
X203756Y829434D01*
X203728Y829529D01*
X203696Y829623D01*
X203661Y829716D01*
X203622Y829808D01*
X203579Y829898D01*
X203534Y829986D01*
X203484Y830073D01*
X203432Y830157D01*
X203376Y830240D01*
X203318Y830320D01*
X203256Y830398D01*
X203191Y830473D01*
X203123Y830546D01*
X203053Y830616D01*
X202980Y830684D01*
X202905Y830749D01*
X202827Y830811D01*
X202747Y830869D01*
X202664Y830925D01*
X202580Y830977D01*
X202493Y831027D01*
X202405Y831072D01*
X202315Y831115D01*
X202223Y831154D01*
X202130Y831189D01*
X202036Y831221D01*
X201941Y831249D01*
X201845Y831274D01*
X201747Y831295D01*
X201649Y831312D01*
X201551Y831325D01*
X201452Y831334D01*
X201352Y831340D01*
X201253Y831342D01*
X200604Y831342D01*
X200491Y831340D01*
X200378Y831334D01*
X200265Y831324D01*
X200152Y831310D01*
X200040Y831293D01*
X199929Y831271D01*
X199819Y831246D01*
X199709Y831216D01*
X199601Y831183D01*
X199494Y831146D01*
X199388Y831106D01*
X199284Y831061D01*
X199181Y831013D01*
X199080Y830962D01*
X198981Y830907D01*
X198884Y830849D01*
X198789Y830787D01*
X198696Y830722D01*
X198606Y830654D01*
X198518Y830583D01*
X198432Y830508D01*
X198349Y830431D01*
X198269Y830351D01*
X198192Y830268D01*
X198117Y830182D01*
X198046Y830094D01*
X197978Y830004D01*
X197913Y829911D01*
X197851Y829816D01*
X197793Y829719D01*
X197738Y829620D01*
X197687Y829519D01*
X197639Y829416D01*
X197594Y829312D01*
X197554Y829206D01*
X197517Y829099D01*
X197484Y828991D01*
X197454Y828881D01*
X197429Y828771D01*
X197407Y828660D01*
X197390Y828548D01*
X197376Y828435D01*
X197366Y828322D01*
X197360Y828209D01*
X197358Y828096D01*
X197360Y827983D01*
X197366Y827870D01*
X197376Y827757D01*
X197390Y827644D01*
X197407Y827532D01*
X197429Y827421D01*
X197454Y827311D01*
X197484Y827201D01*
X197517Y827093D01*
X197554Y826986D01*
X197594Y826880D01*
X197639Y826776D01*
X197687Y826673D01*
X197738Y826572D01*
X197793Y826473D01*
X197851Y826376D01*
X197913Y826281D01*
X197978Y826188D01*
X198046Y826098D01*
X198117Y826010D01*
X198192Y825924D01*
X198269Y825841D01*
X198349Y825761D01*
X198432Y825684D01*
X198518Y825609D01*
X198606Y825538D01*
X198696Y825470D01*
X198789Y825405D01*
X198884Y825343D01*
X198981Y825285D01*
X199080Y825230D01*
X199181Y825179D01*
X199284Y825131D01*
X199388Y825086D01*
X199494Y825046D01*
X199601Y825009D01*
X199709Y824976D01*
X199819Y824946D01*
X199929Y824921D01*
X200040Y824899D01*
X200152Y824882D01*
X200265Y824868D01*
X200378Y824858D01*
X200491Y824852D01*
X200604Y824850D01*
X200604Y824851D02*
X203849Y824851D01*
X203992Y824853D01*
X204135Y824859D01*
X204278Y824869D01*
X204420Y824883D01*
X204562Y824900D01*
X204704Y824922D01*
X204845Y824947D01*
X204985Y824977D01*
X205124Y825010D01*
X205262Y825047D01*
X205399Y825088D01*
X205535Y825132D01*
X205670Y825181D01*
X205803Y825233D01*
X205935Y825288D01*
X206065Y825348D01*
X206194Y825411D01*
X206321Y825477D01*
X206445Y825547D01*
X206568Y825620D01*
X206689Y825697D01*
X206808Y825777D01*
X206924Y825860D01*
X207039Y825946D01*
X207150Y826035D01*
X207260Y826128D01*
X207366Y826223D01*
X207470Y826322D01*
X207571Y826423D01*
X207670Y826527D01*
X207765Y826633D01*
X207858Y826743D01*
X207947Y826854D01*
X208033Y826969D01*
X208116Y827085D01*
X208196Y827204D01*
X208273Y827325D01*
X208346Y827447D01*
X208416Y827572D01*
X208482Y827699D01*
X208545Y827828D01*
X208605Y827958D01*
X208660Y828090D01*
X208712Y828223D01*
X208761Y828358D01*
X208805Y828494D01*
X208846Y828631D01*
X208883Y828769D01*
X208916Y828908D01*
X208946Y829048D01*
X208971Y829189D01*
X208993Y829331D01*
X209010Y829473D01*
X209024Y829615D01*
X209034Y829758D01*
X209040Y829901D01*
X209042Y830044D01*
X330708Y899033D02*
X342392Y899033D01*
X342392Y902279D01*
X342390Y902392D01*
X342384Y902505D01*
X342374Y902618D01*
X342360Y902731D01*
X342343Y902843D01*
X342321Y902954D01*
X342296Y903064D01*
X342266Y903174D01*
X342233Y903282D01*
X342196Y903389D01*
X342156Y903495D01*
X342111Y903599D01*
X342063Y903702D01*
X342012Y903803D01*
X341957Y903902D01*
X341899Y903999D01*
X341837Y904094D01*
X341772Y904187D01*
X341704Y904277D01*
X341633Y904365D01*
X341558Y904451D01*
X341481Y904534D01*
X341401Y904614D01*
X341318Y904691D01*
X341232Y904766D01*
X341144Y904837D01*
X341054Y904905D01*
X340961Y904970D01*
X340866Y905032D01*
X340769Y905090D01*
X340670Y905145D01*
X340569Y905196D01*
X340466Y905244D01*
X340362Y905289D01*
X340256Y905329D01*
X340149Y905366D01*
X340041Y905399D01*
X339931Y905429D01*
X339821Y905454D01*
X339710Y905476D01*
X339598Y905493D01*
X339485Y905507D01*
X339372Y905517D01*
X339259Y905523D01*
X339146Y905525D01*
X339033Y905523D01*
X338920Y905517D01*
X338807Y905507D01*
X338694Y905493D01*
X338582Y905476D01*
X338471Y905454D01*
X338361Y905429D01*
X338251Y905399D01*
X338143Y905366D01*
X338036Y905329D01*
X337930Y905289D01*
X337826Y905244D01*
X337723Y905196D01*
X337622Y905145D01*
X337523Y905090D01*
X337426Y905032D01*
X337331Y904970D01*
X337238Y904905D01*
X337148Y904837D01*
X337060Y904766D01*
X336974Y904691D01*
X336891Y904614D01*
X336811Y904534D01*
X336734Y904451D01*
X336659Y904365D01*
X336588Y904277D01*
X336520Y904187D01*
X336455Y904094D01*
X336393Y903999D01*
X336335Y903902D01*
X336280Y903803D01*
X336229Y903702D01*
X336181Y903599D01*
X336136Y903495D01*
X336096Y903389D01*
X336059Y903282D01*
X336026Y903174D01*
X335996Y903064D01*
X335971Y902954D01*
X335949Y902843D01*
X335932Y902731D01*
X335918Y902618D01*
X335908Y902505D01*
X335902Y902392D01*
X335900Y902279D01*
X335901Y902279D02*
X335901Y899033D01*
X335901Y902928D02*
X330708Y905524D01*
X339796Y910389D02*
X342392Y913635D01*
X330708Y913635D01*
X330708Y916880D02*
X330708Y910389D01*
X341094Y921819D02*
X342392Y921819D01*
X342392Y928310D01*
X330708Y925065D01*
X294767Y940308D02*
X283083Y940308D01*
X294767Y940308D02*
X294767Y943554D01*
X294765Y943667D01*
X294759Y943780D01*
X294749Y943893D01*
X294735Y944006D01*
X294718Y944118D01*
X294696Y944229D01*
X294671Y944339D01*
X294641Y944449D01*
X294608Y944557D01*
X294571Y944664D01*
X294531Y944770D01*
X294486Y944874D01*
X294438Y944977D01*
X294387Y945078D01*
X294332Y945177D01*
X294274Y945274D01*
X294212Y945369D01*
X294147Y945462D01*
X294079Y945552D01*
X294008Y945640D01*
X293933Y945726D01*
X293856Y945809D01*
X293776Y945889D01*
X293693Y945966D01*
X293607Y946041D01*
X293519Y946112D01*
X293429Y946180D01*
X293336Y946245D01*
X293241Y946307D01*
X293144Y946365D01*
X293045Y946420D01*
X292944Y946471D01*
X292841Y946519D01*
X292737Y946564D01*
X292631Y946604D01*
X292524Y946641D01*
X292416Y946674D01*
X292306Y946704D01*
X292196Y946729D01*
X292085Y946751D01*
X291973Y946768D01*
X291860Y946782D01*
X291747Y946792D01*
X291634Y946798D01*
X291521Y946800D01*
X291408Y946798D01*
X291295Y946792D01*
X291182Y946782D01*
X291069Y946768D01*
X290957Y946751D01*
X290846Y946729D01*
X290736Y946704D01*
X290626Y946674D01*
X290518Y946641D01*
X290411Y946604D01*
X290305Y946564D01*
X290201Y946519D01*
X290098Y946471D01*
X289997Y946420D01*
X289898Y946365D01*
X289801Y946307D01*
X289706Y946245D01*
X289613Y946180D01*
X289523Y946112D01*
X289435Y946041D01*
X289349Y945966D01*
X289266Y945889D01*
X289186Y945809D01*
X289109Y945726D01*
X289034Y945640D01*
X288963Y945552D01*
X288895Y945462D01*
X288830Y945369D01*
X288768Y945274D01*
X288710Y945177D01*
X288655Y945078D01*
X288604Y944977D01*
X288556Y944874D01*
X288511Y944770D01*
X288471Y944664D01*
X288434Y944557D01*
X288401Y944449D01*
X288371Y944339D01*
X288346Y944229D01*
X288324Y944118D01*
X288307Y944006D01*
X288293Y943893D01*
X288283Y943780D01*
X288277Y943667D01*
X288275Y943554D01*
X288276Y943554D02*
X288276Y940308D01*
X288276Y944203D02*
X283083Y946799D01*
X292171Y951664D02*
X294767Y954910D01*
X283083Y954910D01*
X283083Y958155D02*
X283083Y951664D01*
X286329Y963094D02*
X286442Y963096D01*
X286555Y963102D01*
X286668Y963112D01*
X286781Y963126D01*
X286893Y963143D01*
X287004Y963165D01*
X287114Y963190D01*
X287224Y963220D01*
X287332Y963253D01*
X287439Y963290D01*
X287545Y963330D01*
X287649Y963375D01*
X287752Y963423D01*
X287853Y963474D01*
X287952Y963529D01*
X288049Y963587D01*
X288144Y963649D01*
X288237Y963714D01*
X288327Y963782D01*
X288415Y963853D01*
X288501Y963928D01*
X288584Y964005D01*
X288664Y964085D01*
X288741Y964168D01*
X288816Y964254D01*
X288887Y964342D01*
X288955Y964432D01*
X289020Y964525D01*
X289082Y964620D01*
X289140Y964717D01*
X289195Y964816D01*
X289246Y964917D01*
X289294Y965020D01*
X289339Y965124D01*
X289379Y965230D01*
X289416Y965337D01*
X289449Y965445D01*
X289479Y965555D01*
X289504Y965665D01*
X289526Y965776D01*
X289543Y965888D01*
X289557Y966001D01*
X289567Y966114D01*
X289573Y966227D01*
X289575Y966340D01*
X289573Y966453D01*
X289567Y966566D01*
X289557Y966679D01*
X289543Y966792D01*
X289526Y966904D01*
X289504Y967015D01*
X289479Y967125D01*
X289449Y967235D01*
X289416Y967343D01*
X289379Y967450D01*
X289339Y967556D01*
X289294Y967660D01*
X289246Y967763D01*
X289195Y967864D01*
X289140Y967963D01*
X289082Y968060D01*
X289020Y968155D01*
X288955Y968248D01*
X288887Y968338D01*
X288816Y968426D01*
X288741Y968512D01*
X288664Y968595D01*
X288584Y968675D01*
X288501Y968752D01*
X288415Y968827D01*
X288327Y968898D01*
X288237Y968966D01*
X288144Y969031D01*
X288049Y969093D01*
X287952Y969151D01*
X287853Y969206D01*
X287752Y969257D01*
X287649Y969305D01*
X287545Y969350D01*
X287439Y969390D01*
X287332Y969427D01*
X287224Y969460D01*
X287114Y969490D01*
X287004Y969515D01*
X286893Y969537D01*
X286781Y969554D01*
X286668Y969568D01*
X286555Y969578D01*
X286442Y969584D01*
X286329Y969586D01*
X286216Y969584D01*
X286103Y969578D01*
X285990Y969568D01*
X285877Y969554D01*
X285765Y969537D01*
X285654Y969515D01*
X285544Y969490D01*
X285434Y969460D01*
X285326Y969427D01*
X285219Y969390D01*
X285113Y969350D01*
X285009Y969305D01*
X284906Y969257D01*
X284805Y969206D01*
X284706Y969151D01*
X284609Y969093D01*
X284514Y969031D01*
X284421Y968966D01*
X284331Y968898D01*
X284243Y968827D01*
X284157Y968752D01*
X284074Y968675D01*
X283994Y968595D01*
X283917Y968512D01*
X283842Y968426D01*
X283771Y968338D01*
X283703Y968248D01*
X283638Y968155D01*
X283576Y968060D01*
X283518Y967963D01*
X283463Y967864D01*
X283412Y967763D01*
X283364Y967660D01*
X283319Y967556D01*
X283279Y967450D01*
X283242Y967343D01*
X283209Y967235D01*
X283179Y967125D01*
X283154Y967015D01*
X283132Y966904D01*
X283115Y966792D01*
X283101Y966679D01*
X283091Y966566D01*
X283085Y966453D01*
X283083Y966340D01*
X283085Y966227D01*
X283091Y966114D01*
X283101Y966001D01*
X283115Y965888D01*
X283132Y965776D01*
X283154Y965665D01*
X283179Y965555D01*
X283209Y965445D01*
X283242Y965337D01*
X283279Y965230D01*
X283319Y965124D01*
X283364Y965020D01*
X283412Y964917D01*
X283463Y964816D01*
X283518Y964717D01*
X283576Y964620D01*
X283638Y964525D01*
X283703Y964432D01*
X283771Y964342D01*
X283842Y964254D01*
X283917Y964168D01*
X283994Y964085D01*
X284074Y964005D01*
X284157Y963928D01*
X284243Y963853D01*
X284331Y963782D01*
X284421Y963714D01*
X284514Y963649D01*
X284609Y963587D01*
X284706Y963529D01*
X284805Y963474D01*
X284906Y963423D01*
X285009Y963375D01*
X285113Y963330D01*
X285219Y963290D01*
X285326Y963253D01*
X285434Y963220D01*
X285544Y963190D01*
X285654Y963165D01*
X285765Y963143D01*
X285877Y963126D01*
X285990Y963112D01*
X286103Y963102D01*
X286216Y963096D01*
X286329Y963094D01*
X292171Y963744D02*
X292272Y963746D01*
X292372Y963752D01*
X292472Y963762D01*
X292572Y963775D01*
X292671Y963793D01*
X292770Y963814D01*
X292867Y963839D01*
X292964Y963868D01*
X293059Y963901D01*
X293153Y963937D01*
X293245Y963977D01*
X293336Y964020D01*
X293425Y964067D01*
X293512Y964117D01*
X293598Y964171D01*
X293681Y964228D01*
X293761Y964288D01*
X293840Y964351D01*
X293916Y964418D01*
X293989Y964487D01*
X294059Y964559D01*
X294127Y964633D01*
X294192Y964710D01*
X294253Y964790D01*
X294312Y964872D01*
X294367Y964956D01*
X294419Y965042D01*
X294468Y965130D01*
X294513Y965220D01*
X294555Y965312D01*
X294593Y965405D01*
X294627Y965500D01*
X294658Y965595D01*
X294685Y965692D01*
X294708Y965790D01*
X294728Y965889D01*
X294743Y965989D01*
X294755Y966089D01*
X294763Y966189D01*
X294767Y966290D01*
X294767Y966390D01*
X294763Y966491D01*
X294755Y966591D01*
X294743Y966691D01*
X294728Y966791D01*
X294708Y966890D01*
X294685Y966988D01*
X294658Y967085D01*
X294627Y967180D01*
X294593Y967275D01*
X294555Y967368D01*
X294513Y967460D01*
X294468Y967550D01*
X294419Y967638D01*
X294367Y967724D01*
X294312Y967808D01*
X294253Y967890D01*
X294192Y967970D01*
X294127Y968047D01*
X294059Y968121D01*
X293989Y968193D01*
X293916Y968262D01*
X293840Y968329D01*
X293761Y968392D01*
X293681Y968452D01*
X293598Y968509D01*
X293512Y968563D01*
X293425Y968613D01*
X293336Y968660D01*
X293245Y968703D01*
X293153Y968743D01*
X293059Y968779D01*
X292964Y968812D01*
X292867Y968841D01*
X292770Y968866D01*
X292671Y968887D01*
X292572Y968905D01*
X292472Y968918D01*
X292372Y968928D01*
X292272Y968934D01*
X292171Y968936D01*
X292070Y968934D01*
X291970Y968928D01*
X291870Y968918D01*
X291770Y968905D01*
X291671Y968887D01*
X291572Y968866D01*
X291475Y968841D01*
X291378Y968812D01*
X291283Y968779D01*
X291189Y968743D01*
X291097Y968703D01*
X291006Y968660D01*
X290917Y968613D01*
X290830Y968563D01*
X290744Y968509D01*
X290661Y968452D01*
X290581Y968392D01*
X290502Y968329D01*
X290426Y968262D01*
X290353Y968193D01*
X290283Y968121D01*
X290215Y968047D01*
X290150Y967970D01*
X290089Y967890D01*
X290030Y967808D01*
X289975Y967724D01*
X289923Y967638D01*
X289874Y967550D01*
X289829Y967460D01*
X289787Y967368D01*
X289749Y967275D01*
X289715Y967180D01*
X289684Y967085D01*
X289657Y966988D01*
X289634Y966890D01*
X289614Y966791D01*
X289599Y966691D01*
X289587Y966591D01*
X289579Y966491D01*
X289575Y966390D01*
X289575Y966290D01*
X289579Y966189D01*
X289587Y966089D01*
X289599Y965989D01*
X289614Y965889D01*
X289634Y965790D01*
X289657Y965692D01*
X289684Y965595D01*
X289715Y965500D01*
X289749Y965405D01*
X289787Y965312D01*
X289829Y965220D01*
X289874Y965130D01*
X289923Y965042D01*
X289975Y964956D01*
X290030Y964872D01*
X290089Y964790D01*
X290150Y964710D01*
X290215Y964633D01*
X290283Y964559D01*
X290353Y964487D01*
X290426Y964418D01*
X290502Y964351D01*
X290581Y964288D01*
X290661Y964228D01*
X290744Y964171D01*
X290830Y964117D01*
X290917Y964067D01*
X291006Y964020D01*
X291097Y963977D01*
X291189Y963937D01*
X291283Y963901D01*
X291378Y963868D01*
X291475Y963839D01*
X291572Y963814D01*
X291671Y963793D01*
X291770Y963775D01*
X291870Y963762D01*
X291970Y963752D01*
X292070Y963746D01*
X292171Y963744D01*
M02*
