G04 EAGLE Gerber X2 export*
G75*
%MOMM*%
%FSLAX34Y34*%
%LPD*%
%AMOC8*
5,1,8,0,0,1.08239X$1,22.5*%
G01*
%ADD10C,0.101600*%
%ADD11C,0.127000*%
%ADD12C,0.152400*%
%ADD13C,0.000000*%
%ADD14C,0.076200*%
%ADD15C,0.254000*%
%ADD16C,0.203200*%
%ADD17R,1.000000X0.250000*%
%ADD18C,0.508000*%
%ADD19R,10.668000X0.762000*%
%ADD20R,1.905000X0.508000*%
%ADD21R,0.762000X0.508000*%
%ADD22R,0.889000X0.889000*%


D10*
X512657Y23269D02*
X512558Y23061D01*
X512465Y22851D01*
X512377Y22639D01*
X512294Y22425D01*
X512216Y22208D01*
X512143Y21990D01*
X512075Y21771D01*
X512013Y21549D01*
X511956Y21327D01*
X511904Y21103D01*
X511858Y20878D01*
X511817Y20652D01*
X511782Y20424D01*
X511752Y20197D01*
X511727Y19968D01*
X511708Y19739D01*
X511694Y19510D01*
X511686Y19280D01*
X511683Y19050D01*
X512657Y23269D02*
X512690Y23359D01*
X512726Y23448D01*
X512766Y23536D01*
X512810Y23621D01*
X512857Y23705D01*
X512907Y23787D01*
X512961Y23867D01*
X513017Y23944D01*
X513077Y24020D01*
X513140Y24093D01*
X513205Y24163D01*
X513274Y24231D01*
X513345Y24295D01*
X513418Y24357D01*
X513494Y24416D01*
X513572Y24472D01*
X513653Y24525D01*
X513735Y24574D01*
X513819Y24620D01*
X513906Y24663D01*
X513993Y24702D01*
X514083Y24738D01*
X514173Y24770D01*
X514265Y24798D01*
X514358Y24823D01*
X514452Y24844D01*
X514546Y24861D01*
X514641Y24875D01*
X514737Y24884D01*
X514833Y24890D01*
X514929Y24892D01*
X515025Y24890D01*
X515121Y24884D01*
X515217Y24875D01*
X515312Y24861D01*
X515406Y24844D01*
X515500Y24823D01*
X515593Y24798D01*
X515685Y24770D01*
X515775Y24738D01*
X515865Y24702D01*
X515952Y24663D01*
X516039Y24620D01*
X516123Y24574D01*
X516205Y24525D01*
X516286Y24472D01*
X516364Y24416D01*
X516440Y24357D01*
X516513Y24295D01*
X516584Y24231D01*
X516653Y24163D01*
X516718Y24093D01*
X516781Y24020D01*
X516841Y23944D01*
X516897Y23867D01*
X516951Y23787D01*
X517001Y23705D01*
X517048Y23621D01*
X517092Y23536D01*
X517132Y23448D01*
X517168Y23359D01*
X517201Y23269D01*
X517300Y23062D01*
X517393Y22852D01*
X517481Y22639D01*
X517564Y22425D01*
X517642Y22209D01*
X517715Y21991D01*
X517783Y21771D01*
X517845Y21550D01*
X517902Y21327D01*
X517954Y21103D01*
X518000Y20878D01*
X518041Y20652D01*
X518076Y20425D01*
X518106Y20197D01*
X518131Y19968D01*
X518150Y19739D01*
X518164Y19510D01*
X518172Y19280D01*
X518175Y19050D01*
X511683Y19050D02*
X511686Y18820D01*
X511694Y18590D01*
X511708Y18361D01*
X511727Y18132D01*
X511752Y17903D01*
X511782Y17675D01*
X511817Y17448D01*
X511858Y17222D01*
X511904Y16997D01*
X511956Y16773D01*
X512013Y16550D01*
X512075Y16329D01*
X512143Y16109D01*
X512216Y15891D01*
X512294Y15675D01*
X512377Y15461D01*
X512465Y15249D01*
X512558Y15038D01*
X512657Y14831D01*
X512690Y14741D01*
X512726Y14652D01*
X512767Y14564D01*
X512810Y14479D01*
X512857Y14395D01*
X512907Y14313D01*
X512961Y14233D01*
X513017Y14156D01*
X513077Y14080D01*
X513140Y14007D01*
X513205Y13937D01*
X513274Y13869D01*
X513345Y13805D01*
X513418Y13743D01*
X513494Y13684D01*
X513572Y13628D01*
X513653Y13575D01*
X513735Y13526D01*
X513819Y13480D01*
X513906Y13437D01*
X513993Y13398D01*
X514083Y13362D01*
X514173Y13330D01*
X514265Y13302D01*
X514358Y13277D01*
X514452Y13256D01*
X514546Y13239D01*
X514641Y13225D01*
X514737Y13216D01*
X514833Y13210D01*
X514929Y13208D01*
X517200Y14831D02*
X517299Y15038D01*
X517392Y15249D01*
X517480Y15461D01*
X517563Y15675D01*
X517641Y15891D01*
X517714Y16109D01*
X517782Y16329D01*
X517844Y16550D01*
X517901Y16773D01*
X517953Y16997D01*
X517999Y17222D01*
X518040Y17448D01*
X518075Y17675D01*
X518105Y17903D01*
X518130Y18132D01*
X518149Y18361D01*
X518163Y18590D01*
X518171Y18820D01*
X518174Y19050D01*
X517201Y14831D02*
X517168Y14741D01*
X517132Y14652D01*
X517092Y14564D01*
X517048Y14479D01*
X517001Y14395D01*
X516951Y14313D01*
X516897Y14233D01*
X516841Y14156D01*
X516781Y14080D01*
X516718Y14007D01*
X516653Y13937D01*
X516584Y13869D01*
X516513Y13805D01*
X516440Y13743D01*
X516364Y13684D01*
X516286Y13628D01*
X516205Y13575D01*
X516123Y13526D01*
X516039Y13480D01*
X515952Y13437D01*
X515865Y13398D01*
X515775Y13362D01*
X515685Y13330D01*
X515593Y13302D01*
X515500Y13277D01*
X515406Y13256D01*
X515312Y13239D01*
X515217Y13225D01*
X515121Y13216D01*
X515025Y13210D01*
X514929Y13208D01*
X512332Y15804D02*
X517525Y22296D01*
X522605Y13857D02*
X522605Y13208D01*
X522605Y13857D02*
X523254Y13857D01*
X523254Y13208D01*
X522605Y13208D01*
X534176Y21971D02*
X534174Y22078D01*
X534168Y22184D01*
X534158Y22290D01*
X534145Y22396D01*
X534127Y22502D01*
X534106Y22606D01*
X534081Y22710D01*
X534052Y22813D01*
X534020Y22914D01*
X533983Y23014D01*
X533943Y23113D01*
X533900Y23211D01*
X533853Y23307D01*
X533802Y23401D01*
X533748Y23493D01*
X533691Y23583D01*
X533631Y23671D01*
X533567Y23756D01*
X533500Y23839D01*
X533430Y23920D01*
X533358Y23998D01*
X533282Y24074D01*
X533204Y24146D01*
X533123Y24216D01*
X533040Y24283D01*
X532955Y24347D01*
X532867Y24407D01*
X532777Y24464D01*
X532685Y24518D01*
X532591Y24569D01*
X532495Y24616D01*
X532397Y24659D01*
X532298Y24699D01*
X532198Y24736D01*
X532097Y24768D01*
X531994Y24797D01*
X531890Y24822D01*
X531786Y24843D01*
X531680Y24861D01*
X531574Y24874D01*
X531468Y24884D01*
X531362Y24890D01*
X531255Y24892D01*
X531134Y24890D01*
X531013Y24884D01*
X530893Y24874D01*
X530772Y24861D01*
X530653Y24843D01*
X530533Y24822D01*
X530415Y24797D01*
X530298Y24768D01*
X530181Y24735D01*
X530066Y24699D01*
X529952Y24658D01*
X529839Y24615D01*
X529727Y24567D01*
X529618Y24516D01*
X529510Y24461D01*
X529403Y24403D01*
X529299Y24342D01*
X529197Y24277D01*
X529097Y24209D01*
X528999Y24138D01*
X528903Y24064D01*
X528810Y23987D01*
X528720Y23906D01*
X528632Y23823D01*
X528547Y23737D01*
X528464Y23648D01*
X528385Y23557D01*
X528308Y23463D01*
X528235Y23367D01*
X528165Y23269D01*
X528098Y23168D01*
X528034Y23065D01*
X527974Y22960D01*
X527917Y22853D01*
X527863Y22745D01*
X527813Y22635D01*
X527767Y22523D01*
X527724Y22410D01*
X527685Y22295D01*
X533203Y19699D02*
X533282Y19776D01*
X533358Y19857D01*
X533431Y19940D01*
X533501Y20025D01*
X533568Y20113D01*
X533632Y20203D01*
X533692Y20295D01*
X533749Y20390D01*
X533803Y20486D01*
X533854Y20584D01*
X533901Y20684D01*
X533945Y20786D01*
X533985Y20889D01*
X534021Y20993D01*
X534053Y21099D01*
X534082Y21205D01*
X534107Y21313D01*
X534129Y21421D01*
X534146Y21531D01*
X534160Y21640D01*
X534169Y21750D01*
X534175Y21861D01*
X534177Y21971D01*
X533202Y19699D02*
X527685Y13208D01*
X534176Y13208D01*
X539570Y13208D02*
X539570Y24892D01*
X542815Y24892D01*
X542928Y24890D01*
X543041Y24884D01*
X543154Y24874D01*
X543267Y24860D01*
X543379Y24843D01*
X543490Y24821D01*
X543600Y24796D01*
X543710Y24766D01*
X543818Y24733D01*
X543925Y24696D01*
X544031Y24656D01*
X544135Y24611D01*
X544238Y24563D01*
X544339Y24512D01*
X544438Y24457D01*
X544535Y24399D01*
X544630Y24337D01*
X544723Y24272D01*
X544813Y24204D01*
X544901Y24133D01*
X544987Y24058D01*
X545070Y23981D01*
X545150Y23901D01*
X545227Y23818D01*
X545302Y23732D01*
X545373Y23644D01*
X545441Y23554D01*
X545506Y23461D01*
X545568Y23366D01*
X545626Y23269D01*
X545681Y23170D01*
X545732Y23069D01*
X545780Y22966D01*
X545825Y22862D01*
X545865Y22756D01*
X545902Y22649D01*
X545935Y22541D01*
X545965Y22431D01*
X545990Y22321D01*
X546012Y22210D01*
X546029Y22098D01*
X546043Y21985D01*
X546053Y21872D01*
X546059Y21759D01*
X546061Y21646D01*
X546059Y21533D01*
X546053Y21420D01*
X546043Y21307D01*
X546029Y21194D01*
X546012Y21082D01*
X545990Y20971D01*
X545965Y20861D01*
X545935Y20751D01*
X545902Y20643D01*
X545865Y20536D01*
X545825Y20430D01*
X545780Y20326D01*
X545732Y20223D01*
X545681Y20122D01*
X545626Y20023D01*
X545568Y19926D01*
X545506Y19831D01*
X545441Y19738D01*
X545373Y19648D01*
X545302Y19560D01*
X545227Y19474D01*
X545150Y19391D01*
X545070Y19311D01*
X544987Y19234D01*
X544901Y19159D01*
X544813Y19088D01*
X544723Y19020D01*
X544630Y18955D01*
X544535Y18893D01*
X544438Y18835D01*
X544339Y18780D01*
X544238Y18729D01*
X544135Y18681D01*
X544031Y18636D01*
X543925Y18596D01*
X543818Y18559D01*
X543710Y18526D01*
X543600Y18496D01*
X543490Y18471D01*
X543379Y18449D01*
X543267Y18432D01*
X543154Y18418D01*
X543041Y18408D01*
X542928Y18402D01*
X542815Y18400D01*
X542815Y18401D02*
X539570Y18401D01*
X543464Y18401D02*
X546061Y13208D01*
X550926Y19699D02*
X554821Y19699D01*
X554920Y19697D01*
X555020Y19691D01*
X555119Y19682D01*
X555217Y19669D01*
X555315Y19652D01*
X555413Y19631D01*
X555509Y19606D01*
X555604Y19578D01*
X555698Y19546D01*
X555791Y19511D01*
X555883Y19472D01*
X555973Y19429D01*
X556061Y19384D01*
X556148Y19334D01*
X556232Y19282D01*
X556315Y19226D01*
X556395Y19168D01*
X556473Y19106D01*
X556548Y19041D01*
X556621Y18973D01*
X556691Y18903D01*
X556759Y18830D01*
X556824Y18755D01*
X556886Y18677D01*
X556944Y18597D01*
X557000Y18514D01*
X557052Y18430D01*
X557102Y18343D01*
X557147Y18255D01*
X557190Y18165D01*
X557229Y18073D01*
X557264Y17980D01*
X557296Y17886D01*
X557324Y17791D01*
X557349Y17695D01*
X557370Y17597D01*
X557387Y17499D01*
X557400Y17401D01*
X557409Y17302D01*
X557415Y17202D01*
X557417Y17103D01*
X557417Y16454D01*
X557415Y16341D01*
X557409Y16228D01*
X557399Y16115D01*
X557385Y16002D01*
X557368Y15890D01*
X557346Y15779D01*
X557321Y15669D01*
X557291Y15559D01*
X557258Y15451D01*
X557221Y15344D01*
X557181Y15238D01*
X557136Y15134D01*
X557088Y15031D01*
X557037Y14930D01*
X556982Y14831D01*
X556924Y14734D01*
X556862Y14639D01*
X556797Y14546D01*
X556729Y14456D01*
X556658Y14368D01*
X556583Y14282D01*
X556506Y14199D01*
X556426Y14119D01*
X556343Y14042D01*
X556257Y13967D01*
X556169Y13896D01*
X556079Y13828D01*
X555986Y13763D01*
X555891Y13701D01*
X555794Y13643D01*
X555695Y13588D01*
X555594Y13537D01*
X555491Y13489D01*
X555387Y13444D01*
X555281Y13404D01*
X555174Y13367D01*
X555066Y13334D01*
X554956Y13304D01*
X554846Y13279D01*
X554735Y13257D01*
X554623Y13240D01*
X554510Y13226D01*
X554397Y13216D01*
X554284Y13210D01*
X554171Y13208D01*
X554058Y13210D01*
X553945Y13216D01*
X553832Y13226D01*
X553719Y13240D01*
X553607Y13257D01*
X553496Y13279D01*
X553386Y13304D01*
X553276Y13334D01*
X553168Y13367D01*
X553061Y13404D01*
X552955Y13444D01*
X552851Y13489D01*
X552748Y13537D01*
X552647Y13588D01*
X552548Y13643D01*
X552451Y13701D01*
X552356Y13763D01*
X552263Y13828D01*
X552173Y13896D01*
X552085Y13967D01*
X551999Y14042D01*
X551916Y14119D01*
X551836Y14199D01*
X551759Y14282D01*
X551684Y14368D01*
X551613Y14456D01*
X551545Y14546D01*
X551480Y14639D01*
X551418Y14734D01*
X551360Y14831D01*
X551305Y14930D01*
X551254Y15031D01*
X551206Y15134D01*
X551161Y15238D01*
X551121Y15344D01*
X551084Y15451D01*
X551051Y15559D01*
X551021Y15669D01*
X550996Y15779D01*
X550974Y15890D01*
X550957Y16002D01*
X550943Y16115D01*
X550933Y16228D01*
X550927Y16341D01*
X550925Y16454D01*
X550926Y16454D02*
X550926Y19699D01*
X550928Y19842D01*
X550934Y19985D01*
X550944Y20128D01*
X550958Y20270D01*
X550975Y20412D01*
X550997Y20554D01*
X551022Y20695D01*
X551052Y20835D01*
X551085Y20974D01*
X551122Y21112D01*
X551163Y21249D01*
X551207Y21385D01*
X551256Y21520D01*
X551308Y21653D01*
X551363Y21785D01*
X551423Y21915D01*
X551486Y22044D01*
X551552Y22171D01*
X551622Y22295D01*
X551695Y22418D01*
X551772Y22539D01*
X551852Y22658D01*
X551935Y22774D01*
X552021Y22889D01*
X552110Y23000D01*
X552203Y23110D01*
X552298Y23216D01*
X552397Y23320D01*
X552498Y23421D01*
X552602Y23520D01*
X552708Y23615D01*
X552818Y23708D01*
X552929Y23797D01*
X553044Y23883D01*
X553160Y23966D01*
X553279Y24046D01*
X553400Y24123D01*
X553522Y24196D01*
X553647Y24266D01*
X553774Y24332D01*
X553903Y24395D01*
X554033Y24455D01*
X554165Y24510D01*
X554298Y24562D01*
X554433Y24611D01*
X554569Y24655D01*
X554706Y24696D01*
X554844Y24733D01*
X554983Y24766D01*
X555123Y24796D01*
X555264Y24821D01*
X555406Y24843D01*
X555548Y24860D01*
X555690Y24874D01*
X555833Y24884D01*
X555976Y24890D01*
X556119Y24892D01*
X565926Y24892D02*
X566033Y24890D01*
X566139Y24884D01*
X566245Y24874D01*
X566351Y24861D01*
X566457Y24843D01*
X566561Y24822D01*
X566665Y24797D01*
X566768Y24768D01*
X566869Y24736D01*
X566969Y24699D01*
X567068Y24659D01*
X567166Y24616D01*
X567262Y24569D01*
X567356Y24518D01*
X567448Y24464D01*
X567538Y24407D01*
X567626Y24347D01*
X567711Y24283D01*
X567794Y24216D01*
X567875Y24146D01*
X567953Y24074D01*
X568029Y23998D01*
X568101Y23920D01*
X568171Y23839D01*
X568238Y23756D01*
X568302Y23671D01*
X568362Y23583D01*
X568419Y23493D01*
X568473Y23401D01*
X568524Y23307D01*
X568571Y23211D01*
X568614Y23113D01*
X568654Y23014D01*
X568691Y22914D01*
X568723Y22813D01*
X568752Y22710D01*
X568777Y22606D01*
X568798Y22502D01*
X568816Y22396D01*
X568829Y22290D01*
X568839Y22184D01*
X568845Y22078D01*
X568847Y21971D01*
X565926Y24892D02*
X565805Y24890D01*
X565684Y24884D01*
X565564Y24874D01*
X565443Y24861D01*
X565324Y24843D01*
X565204Y24822D01*
X565086Y24797D01*
X564969Y24768D01*
X564852Y24735D01*
X564737Y24699D01*
X564623Y24658D01*
X564510Y24615D01*
X564398Y24567D01*
X564289Y24516D01*
X564181Y24461D01*
X564074Y24403D01*
X563970Y24342D01*
X563868Y24277D01*
X563768Y24209D01*
X563670Y24138D01*
X563574Y24064D01*
X563481Y23987D01*
X563391Y23906D01*
X563303Y23823D01*
X563218Y23737D01*
X563135Y23648D01*
X563056Y23557D01*
X562979Y23463D01*
X562906Y23367D01*
X562836Y23269D01*
X562769Y23168D01*
X562705Y23065D01*
X562645Y22960D01*
X562588Y22853D01*
X562534Y22745D01*
X562484Y22635D01*
X562438Y22523D01*
X562395Y22410D01*
X562356Y22295D01*
X567873Y19699D02*
X567952Y19776D01*
X568028Y19857D01*
X568101Y19940D01*
X568171Y20025D01*
X568238Y20113D01*
X568302Y20203D01*
X568362Y20295D01*
X568419Y20390D01*
X568473Y20486D01*
X568524Y20584D01*
X568571Y20684D01*
X568615Y20786D01*
X568655Y20889D01*
X568691Y20993D01*
X568723Y21099D01*
X568752Y21205D01*
X568777Y21313D01*
X568799Y21421D01*
X568816Y21531D01*
X568830Y21640D01*
X568839Y21750D01*
X568845Y21861D01*
X568847Y21971D01*
X567873Y19699D02*
X562356Y13208D01*
X568847Y13208D01*
X573786Y15804D02*
X576382Y24892D01*
X573786Y15804D02*
X580277Y15804D01*
X578330Y18401D02*
X578330Y13208D01*
D11*
X41275Y25400D02*
X41275Y279400D01*
X41275Y25400D02*
X15875Y25400D01*
X15875Y279400D01*
X41275Y279400D01*
X612775Y279400D02*
X612775Y25400D01*
X587375Y25400D01*
X587375Y279400D01*
X612775Y279400D01*
D12*
X394716Y483108D02*
X367284Y483108D01*
X384048Y532892D02*
X394716Y532892D01*
X384048Y532892D02*
X377952Y532892D01*
X367284Y532892D01*
D13*
X377952Y532892D02*
X377954Y532783D01*
X377960Y532675D01*
X377969Y532566D01*
X377983Y532458D01*
X378000Y532351D01*
X378022Y532244D01*
X378047Y532138D01*
X378075Y532033D01*
X378108Y531929D01*
X378144Y531827D01*
X378184Y531726D01*
X378227Y531626D01*
X378274Y531528D01*
X378325Y531431D01*
X378379Y531337D01*
X378436Y531244D01*
X378496Y531154D01*
X378560Y531065D01*
X378627Y530979D01*
X378696Y530896D01*
X378769Y530815D01*
X378845Y530737D01*
X378923Y530661D01*
X379004Y530588D01*
X379087Y530519D01*
X379173Y530452D01*
X379262Y530388D01*
X379352Y530328D01*
X379445Y530271D01*
X379539Y530217D01*
X379636Y530166D01*
X379734Y530119D01*
X379834Y530076D01*
X379935Y530036D01*
X380037Y530000D01*
X380141Y529967D01*
X380246Y529939D01*
X380352Y529914D01*
X380459Y529892D01*
X380566Y529875D01*
X380674Y529861D01*
X380783Y529852D01*
X380891Y529846D01*
X381000Y529844D01*
X381109Y529846D01*
X381217Y529852D01*
X381326Y529861D01*
X381434Y529875D01*
X381541Y529892D01*
X381648Y529914D01*
X381754Y529939D01*
X381859Y529967D01*
X381963Y530000D01*
X382065Y530036D01*
X382166Y530076D01*
X382266Y530119D01*
X382364Y530166D01*
X382461Y530217D01*
X382555Y530271D01*
X382648Y530328D01*
X382738Y530388D01*
X382827Y530452D01*
X382913Y530519D01*
X382996Y530588D01*
X383077Y530661D01*
X383155Y530737D01*
X383231Y530815D01*
X383304Y530896D01*
X383373Y530979D01*
X383440Y531065D01*
X383504Y531154D01*
X383564Y531244D01*
X383621Y531337D01*
X383675Y531431D01*
X383726Y531528D01*
X383773Y531626D01*
X383816Y531726D01*
X383856Y531827D01*
X383892Y531929D01*
X383925Y532033D01*
X383953Y532138D01*
X383978Y532244D01*
X384000Y532351D01*
X384017Y532458D01*
X384031Y532566D01*
X384040Y532675D01*
X384046Y532783D01*
X384048Y532892D01*
D14*
X351951Y536447D02*
X351951Y540435D01*
X351951Y536447D02*
X354277Y533457D01*
X351951Y536447D02*
X349625Y533457D01*
X351951Y536447D02*
X355606Y537777D01*
X351951Y536447D02*
X348296Y537777D01*
D10*
X731012Y423183D02*
X731012Y421186D01*
X731010Y421099D01*
X731004Y421012D01*
X730995Y420925D01*
X730982Y420839D01*
X730965Y420754D01*
X730944Y420669D01*
X730920Y420586D01*
X730892Y420503D01*
X730860Y420422D01*
X730825Y420342D01*
X730786Y420264D01*
X730745Y420188D01*
X730699Y420114D01*
X730651Y420041D01*
X730600Y419971D01*
X730545Y419903D01*
X730488Y419838D01*
X730427Y419775D01*
X730364Y419714D01*
X730299Y419657D01*
X730231Y419602D01*
X730161Y419551D01*
X730088Y419503D01*
X730014Y419457D01*
X729938Y419416D01*
X729860Y419377D01*
X729780Y419342D01*
X729699Y419310D01*
X729616Y419282D01*
X729533Y419258D01*
X729448Y419237D01*
X729363Y419220D01*
X729277Y419207D01*
X729190Y419198D01*
X729103Y419192D01*
X729016Y419190D01*
X724024Y419190D01*
X724024Y419189D02*
X723937Y419191D01*
X723850Y419197D01*
X723763Y419206D01*
X723677Y419219D01*
X723592Y419236D01*
X723507Y419257D01*
X723424Y419281D01*
X723341Y419309D01*
X723260Y419341D01*
X723180Y419376D01*
X723102Y419415D01*
X723026Y419457D01*
X722951Y419502D01*
X722879Y419550D01*
X722808Y419602D01*
X722740Y419656D01*
X722675Y419714D01*
X722612Y419774D01*
X722552Y419837D01*
X722494Y419902D01*
X722440Y419970D01*
X722388Y420041D01*
X722340Y420113D01*
X722295Y420187D01*
X722253Y420264D01*
X722214Y420342D01*
X722179Y420422D01*
X722147Y420503D01*
X722119Y420585D01*
X722095Y420669D01*
X722074Y420754D01*
X722057Y420839D01*
X722044Y420925D01*
X722035Y421012D01*
X722029Y421099D01*
X722027Y421186D01*
X722028Y421186D02*
X722028Y423183D01*
X727019Y428716D02*
X727019Y431710D01*
X727019Y428716D02*
X727017Y428629D01*
X727011Y428542D01*
X727002Y428455D01*
X726989Y428369D01*
X726972Y428284D01*
X726951Y428199D01*
X726927Y428116D01*
X726899Y428033D01*
X726867Y427952D01*
X726832Y427872D01*
X726793Y427794D01*
X726752Y427718D01*
X726706Y427644D01*
X726658Y427571D01*
X726607Y427501D01*
X726552Y427433D01*
X726495Y427368D01*
X726434Y427305D01*
X726371Y427244D01*
X726306Y427187D01*
X726238Y427132D01*
X726168Y427081D01*
X726095Y427033D01*
X726021Y426987D01*
X725945Y426946D01*
X725867Y426907D01*
X725787Y426872D01*
X725706Y426840D01*
X725623Y426812D01*
X725540Y426788D01*
X725455Y426767D01*
X725370Y426750D01*
X725284Y426737D01*
X725197Y426728D01*
X725110Y426722D01*
X725023Y426720D01*
X725023Y426719D02*
X724524Y426719D01*
X724425Y426721D01*
X724326Y426727D01*
X724227Y426737D01*
X724129Y426751D01*
X724031Y426768D01*
X723934Y426790D01*
X723838Y426815D01*
X723743Y426844D01*
X723650Y426877D01*
X723557Y426914D01*
X723467Y426954D01*
X723378Y426998D01*
X723290Y427045D01*
X723205Y427096D01*
X723122Y427150D01*
X723041Y427207D01*
X722962Y427268D01*
X722886Y427332D01*
X722812Y427398D01*
X722742Y427468D01*
X722674Y427540D01*
X722608Y427615D01*
X722546Y427692D01*
X722487Y427772D01*
X722432Y427854D01*
X722379Y427938D01*
X722330Y428025D01*
X722284Y428113D01*
X722242Y428203D01*
X722204Y428294D01*
X722169Y428387D01*
X722138Y428482D01*
X722111Y428577D01*
X722087Y428673D01*
X722068Y428771D01*
X722052Y428869D01*
X722040Y428967D01*
X722032Y429066D01*
X722028Y429165D01*
X722028Y429265D01*
X722032Y429364D01*
X722040Y429463D01*
X722052Y429561D01*
X722068Y429659D01*
X722087Y429757D01*
X722111Y429853D01*
X722138Y429948D01*
X722169Y430043D01*
X722204Y430136D01*
X722242Y430227D01*
X722284Y430317D01*
X722330Y430405D01*
X722379Y430492D01*
X722432Y430576D01*
X722487Y430658D01*
X722546Y430738D01*
X722608Y430815D01*
X722674Y430890D01*
X722742Y430962D01*
X722812Y431032D01*
X722886Y431098D01*
X722962Y431162D01*
X723041Y431223D01*
X723122Y431280D01*
X723205Y431334D01*
X723290Y431385D01*
X723378Y431432D01*
X723467Y431476D01*
X723557Y431516D01*
X723650Y431553D01*
X723743Y431586D01*
X723838Y431615D01*
X723934Y431640D01*
X724031Y431662D01*
X724129Y431679D01*
X724227Y431693D01*
X724326Y431703D01*
X724425Y431709D01*
X724524Y431711D01*
X724524Y431710D02*
X727019Y431710D01*
X727019Y431711D02*
X727144Y431709D01*
X727270Y431703D01*
X727395Y431693D01*
X727519Y431680D01*
X727644Y431662D01*
X727767Y431640D01*
X727890Y431615D01*
X728012Y431586D01*
X728133Y431552D01*
X728253Y431516D01*
X728372Y431475D01*
X728489Y431431D01*
X728605Y431383D01*
X728719Y431331D01*
X728832Y431276D01*
X728943Y431217D01*
X729052Y431155D01*
X729159Y431089D01*
X729263Y431021D01*
X729366Y430948D01*
X729466Y430873D01*
X729564Y430795D01*
X729660Y430713D01*
X729752Y430629D01*
X729842Y430541D01*
X729930Y430451D01*
X730014Y430359D01*
X730096Y430263D01*
X730174Y430165D01*
X730249Y430065D01*
X730322Y429962D01*
X730390Y429858D01*
X730456Y429751D01*
X730518Y429642D01*
X730577Y429531D01*
X730632Y429418D01*
X730684Y429304D01*
X730732Y429188D01*
X730776Y429071D01*
X730817Y428952D01*
X730853Y428832D01*
X730887Y428711D01*
X730916Y428589D01*
X730941Y428466D01*
X730963Y428343D01*
X730981Y428218D01*
X730994Y428094D01*
X731004Y427969D01*
X731010Y427843D01*
X731012Y427718D01*
X335247Y513261D02*
X335247Y515258D01*
X335247Y513261D02*
X335245Y513174D01*
X335239Y513087D01*
X335230Y513000D01*
X335217Y512914D01*
X335200Y512829D01*
X335179Y512744D01*
X335155Y512661D01*
X335127Y512578D01*
X335095Y512497D01*
X335060Y512417D01*
X335021Y512339D01*
X334980Y512263D01*
X334934Y512189D01*
X334886Y512116D01*
X334835Y512046D01*
X334780Y511978D01*
X334723Y511913D01*
X334662Y511850D01*
X334599Y511789D01*
X334534Y511732D01*
X334466Y511677D01*
X334396Y511626D01*
X334323Y511578D01*
X334249Y511532D01*
X334173Y511491D01*
X334095Y511452D01*
X334015Y511417D01*
X333934Y511385D01*
X333851Y511357D01*
X333768Y511333D01*
X333683Y511312D01*
X333598Y511295D01*
X333512Y511282D01*
X333425Y511273D01*
X333338Y511267D01*
X333251Y511265D01*
X328259Y511265D01*
X328259Y511264D02*
X328172Y511266D01*
X328085Y511272D01*
X327998Y511281D01*
X327912Y511294D01*
X327827Y511311D01*
X327742Y511332D01*
X327659Y511356D01*
X327576Y511384D01*
X327495Y511416D01*
X327415Y511451D01*
X327337Y511490D01*
X327261Y511532D01*
X327186Y511577D01*
X327114Y511625D01*
X327043Y511677D01*
X326975Y511731D01*
X326910Y511789D01*
X326847Y511849D01*
X326787Y511912D01*
X326729Y511977D01*
X326675Y512045D01*
X326623Y512116D01*
X326575Y512188D01*
X326530Y512262D01*
X326488Y512339D01*
X326449Y512417D01*
X326414Y512497D01*
X326382Y512578D01*
X326354Y512660D01*
X326330Y512744D01*
X326309Y512829D01*
X326292Y512914D01*
X326279Y513000D01*
X326270Y513087D01*
X326264Y513174D01*
X326262Y513261D01*
X326263Y513261D02*
X326263Y515258D01*
X335247Y518794D02*
X335247Y521290D01*
X335245Y521389D01*
X335239Y521488D01*
X335229Y521587D01*
X335215Y521685D01*
X335198Y521783D01*
X335176Y521880D01*
X335151Y521976D01*
X335122Y522071D01*
X335089Y522164D01*
X335052Y522257D01*
X335012Y522347D01*
X334968Y522436D01*
X334921Y522524D01*
X334870Y522609D01*
X334816Y522692D01*
X334759Y522773D01*
X334698Y522852D01*
X334634Y522928D01*
X334568Y523002D01*
X334498Y523072D01*
X334426Y523140D01*
X334351Y523206D01*
X334274Y523268D01*
X334194Y523327D01*
X334112Y523382D01*
X334028Y523435D01*
X333941Y523484D01*
X333853Y523530D01*
X333763Y523572D01*
X333672Y523610D01*
X333579Y523645D01*
X333484Y523676D01*
X333389Y523703D01*
X333293Y523727D01*
X333195Y523746D01*
X333097Y523762D01*
X332999Y523774D01*
X332900Y523782D01*
X332801Y523786D01*
X332701Y523786D01*
X332602Y523782D01*
X332503Y523774D01*
X332405Y523762D01*
X332307Y523746D01*
X332209Y523727D01*
X332113Y523703D01*
X332018Y523676D01*
X331923Y523645D01*
X331830Y523610D01*
X331739Y523572D01*
X331649Y523530D01*
X331561Y523484D01*
X331474Y523435D01*
X331390Y523382D01*
X331308Y523327D01*
X331228Y523268D01*
X331151Y523206D01*
X331076Y523140D01*
X331004Y523072D01*
X330934Y523002D01*
X330868Y522928D01*
X330804Y522852D01*
X330743Y522773D01*
X330686Y522692D01*
X330632Y522609D01*
X330581Y522524D01*
X330534Y522436D01*
X330490Y522347D01*
X330450Y522257D01*
X330413Y522164D01*
X330380Y522071D01*
X330351Y521976D01*
X330326Y521880D01*
X330304Y521783D01*
X330287Y521685D01*
X330273Y521587D01*
X330263Y521488D01*
X330257Y521389D01*
X330255Y521290D01*
X326263Y521789D02*
X326263Y518794D01*
X326263Y521789D02*
X326265Y521877D01*
X326271Y521965D01*
X326281Y522053D01*
X326294Y522140D01*
X326312Y522227D01*
X326333Y522313D01*
X326358Y522397D01*
X326387Y522481D01*
X326419Y522563D01*
X326455Y522644D01*
X326495Y522723D01*
X326538Y522800D01*
X326584Y522875D01*
X326634Y522948D01*
X326687Y523019D01*
X326743Y523087D01*
X326802Y523153D01*
X326863Y523216D01*
X326928Y523276D01*
X326995Y523334D01*
X327064Y523388D01*
X327136Y523439D01*
X327210Y523487D01*
X327287Y523532D01*
X327365Y523573D01*
X327444Y523611D01*
X327526Y523645D01*
X327609Y523676D01*
X327693Y523703D01*
X327778Y523726D01*
X327864Y523746D01*
X327951Y523761D01*
X328039Y523773D01*
X328127Y523781D01*
X328215Y523785D01*
X328303Y523785D01*
X328391Y523781D01*
X328479Y523773D01*
X328567Y523761D01*
X328654Y523746D01*
X328740Y523726D01*
X328825Y523703D01*
X328909Y523676D01*
X328992Y523645D01*
X329074Y523611D01*
X329153Y523573D01*
X329231Y523532D01*
X329308Y523487D01*
X329382Y523439D01*
X329454Y523388D01*
X329523Y523334D01*
X329590Y523276D01*
X329655Y523216D01*
X329716Y523153D01*
X329775Y523087D01*
X329831Y523019D01*
X329884Y522948D01*
X329934Y522875D01*
X329980Y522800D01*
X330023Y522723D01*
X330063Y522644D01*
X330099Y522563D01*
X330131Y522481D01*
X330160Y522397D01*
X330185Y522313D01*
X330206Y522227D01*
X330224Y522140D01*
X330237Y522053D01*
X330247Y521965D01*
X330253Y521877D01*
X330255Y521789D01*
X330256Y521789D02*
X330256Y519793D01*
X313022Y515258D02*
X313022Y513261D01*
X313020Y513174D01*
X313014Y513087D01*
X313005Y513000D01*
X312992Y512914D01*
X312975Y512829D01*
X312954Y512744D01*
X312930Y512661D01*
X312902Y512578D01*
X312870Y512497D01*
X312835Y512417D01*
X312796Y512339D01*
X312755Y512263D01*
X312709Y512189D01*
X312661Y512116D01*
X312610Y512046D01*
X312555Y511978D01*
X312498Y511913D01*
X312437Y511850D01*
X312374Y511789D01*
X312309Y511732D01*
X312241Y511677D01*
X312171Y511626D01*
X312098Y511578D01*
X312024Y511532D01*
X311948Y511491D01*
X311870Y511452D01*
X311790Y511417D01*
X311709Y511385D01*
X311626Y511357D01*
X311543Y511333D01*
X311458Y511312D01*
X311373Y511295D01*
X311287Y511282D01*
X311200Y511273D01*
X311113Y511267D01*
X311026Y511265D01*
X306034Y511265D01*
X306034Y511264D02*
X305947Y511266D01*
X305860Y511272D01*
X305773Y511281D01*
X305687Y511294D01*
X305602Y511311D01*
X305517Y511332D01*
X305434Y511356D01*
X305351Y511384D01*
X305270Y511416D01*
X305190Y511451D01*
X305112Y511490D01*
X305036Y511532D01*
X304961Y511577D01*
X304889Y511625D01*
X304818Y511677D01*
X304750Y511731D01*
X304685Y511789D01*
X304622Y511849D01*
X304562Y511912D01*
X304504Y511977D01*
X304450Y512045D01*
X304398Y512116D01*
X304350Y512188D01*
X304305Y512262D01*
X304263Y512339D01*
X304224Y512417D01*
X304189Y512497D01*
X304157Y512578D01*
X304129Y512660D01*
X304105Y512744D01*
X304084Y512829D01*
X304067Y512914D01*
X304054Y513000D01*
X304045Y513087D01*
X304039Y513174D01*
X304037Y513261D01*
X304038Y513261D02*
X304038Y515258D01*
X304038Y520791D02*
X311026Y518794D01*
X311026Y523785D01*
X309029Y522288D02*
X313022Y522288D01*
D14*
X368681Y565531D02*
X368681Y574769D01*
X371247Y574769D01*
X371346Y574767D01*
X371446Y574761D01*
X371545Y574752D01*
X371643Y574738D01*
X371741Y574721D01*
X371839Y574700D01*
X371935Y574675D01*
X372030Y574646D01*
X372125Y574614D01*
X372217Y574578D01*
X372309Y574539D01*
X372399Y574496D01*
X372487Y574450D01*
X372573Y574400D01*
X372657Y574347D01*
X372739Y574291D01*
X372819Y574231D01*
X372896Y574169D01*
X372971Y574103D01*
X373044Y574035D01*
X373113Y573964D01*
X373180Y573890D01*
X373244Y573814D01*
X373305Y573735D01*
X373363Y573654D01*
X373418Y573571D01*
X373469Y573486D01*
X373517Y573399D01*
X373562Y573310D01*
X373603Y573219D01*
X373641Y573127D01*
X373675Y573034D01*
X373705Y572939D01*
X373732Y572843D01*
X373755Y572746D01*
X373774Y572649D01*
X373789Y572550D01*
X373801Y572451D01*
X373809Y572352D01*
X373813Y572253D01*
X373813Y572153D01*
X373809Y572054D01*
X373801Y571955D01*
X373789Y571856D01*
X373774Y571757D01*
X373755Y571660D01*
X373732Y571563D01*
X373705Y571467D01*
X373675Y571372D01*
X373641Y571279D01*
X373603Y571187D01*
X373562Y571096D01*
X373517Y571007D01*
X373469Y570920D01*
X373418Y570835D01*
X373363Y570752D01*
X373305Y570671D01*
X373244Y570592D01*
X373180Y570516D01*
X373113Y570442D01*
X373044Y570371D01*
X372971Y570303D01*
X372896Y570237D01*
X372819Y570175D01*
X372739Y570115D01*
X372657Y570059D01*
X372573Y570006D01*
X372487Y569956D01*
X372399Y569910D01*
X372309Y569867D01*
X372217Y569828D01*
X372125Y569792D01*
X372030Y569760D01*
X371935Y569731D01*
X371839Y569706D01*
X371741Y569685D01*
X371643Y569668D01*
X371545Y569654D01*
X371446Y569645D01*
X371346Y569639D01*
X371247Y569637D01*
X368681Y569637D01*
X371760Y569637D02*
X373813Y565531D01*
X377624Y567584D02*
X379677Y574769D01*
X377624Y567584D02*
X382757Y567584D01*
X381217Y569637D02*
X381217Y565531D01*
X432181Y492219D02*
X432181Y482981D01*
X432181Y492219D02*
X434747Y492219D01*
X434846Y492217D01*
X434946Y492211D01*
X435045Y492202D01*
X435143Y492188D01*
X435241Y492171D01*
X435339Y492150D01*
X435435Y492125D01*
X435530Y492096D01*
X435625Y492064D01*
X435717Y492028D01*
X435809Y491989D01*
X435899Y491946D01*
X435987Y491900D01*
X436073Y491850D01*
X436157Y491797D01*
X436239Y491741D01*
X436319Y491681D01*
X436396Y491619D01*
X436471Y491553D01*
X436544Y491485D01*
X436613Y491414D01*
X436680Y491340D01*
X436744Y491264D01*
X436805Y491185D01*
X436863Y491104D01*
X436918Y491021D01*
X436969Y490936D01*
X437017Y490849D01*
X437062Y490760D01*
X437103Y490669D01*
X437141Y490577D01*
X437175Y490484D01*
X437205Y490389D01*
X437232Y490293D01*
X437255Y490196D01*
X437274Y490099D01*
X437289Y490000D01*
X437301Y489901D01*
X437309Y489802D01*
X437313Y489703D01*
X437313Y489603D01*
X437309Y489504D01*
X437301Y489405D01*
X437289Y489306D01*
X437274Y489207D01*
X437255Y489110D01*
X437232Y489013D01*
X437205Y488917D01*
X437175Y488822D01*
X437141Y488729D01*
X437103Y488637D01*
X437062Y488546D01*
X437017Y488457D01*
X436969Y488370D01*
X436918Y488285D01*
X436863Y488202D01*
X436805Y488121D01*
X436744Y488042D01*
X436680Y487966D01*
X436613Y487892D01*
X436544Y487821D01*
X436471Y487753D01*
X436396Y487687D01*
X436319Y487625D01*
X436239Y487565D01*
X436157Y487509D01*
X436073Y487456D01*
X435987Y487406D01*
X435899Y487360D01*
X435809Y487317D01*
X435717Y487278D01*
X435625Y487242D01*
X435530Y487210D01*
X435435Y487181D01*
X435339Y487156D01*
X435241Y487135D01*
X435143Y487118D01*
X435045Y487104D01*
X434946Y487095D01*
X434846Y487089D01*
X434747Y487087D01*
X432181Y487087D01*
X435260Y487087D02*
X437313Y482981D01*
X441124Y482981D02*
X444204Y482981D01*
X444294Y482983D01*
X444383Y482989D01*
X444472Y482999D01*
X444560Y483012D01*
X444648Y483030D01*
X444735Y483051D01*
X444821Y483076D01*
X444906Y483105D01*
X444990Y483137D01*
X445072Y483173D01*
X445152Y483213D01*
X445230Y483256D01*
X445307Y483303D01*
X445382Y483352D01*
X445454Y483405D01*
X445524Y483461D01*
X445591Y483520D01*
X445656Y483582D01*
X445718Y483647D01*
X445777Y483714D01*
X445833Y483784D01*
X445886Y483856D01*
X445935Y483931D01*
X445982Y484007D01*
X446025Y484086D01*
X446065Y484166D01*
X446101Y484248D01*
X446133Y484332D01*
X446162Y484417D01*
X446187Y484503D01*
X446208Y484590D01*
X446226Y484677D01*
X446239Y484766D01*
X446249Y484855D01*
X446255Y484944D01*
X446257Y485034D01*
X446257Y486060D01*
X446255Y486150D01*
X446249Y486239D01*
X446239Y486328D01*
X446226Y486416D01*
X446208Y486504D01*
X446187Y486591D01*
X446162Y486677D01*
X446133Y486762D01*
X446101Y486846D01*
X446065Y486928D01*
X446025Y487008D01*
X445982Y487087D01*
X445935Y487163D01*
X445886Y487238D01*
X445833Y487310D01*
X445777Y487380D01*
X445718Y487447D01*
X445656Y487512D01*
X445591Y487574D01*
X445524Y487633D01*
X445454Y487689D01*
X445382Y487742D01*
X445307Y487791D01*
X445231Y487838D01*
X445152Y487881D01*
X445072Y487921D01*
X444990Y487957D01*
X444906Y487989D01*
X444821Y488018D01*
X444735Y488043D01*
X444648Y488064D01*
X444560Y488082D01*
X444472Y488095D01*
X444383Y488105D01*
X444294Y488111D01*
X444204Y488113D01*
X441124Y488113D01*
X441124Y492219D01*
X446257Y492219D01*
X690393Y367919D02*
X690393Y358681D01*
X690393Y367919D02*
X692960Y367919D01*
X693059Y367917D01*
X693159Y367911D01*
X693258Y367902D01*
X693356Y367888D01*
X693454Y367871D01*
X693552Y367850D01*
X693648Y367825D01*
X693743Y367796D01*
X693838Y367764D01*
X693930Y367728D01*
X694022Y367689D01*
X694112Y367646D01*
X694200Y367600D01*
X694286Y367550D01*
X694370Y367497D01*
X694452Y367441D01*
X694532Y367381D01*
X694609Y367319D01*
X694684Y367253D01*
X694757Y367185D01*
X694826Y367114D01*
X694893Y367040D01*
X694957Y366964D01*
X695018Y366885D01*
X695076Y366804D01*
X695131Y366721D01*
X695182Y366636D01*
X695230Y366549D01*
X695275Y366460D01*
X695316Y366369D01*
X695354Y366277D01*
X695388Y366184D01*
X695418Y366089D01*
X695445Y365993D01*
X695468Y365896D01*
X695487Y365799D01*
X695502Y365700D01*
X695514Y365601D01*
X695522Y365502D01*
X695526Y365403D01*
X695526Y365303D01*
X695522Y365204D01*
X695514Y365105D01*
X695502Y365006D01*
X695487Y364907D01*
X695468Y364810D01*
X695445Y364713D01*
X695418Y364617D01*
X695388Y364522D01*
X695354Y364429D01*
X695316Y364337D01*
X695275Y364246D01*
X695230Y364157D01*
X695182Y364070D01*
X695131Y363985D01*
X695076Y363902D01*
X695018Y363821D01*
X694957Y363742D01*
X694893Y363666D01*
X694826Y363592D01*
X694757Y363521D01*
X694684Y363453D01*
X694609Y363387D01*
X694532Y363325D01*
X694452Y363265D01*
X694370Y363209D01*
X694286Y363156D01*
X694200Y363106D01*
X694112Y363060D01*
X694022Y363017D01*
X693930Y362978D01*
X693838Y362942D01*
X693743Y362910D01*
X693648Y362881D01*
X693552Y362856D01*
X693454Y362835D01*
X693356Y362818D01*
X693258Y362804D01*
X693159Y362795D01*
X693059Y362789D01*
X692960Y362787D01*
X690393Y362787D01*
X693473Y362787D02*
X695526Y358681D01*
X699337Y363813D02*
X702416Y363813D01*
X702506Y363811D01*
X702595Y363805D01*
X702684Y363795D01*
X702772Y363782D01*
X702860Y363764D01*
X702947Y363743D01*
X703033Y363718D01*
X703118Y363689D01*
X703202Y363657D01*
X703284Y363621D01*
X703364Y363581D01*
X703443Y363538D01*
X703519Y363491D01*
X703594Y363442D01*
X703666Y363389D01*
X703736Y363333D01*
X703803Y363274D01*
X703868Y363212D01*
X703930Y363147D01*
X703989Y363080D01*
X704045Y363010D01*
X704098Y362938D01*
X704147Y362863D01*
X704194Y362787D01*
X704237Y362708D01*
X704277Y362628D01*
X704313Y362546D01*
X704345Y362462D01*
X704374Y362377D01*
X704399Y362291D01*
X704420Y362204D01*
X704438Y362116D01*
X704451Y362028D01*
X704461Y361939D01*
X704467Y361850D01*
X704469Y361760D01*
X704469Y361247D01*
X704467Y361148D01*
X704461Y361048D01*
X704452Y360949D01*
X704438Y360851D01*
X704421Y360753D01*
X704400Y360655D01*
X704375Y360559D01*
X704346Y360464D01*
X704314Y360369D01*
X704278Y360277D01*
X704239Y360185D01*
X704196Y360095D01*
X704150Y360007D01*
X704100Y359921D01*
X704047Y359837D01*
X703991Y359755D01*
X703931Y359675D01*
X703869Y359598D01*
X703803Y359523D01*
X703735Y359450D01*
X703664Y359381D01*
X703590Y359314D01*
X703514Y359250D01*
X703435Y359189D01*
X703354Y359131D01*
X703271Y359076D01*
X703186Y359025D01*
X703099Y358977D01*
X703010Y358932D01*
X702919Y358891D01*
X702827Y358853D01*
X702734Y358819D01*
X702639Y358789D01*
X702543Y358762D01*
X702446Y358739D01*
X702349Y358720D01*
X702250Y358705D01*
X702151Y358693D01*
X702052Y358685D01*
X701953Y358681D01*
X701853Y358681D01*
X701754Y358685D01*
X701655Y358693D01*
X701556Y358705D01*
X701457Y358720D01*
X701360Y358739D01*
X701263Y358762D01*
X701167Y358789D01*
X701072Y358819D01*
X700979Y358853D01*
X700887Y358891D01*
X700796Y358932D01*
X700707Y358977D01*
X700620Y359025D01*
X700535Y359076D01*
X700452Y359131D01*
X700371Y359189D01*
X700292Y359250D01*
X700216Y359314D01*
X700142Y359381D01*
X700071Y359450D01*
X700003Y359523D01*
X699937Y359598D01*
X699875Y359675D01*
X699815Y359755D01*
X699759Y359837D01*
X699706Y359921D01*
X699656Y360007D01*
X699610Y360095D01*
X699567Y360185D01*
X699528Y360277D01*
X699492Y360369D01*
X699460Y360464D01*
X699431Y360559D01*
X699406Y360655D01*
X699385Y360753D01*
X699368Y360851D01*
X699354Y360949D01*
X699345Y361048D01*
X699339Y361148D01*
X699337Y361247D01*
X699337Y363813D01*
X699339Y363939D01*
X699345Y364066D01*
X699355Y364192D01*
X699368Y364318D01*
X699386Y364443D01*
X699407Y364567D01*
X699432Y364691D01*
X699461Y364815D01*
X699494Y364937D01*
X699530Y365058D01*
X699570Y365178D01*
X699614Y365296D01*
X699662Y365413D01*
X699713Y365529D01*
X699767Y365643D01*
X699826Y365756D01*
X699887Y365866D01*
X699952Y365975D01*
X700020Y366081D01*
X700092Y366185D01*
X700166Y366287D01*
X700244Y366387D01*
X700325Y366484D01*
X700409Y366579D01*
X700495Y366671D01*
X700585Y366761D01*
X700677Y366847D01*
X700772Y366931D01*
X700869Y367012D01*
X700969Y367090D01*
X701071Y367164D01*
X701175Y367236D01*
X701281Y367304D01*
X701390Y367369D01*
X701500Y367430D01*
X701613Y367489D01*
X701727Y367543D01*
X701843Y367594D01*
X701960Y367642D01*
X702078Y367686D01*
X702198Y367726D01*
X702319Y367762D01*
X702441Y367795D01*
X702565Y367824D01*
X702688Y367849D01*
X702813Y367870D01*
X702938Y367888D01*
X703064Y367901D01*
X703190Y367911D01*
X703317Y367917D01*
X703443Y367919D01*
X779293Y399956D02*
X779293Y409194D01*
X781860Y409194D01*
X781959Y409192D01*
X782059Y409186D01*
X782158Y409177D01*
X782256Y409163D01*
X782354Y409146D01*
X782452Y409125D01*
X782548Y409100D01*
X782643Y409071D01*
X782738Y409039D01*
X782830Y409003D01*
X782922Y408964D01*
X783012Y408921D01*
X783100Y408875D01*
X783186Y408825D01*
X783270Y408772D01*
X783352Y408716D01*
X783432Y408656D01*
X783509Y408594D01*
X783584Y408528D01*
X783657Y408460D01*
X783726Y408389D01*
X783793Y408315D01*
X783857Y408239D01*
X783918Y408160D01*
X783976Y408079D01*
X784031Y407996D01*
X784082Y407911D01*
X784130Y407824D01*
X784175Y407735D01*
X784216Y407644D01*
X784254Y407552D01*
X784288Y407459D01*
X784318Y407364D01*
X784345Y407268D01*
X784368Y407171D01*
X784387Y407074D01*
X784402Y406975D01*
X784414Y406876D01*
X784422Y406777D01*
X784426Y406678D01*
X784426Y406578D01*
X784422Y406479D01*
X784414Y406380D01*
X784402Y406281D01*
X784387Y406182D01*
X784368Y406085D01*
X784345Y405988D01*
X784318Y405892D01*
X784288Y405797D01*
X784254Y405704D01*
X784216Y405612D01*
X784175Y405521D01*
X784130Y405432D01*
X784082Y405345D01*
X784031Y405260D01*
X783976Y405177D01*
X783918Y405096D01*
X783857Y405017D01*
X783793Y404941D01*
X783726Y404867D01*
X783657Y404796D01*
X783584Y404728D01*
X783509Y404662D01*
X783432Y404600D01*
X783352Y404540D01*
X783270Y404484D01*
X783186Y404431D01*
X783100Y404381D01*
X783012Y404335D01*
X782922Y404292D01*
X782830Y404253D01*
X782738Y404217D01*
X782643Y404185D01*
X782548Y404156D01*
X782452Y404131D01*
X782354Y404110D01*
X782256Y404093D01*
X782158Y404079D01*
X782059Y404070D01*
X781959Y404064D01*
X781860Y404062D01*
X779293Y404062D01*
X782373Y404062D02*
X784426Y399956D01*
X788237Y408168D02*
X788237Y409194D01*
X793369Y409194D01*
X790803Y399956D01*
D15*
X898525Y517525D02*
X593725Y517525D01*
X898525Y517525D02*
X898525Y498475D01*
X898525Y454025D01*
X593725Y454025D01*
X593725Y498475D01*
X593725Y517525D01*
X593725Y498475D02*
X898525Y498475D01*
D10*
X594233Y524383D02*
X594233Y533367D01*
X596729Y533367D01*
X596828Y533365D01*
X596927Y533359D01*
X597026Y533349D01*
X597124Y533335D01*
X597222Y533318D01*
X597319Y533296D01*
X597415Y533271D01*
X597510Y533242D01*
X597603Y533209D01*
X597696Y533172D01*
X597786Y533132D01*
X597875Y533088D01*
X597963Y533041D01*
X598048Y532990D01*
X598131Y532936D01*
X598212Y532879D01*
X598291Y532818D01*
X598367Y532754D01*
X598441Y532688D01*
X598511Y532618D01*
X598579Y532546D01*
X598645Y532471D01*
X598707Y532394D01*
X598766Y532314D01*
X598821Y532232D01*
X598874Y532148D01*
X598923Y532061D01*
X598969Y531973D01*
X599011Y531883D01*
X599049Y531792D01*
X599084Y531699D01*
X599115Y531604D01*
X599142Y531509D01*
X599166Y531413D01*
X599185Y531315D01*
X599201Y531217D01*
X599213Y531119D01*
X599221Y531020D01*
X599225Y530921D01*
X599225Y530821D01*
X599221Y530722D01*
X599213Y530623D01*
X599201Y530525D01*
X599185Y530427D01*
X599166Y530329D01*
X599142Y530233D01*
X599115Y530138D01*
X599084Y530043D01*
X599049Y529950D01*
X599011Y529859D01*
X598969Y529769D01*
X598923Y529681D01*
X598874Y529594D01*
X598821Y529510D01*
X598766Y529428D01*
X598707Y529348D01*
X598645Y529271D01*
X598579Y529196D01*
X598511Y529124D01*
X598441Y529054D01*
X598367Y528988D01*
X598291Y528924D01*
X598212Y528863D01*
X598131Y528806D01*
X598048Y528752D01*
X597963Y528701D01*
X597875Y528654D01*
X597786Y528610D01*
X597696Y528570D01*
X597603Y528533D01*
X597510Y528500D01*
X597415Y528471D01*
X597319Y528446D01*
X597222Y528424D01*
X597124Y528407D01*
X597026Y528393D01*
X596927Y528383D01*
X596828Y528377D01*
X596729Y528375D01*
X596729Y528376D02*
X594233Y528376D01*
X603477Y524383D02*
X603477Y533367D01*
X602479Y524383D02*
X604475Y524383D01*
X604475Y533367D02*
X602479Y533367D01*
X608482Y533367D02*
X608482Y524383D01*
X613473Y524383D02*
X608482Y533367D01*
X613473Y533367D02*
X613473Y524383D01*
D16*
X501100Y386475D02*
X501100Y372350D01*
X492675Y372350D01*
X472525Y372350D02*
X464100Y372350D01*
X464100Y386475D01*
X476800Y402350D02*
X488400Y402350D01*
D10*
X466845Y380100D02*
X466847Y380245D01*
X466853Y380389D01*
X466863Y380534D01*
X466877Y380678D01*
X466895Y380822D01*
X466917Y380965D01*
X466942Y381107D01*
X466972Y381249D01*
X467006Y381390D01*
X467043Y381530D01*
X467085Y381669D01*
X467130Y381806D01*
X467179Y381943D01*
X467231Y382078D01*
X467288Y382211D01*
X467348Y382343D01*
X467411Y382473D01*
X467478Y382601D01*
X467549Y382727D01*
X467623Y382852D01*
X467701Y382974D01*
X467782Y383094D01*
X467866Y383212D01*
X467953Y383328D01*
X468044Y383441D01*
X468137Y383551D01*
X468234Y383659D01*
X468333Y383764D01*
X468436Y383867D01*
X468541Y383966D01*
X468649Y384063D01*
X468759Y384156D01*
X468872Y384247D01*
X468988Y384334D01*
X469106Y384418D01*
X469226Y384499D01*
X469348Y384577D01*
X469472Y384651D01*
X469599Y384722D01*
X469727Y384789D01*
X469857Y384852D01*
X469989Y384912D01*
X470122Y384969D01*
X470257Y385021D01*
X470394Y385070D01*
X470531Y385115D01*
X470670Y385157D01*
X470810Y385194D01*
X470951Y385228D01*
X471093Y385258D01*
X471235Y385283D01*
X471378Y385305D01*
X471522Y385323D01*
X471666Y385337D01*
X471811Y385347D01*
X471955Y385353D01*
X472100Y385355D01*
X472245Y385353D01*
X472389Y385347D01*
X472534Y385337D01*
X472678Y385323D01*
X472822Y385305D01*
X472965Y385283D01*
X473107Y385258D01*
X473249Y385228D01*
X473390Y385194D01*
X473530Y385157D01*
X473669Y385115D01*
X473806Y385070D01*
X473943Y385021D01*
X474078Y384969D01*
X474211Y384912D01*
X474343Y384852D01*
X474473Y384789D01*
X474601Y384722D01*
X474727Y384651D01*
X474852Y384577D01*
X474974Y384499D01*
X475094Y384418D01*
X475212Y384334D01*
X475328Y384247D01*
X475441Y384156D01*
X475551Y384063D01*
X475659Y383966D01*
X475764Y383867D01*
X475867Y383764D01*
X475966Y383659D01*
X476063Y383551D01*
X476156Y383441D01*
X476247Y383328D01*
X476334Y383212D01*
X476418Y383094D01*
X476499Y382974D01*
X476577Y382852D01*
X476651Y382727D01*
X476722Y382601D01*
X476789Y382473D01*
X476852Y382343D01*
X476912Y382211D01*
X476969Y382078D01*
X477021Y381943D01*
X477070Y381806D01*
X477115Y381669D01*
X477157Y381530D01*
X477194Y381390D01*
X477228Y381249D01*
X477258Y381107D01*
X477283Y380965D01*
X477305Y380822D01*
X477323Y380678D01*
X477337Y380534D01*
X477347Y380389D01*
X477353Y380245D01*
X477355Y380100D01*
X477353Y379955D01*
X477347Y379811D01*
X477337Y379666D01*
X477323Y379522D01*
X477305Y379378D01*
X477283Y379235D01*
X477258Y379093D01*
X477228Y378951D01*
X477194Y378810D01*
X477157Y378670D01*
X477115Y378531D01*
X477070Y378394D01*
X477021Y378257D01*
X476969Y378122D01*
X476912Y377989D01*
X476852Y377857D01*
X476789Y377727D01*
X476722Y377599D01*
X476651Y377473D01*
X476577Y377348D01*
X476499Y377226D01*
X476418Y377106D01*
X476334Y376988D01*
X476247Y376872D01*
X476156Y376759D01*
X476063Y376649D01*
X475966Y376541D01*
X475867Y376436D01*
X475764Y376333D01*
X475659Y376234D01*
X475551Y376137D01*
X475441Y376044D01*
X475328Y375953D01*
X475212Y375866D01*
X475094Y375782D01*
X474974Y375701D01*
X474852Y375623D01*
X474728Y375549D01*
X474601Y375478D01*
X474473Y375411D01*
X474343Y375348D01*
X474211Y375288D01*
X474078Y375231D01*
X473943Y375179D01*
X473806Y375130D01*
X473669Y375085D01*
X473530Y375043D01*
X473390Y375006D01*
X473249Y374972D01*
X473107Y374942D01*
X472965Y374917D01*
X472822Y374895D01*
X472678Y374877D01*
X472534Y374863D01*
X472389Y374853D01*
X472245Y374847D01*
X472100Y374845D01*
X471955Y374847D01*
X471811Y374853D01*
X471666Y374863D01*
X471522Y374877D01*
X471378Y374895D01*
X471235Y374917D01*
X471093Y374942D01*
X470951Y374972D01*
X470810Y375006D01*
X470670Y375043D01*
X470531Y375085D01*
X470394Y375130D01*
X470257Y375179D01*
X470122Y375231D01*
X469989Y375288D01*
X469857Y375348D01*
X469727Y375411D01*
X469599Y375478D01*
X469472Y375549D01*
X469348Y375623D01*
X469226Y375701D01*
X469106Y375782D01*
X468988Y375866D01*
X468872Y375953D01*
X468759Y376044D01*
X468649Y376137D01*
X468541Y376234D01*
X468436Y376333D01*
X468333Y376436D01*
X468234Y376541D01*
X468137Y376649D01*
X468044Y376759D01*
X467953Y376872D01*
X467866Y376988D01*
X467782Y377106D01*
X467701Y377226D01*
X467623Y377348D01*
X467549Y377472D01*
X467478Y377599D01*
X467411Y377727D01*
X467348Y377857D01*
X467288Y377989D01*
X467231Y378122D01*
X467179Y378257D01*
X467130Y378394D01*
X467085Y378531D01*
X467043Y378670D01*
X467006Y378810D01*
X466972Y378951D01*
X466942Y379093D01*
X466917Y379235D01*
X466895Y379378D01*
X466877Y379522D01*
X466863Y379666D01*
X466853Y379811D01*
X466847Y379955D01*
X466845Y380100D01*
D17*
X472100Y380100D03*
D14*
X475992Y364744D02*
X475992Y355506D01*
X475992Y364744D02*
X478558Y364744D01*
X478657Y364742D01*
X478757Y364736D01*
X478856Y364727D01*
X478954Y364713D01*
X479052Y364696D01*
X479150Y364675D01*
X479246Y364650D01*
X479341Y364621D01*
X479436Y364589D01*
X479528Y364553D01*
X479620Y364514D01*
X479710Y364471D01*
X479798Y364425D01*
X479884Y364375D01*
X479968Y364322D01*
X480050Y364266D01*
X480130Y364206D01*
X480207Y364144D01*
X480282Y364078D01*
X480355Y364010D01*
X480424Y363939D01*
X480491Y363865D01*
X480555Y363789D01*
X480616Y363710D01*
X480674Y363629D01*
X480729Y363546D01*
X480780Y363461D01*
X480828Y363374D01*
X480873Y363285D01*
X480914Y363194D01*
X480952Y363102D01*
X480986Y363009D01*
X481016Y362914D01*
X481043Y362818D01*
X481066Y362721D01*
X481085Y362624D01*
X481100Y362525D01*
X481112Y362426D01*
X481120Y362327D01*
X481124Y362228D01*
X481124Y362128D01*
X481120Y362029D01*
X481112Y361930D01*
X481100Y361831D01*
X481085Y361732D01*
X481066Y361635D01*
X481043Y361538D01*
X481016Y361442D01*
X480986Y361347D01*
X480952Y361254D01*
X480914Y361162D01*
X480873Y361071D01*
X480828Y360982D01*
X480780Y360895D01*
X480729Y360810D01*
X480674Y360727D01*
X480616Y360646D01*
X480555Y360567D01*
X480491Y360491D01*
X480424Y360417D01*
X480355Y360346D01*
X480282Y360278D01*
X480207Y360212D01*
X480130Y360150D01*
X480050Y360090D01*
X479968Y360034D01*
X479884Y359981D01*
X479798Y359931D01*
X479710Y359885D01*
X479620Y359842D01*
X479528Y359803D01*
X479436Y359767D01*
X479341Y359735D01*
X479246Y359706D01*
X479150Y359681D01*
X479052Y359660D01*
X478954Y359643D01*
X478856Y359629D01*
X478757Y359620D01*
X478657Y359614D01*
X478558Y359612D01*
X475992Y359612D01*
X484562Y358072D02*
X484562Y362178D01*
X484564Y362277D01*
X484570Y362377D01*
X484579Y362476D01*
X484593Y362574D01*
X484610Y362672D01*
X484631Y362770D01*
X484656Y362866D01*
X484685Y362961D01*
X484717Y363056D01*
X484753Y363148D01*
X484792Y363240D01*
X484835Y363330D01*
X484881Y363418D01*
X484931Y363504D01*
X484984Y363588D01*
X485040Y363670D01*
X485100Y363750D01*
X485162Y363827D01*
X485228Y363902D01*
X485296Y363975D01*
X485367Y364044D01*
X485441Y364111D01*
X485517Y364175D01*
X485596Y364236D01*
X485677Y364294D01*
X485760Y364349D01*
X485845Y364400D01*
X485932Y364448D01*
X486021Y364493D01*
X486112Y364534D01*
X486204Y364572D01*
X486297Y364606D01*
X486392Y364636D01*
X486488Y364663D01*
X486585Y364686D01*
X486682Y364705D01*
X486781Y364720D01*
X486880Y364732D01*
X486979Y364740D01*
X487078Y364744D01*
X487178Y364744D01*
X487277Y364740D01*
X487376Y364732D01*
X487475Y364720D01*
X487574Y364705D01*
X487671Y364686D01*
X487768Y364663D01*
X487864Y364636D01*
X487959Y364606D01*
X488052Y364572D01*
X488144Y364534D01*
X488235Y364493D01*
X488324Y364448D01*
X488411Y364400D01*
X488496Y364349D01*
X488579Y364294D01*
X488660Y364236D01*
X488739Y364175D01*
X488815Y364111D01*
X488889Y364044D01*
X488960Y363975D01*
X489028Y363902D01*
X489094Y363827D01*
X489156Y363750D01*
X489216Y363670D01*
X489272Y363588D01*
X489325Y363504D01*
X489375Y363418D01*
X489421Y363330D01*
X489464Y363240D01*
X489503Y363148D01*
X489539Y363056D01*
X489571Y362961D01*
X489600Y362866D01*
X489625Y362770D01*
X489646Y362672D01*
X489663Y362574D01*
X489677Y362476D01*
X489686Y362377D01*
X489692Y362277D01*
X489694Y362178D01*
X489694Y358072D01*
X489692Y357973D01*
X489686Y357873D01*
X489677Y357774D01*
X489663Y357676D01*
X489646Y357578D01*
X489625Y357480D01*
X489600Y357384D01*
X489571Y357289D01*
X489539Y357194D01*
X489503Y357102D01*
X489464Y357010D01*
X489421Y356920D01*
X489375Y356832D01*
X489325Y356746D01*
X489272Y356662D01*
X489216Y356580D01*
X489156Y356500D01*
X489094Y356423D01*
X489028Y356348D01*
X488960Y356275D01*
X488889Y356206D01*
X488815Y356139D01*
X488739Y356075D01*
X488660Y356014D01*
X488579Y355956D01*
X488496Y355901D01*
X488411Y355850D01*
X488324Y355802D01*
X488235Y355757D01*
X488144Y355716D01*
X488052Y355678D01*
X487959Y355644D01*
X487864Y355614D01*
X487768Y355587D01*
X487671Y355564D01*
X487574Y355545D01*
X487475Y355530D01*
X487376Y355518D01*
X487277Y355510D01*
X487178Y355506D01*
X487078Y355506D01*
X486979Y355510D01*
X486880Y355518D01*
X486781Y355530D01*
X486682Y355545D01*
X486585Y355564D01*
X486488Y355587D01*
X486392Y355614D01*
X486297Y355644D01*
X486204Y355678D01*
X486112Y355716D01*
X486021Y355757D01*
X485932Y355802D01*
X485845Y355850D01*
X485760Y355901D01*
X485677Y355956D01*
X485596Y356014D01*
X485517Y356075D01*
X485441Y356139D01*
X485367Y356206D01*
X485296Y356275D01*
X485228Y356348D01*
X485162Y356423D01*
X485100Y356500D01*
X485040Y356580D01*
X484984Y356662D01*
X484931Y356746D01*
X484881Y356832D01*
X484835Y356920D01*
X484792Y357010D01*
X484753Y357102D01*
X484717Y357194D01*
X484685Y357289D01*
X484656Y357384D01*
X484631Y357480D01*
X484610Y357578D01*
X484593Y357676D01*
X484579Y357774D01*
X484570Y357873D01*
X484564Y357973D01*
X484562Y358072D01*
X495528Y355506D02*
X495528Y364744D01*
X492962Y364744D02*
X498094Y364744D01*
D15*
X844550Y374650D02*
X844550Y323850D01*
X825500Y323850D01*
X781050Y323850D01*
X781050Y374650D01*
X825500Y374650D01*
X844550Y374650D01*
X825500Y374650D02*
X825500Y323850D01*
X914400Y323850D02*
X914400Y374650D01*
X914400Y323850D02*
X895350Y323850D01*
X850900Y323850D01*
X850900Y374650D01*
X895350Y374650D01*
X914400Y374650D01*
X895350Y374650D02*
X895350Y323850D01*
X234950Y511175D02*
X234950Y561975D01*
X254000Y561975D01*
X298450Y561975D01*
X298450Y511175D01*
X254000Y511175D01*
X234950Y511175D01*
X254000Y511175D02*
X254000Y561975D01*
X168825Y496200D02*
X168825Y926200D01*
X168825Y496200D02*
X101825Y496200D01*
X90825Y496200D02*
X74825Y496200D01*
X74825Y926200D01*
X168825Y926200D01*
X155825Y933200D02*
X156163Y933424D01*
X156496Y933656D01*
X156824Y933895D01*
X157145Y934143D01*
X157460Y934398D01*
X157769Y934661D01*
X158071Y934932D01*
X158367Y935210D01*
X158656Y935495D01*
X158938Y935786D01*
X159212Y936085D01*
X159480Y936390D01*
X159739Y936702D01*
X159991Y937020D01*
X160236Y937344D01*
X160472Y937674D01*
X160700Y938009D01*
X160920Y938350D01*
X161131Y938696D01*
X161334Y939047D01*
X161529Y939404D01*
X161715Y939764D01*
X161891Y940129D01*
X162059Y940499D01*
X162218Y940872D01*
X162368Y941249D01*
X162508Y941630D01*
X162639Y942014D01*
X162761Y942401D01*
X162873Y942791D01*
X162976Y943183D01*
X163069Y943578D01*
X163153Y943975D01*
X163226Y944374D01*
X163290Y944774D01*
X163345Y945176D01*
X163389Y945580D01*
X163424Y945984D01*
X163448Y946389D01*
X163463Y946794D01*
X163468Y947200D01*
X163463Y947606D01*
X163448Y948011D01*
X163424Y948416D01*
X163389Y948820D01*
X163345Y949224D01*
X163290Y949626D01*
X163226Y950026D01*
X163153Y950425D01*
X163069Y950822D01*
X162976Y951217D01*
X162873Y951609D01*
X162761Y951999D01*
X162639Y952386D01*
X162508Y952770D01*
X162368Y953151D01*
X162218Y953528D01*
X162059Y953901D01*
X161891Y954271D01*
X161715Y954636D01*
X161529Y954996D01*
X161334Y955353D01*
X161131Y955704D01*
X160920Y956050D01*
X160700Y956391D01*
X160472Y956726D01*
X160236Y957056D01*
X159991Y957380D01*
X159739Y957698D01*
X159480Y958010D01*
X159212Y958315D01*
X158938Y958614D01*
X158656Y958905D01*
X158367Y959190D01*
X158071Y959468D01*
X157769Y959739D01*
X157460Y960002D01*
X157145Y960257D01*
X156824Y960505D01*
X156496Y960744D01*
X156163Y960976D01*
X155825Y961200D01*
X137825Y961200D02*
X137487Y960976D01*
X137154Y960744D01*
X136826Y960505D01*
X136505Y960257D01*
X136190Y960002D01*
X135881Y959739D01*
X135579Y959468D01*
X135283Y959190D01*
X134994Y958905D01*
X134712Y958614D01*
X134438Y958315D01*
X134170Y958010D01*
X133911Y957698D01*
X133659Y957380D01*
X133414Y957056D01*
X133178Y956726D01*
X132950Y956391D01*
X132730Y956050D01*
X132519Y955704D01*
X132316Y955353D01*
X132121Y954996D01*
X131935Y954636D01*
X131759Y954271D01*
X131591Y953901D01*
X131432Y953528D01*
X131282Y953151D01*
X131142Y952770D01*
X131011Y952386D01*
X130889Y951999D01*
X130777Y951609D01*
X130674Y951217D01*
X130581Y950822D01*
X130497Y950425D01*
X130424Y950026D01*
X130360Y949626D01*
X130305Y949224D01*
X130261Y948820D01*
X130226Y948416D01*
X130202Y948011D01*
X130187Y947606D01*
X130182Y947200D01*
X130187Y946794D01*
X130202Y946389D01*
X130226Y945984D01*
X130261Y945580D01*
X130305Y945176D01*
X130360Y944774D01*
X130424Y944374D01*
X130497Y943975D01*
X130581Y943578D01*
X130674Y943183D01*
X130777Y942791D01*
X130889Y942401D01*
X131011Y942014D01*
X131142Y941630D01*
X131282Y941249D01*
X131432Y940872D01*
X131591Y940499D01*
X131759Y940129D01*
X131935Y939764D01*
X132121Y939404D01*
X132316Y939047D01*
X132519Y938696D01*
X132730Y938350D01*
X132950Y938009D01*
X133178Y937674D01*
X133414Y937344D01*
X133659Y937020D01*
X133911Y936702D01*
X134170Y936390D01*
X134438Y936085D01*
X134712Y935786D01*
X134994Y935495D01*
X135283Y935210D01*
X135579Y934932D01*
X135881Y934661D01*
X136190Y934398D01*
X136505Y934143D01*
X136826Y933895D01*
X137154Y933656D01*
X137487Y933424D01*
X137825Y933200D01*
X137825Y961200D02*
X155825Y961200D01*
X156825Y934200D02*
X156825Y927200D01*
X136825Y927200D02*
X136825Y934200D01*
X137825Y489200D02*
X137487Y488976D01*
X137154Y488744D01*
X136826Y488505D01*
X136505Y488257D01*
X136190Y488002D01*
X135881Y487739D01*
X135579Y487468D01*
X135283Y487190D01*
X134994Y486905D01*
X134712Y486614D01*
X134438Y486315D01*
X134170Y486010D01*
X133911Y485698D01*
X133659Y485380D01*
X133414Y485056D01*
X133178Y484726D01*
X132950Y484391D01*
X132730Y484050D01*
X132519Y483704D01*
X132316Y483353D01*
X132121Y482996D01*
X131935Y482636D01*
X131759Y482271D01*
X131591Y481901D01*
X131432Y481528D01*
X131282Y481151D01*
X131142Y480770D01*
X131011Y480386D01*
X130889Y479999D01*
X130777Y479609D01*
X130674Y479217D01*
X130581Y478822D01*
X130497Y478425D01*
X130424Y478026D01*
X130360Y477626D01*
X130305Y477224D01*
X130261Y476820D01*
X130226Y476416D01*
X130202Y476011D01*
X130187Y475606D01*
X130182Y475200D01*
X130187Y474794D01*
X130202Y474389D01*
X130226Y473984D01*
X130261Y473580D01*
X130305Y473176D01*
X130360Y472774D01*
X130424Y472374D01*
X130497Y471975D01*
X130581Y471578D01*
X130674Y471183D01*
X130777Y470791D01*
X130889Y470401D01*
X131011Y470014D01*
X131142Y469630D01*
X131282Y469249D01*
X131432Y468872D01*
X131591Y468499D01*
X131759Y468129D01*
X131935Y467764D01*
X132121Y467404D01*
X132316Y467047D01*
X132519Y466696D01*
X132730Y466350D01*
X132950Y466009D01*
X133178Y465674D01*
X133414Y465344D01*
X133659Y465020D01*
X133911Y464702D01*
X134170Y464390D01*
X134438Y464085D01*
X134712Y463786D01*
X134994Y463495D01*
X135283Y463210D01*
X135579Y462932D01*
X135881Y462661D01*
X136190Y462398D01*
X136505Y462143D01*
X136826Y461895D01*
X137154Y461656D01*
X137487Y461424D01*
X137825Y461200D01*
X155825Y461200D02*
X156163Y461424D01*
X156496Y461656D01*
X156824Y461895D01*
X157145Y462143D01*
X157460Y462398D01*
X157769Y462661D01*
X158071Y462932D01*
X158367Y463210D01*
X158656Y463495D01*
X158938Y463786D01*
X159212Y464085D01*
X159480Y464390D01*
X159739Y464702D01*
X159991Y465020D01*
X160236Y465344D01*
X160472Y465674D01*
X160700Y466009D01*
X160920Y466350D01*
X161131Y466696D01*
X161334Y467047D01*
X161529Y467404D01*
X161715Y467764D01*
X161891Y468129D01*
X162059Y468499D01*
X162218Y468872D01*
X162368Y469249D01*
X162508Y469630D01*
X162639Y470014D01*
X162761Y470401D01*
X162873Y470791D01*
X162976Y471183D01*
X163069Y471578D01*
X163153Y471975D01*
X163226Y472374D01*
X163290Y472774D01*
X163345Y473176D01*
X163389Y473580D01*
X163424Y473984D01*
X163448Y474389D01*
X163463Y474794D01*
X163468Y475200D01*
X163463Y475606D01*
X163448Y476011D01*
X163424Y476416D01*
X163389Y476820D01*
X163345Y477224D01*
X163290Y477626D01*
X163226Y478026D01*
X163153Y478425D01*
X163069Y478822D01*
X162976Y479217D01*
X162873Y479609D01*
X162761Y479999D01*
X162639Y480386D01*
X162508Y480770D01*
X162368Y481151D01*
X162218Y481528D01*
X162059Y481901D01*
X161891Y482271D01*
X161715Y482636D01*
X161529Y482996D01*
X161334Y483353D01*
X161131Y483704D01*
X160920Y484050D01*
X160700Y484391D01*
X160472Y484726D01*
X160236Y485056D01*
X159991Y485380D01*
X159739Y485698D01*
X159480Y486010D01*
X159212Y486315D01*
X158938Y486614D01*
X158656Y486905D01*
X158367Y487190D01*
X158071Y487468D01*
X157769Y487739D01*
X157460Y488002D01*
X157145Y488257D01*
X156824Y488505D01*
X156496Y488744D01*
X156163Y488976D01*
X155825Y489200D01*
X155825Y461200D02*
X137825Y461200D01*
X136825Y488200D02*
X136825Y495200D01*
X156825Y495200D02*
X156825Y488200D01*
X101825Y496200D02*
X101823Y496052D01*
X101817Y495905D01*
X101807Y495757D01*
X101793Y495610D01*
X101776Y495464D01*
X101754Y495318D01*
X101728Y495172D01*
X101699Y495028D01*
X101665Y494884D01*
X101628Y494741D01*
X101587Y494599D01*
X101542Y494458D01*
X101493Y494319D01*
X101441Y494181D01*
X101385Y494044D01*
X101325Y493909D01*
X101262Y493776D01*
X101195Y493644D01*
X101125Y493514D01*
X101051Y493386D01*
X100974Y493260D01*
X100893Y493137D01*
X100809Y493015D01*
X100722Y492896D01*
X100632Y492779D01*
X100538Y492665D01*
X100442Y492553D01*
X100342Y492444D01*
X100240Y492337D01*
X100135Y492233D01*
X100027Y492133D01*
X99917Y492035D01*
X99803Y491940D01*
X99688Y491848D01*
X99570Y491759D01*
X99449Y491674D01*
X99327Y491591D01*
X99202Y491512D01*
X99075Y491437D01*
X98946Y491365D01*
X98815Y491296D01*
X98683Y491231D01*
X98549Y491170D01*
X98413Y491112D01*
X98275Y491057D01*
X98137Y491007D01*
X97996Y490960D01*
X97855Y490917D01*
X97713Y490878D01*
X97569Y490843D01*
X97425Y490811D01*
X97280Y490784D01*
X97134Y490760D01*
X96988Y490740D01*
X96841Y490724D01*
X96694Y490712D01*
X96546Y490704D01*
X96399Y490700D01*
X96251Y490700D01*
X96104Y490704D01*
X95956Y490712D01*
X95809Y490724D01*
X95662Y490740D01*
X95516Y490760D01*
X95370Y490784D01*
X95225Y490811D01*
X95081Y490843D01*
X94937Y490878D01*
X94795Y490917D01*
X94654Y490960D01*
X94513Y491007D01*
X94375Y491057D01*
X94237Y491112D01*
X94101Y491170D01*
X93967Y491231D01*
X93835Y491296D01*
X93704Y491365D01*
X93575Y491437D01*
X93448Y491512D01*
X93323Y491591D01*
X93201Y491674D01*
X93080Y491759D01*
X92962Y491848D01*
X92847Y491940D01*
X92733Y492035D01*
X92623Y492133D01*
X92515Y492233D01*
X92410Y492337D01*
X92308Y492444D01*
X92208Y492553D01*
X92112Y492665D01*
X92018Y492779D01*
X91928Y492896D01*
X91841Y493015D01*
X91757Y493137D01*
X91676Y493260D01*
X91599Y493386D01*
X91525Y493514D01*
X91455Y493644D01*
X91388Y493776D01*
X91325Y493909D01*
X91265Y494044D01*
X91209Y494181D01*
X91157Y494319D01*
X91108Y494458D01*
X91063Y494599D01*
X91022Y494741D01*
X90985Y494884D01*
X90951Y495028D01*
X90922Y495172D01*
X90896Y495318D01*
X90874Y495464D01*
X90857Y495610D01*
X90843Y495757D01*
X90833Y495905D01*
X90827Y496052D01*
X90825Y496200D01*
D14*
X63594Y519117D02*
X54356Y519117D01*
X54356Y521683D01*
X54358Y521782D01*
X54364Y521882D01*
X54373Y521981D01*
X54387Y522079D01*
X54404Y522177D01*
X54425Y522275D01*
X54450Y522371D01*
X54479Y522466D01*
X54511Y522561D01*
X54547Y522653D01*
X54586Y522745D01*
X54629Y522835D01*
X54675Y522923D01*
X54725Y523009D01*
X54778Y523093D01*
X54834Y523175D01*
X54894Y523255D01*
X54956Y523332D01*
X55022Y523407D01*
X55090Y523480D01*
X55161Y523549D01*
X55235Y523616D01*
X55311Y523680D01*
X55390Y523741D01*
X55471Y523799D01*
X55554Y523854D01*
X55639Y523905D01*
X55726Y523953D01*
X55815Y523998D01*
X55906Y524039D01*
X55998Y524077D01*
X56091Y524111D01*
X56186Y524141D01*
X56282Y524168D01*
X56379Y524191D01*
X56476Y524210D01*
X56575Y524225D01*
X56674Y524237D01*
X56773Y524245D01*
X56872Y524249D01*
X56972Y524249D01*
X57071Y524245D01*
X57170Y524237D01*
X57269Y524225D01*
X57368Y524210D01*
X57465Y524191D01*
X57562Y524168D01*
X57658Y524141D01*
X57753Y524111D01*
X57846Y524077D01*
X57938Y524039D01*
X58029Y523998D01*
X58118Y523953D01*
X58205Y523905D01*
X58290Y523854D01*
X58373Y523799D01*
X58454Y523741D01*
X58533Y523680D01*
X58609Y523616D01*
X58683Y523549D01*
X58754Y523480D01*
X58822Y523407D01*
X58888Y523332D01*
X58950Y523255D01*
X59010Y523175D01*
X59066Y523093D01*
X59119Y523009D01*
X59169Y522923D01*
X59215Y522835D01*
X59258Y522745D01*
X59297Y522653D01*
X59333Y522561D01*
X59365Y522466D01*
X59394Y522371D01*
X59419Y522275D01*
X59440Y522177D01*
X59457Y522079D01*
X59471Y521981D01*
X59480Y521882D01*
X59486Y521782D01*
X59488Y521683D01*
X59488Y519117D01*
X63594Y528453D02*
X54356Y528453D01*
X63594Y527427D02*
X63594Y529479D01*
X54356Y529479D02*
X54356Y527427D01*
X63594Y535114D02*
X63594Y537167D01*
X63594Y535114D02*
X63592Y535024D01*
X63586Y534935D01*
X63576Y534846D01*
X63563Y534758D01*
X63545Y534670D01*
X63524Y534583D01*
X63499Y534497D01*
X63470Y534412D01*
X63438Y534328D01*
X63402Y534246D01*
X63362Y534166D01*
X63319Y534088D01*
X63272Y534011D01*
X63223Y533936D01*
X63170Y533864D01*
X63114Y533794D01*
X63055Y533727D01*
X62993Y533662D01*
X62928Y533600D01*
X62861Y533541D01*
X62791Y533485D01*
X62719Y533432D01*
X62644Y533383D01*
X62568Y533336D01*
X62489Y533293D01*
X62409Y533253D01*
X62327Y533217D01*
X62243Y533185D01*
X62158Y533156D01*
X62072Y533131D01*
X61985Y533110D01*
X61897Y533092D01*
X61809Y533079D01*
X61720Y533069D01*
X61631Y533063D01*
X61541Y533061D01*
X56409Y533061D01*
X56319Y533063D01*
X56230Y533069D01*
X56141Y533079D01*
X56053Y533092D01*
X55965Y533110D01*
X55878Y533131D01*
X55792Y533156D01*
X55707Y533185D01*
X55623Y533217D01*
X55541Y533253D01*
X55461Y533293D01*
X55383Y533336D01*
X55306Y533383D01*
X55231Y533432D01*
X55159Y533485D01*
X55089Y533541D01*
X55022Y533600D01*
X54957Y533662D01*
X54895Y533727D01*
X54836Y533794D01*
X54780Y533864D01*
X54727Y533936D01*
X54678Y534011D01*
X54631Y534087D01*
X54588Y534166D01*
X54548Y534246D01*
X54512Y534328D01*
X54480Y534412D01*
X54451Y534497D01*
X54426Y534583D01*
X54405Y534670D01*
X54387Y534757D01*
X54374Y534846D01*
X54364Y534935D01*
X54358Y535024D01*
X54356Y535114D01*
X54356Y537167D01*
X56922Y540587D02*
X61028Y540587D01*
X56922Y540587D02*
X56823Y540589D01*
X56723Y540595D01*
X56624Y540604D01*
X56526Y540618D01*
X56428Y540635D01*
X56330Y540656D01*
X56234Y540681D01*
X56139Y540710D01*
X56044Y540742D01*
X55952Y540778D01*
X55860Y540817D01*
X55770Y540860D01*
X55682Y540906D01*
X55596Y540956D01*
X55512Y541009D01*
X55430Y541065D01*
X55350Y541125D01*
X55273Y541187D01*
X55198Y541253D01*
X55125Y541321D01*
X55056Y541392D01*
X54989Y541466D01*
X54925Y541542D01*
X54864Y541621D01*
X54806Y541702D01*
X54751Y541785D01*
X54700Y541870D01*
X54652Y541957D01*
X54607Y542046D01*
X54566Y542137D01*
X54528Y542229D01*
X54494Y542322D01*
X54464Y542417D01*
X54437Y542513D01*
X54414Y542610D01*
X54395Y542707D01*
X54380Y542806D01*
X54368Y542905D01*
X54360Y543004D01*
X54356Y543103D01*
X54356Y543203D01*
X54360Y543302D01*
X54368Y543401D01*
X54380Y543500D01*
X54395Y543599D01*
X54414Y543696D01*
X54437Y543793D01*
X54464Y543889D01*
X54494Y543984D01*
X54528Y544077D01*
X54566Y544169D01*
X54607Y544260D01*
X54652Y544349D01*
X54700Y544436D01*
X54751Y544521D01*
X54806Y544604D01*
X54864Y544685D01*
X54925Y544764D01*
X54989Y544840D01*
X55056Y544914D01*
X55125Y544985D01*
X55198Y545053D01*
X55273Y545119D01*
X55350Y545181D01*
X55430Y545241D01*
X55512Y545297D01*
X55596Y545350D01*
X55682Y545400D01*
X55770Y545446D01*
X55860Y545489D01*
X55952Y545528D01*
X56044Y545564D01*
X56139Y545596D01*
X56234Y545625D01*
X56330Y545650D01*
X56428Y545671D01*
X56526Y545688D01*
X56624Y545702D01*
X56723Y545711D01*
X56823Y545717D01*
X56922Y545719D01*
X61028Y545719D01*
X61127Y545717D01*
X61227Y545711D01*
X61326Y545702D01*
X61424Y545688D01*
X61522Y545671D01*
X61620Y545650D01*
X61716Y545625D01*
X61811Y545596D01*
X61906Y545564D01*
X61998Y545528D01*
X62090Y545489D01*
X62180Y545446D01*
X62268Y545400D01*
X62354Y545350D01*
X62438Y545297D01*
X62520Y545241D01*
X62600Y545181D01*
X62677Y545119D01*
X62752Y545053D01*
X62825Y544985D01*
X62894Y544914D01*
X62961Y544840D01*
X63025Y544764D01*
X63086Y544685D01*
X63144Y544604D01*
X63199Y544521D01*
X63250Y544436D01*
X63298Y544349D01*
X63343Y544260D01*
X63384Y544169D01*
X63422Y544077D01*
X63456Y543984D01*
X63486Y543889D01*
X63513Y543793D01*
X63536Y543696D01*
X63555Y543599D01*
X63570Y543500D01*
X63582Y543401D01*
X63590Y543302D01*
X63594Y543203D01*
X63594Y543103D01*
X63590Y543004D01*
X63582Y542905D01*
X63570Y542806D01*
X63555Y542707D01*
X63536Y542610D01*
X63513Y542513D01*
X63486Y542417D01*
X63456Y542322D01*
X63422Y542229D01*
X63384Y542137D01*
X63343Y542046D01*
X63298Y541957D01*
X63250Y541870D01*
X63199Y541785D01*
X63144Y541702D01*
X63086Y541621D01*
X63025Y541542D01*
X62961Y541466D01*
X62894Y541392D01*
X62825Y541321D01*
X62752Y541253D01*
X62677Y541187D01*
X62600Y541125D01*
X62520Y541065D01*
X62438Y541009D01*
X62354Y540956D01*
X62268Y540906D01*
X62180Y540860D01*
X62090Y540817D01*
X61998Y540778D01*
X61906Y540742D01*
X61811Y540710D01*
X61716Y540681D01*
X61620Y540656D01*
X61522Y540635D01*
X61424Y540618D01*
X61326Y540604D01*
X61227Y540595D01*
X61127Y540589D01*
X61028Y540587D01*
D10*
X471986Y491363D02*
X473983Y491363D01*
X471986Y491363D02*
X471899Y491365D01*
X471812Y491371D01*
X471725Y491380D01*
X471639Y491393D01*
X471554Y491410D01*
X471469Y491431D01*
X471386Y491455D01*
X471303Y491483D01*
X471222Y491515D01*
X471142Y491550D01*
X471064Y491589D01*
X470988Y491630D01*
X470914Y491676D01*
X470841Y491724D01*
X470771Y491775D01*
X470703Y491830D01*
X470638Y491887D01*
X470575Y491948D01*
X470514Y492011D01*
X470457Y492076D01*
X470402Y492144D01*
X470351Y492214D01*
X470303Y492287D01*
X470257Y492361D01*
X470216Y492437D01*
X470177Y492515D01*
X470142Y492595D01*
X470110Y492676D01*
X470082Y492759D01*
X470058Y492842D01*
X470037Y492927D01*
X470020Y493012D01*
X470007Y493098D01*
X469998Y493185D01*
X469992Y493272D01*
X469990Y493359D01*
X469990Y498351D01*
X469992Y498438D01*
X469998Y498525D01*
X470007Y498612D01*
X470020Y498698D01*
X470037Y498783D01*
X470058Y498868D01*
X470082Y498951D01*
X470110Y499034D01*
X470142Y499115D01*
X470177Y499195D01*
X470216Y499273D01*
X470257Y499349D01*
X470303Y499423D01*
X470351Y499496D01*
X470402Y499566D01*
X470457Y499634D01*
X470514Y499699D01*
X470575Y499762D01*
X470638Y499823D01*
X470703Y499880D01*
X470771Y499935D01*
X470841Y499986D01*
X470914Y500034D01*
X470988Y500080D01*
X471064Y500121D01*
X471142Y500160D01*
X471222Y500195D01*
X471303Y500227D01*
X471386Y500255D01*
X471469Y500279D01*
X471554Y500300D01*
X471639Y500317D01*
X471725Y500330D01*
X471812Y500339D01*
X471899Y500345D01*
X471986Y500347D01*
X473983Y500347D01*
X477519Y491363D02*
X480514Y491363D01*
X480601Y491365D01*
X480688Y491371D01*
X480775Y491380D01*
X480861Y491393D01*
X480946Y491410D01*
X481031Y491431D01*
X481114Y491455D01*
X481197Y491483D01*
X481278Y491515D01*
X481358Y491550D01*
X481436Y491589D01*
X481512Y491630D01*
X481586Y491676D01*
X481659Y491724D01*
X481729Y491775D01*
X481797Y491830D01*
X481862Y491887D01*
X481925Y491948D01*
X481986Y492011D01*
X482043Y492076D01*
X482098Y492144D01*
X482149Y492214D01*
X482197Y492287D01*
X482243Y492361D01*
X482284Y492437D01*
X482323Y492515D01*
X482358Y492595D01*
X482390Y492676D01*
X482418Y492759D01*
X482442Y492842D01*
X482463Y492927D01*
X482480Y493012D01*
X482493Y493098D01*
X482502Y493185D01*
X482508Y493272D01*
X482510Y493359D01*
X482510Y494358D01*
X482508Y494445D01*
X482502Y494532D01*
X482493Y494619D01*
X482480Y494705D01*
X482463Y494790D01*
X482442Y494875D01*
X482418Y494958D01*
X482390Y495041D01*
X482358Y495122D01*
X482323Y495202D01*
X482284Y495280D01*
X482243Y495356D01*
X482197Y495430D01*
X482149Y495503D01*
X482098Y495573D01*
X482043Y495641D01*
X481986Y495706D01*
X481925Y495769D01*
X481862Y495830D01*
X481797Y495887D01*
X481729Y495942D01*
X481659Y495993D01*
X481586Y496041D01*
X481512Y496087D01*
X481436Y496128D01*
X481358Y496167D01*
X481278Y496202D01*
X481197Y496234D01*
X481114Y496262D01*
X481031Y496286D01*
X480946Y496307D01*
X480861Y496324D01*
X480775Y496337D01*
X480688Y496346D01*
X480601Y496352D01*
X480514Y496354D01*
X477519Y496354D01*
X477519Y500347D01*
X482510Y500347D01*
X473983Y516763D02*
X471986Y516763D01*
X471899Y516765D01*
X471812Y516771D01*
X471725Y516780D01*
X471639Y516793D01*
X471554Y516810D01*
X471469Y516831D01*
X471386Y516855D01*
X471303Y516883D01*
X471222Y516915D01*
X471142Y516950D01*
X471064Y516989D01*
X470988Y517030D01*
X470914Y517076D01*
X470841Y517124D01*
X470771Y517175D01*
X470703Y517230D01*
X470638Y517287D01*
X470575Y517348D01*
X470514Y517411D01*
X470457Y517476D01*
X470402Y517544D01*
X470351Y517614D01*
X470303Y517687D01*
X470257Y517761D01*
X470216Y517837D01*
X470177Y517915D01*
X470142Y517995D01*
X470110Y518076D01*
X470082Y518159D01*
X470058Y518242D01*
X470037Y518327D01*
X470020Y518412D01*
X470007Y518498D01*
X469998Y518585D01*
X469992Y518672D01*
X469990Y518759D01*
X469990Y523751D01*
X469992Y523838D01*
X469998Y523925D01*
X470007Y524012D01*
X470020Y524098D01*
X470037Y524183D01*
X470058Y524268D01*
X470082Y524351D01*
X470110Y524434D01*
X470142Y524515D01*
X470177Y524595D01*
X470216Y524673D01*
X470257Y524749D01*
X470303Y524823D01*
X470351Y524896D01*
X470402Y524966D01*
X470457Y525034D01*
X470514Y525099D01*
X470575Y525162D01*
X470638Y525223D01*
X470703Y525280D01*
X470771Y525335D01*
X470841Y525386D01*
X470914Y525434D01*
X470988Y525480D01*
X471064Y525521D01*
X471142Y525560D01*
X471222Y525595D01*
X471303Y525627D01*
X471386Y525655D01*
X471469Y525679D01*
X471554Y525700D01*
X471639Y525717D01*
X471725Y525730D01*
X471812Y525739D01*
X471899Y525745D01*
X471986Y525747D01*
X473983Y525747D01*
X477519Y521754D02*
X480514Y521754D01*
X480601Y521752D01*
X480688Y521746D01*
X480775Y521737D01*
X480861Y521724D01*
X480946Y521707D01*
X481031Y521686D01*
X481114Y521662D01*
X481197Y521634D01*
X481278Y521602D01*
X481358Y521567D01*
X481436Y521528D01*
X481512Y521487D01*
X481586Y521441D01*
X481659Y521393D01*
X481729Y521342D01*
X481797Y521287D01*
X481862Y521230D01*
X481925Y521169D01*
X481986Y521106D01*
X482043Y521041D01*
X482098Y520973D01*
X482149Y520903D01*
X482197Y520830D01*
X482243Y520756D01*
X482284Y520680D01*
X482323Y520602D01*
X482358Y520522D01*
X482390Y520441D01*
X482418Y520358D01*
X482442Y520275D01*
X482463Y520190D01*
X482480Y520105D01*
X482493Y520019D01*
X482502Y519932D01*
X482508Y519845D01*
X482510Y519758D01*
X482510Y519259D01*
X482511Y519259D02*
X482509Y519160D01*
X482503Y519061D01*
X482493Y518962D01*
X482479Y518864D01*
X482462Y518766D01*
X482440Y518669D01*
X482415Y518573D01*
X482386Y518478D01*
X482353Y518385D01*
X482316Y518292D01*
X482276Y518202D01*
X482232Y518113D01*
X482185Y518025D01*
X482134Y517940D01*
X482080Y517857D01*
X482023Y517776D01*
X481962Y517697D01*
X481898Y517621D01*
X481832Y517547D01*
X481762Y517477D01*
X481690Y517409D01*
X481615Y517343D01*
X481538Y517281D01*
X481458Y517222D01*
X481376Y517167D01*
X481292Y517114D01*
X481205Y517065D01*
X481117Y517019D01*
X481027Y516977D01*
X480936Y516939D01*
X480843Y516904D01*
X480748Y516873D01*
X480653Y516846D01*
X480557Y516822D01*
X480459Y516803D01*
X480361Y516787D01*
X480263Y516775D01*
X480164Y516767D01*
X480065Y516763D01*
X479965Y516763D01*
X479866Y516767D01*
X479767Y516775D01*
X479669Y516787D01*
X479571Y516803D01*
X479473Y516822D01*
X479377Y516846D01*
X479282Y516873D01*
X479187Y516904D01*
X479094Y516939D01*
X479003Y516977D01*
X478913Y517019D01*
X478825Y517065D01*
X478738Y517114D01*
X478654Y517167D01*
X478572Y517222D01*
X478492Y517281D01*
X478415Y517343D01*
X478340Y517409D01*
X478268Y517477D01*
X478198Y517547D01*
X478132Y517621D01*
X478068Y517697D01*
X478007Y517776D01*
X477950Y517857D01*
X477896Y517940D01*
X477845Y518025D01*
X477798Y518113D01*
X477754Y518202D01*
X477714Y518292D01*
X477677Y518385D01*
X477644Y518478D01*
X477615Y518573D01*
X477590Y518669D01*
X477568Y518766D01*
X477551Y518864D01*
X477537Y518962D01*
X477527Y519061D01*
X477521Y519160D01*
X477519Y519259D01*
X477519Y521754D01*
X477521Y521879D01*
X477527Y522005D01*
X477537Y522130D01*
X477550Y522254D01*
X477568Y522379D01*
X477590Y522502D01*
X477615Y522625D01*
X477644Y522747D01*
X477678Y522868D01*
X477714Y522988D01*
X477755Y523107D01*
X477799Y523224D01*
X477847Y523340D01*
X477899Y523454D01*
X477954Y523567D01*
X478013Y523678D01*
X478075Y523787D01*
X478141Y523894D01*
X478209Y523998D01*
X478282Y524101D01*
X478357Y524201D01*
X478435Y524299D01*
X478517Y524395D01*
X478601Y524487D01*
X478689Y524577D01*
X478779Y524665D01*
X478871Y524749D01*
X478967Y524831D01*
X479065Y524909D01*
X479165Y524984D01*
X479268Y525057D01*
X479372Y525125D01*
X479479Y525191D01*
X479588Y525253D01*
X479699Y525312D01*
X479812Y525367D01*
X479926Y525419D01*
X480042Y525467D01*
X480159Y525511D01*
X480278Y525552D01*
X480398Y525588D01*
X480519Y525622D01*
X480641Y525651D01*
X480764Y525676D01*
X480887Y525698D01*
X481012Y525716D01*
X481136Y525729D01*
X481261Y525739D01*
X481387Y525745D01*
X481512Y525747D01*
X897436Y407703D02*
X899433Y407703D01*
X897436Y407703D02*
X897349Y407705D01*
X897262Y407711D01*
X897175Y407720D01*
X897089Y407733D01*
X897004Y407750D01*
X896919Y407771D01*
X896836Y407795D01*
X896753Y407823D01*
X896672Y407855D01*
X896592Y407890D01*
X896514Y407929D01*
X896438Y407970D01*
X896364Y408016D01*
X896291Y408064D01*
X896221Y408115D01*
X896153Y408170D01*
X896088Y408227D01*
X896025Y408288D01*
X895964Y408351D01*
X895907Y408416D01*
X895852Y408484D01*
X895801Y408554D01*
X895753Y408627D01*
X895707Y408701D01*
X895666Y408777D01*
X895627Y408855D01*
X895592Y408935D01*
X895560Y409016D01*
X895532Y409099D01*
X895508Y409182D01*
X895487Y409267D01*
X895470Y409352D01*
X895457Y409438D01*
X895448Y409525D01*
X895442Y409612D01*
X895440Y409699D01*
X895440Y414691D01*
X895442Y414778D01*
X895448Y414865D01*
X895457Y414952D01*
X895470Y415038D01*
X895487Y415123D01*
X895508Y415208D01*
X895532Y415291D01*
X895560Y415374D01*
X895592Y415455D01*
X895627Y415535D01*
X895666Y415613D01*
X895707Y415689D01*
X895753Y415763D01*
X895801Y415836D01*
X895852Y415906D01*
X895907Y415974D01*
X895964Y416039D01*
X896025Y416102D01*
X896088Y416163D01*
X896153Y416220D01*
X896221Y416275D01*
X896291Y416326D01*
X896364Y416374D01*
X896438Y416420D01*
X896514Y416461D01*
X896592Y416500D01*
X896672Y416535D01*
X896753Y416567D01*
X896836Y416595D01*
X896919Y416619D01*
X897004Y416640D01*
X897089Y416657D01*
X897175Y416670D01*
X897262Y416679D01*
X897349Y416685D01*
X897436Y416687D01*
X899433Y416687D01*
X902969Y414691D02*
X905465Y416687D01*
X905465Y407703D01*
X907960Y407703D02*
X902969Y407703D01*
X899433Y433103D02*
X897436Y433103D01*
X897349Y433105D01*
X897262Y433111D01*
X897175Y433120D01*
X897089Y433133D01*
X897004Y433150D01*
X896919Y433171D01*
X896836Y433195D01*
X896753Y433223D01*
X896672Y433255D01*
X896592Y433290D01*
X896514Y433329D01*
X896438Y433370D01*
X896364Y433416D01*
X896291Y433464D01*
X896221Y433515D01*
X896153Y433570D01*
X896088Y433627D01*
X896025Y433688D01*
X895964Y433751D01*
X895907Y433816D01*
X895852Y433884D01*
X895801Y433954D01*
X895753Y434027D01*
X895707Y434101D01*
X895666Y434177D01*
X895627Y434255D01*
X895592Y434335D01*
X895560Y434416D01*
X895532Y434499D01*
X895508Y434582D01*
X895487Y434667D01*
X895470Y434752D01*
X895457Y434838D01*
X895448Y434925D01*
X895442Y435012D01*
X895440Y435099D01*
X895440Y440091D01*
X895442Y440178D01*
X895448Y440265D01*
X895457Y440352D01*
X895470Y440438D01*
X895487Y440523D01*
X895508Y440608D01*
X895532Y440691D01*
X895560Y440774D01*
X895592Y440855D01*
X895627Y440935D01*
X895666Y441013D01*
X895707Y441089D01*
X895753Y441163D01*
X895801Y441236D01*
X895852Y441306D01*
X895907Y441374D01*
X895964Y441439D01*
X896025Y441502D01*
X896088Y441563D01*
X896153Y441620D01*
X896221Y441675D01*
X896291Y441726D01*
X896364Y441774D01*
X896438Y441820D01*
X896514Y441861D01*
X896592Y441900D01*
X896672Y441935D01*
X896753Y441967D01*
X896836Y441995D01*
X896919Y442019D01*
X897004Y442040D01*
X897089Y442057D01*
X897175Y442070D01*
X897262Y442079D01*
X897349Y442085D01*
X897436Y442087D01*
X899433Y442087D01*
X905714Y442087D02*
X905807Y442085D01*
X905899Y442079D01*
X905992Y442070D01*
X906084Y442056D01*
X906175Y442039D01*
X906265Y442018D01*
X906355Y441994D01*
X906443Y441965D01*
X906530Y441933D01*
X906616Y441898D01*
X906700Y441859D01*
X906783Y441816D01*
X906864Y441770D01*
X906942Y441721D01*
X907019Y441669D01*
X907094Y441613D01*
X907166Y441555D01*
X907235Y441493D01*
X907302Y441429D01*
X907366Y441362D01*
X907428Y441293D01*
X907486Y441221D01*
X907542Y441146D01*
X907594Y441069D01*
X907643Y440991D01*
X907689Y440910D01*
X907732Y440827D01*
X907771Y440743D01*
X907806Y440657D01*
X907838Y440570D01*
X907867Y440482D01*
X907891Y440392D01*
X907912Y440302D01*
X907929Y440211D01*
X907943Y440119D01*
X907952Y440026D01*
X907958Y439934D01*
X907960Y439841D01*
X905714Y442088D02*
X905607Y442086D01*
X905501Y442080D01*
X905394Y442070D01*
X905289Y442056D01*
X905183Y442039D01*
X905079Y442017D01*
X904975Y441992D01*
X904872Y441963D01*
X904771Y441930D01*
X904671Y441893D01*
X904572Y441852D01*
X904475Y441808D01*
X904379Y441761D01*
X904285Y441710D01*
X904194Y441655D01*
X904104Y441597D01*
X904017Y441536D01*
X903931Y441472D01*
X903849Y441404D01*
X903769Y441334D01*
X903691Y441260D01*
X903616Y441184D01*
X903544Y441105D01*
X903476Y441024D01*
X903410Y440940D01*
X903347Y440853D01*
X903288Y440765D01*
X903231Y440674D01*
X903179Y440581D01*
X903129Y440486D01*
X903084Y440390D01*
X903042Y440292D01*
X903003Y440192D01*
X902968Y440091D01*
X907212Y438094D02*
X907282Y438163D01*
X907348Y438234D01*
X907412Y438308D01*
X907472Y438385D01*
X907530Y438464D01*
X907584Y438545D01*
X907634Y438629D01*
X907682Y438714D01*
X907726Y438802D01*
X907766Y438891D01*
X907803Y438981D01*
X907836Y439073D01*
X907865Y439166D01*
X907890Y439261D01*
X907912Y439356D01*
X907929Y439452D01*
X907943Y439549D01*
X907953Y439646D01*
X907959Y439743D01*
X907961Y439841D01*
X907212Y438094D02*
X902969Y433103D01*
X907960Y433103D01*
D14*
X660019Y416306D02*
X650781Y416306D01*
X650781Y418872D01*
X650783Y418971D01*
X650789Y419071D01*
X650798Y419170D01*
X650812Y419268D01*
X650829Y419366D01*
X650850Y419464D01*
X650875Y419560D01*
X650904Y419655D01*
X650936Y419750D01*
X650972Y419842D01*
X651011Y419934D01*
X651054Y420024D01*
X651100Y420112D01*
X651150Y420198D01*
X651203Y420282D01*
X651259Y420364D01*
X651319Y420444D01*
X651381Y420521D01*
X651447Y420596D01*
X651515Y420669D01*
X651586Y420738D01*
X651660Y420805D01*
X651736Y420869D01*
X651815Y420930D01*
X651896Y420988D01*
X651979Y421043D01*
X652064Y421094D01*
X652151Y421142D01*
X652240Y421187D01*
X652331Y421228D01*
X652423Y421266D01*
X652516Y421300D01*
X652611Y421330D01*
X652707Y421357D01*
X652804Y421380D01*
X652901Y421399D01*
X653000Y421414D01*
X653099Y421426D01*
X653198Y421434D01*
X653297Y421438D01*
X653397Y421438D01*
X653496Y421434D01*
X653595Y421426D01*
X653694Y421414D01*
X653793Y421399D01*
X653890Y421380D01*
X653987Y421357D01*
X654083Y421330D01*
X654178Y421300D01*
X654271Y421266D01*
X654363Y421228D01*
X654454Y421187D01*
X654543Y421142D01*
X654630Y421094D01*
X654715Y421043D01*
X654798Y420988D01*
X654879Y420930D01*
X654958Y420869D01*
X655034Y420805D01*
X655108Y420738D01*
X655179Y420669D01*
X655247Y420596D01*
X655313Y420521D01*
X655375Y420444D01*
X655435Y420364D01*
X655491Y420282D01*
X655544Y420198D01*
X655594Y420112D01*
X655640Y420024D01*
X655683Y419934D01*
X655722Y419842D01*
X655758Y419750D01*
X655790Y419655D01*
X655819Y419560D01*
X655844Y419464D01*
X655865Y419366D01*
X655882Y419268D01*
X655896Y419170D01*
X655905Y419071D01*
X655911Y418971D01*
X655913Y418872D01*
X655913Y416306D01*
X655913Y419385D02*
X660019Y421438D01*
X657453Y425249D02*
X657354Y425251D01*
X657254Y425257D01*
X657155Y425266D01*
X657057Y425280D01*
X656959Y425297D01*
X656861Y425318D01*
X656765Y425343D01*
X656670Y425372D01*
X656575Y425404D01*
X656483Y425440D01*
X656391Y425479D01*
X656301Y425522D01*
X656213Y425568D01*
X656127Y425618D01*
X656043Y425671D01*
X655961Y425727D01*
X655881Y425787D01*
X655804Y425849D01*
X655729Y425915D01*
X655656Y425983D01*
X655587Y426054D01*
X655520Y426128D01*
X655456Y426204D01*
X655395Y426283D01*
X655337Y426364D01*
X655282Y426447D01*
X655231Y426532D01*
X655183Y426619D01*
X655138Y426708D01*
X655097Y426799D01*
X655059Y426891D01*
X655025Y426984D01*
X654995Y427079D01*
X654968Y427175D01*
X654945Y427272D01*
X654926Y427369D01*
X654911Y427468D01*
X654899Y427567D01*
X654891Y427666D01*
X654887Y427765D01*
X654887Y427865D01*
X654891Y427964D01*
X654899Y428063D01*
X654911Y428162D01*
X654926Y428261D01*
X654945Y428358D01*
X654968Y428455D01*
X654995Y428551D01*
X655025Y428646D01*
X655059Y428739D01*
X655097Y428831D01*
X655138Y428922D01*
X655183Y429011D01*
X655231Y429098D01*
X655282Y429183D01*
X655337Y429266D01*
X655395Y429347D01*
X655456Y429426D01*
X655520Y429502D01*
X655587Y429576D01*
X655656Y429647D01*
X655729Y429715D01*
X655804Y429781D01*
X655881Y429843D01*
X655961Y429903D01*
X656043Y429959D01*
X656127Y430012D01*
X656213Y430062D01*
X656301Y430108D01*
X656391Y430151D01*
X656483Y430190D01*
X656575Y430226D01*
X656670Y430258D01*
X656765Y430287D01*
X656861Y430312D01*
X656959Y430333D01*
X657057Y430350D01*
X657155Y430364D01*
X657254Y430373D01*
X657354Y430379D01*
X657453Y430381D01*
X657552Y430379D01*
X657652Y430373D01*
X657751Y430364D01*
X657849Y430350D01*
X657947Y430333D01*
X658045Y430312D01*
X658141Y430287D01*
X658236Y430258D01*
X658331Y430226D01*
X658423Y430190D01*
X658515Y430151D01*
X658605Y430108D01*
X658693Y430062D01*
X658779Y430012D01*
X658863Y429959D01*
X658945Y429903D01*
X659025Y429843D01*
X659102Y429781D01*
X659177Y429715D01*
X659250Y429647D01*
X659319Y429576D01*
X659386Y429502D01*
X659450Y429426D01*
X659511Y429347D01*
X659569Y429266D01*
X659624Y429183D01*
X659675Y429098D01*
X659723Y429011D01*
X659768Y428922D01*
X659809Y428831D01*
X659847Y428739D01*
X659881Y428646D01*
X659911Y428551D01*
X659938Y428455D01*
X659961Y428358D01*
X659980Y428261D01*
X659995Y428162D01*
X660007Y428063D01*
X660015Y427964D01*
X660019Y427865D01*
X660019Y427765D01*
X660015Y427666D01*
X660007Y427567D01*
X659995Y427468D01*
X659980Y427369D01*
X659961Y427272D01*
X659938Y427175D01*
X659911Y427079D01*
X659881Y426984D01*
X659847Y426891D01*
X659809Y426799D01*
X659768Y426708D01*
X659723Y426619D01*
X659675Y426532D01*
X659624Y426447D01*
X659569Y426364D01*
X659511Y426283D01*
X659450Y426204D01*
X659386Y426128D01*
X659319Y426054D01*
X659250Y425983D01*
X659177Y425915D01*
X659102Y425849D01*
X659025Y425787D01*
X658945Y425727D01*
X658863Y425671D01*
X658779Y425618D01*
X658693Y425568D01*
X658605Y425522D01*
X658515Y425479D01*
X658423Y425440D01*
X658331Y425404D01*
X658236Y425372D01*
X658141Y425343D01*
X658045Y425318D01*
X657947Y425297D01*
X657849Y425280D01*
X657751Y425266D01*
X657652Y425257D01*
X657552Y425251D01*
X657453Y425249D01*
X652834Y425762D02*
X652744Y425764D01*
X652655Y425770D01*
X652566Y425780D01*
X652478Y425793D01*
X652390Y425811D01*
X652303Y425832D01*
X652217Y425857D01*
X652132Y425886D01*
X652048Y425918D01*
X651966Y425954D01*
X651886Y425994D01*
X651808Y426037D01*
X651731Y426084D01*
X651656Y426133D01*
X651584Y426186D01*
X651514Y426242D01*
X651447Y426301D01*
X651382Y426363D01*
X651320Y426428D01*
X651261Y426495D01*
X651205Y426565D01*
X651152Y426637D01*
X651103Y426712D01*
X651056Y426789D01*
X651013Y426867D01*
X650973Y426947D01*
X650937Y427029D01*
X650905Y427113D01*
X650876Y427198D01*
X650851Y427284D01*
X650830Y427371D01*
X650812Y427459D01*
X650799Y427547D01*
X650789Y427636D01*
X650783Y427725D01*
X650781Y427815D01*
X650783Y427905D01*
X650789Y427994D01*
X650799Y428083D01*
X650812Y428171D01*
X650830Y428259D01*
X650851Y428346D01*
X650876Y428432D01*
X650905Y428517D01*
X650937Y428601D01*
X650973Y428683D01*
X651013Y428763D01*
X651056Y428842D01*
X651103Y428918D01*
X651152Y428993D01*
X651205Y429065D01*
X651261Y429135D01*
X651320Y429202D01*
X651382Y429267D01*
X651447Y429329D01*
X651514Y429388D01*
X651584Y429444D01*
X651656Y429497D01*
X651731Y429546D01*
X651808Y429593D01*
X651886Y429636D01*
X651966Y429676D01*
X652048Y429712D01*
X652132Y429744D01*
X652217Y429773D01*
X652303Y429798D01*
X652390Y429819D01*
X652478Y429837D01*
X652566Y429850D01*
X652655Y429860D01*
X652744Y429866D01*
X652834Y429868D01*
X652924Y429866D01*
X653013Y429860D01*
X653102Y429850D01*
X653190Y429837D01*
X653278Y429819D01*
X653365Y429798D01*
X653451Y429773D01*
X653536Y429744D01*
X653620Y429712D01*
X653702Y429676D01*
X653782Y429636D01*
X653861Y429593D01*
X653937Y429546D01*
X654012Y429497D01*
X654084Y429444D01*
X654154Y429388D01*
X654221Y429329D01*
X654286Y429267D01*
X654348Y429202D01*
X654407Y429135D01*
X654463Y429065D01*
X654516Y428993D01*
X654565Y428918D01*
X654612Y428842D01*
X654655Y428763D01*
X654695Y428683D01*
X654731Y428601D01*
X654763Y428517D01*
X654792Y428432D01*
X654817Y428346D01*
X654838Y428259D01*
X654856Y428171D01*
X654869Y428083D01*
X654879Y427994D01*
X654885Y427905D01*
X654887Y427815D01*
X654885Y427725D01*
X654879Y427636D01*
X654869Y427547D01*
X654856Y427459D01*
X654838Y427371D01*
X654817Y427284D01*
X654792Y427198D01*
X654763Y427113D01*
X654731Y427029D01*
X654695Y426947D01*
X654655Y426867D01*
X654612Y426789D01*
X654565Y426712D01*
X654516Y426637D01*
X654463Y426565D01*
X654407Y426495D01*
X654348Y426428D01*
X654286Y426363D01*
X654221Y426301D01*
X654154Y426242D01*
X654084Y426186D01*
X654012Y426133D01*
X653937Y426084D01*
X653861Y426037D01*
X653782Y425994D01*
X653702Y425954D01*
X653620Y425918D01*
X653536Y425886D01*
X653451Y425857D01*
X653365Y425832D01*
X653278Y425811D01*
X653190Y425793D01*
X653102Y425780D01*
X653013Y425770D01*
X652924Y425764D01*
X652834Y425762D01*
D11*
X270800Y424525D02*
X270800Y368525D01*
X270800Y354525D01*
X340800Y354525D01*
X340800Y368525D01*
X340800Y424525D01*
X270800Y424525D01*
X270800Y368525D02*
X340800Y368525D01*
D14*
X341030Y471059D02*
X341030Y478244D01*
X341030Y471059D02*
X341028Y470969D01*
X341022Y470880D01*
X341012Y470791D01*
X340999Y470703D01*
X340981Y470615D01*
X340960Y470528D01*
X340935Y470442D01*
X340906Y470357D01*
X340874Y470273D01*
X340838Y470191D01*
X340798Y470111D01*
X340755Y470033D01*
X340708Y469956D01*
X340659Y469881D01*
X340606Y469809D01*
X340550Y469739D01*
X340491Y469672D01*
X340429Y469607D01*
X340364Y469545D01*
X340297Y469486D01*
X340227Y469430D01*
X340155Y469377D01*
X340080Y469328D01*
X340004Y469281D01*
X339925Y469238D01*
X339845Y469198D01*
X339763Y469162D01*
X339679Y469130D01*
X339594Y469101D01*
X339508Y469076D01*
X339421Y469055D01*
X339333Y469037D01*
X339245Y469024D01*
X339156Y469014D01*
X339067Y469008D01*
X338977Y469006D01*
X337950Y469006D01*
X345162Y476191D02*
X347728Y478244D01*
X347728Y469006D01*
X345162Y469006D02*
X350294Y469006D01*
X317881Y565531D02*
X317881Y574769D01*
X320447Y574769D01*
X320546Y574767D01*
X320646Y574761D01*
X320745Y574752D01*
X320843Y574738D01*
X320941Y574721D01*
X321039Y574700D01*
X321135Y574675D01*
X321230Y574646D01*
X321325Y574614D01*
X321417Y574578D01*
X321509Y574539D01*
X321599Y574496D01*
X321687Y574450D01*
X321773Y574400D01*
X321857Y574347D01*
X321939Y574291D01*
X322019Y574231D01*
X322096Y574169D01*
X322171Y574103D01*
X322244Y574035D01*
X322313Y573964D01*
X322380Y573890D01*
X322444Y573814D01*
X322505Y573735D01*
X322563Y573654D01*
X322618Y573571D01*
X322669Y573486D01*
X322717Y573399D01*
X322762Y573310D01*
X322803Y573219D01*
X322841Y573127D01*
X322875Y573034D01*
X322905Y572939D01*
X322932Y572843D01*
X322955Y572746D01*
X322974Y572649D01*
X322989Y572550D01*
X323001Y572451D01*
X323009Y572352D01*
X323013Y572253D01*
X323013Y572153D01*
X323009Y572054D01*
X323001Y571955D01*
X322989Y571856D01*
X322974Y571757D01*
X322955Y571660D01*
X322932Y571563D01*
X322905Y571467D01*
X322875Y571372D01*
X322841Y571279D01*
X322803Y571187D01*
X322762Y571096D01*
X322717Y571007D01*
X322669Y570920D01*
X322618Y570835D01*
X322563Y570752D01*
X322505Y570671D01*
X322444Y570592D01*
X322380Y570516D01*
X322313Y570442D01*
X322244Y570371D01*
X322171Y570303D01*
X322096Y570237D01*
X322019Y570175D01*
X321939Y570115D01*
X321857Y570059D01*
X321773Y570006D01*
X321687Y569956D01*
X321599Y569910D01*
X321509Y569867D01*
X321417Y569828D01*
X321325Y569792D01*
X321230Y569760D01*
X321135Y569731D01*
X321039Y569706D01*
X320941Y569685D01*
X320843Y569668D01*
X320745Y569654D01*
X320646Y569645D01*
X320546Y569639D01*
X320447Y569637D01*
X317881Y569637D01*
X320960Y569637D02*
X323013Y565531D01*
X326824Y572716D02*
X329390Y574769D01*
X329390Y565531D01*
X326824Y565531D02*
X331957Y565531D01*
X335824Y570150D02*
X335826Y570332D01*
X335833Y570513D01*
X335844Y570695D01*
X335859Y570876D01*
X335878Y571057D01*
X335902Y571237D01*
X335930Y571416D01*
X335962Y571595D01*
X335999Y571773D01*
X336040Y571950D01*
X336085Y572126D01*
X336134Y572301D01*
X336188Y572475D01*
X336245Y572647D01*
X336307Y572818D01*
X336373Y572988D01*
X336442Y573156D01*
X336516Y573322D01*
X336594Y573486D01*
X336623Y573565D01*
X336655Y573642D01*
X336691Y573719D01*
X336730Y573793D01*
X336773Y573866D01*
X336819Y573936D01*
X336867Y574005D01*
X336919Y574071D01*
X336974Y574135D01*
X337031Y574197D01*
X337091Y574255D01*
X337154Y574312D01*
X337219Y574365D01*
X337286Y574415D01*
X337356Y574463D01*
X337427Y574507D01*
X337501Y574548D01*
X337576Y574586D01*
X337653Y574620D01*
X337731Y574651D01*
X337810Y574678D01*
X337891Y574702D01*
X337973Y574723D01*
X338055Y574739D01*
X338138Y574752D01*
X338222Y574762D01*
X338306Y574767D01*
X338390Y574769D01*
X338474Y574767D01*
X338558Y574762D01*
X338642Y574752D01*
X338725Y574739D01*
X338807Y574723D01*
X338889Y574702D01*
X338970Y574678D01*
X339049Y574651D01*
X339127Y574620D01*
X339204Y574586D01*
X339279Y574548D01*
X339353Y574507D01*
X339424Y574463D01*
X339494Y574415D01*
X339561Y574365D01*
X339626Y574312D01*
X339689Y574255D01*
X339749Y574196D01*
X339806Y574135D01*
X339861Y574071D01*
X339913Y574005D01*
X339961Y573936D01*
X340007Y573866D01*
X340050Y573793D01*
X340089Y573718D01*
X340125Y573642D01*
X340157Y573565D01*
X340186Y573486D01*
X340187Y573486D02*
X340265Y573322D01*
X340339Y573156D01*
X340408Y572988D01*
X340474Y572818D01*
X340536Y572647D01*
X340593Y572475D01*
X340647Y572301D01*
X340696Y572126D01*
X340741Y571950D01*
X340782Y571773D01*
X340819Y571595D01*
X340851Y571416D01*
X340879Y571237D01*
X340903Y571057D01*
X340922Y570876D01*
X340937Y570695D01*
X340948Y570513D01*
X340955Y570332D01*
X340957Y570150D01*
X335825Y570150D02*
X335827Y569968D01*
X335834Y569787D01*
X335845Y569605D01*
X335860Y569424D01*
X335879Y569243D01*
X335903Y569063D01*
X335931Y568884D01*
X335963Y568705D01*
X336000Y568527D01*
X336041Y568350D01*
X336086Y568174D01*
X336135Y567999D01*
X336189Y567825D01*
X336246Y567653D01*
X336308Y567482D01*
X336374Y567312D01*
X336443Y567145D01*
X336517Y566978D01*
X336595Y566814D01*
X336594Y566814D02*
X336623Y566735D01*
X336655Y566658D01*
X336691Y566581D01*
X336730Y566507D01*
X336773Y566434D01*
X336819Y566364D01*
X336867Y566295D01*
X336919Y566229D01*
X336974Y566165D01*
X337031Y566103D01*
X337091Y566045D01*
X337154Y565988D01*
X337219Y565935D01*
X337286Y565885D01*
X337356Y565837D01*
X337427Y565793D01*
X337501Y565752D01*
X337576Y565714D01*
X337653Y565680D01*
X337731Y565649D01*
X337810Y565622D01*
X337891Y565598D01*
X337973Y565577D01*
X338055Y565561D01*
X338138Y565548D01*
X338222Y565538D01*
X338306Y565533D01*
X338390Y565531D01*
X340187Y566814D02*
X340265Y566978D01*
X340339Y567144D01*
X340408Y567312D01*
X340474Y567482D01*
X340536Y567653D01*
X340593Y567825D01*
X340647Y567999D01*
X340696Y568174D01*
X340741Y568350D01*
X340782Y568527D01*
X340819Y568705D01*
X340851Y568884D01*
X340879Y569063D01*
X340903Y569243D01*
X340922Y569424D01*
X340937Y569605D01*
X340948Y569787D01*
X340955Y569968D01*
X340957Y570150D01*
X340186Y566814D02*
X340157Y566735D01*
X340125Y566658D01*
X340089Y566581D01*
X340050Y566507D01*
X340007Y566434D01*
X339961Y566364D01*
X339913Y566295D01*
X339861Y566229D01*
X339806Y566165D01*
X339749Y566103D01*
X339689Y566045D01*
X339626Y565988D01*
X339561Y565935D01*
X339494Y565885D01*
X339424Y565837D01*
X339353Y565793D01*
X339279Y565752D01*
X339204Y565714D01*
X339127Y565680D01*
X339049Y565649D01*
X338970Y565622D01*
X338889Y565598D01*
X338807Y565577D01*
X338725Y565561D01*
X338642Y565548D01*
X338558Y565538D01*
X338474Y565533D01*
X338390Y565531D01*
X336338Y567584D02*
X340443Y572716D01*
D11*
X188250Y424525D02*
X188250Y368525D01*
X188250Y354525D01*
X258250Y354525D01*
X258250Y368525D01*
X258250Y424525D01*
X188250Y424525D01*
X188250Y368525D02*
X258250Y368525D01*
X105700Y368525D02*
X105700Y424525D01*
X105700Y368525D02*
X105700Y354525D01*
X175700Y354525D01*
X175700Y368525D01*
X175700Y424525D01*
X105700Y424525D01*
X105700Y368525D02*
X175700Y368525D01*
D14*
X160055Y432959D02*
X160055Y440144D01*
X160055Y432959D02*
X160053Y432869D01*
X160047Y432780D01*
X160037Y432691D01*
X160024Y432603D01*
X160006Y432515D01*
X159985Y432428D01*
X159960Y432342D01*
X159931Y432257D01*
X159899Y432173D01*
X159863Y432091D01*
X159823Y432011D01*
X159780Y431933D01*
X159733Y431856D01*
X159684Y431781D01*
X159631Y431709D01*
X159575Y431639D01*
X159516Y431572D01*
X159454Y431507D01*
X159389Y431445D01*
X159322Y431386D01*
X159252Y431330D01*
X159180Y431277D01*
X159105Y431228D01*
X159029Y431181D01*
X158950Y431138D01*
X158870Y431098D01*
X158788Y431062D01*
X158704Y431030D01*
X158619Y431001D01*
X158533Y430976D01*
X158446Y430955D01*
X158358Y430937D01*
X158270Y430924D01*
X158181Y430914D01*
X158092Y430908D01*
X158002Y430906D01*
X156975Y430906D01*
X164187Y436038D02*
X167266Y436038D01*
X167356Y436036D01*
X167445Y436030D01*
X167534Y436020D01*
X167622Y436007D01*
X167710Y435989D01*
X167797Y435968D01*
X167883Y435943D01*
X167968Y435914D01*
X168052Y435882D01*
X168134Y435846D01*
X168214Y435806D01*
X168293Y435763D01*
X168369Y435716D01*
X168444Y435667D01*
X168516Y435614D01*
X168586Y435558D01*
X168653Y435499D01*
X168718Y435437D01*
X168780Y435372D01*
X168839Y435305D01*
X168895Y435235D01*
X168948Y435163D01*
X168997Y435088D01*
X169044Y435012D01*
X169087Y434933D01*
X169127Y434853D01*
X169163Y434771D01*
X169195Y434687D01*
X169224Y434602D01*
X169249Y434516D01*
X169270Y434429D01*
X169288Y434341D01*
X169301Y434253D01*
X169311Y434164D01*
X169317Y434075D01*
X169319Y433985D01*
X169319Y433472D01*
X169317Y433373D01*
X169311Y433273D01*
X169302Y433174D01*
X169288Y433076D01*
X169271Y432978D01*
X169250Y432880D01*
X169225Y432784D01*
X169196Y432689D01*
X169164Y432594D01*
X169128Y432502D01*
X169089Y432410D01*
X169046Y432320D01*
X169000Y432232D01*
X168950Y432146D01*
X168897Y432062D01*
X168841Y431980D01*
X168781Y431900D01*
X168719Y431823D01*
X168653Y431748D01*
X168585Y431675D01*
X168514Y431606D01*
X168440Y431539D01*
X168364Y431475D01*
X168285Y431414D01*
X168204Y431356D01*
X168121Y431301D01*
X168036Y431250D01*
X167949Y431202D01*
X167860Y431157D01*
X167769Y431116D01*
X167677Y431078D01*
X167584Y431044D01*
X167489Y431014D01*
X167393Y430987D01*
X167296Y430964D01*
X167199Y430945D01*
X167100Y430930D01*
X167001Y430918D01*
X166902Y430910D01*
X166803Y430906D01*
X166703Y430906D01*
X166604Y430910D01*
X166505Y430918D01*
X166406Y430930D01*
X166307Y430945D01*
X166210Y430964D01*
X166113Y430987D01*
X166017Y431014D01*
X165922Y431044D01*
X165829Y431078D01*
X165737Y431116D01*
X165646Y431157D01*
X165557Y431202D01*
X165470Y431250D01*
X165385Y431301D01*
X165302Y431356D01*
X165221Y431414D01*
X165142Y431475D01*
X165066Y431539D01*
X164992Y431606D01*
X164921Y431675D01*
X164853Y431748D01*
X164787Y431823D01*
X164725Y431900D01*
X164665Y431980D01*
X164609Y432062D01*
X164556Y432146D01*
X164506Y432232D01*
X164460Y432320D01*
X164417Y432410D01*
X164378Y432502D01*
X164342Y432594D01*
X164310Y432689D01*
X164281Y432784D01*
X164256Y432880D01*
X164235Y432978D01*
X164218Y433076D01*
X164204Y433174D01*
X164195Y433273D01*
X164189Y433373D01*
X164187Y433472D01*
X164187Y436038D01*
X164189Y436164D01*
X164195Y436291D01*
X164205Y436417D01*
X164218Y436543D01*
X164236Y436668D01*
X164257Y436792D01*
X164282Y436916D01*
X164311Y437040D01*
X164344Y437162D01*
X164380Y437283D01*
X164420Y437403D01*
X164464Y437521D01*
X164512Y437638D01*
X164563Y437754D01*
X164617Y437868D01*
X164676Y437981D01*
X164737Y438091D01*
X164802Y438200D01*
X164870Y438306D01*
X164942Y438410D01*
X165016Y438512D01*
X165094Y438612D01*
X165175Y438709D01*
X165259Y438804D01*
X165345Y438896D01*
X165435Y438986D01*
X165527Y439072D01*
X165622Y439156D01*
X165719Y439237D01*
X165819Y439315D01*
X165921Y439389D01*
X166025Y439461D01*
X166131Y439529D01*
X166240Y439594D01*
X166350Y439655D01*
X166463Y439714D01*
X166577Y439768D01*
X166693Y439819D01*
X166810Y439867D01*
X166928Y439911D01*
X167048Y439951D01*
X167169Y439987D01*
X167291Y440020D01*
X167415Y440049D01*
X167538Y440074D01*
X167663Y440095D01*
X167788Y440113D01*
X167914Y440126D01*
X168040Y440136D01*
X168167Y440142D01*
X168293Y440144D01*
D11*
X23150Y424525D02*
X23150Y368525D01*
X23150Y354525D01*
X93150Y354525D01*
X93150Y368525D01*
X93150Y424525D01*
X23150Y424525D01*
X23150Y368525D02*
X93150Y368525D01*
D14*
X77505Y432959D02*
X77505Y440144D01*
X77505Y432959D02*
X77503Y432869D01*
X77497Y432780D01*
X77487Y432691D01*
X77474Y432603D01*
X77456Y432515D01*
X77435Y432428D01*
X77410Y432342D01*
X77381Y432257D01*
X77349Y432173D01*
X77313Y432091D01*
X77273Y432011D01*
X77230Y431933D01*
X77183Y431856D01*
X77134Y431781D01*
X77081Y431709D01*
X77025Y431639D01*
X76966Y431572D01*
X76904Y431507D01*
X76839Y431445D01*
X76772Y431386D01*
X76702Y431330D01*
X76630Y431277D01*
X76555Y431228D01*
X76479Y431181D01*
X76400Y431138D01*
X76320Y431098D01*
X76238Y431062D01*
X76154Y431030D01*
X76069Y431001D01*
X75983Y430976D01*
X75896Y430955D01*
X75808Y430937D01*
X75720Y430924D01*
X75631Y430914D01*
X75542Y430908D01*
X75452Y430906D01*
X74425Y430906D01*
X81637Y433472D02*
X81639Y433571D01*
X81645Y433671D01*
X81654Y433770D01*
X81668Y433868D01*
X81685Y433966D01*
X81706Y434064D01*
X81731Y434160D01*
X81760Y434255D01*
X81792Y434350D01*
X81828Y434442D01*
X81867Y434534D01*
X81910Y434624D01*
X81956Y434712D01*
X82006Y434798D01*
X82059Y434882D01*
X82115Y434964D01*
X82175Y435044D01*
X82237Y435121D01*
X82303Y435196D01*
X82371Y435269D01*
X82442Y435338D01*
X82516Y435405D01*
X82592Y435469D01*
X82671Y435530D01*
X82752Y435588D01*
X82835Y435643D01*
X82920Y435694D01*
X83007Y435742D01*
X83096Y435787D01*
X83187Y435828D01*
X83279Y435866D01*
X83372Y435900D01*
X83467Y435930D01*
X83563Y435957D01*
X83660Y435980D01*
X83757Y435999D01*
X83856Y436014D01*
X83955Y436026D01*
X84054Y436034D01*
X84153Y436038D01*
X84253Y436038D01*
X84352Y436034D01*
X84451Y436026D01*
X84550Y436014D01*
X84649Y435999D01*
X84746Y435980D01*
X84843Y435957D01*
X84939Y435930D01*
X85034Y435900D01*
X85127Y435866D01*
X85219Y435828D01*
X85310Y435787D01*
X85399Y435742D01*
X85486Y435694D01*
X85571Y435643D01*
X85654Y435588D01*
X85735Y435530D01*
X85814Y435469D01*
X85890Y435405D01*
X85964Y435338D01*
X86035Y435269D01*
X86103Y435196D01*
X86169Y435121D01*
X86231Y435044D01*
X86291Y434964D01*
X86347Y434882D01*
X86400Y434798D01*
X86450Y434712D01*
X86496Y434624D01*
X86539Y434534D01*
X86578Y434442D01*
X86614Y434350D01*
X86646Y434255D01*
X86675Y434160D01*
X86700Y434064D01*
X86721Y433966D01*
X86738Y433868D01*
X86752Y433770D01*
X86761Y433671D01*
X86767Y433571D01*
X86769Y433472D01*
X86767Y433373D01*
X86761Y433273D01*
X86752Y433174D01*
X86738Y433076D01*
X86721Y432978D01*
X86700Y432880D01*
X86675Y432784D01*
X86646Y432689D01*
X86614Y432594D01*
X86578Y432502D01*
X86539Y432410D01*
X86496Y432320D01*
X86450Y432232D01*
X86400Y432146D01*
X86347Y432062D01*
X86291Y431980D01*
X86231Y431900D01*
X86169Y431823D01*
X86103Y431748D01*
X86035Y431675D01*
X85964Y431606D01*
X85890Y431539D01*
X85814Y431475D01*
X85735Y431414D01*
X85654Y431356D01*
X85571Y431301D01*
X85486Y431250D01*
X85399Y431202D01*
X85310Y431157D01*
X85219Y431116D01*
X85127Y431078D01*
X85034Y431044D01*
X84939Y431014D01*
X84843Y430987D01*
X84746Y430964D01*
X84649Y430945D01*
X84550Y430930D01*
X84451Y430918D01*
X84352Y430910D01*
X84253Y430906D01*
X84153Y430906D01*
X84054Y430910D01*
X83955Y430918D01*
X83856Y430930D01*
X83757Y430945D01*
X83660Y430964D01*
X83563Y430987D01*
X83467Y431014D01*
X83372Y431044D01*
X83279Y431078D01*
X83187Y431116D01*
X83096Y431157D01*
X83007Y431202D01*
X82920Y431250D01*
X82835Y431301D01*
X82752Y431356D01*
X82671Y431414D01*
X82592Y431475D01*
X82516Y431539D01*
X82442Y431606D01*
X82371Y431675D01*
X82303Y431748D01*
X82237Y431823D01*
X82175Y431900D01*
X82115Y431980D01*
X82059Y432062D01*
X82006Y432146D01*
X81956Y432232D01*
X81910Y432320D01*
X81867Y432410D01*
X81828Y432502D01*
X81792Y432594D01*
X81760Y432689D01*
X81731Y432784D01*
X81706Y432880D01*
X81685Y432978D01*
X81668Y433076D01*
X81654Y433174D01*
X81645Y433273D01*
X81639Y433373D01*
X81637Y433472D01*
X82150Y438091D02*
X82152Y438181D01*
X82158Y438270D01*
X82168Y438359D01*
X82181Y438447D01*
X82199Y438535D01*
X82220Y438622D01*
X82245Y438708D01*
X82274Y438793D01*
X82306Y438877D01*
X82342Y438959D01*
X82382Y439039D01*
X82425Y439118D01*
X82472Y439194D01*
X82521Y439269D01*
X82574Y439341D01*
X82630Y439411D01*
X82689Y439478D01*
X82751Y439543D01*
X82816Y439605D01*
X82883Y439664D01*
X82953Y439720D01*
X83025Y439773D01*
X83100Y439822D01*
X83177Y439869D01*
X83255Y439912D01*
X83335Y439952D01*
X83417Y439988D01*
X83501Y440020D01*
X83586Y440049D01*
X83672Y440074D01*
X83759Y440095D01*
X83847Y440113D01*
X83935Y440126D01*
X84024Y440136D01*
X84113Y440142D01*
X84203Y440144D01*
X84293Y440142D01*
X84382Y440136D01*
X84471Y440126D01*
X84559Y440113D01*
X84647Y440095D01*
X84734Y440074D01*
X84820Y440049D01*
X84905Y440020D01*
X84989Y439988D01*
X85071Y439952D01*
X85151Y439912D01*
X85230Y439869D01*
X85306Y439822D01*
X85381Y439773D01*
X85453Y439720D01*
X85523Y439664D01*
X85590Y439605D01*
X85655Y439543D01*
X85717Y439478D01*
X85776Y439411D01*
X85832Y439341D01*
X85885Y439269D01*
X85934Y439194D01*
X85981Y439118D01*
X86024Y439039D01*
X86064Y438959D01*
X86100Y438877D01*
X86132Y438793D01*
X86161Y438708D01*
X86186Y438622D01*
X86207Y438535D01*
X86225Y438447D01*
X86238Y438359D01*
X86248Y438270D01*
X86254Y438181D01*
X86256Y438091D01*
X86254Y438001D01*
X86248Y437912D01*
X86238Y437823D01*
X86225Y437735D01*
X86207Y437647D01*
X86186Y437560D01*
X86161Y437474D01*
X86132Y437389D01*
X86100Y437305D01*
X86064Y437223D01*
X86024Y437143D01*
X85981Y437065D01*
X85934Y436988D01*
X85885Y436913D01*
X85832Y436841D01*
X85776Y436771D01*
X85717Y436704D01*
X85655Y436639D01*
X85590Y436577D01*
X85523Y436518D01*
X85453Y436462D01*
X85381Y436409D01*
X85306Y436360D01*
X85230Y436313D01*
X85151Y436270D01*
X85071Y436230D01*
X84989Y436194D01*
X84905Y436162D01*
X84820Y436133D01*
X84734Y436108D01*
X84647Y436087D01*
X84559Y436069D01*
X84471Y436056D01*
X84382Y436046D01*
X84293Y436040D01*
X84203Y436038D01*
X84113Y436040D01*
X84024Y436046D01*
X83935Y436056D01*
X83847Y436069D01*
X83759Y436087D01*
X83672Y436108D01*
X83586Y436133D01*
X83501Y436162D01*
X83417Y436194D01*
X83335Y436230D01*
X83255Y436270D01*
X83177Y436313D01*
X83100Y436360D01*
X83025Y436409D01*
X82953Y436462D01*
X82883Y436518D01*
X82816Y436577D01*
X82751Y436639D01*
X82689Y436704D01*
X82630Y436771D01*
X82574Y436841D01*
X82521Y436913D01*
X82472Y436988D01*
X82425Y437065D01*
X82382Y437143D01*
X82342Y437223D01*
X82306Y437305D01*
X82274Y437389D01*
X82245Y437474D01*
X82220Y437560D01*
X82199Y437647D01*
X82181Y437735D01*
X82168Y437823D01*
X82158Y437912D01*
X82152Y438001D01*
X82150Y438091D01*
D12*
X349250Y733425D02*
X349250Y746125D01*
X355600Y752475D01*
X368300Y752475D02*
X374650Y746125D01*
X355600Y752475D02*
X349250Y758825D01*
X349250Y771525D01*
X355600Y777875D01*
X368300Y777875D02*
X374650Y771525D01*
X374650Y758825D01*
X368300Y752475D01*
X368300Y727075D02*
X355600Y727075D01*
X349250Y733425D01*
X368300Y727075D02*
X374650Y733425D01*
X374650Y746125D01*
X355600Y777875D02*
X349250Y784225D01*
X349250Y796925D01*
X355600Y803275D01*
X368300Y803275D02*
X374650Y796925D01*
X374650Y784225D01*
X368300Y777875D01*
X349250Y809625D02*
X349250Y822325D01*
X355600Y828675D01*
X368300Y828675D02*
X374650Y822325D01*
X355600Y803275D02*
X349250Y809625D01*
X368300Y803275D02*
X374650Y809625D01*
X374650Y822325D01*
X349250Y835025D02*
X349250Y847725D01*
X355600Y854075D01*
X368300Y854075D02*
X374650Y847725D01*
X355600Y854075D02*
X349250Y860425D01*
X349250Y873125D01*
X355600Y879475D01*
X368300Y879475D02*
X374650Y873125D01*
X374650Y860425D01*
X368300Y854075D01*
X349250Y835025D02*
X355600Y828675D01*
X368300Y828675D02*
X374650Y835025D01*
X374650Y847725D01*
X355600Y879475D02*
X349250Y885825D01*
X349250Y898525D01*
X355600Y904875D01*
X368300Y904875D02*
X374650Y898525D01*
X374650Y885825D01*
X368300Y879475D01*
X349250Y911225D02*
X349250Y923925D01*
X355600Y930275D01*
X368300Y930275D02*
X374650Y923925D01*
X355600Y904875D02*
X349250Y911225D01*
X368300Y904875D02*
X374650Y911225D01*
X374650Y923925D01*
X349250Y936625D02*
X349250Y949325D01*
X355600Y955675D01*
X368300Y955675D02*
X374650Y949325D01*
X355600Y955675D02*
X349250Y962025D01*
X349250Y974725D01*
X355600Y981075D01*
X368300Y981075D02*
X374650Y974725D01*
X374650Y962025D01*
X368300Y955675D01*
X349250Y936625D02*
X355600Y930275D01*
X368300Y930275D02*
X374650Y936625D01*
X374650Y949325D01*
X368300Y981075D02*
X355600Y981075D01*
D11*
X379095Y738505D02*
X381635Y735330D01*
X379095Y738505D02*
X390525Y738505D01*
X390525Y735330D02*
X390525Y741680D01*
X335915Y962660D02*
X333375Y965835D01*
X344805Y965835D01*
X344805Y962660D02*
X344805Y969010D01*
X339090Y974090D02*
X338865Y974093D01*
X338640Y974101D01*
X338416Y974114D01*
X338192Y974133D01*
X337968Y974157D01*
X337745Y974186D01*
X337523Y974221D01*
X337302Y974261D01*
X337082Y974307D01*
X336863Y974357D01*
X336645Y974413D01*
X336428Y974474D01*
X336213Y974540D01*
X336000Y974611D01*
X335789Y974688D01*
X335579Y974769D01*
X335371Y974855D01*
X335166Y974946D01*
X334963Y975042D01*
X334875Y975074D01*
X334788Y975110D01*
X334702Y975149D01*
X334618Y975192D01*
X334536Y975238D01*
X334456Y975287D01*
X334378Y975339D01*
X334302Y975395D01*
X334228Y975453D01*
X334157Y975515D01*
X334088Y975579D01*
X334022Y975646D01*
X333959Y975715D01*
X333898Y975787D01*
X333840Y975861D01*
X333786Y975938D01*
X333734Y976016D01*
X333686Y976097D01*
X333641Y976179D01*
X333599Y976264D01*
X333561Y976350D01*
X333526Y976437D01*
X333494Y976525D01*
X333467Y976615D01*
X333442Y976706D01*
X333422Y976798D01*
X333405Y976890D01*
X333392Y976984D01*
X333383Y977077D01*
X333377Y977171D01*
X333375Y977265D01*
X333377Y977359D01*
X333383Y977453D01*
X333392Y977546D01*
X333405Y977640D01*
X333422Y977732D01*
X333442Y977824D01*
X333467Y977915D01*
X333494Y978005D01*
X333526Y978093D01*
X333561Y978180D01*
X333599Y978266D01*
X333641Y978351D01*
X333686Y978433D01*
X333734Y978514D01*
X333786Y978592D01*
X333840Y978669D01*
X333898Y978743D01*
X333959Y978815D01*
X334022Y978884D01*
X334088Y978951D01*
X334157Y979015D01*
X334228Y979077D01*
X334302Y979135D01*
X334378Y979191D01*
X334456Y979243D01*
X334536Y979292D01*
X334618Y979338D01*
X334702Y979381D01*
X334788Y979420D01*
X334875Y979456D01*
X334963Y979488D01*
X335166Y979584D01*
X335371Y979675D01*
X335579Y979761D01*
X335789Y979842D01*
X336000Y979919D01*
X336213Y979990D01*
X336428Y980056D01*
X336645Y980117D01*
X336863Y980173D01*
X337082Y980223D01*
X337302Y980269D01*
X337523Y980309D01*
X337745Y980344D01*
X337968Y980373D01*
X338192Y980397D01*
X338416Y980416D01*
X338640Y980429D01*
X338865Y980437D01*
X339090Y980440D01*
X339090Y974090D02*
X339315Y974093D01*
X339540Y974101D01*
X339764Y974114D01*
X339988Y974133D01*
X340212Y974157D01*
X340435Y974186D01*
X340657Y974221D01*
X340878Y974261D01*
X341098Y974307D01*
X341317Y974357D01*
X341535Y974413D01*
X341752Y974474D01*
X341967Y974540D01*
X342180Y974611D01*
X342391Y974688D01*
X342601Y974769D01*
X342809Y974855D01*
X343014Y974946D01*
X343217Y975042D01*
X343218Y975042D02*
X343306Y975074D01*
X343393Y975110D01*
X343479Y975149D01*
X343563Y975192D01*
X343645Y975238D01*
X343725Y975287D01*
X343803Y975339D01*
X343879Y975395D01*
X343953Y975453D01*
X344024Y975515D01*
X344093Y975579D01*
X344159Y975646D01*
X344222Y975715D01*
X344283Y975787D01*
X344341Y975861D01*
X344395Y975938D01*
X344447Y976016D01*
X344495Y976097D01*
X344540Y976179D01*
X344582Y976264D01*
X344620Y976350D01*
X344655Y976437D01*
X344687Y976525D01*
X344714Y976615D01*
X344739Y976706D01*
X344759Y976798D01*
X344776Y976890D01*
X344789Y976984D01*
X344798Y977077D01*
X344804Y977171D01*
X344806Y977265D01*
X343217Y979488D02*
X343014Y979584D01*
X342809Y979675D01*
X342601Y979761D01*
X342391Y979842D01*
X342180Y979919D01*
X341967Y979990D01*
X341752Y980056D01*
X341535Y980117D01*
X341317Y980173D01*
X341098Y980223D01*
X340878Y980269D01*
X340657Y980309D01*
X340435Y980344D01*
X340212Y980373D01*
X339988Y980397D01*
X339764Y980416D01*
X339540Y980429D01*
X339315Y980437D01*
X339090Y980440D01*
X343218Y979488D02*
X343306Y979456D01*
X343393Y979420D01*
X343479Y979381D01*
X343563Y979338D01*
X343645Y979292D01*
X343725Y979243D01*
X343803Y979191D01*
X343879Y979135D01*
X343953Y979077D01*
X344024Y979015D01*
X344093Y978951D01*
X344159Y978884D01*
X344222Y978815D01*
X344283Y978743D01*
X344341Y978669D01*
X344395Y978592D01*
X344447Y978514D01*
X344495Y978433D01*
X344540Y978351D01*
X344582Y978266D01*
X344620Y978180D01*
X344655Y978093D01*
X344687Y978005D01*
X344714Y977915D01*
X344739Y977824D01*
X344759Y977732D01*
X344776Y977640D01*
X344789Y977546D01*
X344798Y977453D01*
X344804Y977359D01*
X344806Y977265D01*
X342265Y974725D02*
X335915Y979805D01*
D10*
X342936Y732574D02*
X343023Y732572D01*
X343110Y732566D01*
X343197Y732557D01*
X343283Y732544D01*
X343368Y732527D01*
X343453Y732506D01*
X343536Y732482D01*
X343619Y732454D01*
X343700Y732422D01*
X343780Y732387D01*
X343858Y732348D01*
X343934Y732307D01*
X344008Y732261D01*
X344081Y732213D01*
X344151Y732162D01*
X344219Y732107D01*
X344284Y732050D01*
X344347Y731989D01*
X344408Y731926D01*
X344465Y731861D01*
X344520Y731793D01*
X344571Y731723D01*
X344619Y731650D01*
X344665Y731576D01*
X344706Y731500D01*
X344745Y731422D01*
X344780Y731342D01*
X344812Y731261D01*
X344840Y731178D01*
X344864Y731095D01*
X344885Y731010D01*
X344902Y730925D01*
X344915Y730839D01*
X344924Y730752D01*
X344930Y730665D01*
X344932Y730578D01*
X344930Y730450D01*
X344924Y730322D01*
X344915Y730194D01*
X344901Y730067D01*
X344883Y729940D01*
X344862Y729814D01*
X344837Y729688D01*
X344808Y729563D01*
X344775Y729439D01*
X344739Y729317D01*
X344699Y729195D01*
X344655Y729075D01*
X344608Y728956D01*
X344557Y728838D01*
X344502Y728722D01*
X344444Y728608D01*
X344382Y728496D01*
X344317Y728385D01*
X344249Y728277D01*
X344178Y728171D01*
X344103Y728067D01*
X344025Y727965D01*
X343944Y727866D01*
X343860Y727769D01*
X343774Y727675D01*
X343684Y727583D01*
X337944Y727833D02*
X337857Y727835D01*
X337770Y727841D01*
X337683Y727850D01*
X337597Y727863D01*
X337512Y727880D01*
X337427Y727901D01*
X337344Y727925D01*
X337261Y727953D01*
X337180Y727985D01*
X337100Y728020D01*
X337022Y728059D01*
X336946Y728100D01*
X336872Y728146D01*
X336799Y728194D01*
X336729Y728245D01*
X336661Y728300D01*
X336596Y728357D01*
X336533Y728418D01*
X336472Y728481D01*
X336415Y728546D01*
X336360Y728614D01*
X336309Y728684D01*
X336261Y728757D01*
X336215Y728831D01*
X336174Y728907D01*
X336135Y728985D01*
X336100Y729065D01*
X336068Y729146D01*
X336040Y729229D01*
X336016Y729312D01*
X335995Y729397D01*
X335978Y729482D01*
X335965Y729568D01*
X335956Y729655D01*
X335950Y729742D01*
X335948Y729829D01*
X335950Y729949D01*
X335956Y730070D01*
X335965Y730190D01*
X335979Y730309D01*
X335996Y730429D01*
X336018Y730547D01*
X336043Y730665D01*
X336071Y730782D01*
X336104Y730898D01*
X336140Y731013D01*
X336180Y731126D01*
X336224Y731239D01*
X336271Y731349D01*
X336321Y731459D01*
X336376Y731566D01*
X336433Y731672D01*
X336494Y731776D01*
X336558Y731878D01*
X336626Y731977D01*
X336697Y732075D01*
X339691Y728830D02*
X339645Y728756D01*
X339596Y728683D01*
X339543Y728613D01*
X339488Y728545D01*
X339430Y728479D01*
X339368Y728416D01*
X339305Y728356D01*
X339238Y728299D01*
X339170Y728244D01*
X339099Y728193D01*
X339025Y728144D01*
X338950Y728099D01*
X338873Y728057D01*
X338794Y728019D01*
X338714Y727984D01*
X338632Y727952D01*
X338549Y727924D01*
X338465Y727900D01*
X338379Y727879D01*
X338293Y727862D01*
X338206Y727849D01*
X338119Y727840D01*
X338032Y727834D01*
X337944Y727832D01*
X341189Y731576D02*
X341235Y731650D01*
X341284Y731723D01*
X341337Y731793D01*
X341392Y731861D01*
X341450Y731927D01*
X341512Y731990D01*
X341575Y732050D01*
X341642Y732107D01*
X341710Y732162D01*
X341781Y732213D01*
X341855Y732262D01*
X341930Y732307D01*
X342007Y732349D01*
X342086Y732387D01*
X342166Y732422D01*
X342248Y732454D01*
X342331Y732482D01*
X342415Y732506D01*
X342501Y732527D01*
X342587Y732544D01*
X342674Y732557D01*
X342761Y732566D01*
X342848Y732572D01*
X342936Y732574D01*
X341189Y731576D02*
X339691Y728831D01*
X335948Y735784D02*
X344932Y738779D01*
X335948Y741773D01*
X337944Y745283D02*
X335948Y747779D01*
X344932Y747779D01*
X344932Y750274D02*
X344932Y745283D01*
D12*
X946150Y962025D02*
X946150Y974725D01*
X946150Y962025D02*
X939800Y955675D01*
X927100Y955675D02*
X920750Y962025D01*
X939800Y955675D02*
X946150Y949325D01*
X946150Y936625D01*
X939800Y930275D01*
X927100Y930275D02*
X920750Y936625D01*
X920750Y949325D01*
X927100Y955675D01*
X927100Y981075D02*
X939800Y981075D01*
X946150Y974725D01*
X927100Y981075D02*
X920750Y974725D01*
X920750Y962025D01*
X939800Y930275D02*
X946150Y923925D01*
X946150Y911225D01*
X939800Y904875D01*
X927100Y904875D02*
X920750Y911225D01*
X920750Y923925D01*
X927100Y930275D01*
X946150Y898525D02*
X946150Y885825D01*
X939800Y879475D01*
X927100Y879475D02*
X920750Y885825D01*
X939800Y904875D02*
X946150Y898525D01*
X927100Y904875D02*
X920750Y898525D01*
X920750Y885825D01*
X946150Y873125D02*
X946150Y860425D01*
X939800Y854075D01*
X927100Y854075D02*
X920750Y860425D01*
X939800Y854075D02*
X946150Y847725D01*
X946150Y835025D01*
X939800Y828675D01*
X927100Y828675D02*
X920750Y835025D01*
X920750Y847725D01*
X927100Y854075D01*
X946150Y873125D02*
X939800Y879475D01*
X927100Y879475D02*
X920750Y873125D01*
X920750Y860425D01*
X939800Y828675D02*
X946150Y822325D01*
X946150Y809625D01*
X939800Y803275D01*
X927100Y803275D02*
X920750Y809625D01*
X920750Y822325D01*
X927100Y828675D01*
X946150Y796925D02*
X946150Y784225D01*
X939800Y777875D01*
X927100Y777875D02*
X920750Y784225D01*
X939800Y803275D02*
X946150Y796925D01*
X927100Y803275D02*
X920750Y796925D01*
X920750Y784225D01*
X946150Y771525D02*
X946150Y758825D01*
X939800Y752475D01*
X927100Y752475D02*
X920750Y758825D01*
X939800Y752475D02*
X946150Y746125D01*
X946150Y733425D01*
X939800Y727075D01*
X927100Y727075D02*
X920750Y733425D01*
X920750Y746125D01*
X927100Y752475D01*
X946150Y771525D02*
X939800Y777875D01*
X927100Y777875D02*
X920750Y771525D01*
X920750Y758825D01*
X927100Y727075D02*
X939800Y727075D01*
D11*
X907415Y966470D02*
X904875Y969645D01*
X916305Y969645D01*
X916305Y966470D02*
X916305Y972820D01*
X950595Y730885D02*
X953135Y727710D01*
X950595Y730885D02*
X962025Y730885D01*
X962025Y727710D02*
X962025Y734060D01*
X956310Y739140D02*
X956085Y739143D01*
X955860Y739151D01*
X955636Y739164D01*
X955412Y739183D01*
X955188Y739207D01*
X954965Y739236D01*
X954743Y739271D01*
X954522Y739311D01*
X954302Y739357D01*
X954083Y739407D01*
X953865Y739463D01*
X953648Y739524D01*
X953433Y739590D01*
X953220Y739661D01*
X953009Y739738D01*
X952799Y739819D01*
X952591Y739905D01*
X952386Y739996D01*
X952183Y740092D01*
X952095Y740124D01*
X952008Y740160D01*
X951922Y740199D01*
X951838Y740242D01*
X951756Y740288D01*
X951676Y740337D01*
X951598Y740389D01*
X951522Y740445D01*
X951448Y740503D01*
X951377Y740565D01*
X951308Y740629D01*
X951242Y740696D01*
X951179Y740765D01*
X951118Y740837D01*
X951060Y740911D01*
X951006Y740988D01*
X950954Y741066D01*
X950906Y741147D01*
X950861Y741229D01*
X950819Y741314D01*
X950781Y741400D01*
X950746Y741487D01*
X950714Y741575D01*
X950687Y741665D01*
X950662Y741756D01*
X950642Y741848D01*
X950625Y741940D01*
X950612Y742034D01*
X950603Y742127D01*
X950597Y742221D01*
X950595Y742315D01*
X950597Y742409D01*
X950603Y742503D01*
X950612Y742596D01*
X950625Y742690D01*
X950642Y742782D01*
X950662Y742874D01*
X950687Y742965D01*
X950714Y743055D01*
X950746Y743143D01*
X950781Y743230D01*
X950819Y743316D01*
X950861Y743401D01*
X950906Y743483D01*
X950954Y743564D01*
X951006Y743642D01*
X951060Y743719D01*
X951118Y743793D01*
X951179Y743865D01*
X951242Y743934D01*
X951308Y744001D01*
X951377Y744065D01*
X951448Y744127D01*
X951522Y744185D01*
X951598Y744241D01*
X951676Y744293D01*
X951756Y744342D01*
X951838Y744388D01*
X951922Y744431D01*
X952008Y744470D01*
X952095Y744506D01*
X952183Y744538D01*
X952386Y744634D01*
X952591Y744725D01*
X952799Y744811D01*
X953009Y744892D01*
X953220Y744969D01*
X953433Y745040D01*
X953648Y745106D01*
X953865Y745167D01*
X954083Y745223D01*
X954302Y745273D01*
X954522Y745319D01*
X954743Y745359D01*
X954965Y745394D01*
X955188Y745423D01*
X955412Y745447D01*
X955636Y745466D01*
X955860Y745479D01*
X956085Y745487D01*
X956310Y745490D01*
X956310Y739140D02*
X956535Y739143D01*
X956760Y739151D01*
X956984Y739164D01*
X957208Y739183D01*
X957432Y739207D01*
X957655Y739236D01*
X957877Y739271D01*
X958098Y739311D01*
X958318Y739357D01*
X958537Y739407D01*
X958755Y739463D01*
X958972Y739524D01*
X959187Y739590D01*
X959400Y739661D01*
X959611Y739738D01*
X959821Y739819D01*
X960029Y739905D01*
X960234Y739996D01*
X960437Y740092D01*
X960438Y740092D02*
X960526Y740124D01*
X960613Y740160D01*
X960699Y740199D01*
X960783Y740242D01*
X960865Y740288D01*
X960945Y740337D01*
X961023Y740389D01*
X961099Y740445D01*
X961173Y740503D01*
X961244Y740565D01*
X961313Y740629D01*
X961379Y740696D01*
X961442Y740765D01*
X961503Y740837D01*
X961561Y740911D01*
X961615Y740988D01*
X961667Y741066D01*
X961715Y741147D01*
X961760Y741229D01*
X961802Y741314D01*
X961840Y741400D01*
X961875Y741487D01*
X961907Y741575D01*
X961934Y741665D01*
X961959Y741756D01*
X961979Y741848D01*
X961996Y741940D01*
X962009Y742034D01*
X962018Y742127D01*
X962024Y742221D01*
X962026Y742315D01*
X960437Y744538D02*
X960234Y744634D01*
X960029Y744725D01*
X959821Y744811D01*
X959611Y744892D01*
X959400Y744969D01*
X959187Y745040D01*
X958972Y745106D01*
X958755Y745167D01*
X958537Y745223D01*
X958318Y745273D01*
X958098Y745319D01*
X957877Y745359D01*
X957655Y745394D01*
X957432Y745423D01*
X957208Y745447D01*
X956984Y745466D01*
X956760Y745479D01*
X956535Y745487D01*
X956310Y745490D01*
X960438Y744538D02*
X960526Y744506D01*
X960613Y744470D01*
X960699Y744431D01*
X960783Y744388D01*
X960865Y744342D01*
X960945Y744293D01*
X961023Y744241D01*
X961099Y744185D01*
X961173Y744127D01*
X961244Y744065D01*
X961313Y744001D01*
X961379Y743934D01*
X961442Y743865D01*
X961503Y743793D01*
X961561Y743719D01*
X961615Y743642D01*
X961667Y743564D01*
X961715Y743483D01*
X961760Y743401D01*
X961802Y743316D01*
X961840Y743230D01*
X961875Y743143D01*
X961907Y743055D01*
X961934Y742965D01*
X961959Y742874D01*
X961979Y742782D01*
X961996Y742690D01*
X962009Y742596D01*
X962018Y742503D01*
X962024Y742409D01*
X962026Y742315D01*
X959485Y739775D02*
X953135Y744855D01*
D10*
X959452Y960871D02*
X959450Y960958D01*
X959444Y961045D01*
X959435Y961132D01*
X959422Y961218D01*
X959405Y961303D01*
X959384Y961388D01*
X959360Y961471D01*
X959332Y961554D01*
X959300Y961635D01*
X959265Y961715D01*
X959226Y961793D01*
X959185Y961869D01*
X959139Y961943D01*
X959091Y962016D01*
X959040Y962086D01*
X958985Y962154D01*
X958928Y962219D01*
X958867Y962282D01*
X958804Y962343D01*
X958739Y962400D01*
X958671Y962455D01*
X958601Y962506D01*
X958528Y962554D01*
X958454Y962600D01*
X958378Y962641D01*
X958300Y962680D01*
X958220Y962715D01*
X958139Y962747D01*
X958056Y962775D01*
X957973Y962799D01*
X957888Y962820D01*
X957803Y962837D01*
X957717Y962850D01*
X957630Y962859D01*
X957543Y962865D01*
X957456Y962867D01*
X959452Y960871D02*
X959450Y960743D01*
X959444Y960615D01*
X959435Y960487D01*
X959421Y960360D01*
X959403Y960233D01*
X959382Y960107D01*
X959357Y959981D01*
X959328Y959856D01*
X959295Y959732D01*
X959259Y959610D01*
X959219Y959488D01*
X959175Y959368D01*
X959128Y959249D01*
X959077Y959131D01*
X959022Y959015D01*
X958964Y958901D01*
X958902Y958789D01*
X958837Y958678D01*
X958769Y958570D01*
X958698Y958464D01*
X958623Y958360D01*
X958545Y958258D01*
X958464Y958159D01*
X958380Y958062D01*
X958294Y957968D01*
X958204Y957876D01*
X952464Y958126D02*
X952377Y958128D01*
X952290Y958134D01*
X952203Y958143D01*
X952117Y958156D01*
X952032Y958173D01*
X951947Y958194D01*
X951864Y958218D01*
X951781Y958246D01*
X951700Y958278D01*
X951620Y958313D01*
X951542Y958352D01*
X951466Y958393D01*
X951392Y958439D01*
X951319Y958487D01*
X951249Y958538D01*
X951181Y958593D01*
X951116Y958650D01*
X951053Y958711D01*
X950992Y958774D01*
X950935Y958839D01*
X950880Y958907D01*
X950829Y958977D01*
X950781Y959050D01*
X950735Y959124D01*
X950694Y959200D01*
X950655Y959278D01*
X950620Y959358D01*
X950588Y959439D01*
X950560Y959522D01*
X950536Y959605D01*
X950515Y959690D01*
X950498Y959775D01*
X950485Y959861D01*
X950476Y959948D01*
X950470Y960035D01*
X950468Y960122D01*
X950470Y960242D01*
X950476Y960363D01*
X950485Y960483D01*
X950499Y960602D01*
X950516Y960722D01*
X950538Y960840D01*
X950563Y960958D01*
X950591Y961075D01*
X950624Y961191D01*
X950660Y961306D01*
X950700Y961419D01*
X950744Y961532D01*
X950791Y961642D01*
X950841Y961752D01*
X950896Y961859D01*
X950953Y961965D01*
X951014Y962069D01*
X951078Y962171D01*
X951146Y962270D01*
X951217Y962368D01*
X954211Y959123D02*
X954165Y959049D01*
X954116Y958976D01*
X954063Y958906D01*
X954008Y958838D01*
X953950Y958772D01*
X953888Y958709D01*
X953825Y958649D01*
X953758Y958592D01*
X953690Y958537D01*
X953619Y958486D01*
X953545Y958437D01*
X953470Y958392D01*
X953393Y958350D01*
X953314Y958312D01*
X953234Y958277D01*
X953152Y958245D01*
X953069Y958217D01*
X952985Y958193D01*
X952899Y958172D01*
X952813Y958155D01*
X952726Y958142D01*
X952639Y958133D01*
X952552Y958127D01*
X952464Y958125D01*
X955709Y961869D02*
X955755Y961943D01*
X955804Y962016D01*
X955857Y962086D01*
X955912Y962154D01*
X955970Y962220D01*
X956032Y962283D01*
X956095Y962343D01*
X956162Y962400D01*
X956230Y962455D01*
X956301Y962506D01*
X956375Y962555D01*
X956450Y962600D01*
X956527Y962642D01*
X956606Y962680D01*
X956686Y962715D01*
X956768Y962747D01*
X956851Y962775D01*
X956935Y962799D01*
X957021Y962820D01*
X957107Y962837D01*
X957194Y962850D01*
X957281Y962859D01*
X957368Y962865D01*
X957456Y962867D01*
X955709Y961869D02*
X954211Y959124D01*
X950468Y966077D02*
X959452Y969071D01*
X950468Y972066D01*
X950468Y978321D02*
X950470Y978414D01*
X950476Y978506D01*
X950485Y978599D01*
X950499Y978691D01*
X950516Y978782D01*
X950537Y978872D01*
X950561Y978962D01*
X950590Y979050D01*
X950622Y979137D01*
X950657Y979223D01*
X950696Y979307D01*
X950739Y979390D01*
X950785Y979471D01*
X950834Y979549D01*
X950886Y979626D01*
X950942Y979701D01*
X951000Y979773D01*
X951062Y979842D01*
X951126Y979909D01*
X951193Y979973D01*
X951262Y980035D01*
X951334Y980093D01*
X951409Y980149D01*
X951486Y980201D01*
X951564Y980250D01*
X951645Y980296D01*
X951728Y980339D01*
X951812Y980378D01*
X951898Y980413D01*
X951985Y980445D01*
X952073Y980474D01*
X952163Y980498D01*
X952253Y980519D01*
X952344Y980536D01*
X952436Y980550D01*
X952529Y980559D01*
X952621Y980565D01*
X952714Y980567D01*
X950468Y978321D02*
X950470Y978214D01*
X950476Y978108D01*
X950486Y978002D01*
X950500Y977896D01*
X950517Y977790D01*
X950539Y977686D01*
X950564Y977582D01*
X950593Y977480D01*
X950626Y977378D01*
X950663Y977278D01*
X950704Y977179D01*
X950748Y977082D01*
X950795Y976987D01*
X950846Y976893D01*
X950901Y976801D01*
X950959Y976712D01*
X951020Y976624D01*
X951084Y976539D01*
X951152Y976456D01*
X951222Y976376D01*
X951295Y976299D01*
X951372Y976224D01*
X951451Y976152D01*
X951532Y976083D01*
X951616Y976017D01*
X951702Y975955D01*
X951791Y975895D01*
X951882Y975839D01*
X951975Y975787D01*
X952069Y975737D01*
X952166Y975692D01*
X952264Y975650D01*
X952363Y975611D01*
X952464Y975576D01*
X954461Y979818D02*
X954392Y979888D01*
X954320Y979954D01*
X954246Y980018D01*
X954170Y980078D01*
X954090Y980136D01*
X954009Y980190D01*
X953926Y980241D01*
X953840Y980288D01*
X953753Y980332D01*
X953664Y980372D01*
X953574Y980409D01*
X953482Y980442D01*
X953388Y980471D01*
X953294Y980496D01*
X953199Y980518D01*
X953103Y980535D01*
X953006Y980549D01*
X952909Y980559D01*
X952812Y980565D01*
X952714Y980567D01*
X954461Y979818D02*
X959452Y975576D01*
X959452Y980567D01*
D15*
X447675Y358775D02*
X396875Y358775D01*
X396875Y377825D01*
X396875Y422275D01*
X447675Y422275D01*
X447675Y377825D01*
X447675Y358775D01*
X447675Y377825D02*
X396875Y377825D01*
D10*
X436296Y342773D02*
X436385Y342775D01*
X436473Y342781D01*
X436561Y342790D01*
X436649Y342804D01*
X436736Y342821D01*
X436822Y342842D01*
X436907Y342867D01*
X436991Y342896D01*
X437074Y342928D01*
X437155Y342963D01*
X437234Y343003D01*
X437312Y343045D01*
X437388Y343091D01*
X437462Y343140D01*
X437533Y343193D01*
X437602Y343248D01*
X437669Y343307D01*
X437733Y343368D01*
X437794Y343432D01*
X437853Y343499D01*
X437908Y343568D01*
X437961Y343639D01*
X438010Y343713D01*
X438056Y343789D01*
X438098Y343867D01*
X438138Y343946D01*
X438173Y344027D01*
X438205Y344110D01*
X438234Y344194D01*
X438259Y344279D01*
X438280Y344365D01*
X438297Y344452D01*
X438311Y344540D01*
X438320Y344628D01*
X438326Y344716D01*
X438328Y344805D01*
X436296Y342773D02*
X436166Y342775D01*
X436035Y342781D01*
X435905Y342791D01*
X435776Y342805D01*
X435647Y342822D01*
X435518Y342844D01*
X435390Y342870D01*
X435263Y342899D01*
X435137Y342932D01*
X435012Y342969D01*
X434888Y343010D01*
X434766Y343055D01*
X434645Y343103D01*
X434525Y343155D01*
X434407Y343211D01*
X434291Y343270D01*
X434177Y343333D01*
X434064Y343399D01*
X433954Y343468D01*
X433846Y343541D01*
X433740Y343617D01*
X433636Y343696D01*
X433535Y343778D01*
X433437Y343864D01*
X433341Y343952D01*
X433248Y344043D01*
X433502Y349885D02*
X433504Y349974D01*
X433510Y350062D01*
X433519Y350150D01*
X433533Y350238D01*
X433550Y350325D01*
X433571Y350411D01*
X433596Y350496D01*
X433625Y350580D01*
X433657Y350663D01*
X433692Y350744D01*
X433732Y350823D01*
X433774Y350901D01*
X433820Y350977D01*
X433869Y351051D01*
X433922Y351122D01*
X433977Y351191D01*
X434036Y351258D01*
X434097Y351322D01*
X434161Y351383D01*
X434228Y351442D01*
X434297Y351497D01*
X434368Y351550D01*
X434442Y351599D01*
X434518Y351645D01*
X434596Y351687D01*
X434675Y351727D01*
X434756Y351762D01*
X434839Y351794D01*
X434923Y351823D01*
X435008Y351848D01*
X435094Y351869D01*
X435181Y351886D01*
X435269Y351900D01*
X435357Y351909D01*
X435445Y351915D01*
X435534Y351917D01*
X435657Y351915D01*
X435779Y351909D01*
X435901Y351899D01*
X436023Y351885D01*
X436144Y351868D01*
X436265Y351846D01*
X436385Y351821D01*
X436504Y351791D01*
X436622Y351758D01*
X436739Y351721D01*
X436854Y351681D01*
X436969Y351637D01*
X437082Y351589D01*
X437193Y351537D01*
X437302Y351482D01*
X437410Y351423D01*
X437516Y351361D01*
X437619Y351296D01*
X437721Y351227D01*
X437820Y351155D01*
X434518Y348107D02*
X434442Y348154D01*
X434368Y348204D01*
X434297Y348257D01*
X434228Y348314D01*
X434161Y348373D01*
X434097Y348435D01*
X434035Y348500D01*
X433977Y348568D01*
X433922Y348638D01*
X433869Y348710D01*
X433820Y348784D01*
X433774Y348861D01*
X433731Y348939D01*
X433692Y349020D01*
X433656Y349102D01*
X433624Y349185D01*
X433596Y349269D01*
X433571Y349355D01*
X433550Y349442D01*
X433533Y349530D01*
X433519Y349618D01*
X433510Y349707D01*
X433504Y349796D01*
X433502Y349885D01*
X437312Y346583D02*
X437388Y346536D01*
X437462Y346486D01*
X437533Y346433D01*
X437602Y346376D01*
X437669Y346317D01*
X437733Y346255D01*
X437795Y346190D01*
X437853Y346122D01*
X437908Y346052D01*
X437961Y345980D01*
X438010Y345906D01*
X438056Y345829D01*
X438099Y345751D01*
X438138Y345670D01*
X438174Y345588D01*
X438206Y345505D01*
X438234Y345421D01*
X438259Y345335D01*
X438280Y345248D01*
X438297Y345160D01*
X438311Y345072D01*
X438320Y344983D01*
X438326Y344894D01*
X438328Y344805D01*
X437312Y346583D02*
X434518Y348107D01*
X442087Y349885D02*
X444627Y351917D01*
X444627Y342773D01*
X442087Y342773D02*
X447167Y342773D01*
X940308Y692658D02*
X951992Y692658D01*
X940308Y692658D02*
X940308Y695904D01*
X940310Y696017D01*
X940316Y696130D01*
X940326Y696243D01*
X940340Y696356D01*
X940357Y696468D01*
X940379Y696579D01*
X940404Y696689D01*
X940434Y696799D01*
X940467Y696907D01*
X940504Y697014D01*
X940544Y697120D01*
X940589Y697224D01*
X940637Y697327D01*
X940688Y697428D01*
X940743Y697527D01*
X940801Y697624D01*
X940863Y697719D01*
X940928Y697812D01*
X940996Y697902D01*
X941067Y697990D01*
X941142Y698076D01*
X941219Y698159D01*
X941299Y698239D01*
X941382Y698316D01*
X941468Y698391D01*
X941556Y698462D01*
X941646Y698530D01*
X941739Y698595D01*
X941834Y698657D01*
X941931Y698715D01*
X942030Y698770D01*
X942131Y698821D01*
X942234Y698869D01*
X942338Y698914D01*
X942444Y698954D01*
X942551Y698991D01*
X942659Y699024D01*
X942769Y699054D01*
X942879Y699079D01*
X942990Y699101D01*
X943102Y699118D01*
X943215Y699132D01*
X943328Y699142D01*
X943441Y699148D01*
X943554Y699150D01*
X943667Y699148D01*
X943780Y699142D01*
X943893Y699132D01*
X944006Y699118D01*
X944118Y699101D01*
X944229Y699079D01*
X944339Y699054D01*
X944449Y699024D01*
X944557Y698991D01*
X944664Y698954D01*
X944770Y698914D01*
X944874Y698869D01*
X944977Y698821D01*
X945078Y698770D01*
X945177Y698715D01*
X945274Y698657D01*
X945369Y698595D01*
X945462Y698530D01*
X945552Y698462D01*
X945640Y698391D01*
X945726Y698316D01*
X945809Y698239D01*
X945889Y698159D01*
X945966Y698076D01*
X946041Y697990D01*
X946112Y697902D01*
X946180Y697812D01*
X946245Y697719D01*
X946307Y697624D01*
X946365Y697527D01*
X946420Y697428D01*
X946471Y697327D01*
X946519Y697224D01*
X946564Y697120D01*
X946604Y697014D01*
X946641Y696907D01*
X946674Y696799D01*
X946704Y696689D01*
X946729Y696579D01*
X946751Y696468D01*
X946768Y696356D01*
X946782Y696243D01*
X946792Y696130D01*
X946798Y696017D01*
X946800Y695904D01*
X946799Y695904D02*
X946799Y692658D01*
X946799Y696553D02*
X951992Y699149D01*
X946799Y706611D02*
X946799Y710505D01*
X946799Y706611D02*
X946797Y706512D01*
X946791Y706412D01*
X946782Y706313D01*
X946769Y706215D01*
X946752Y706117D01*
X946731Y706019D01*
X946706Y705923D01*
X946678Y705828D01*
X946646Y705734D01*
X946611Y705641D01*
X946572Y705549D01*
X946529Y705459D01*
X946484Y705371D01*
X946434Y705284D01*
X946382Y705200D01*
X946326Y705117D01*
X946268Y705037D01*
X946206Y704959D01*
X946141Y704884D01*
X946073Y704811D01*
X946003Y704741D01*
X945930Y704673D01*
X945855Y704608D01*
X945777Y704546D01*
X945697Y704488D01*
X945614Y704432D01*
X945530Y704380D01*
X945443Y704330D01*
X945355Y704285D01*
X945265Y704242D01*
X945173Y704203D01*
X945080Y704168D01*
X944986Y704136D01*
X944891Y704108D01*
X944795Y704083D01*
X944697Y704062D01*
X944599Y704045D01*
X944501Y704032D01*
X944402Y704023D01*
X944302Y704017D01*
X944203Y704015D01*
X944203Y704014D02*
X943554Y704014D01*
X943441Y704016D01*
X943328Y704022D01*
X943215Y704032D01*
X943102Y704046D01*
X942990Y704063D01*
X942879Y704085D01*
X942769Y704110D01*
X942659Y704140D01*
X942551Y704173D01*
X942444Y704210D01*
X942338Y704250D01*
X942234Y704295D01*
X942131Y704343D01*
X942030Y704394D01*
X941931Y704449D01*
X941834Y704507D01*
X941739Y704569D01*
X941646Y704634D01*
X941556Y704702D01*
X941468Y704773D01*
X941382Y704848D01*
X941299Y704925D01*
X941219Y705005D01*
X941142Y705088D01*
X941067Y705174D01*
X940996Y705262D01*
X940928Y705352D01*
X940863Y705445D01*
X940801Y705540D01*
X940743Y705637D01*
X940688Y705736D01*
X940637Y705837D01*
X940589Y705940D01*
X940544Y706044D01*
X940504Y706150D01*
X940467Y706257D01*
X940434Y706365D01*
X940404Y706475D01*
X940379Y706585D01*
X940357Y706696D01*
X940340Y706808D01*
X940326Y706921D01*
X940316Y707034D01*
X940310Y707147D01*
X940308Y707260D01*
X940310Y707373D01*
X940316Y707486D01*
X940326Y707599D01*
X940340Y707712D01*
X940357Y707824D01*
X940379Y707935D01*
X940404Y708045D01*
X940434Y708155D01*
X940467Y708263D01*
X940504Y708370D01*
X940544Y708476D01*
X940589Y708580D01*
X940637Y708683D01*
X940688Y708784D01*
X940743Y708883D01*
X940801Y708980D01*
X940863Y709075D01*
X940928Y709168D01*
X940996Y709258D01*
X941067Y709346D01*
X941142Y709432D01*
X941219Y709515D01*
X941299Y709595D01*
X941382Y709672D01*
X941468Y709747D01*
X941556Y709818D01*
X941646Y709886D01*
X941739Y709951D01*
X941834Y710013D01*
X941931Y710071D01*
X942030Y710126D01*
X942131Y710177D01*
X942234Y710225D01*
X942338Y710270D01*
X942444Y710310D01*
X942551Y710347D01*
X942659Y710380D01*
X942769Y710410D01*
X942879Y710435D01*
X942990Y710457D01*
X943102Y710474D01*
X943215Y710488D01*
X943328Y710498D01*
X943441Y710504D01*
X943554Y710506D01*
X943554Y710505D02*
X946799Y710505D01*
X946799Y710506D02*
X946942Y710504D01*
X947085Y710498D01*
X947228Y710488D01*
X947370Y710474D01*
X947512Y710457D01*
X947654Y710435D01*
X947795Y710410D01*
X947935Y710380D01*
X948074Y710347D01*
X948212Y710310D01*
X948349Y710269D01*
X948485Y710225D01*
X948620Y710176D01*
X948753Y710124D01*
X948885Y710069D01*
X949015Y710009D01*
X949144Y709946D01*
X949271Y709880D01*
X949396Y709810D01*
X949518Y709737D01*
X949639Y709660D01*
X949758Y709580D01*
X949874Y709497D01*
X949989Y709411D01*
X950100Y709322D01*
X950210Y709229D01*
X950316Y709134D01*
X950420Y709035D01*
X950521Y708934D01*
X950620Y708830D01*
X950715Y708724D01*
X950808Y708614D01*
X950897Y708503D01*
X950983Y708388D01*
X951066Y708272D01*
X951146Y708153D01*
X951223Y708032D01*
X951296Y707910D01*
X951366Y707785D01*
X951432Y707658D01*
X951495Y707529D01*
X951555Y707399D01*
X951610Y707267D01*
X951662Y707134D01*
X951711Y706999D01*
X951755Y706863D01*
X951796Y706726D01*
X951833Y706588D01*
X951866Y706449D01*
X951896Y706309D01*
X951921Y706168D01*
X951943Y706026D01*
X951960Y705884D01*
X951974Y705742D01*
X951984Y705599D01*
X951990Y705456D01*
X951992Y705313D01*
D16*
X244950Y986025D02*
X231300Y986025D01*
D11*
X227965Y957850D02*
X223139Y957850D01*
X223139Y959190D01*
X223141Y959260D01*
X223146Y959330D01*
X223156Y959400D01*
X223168Y959469D01*
X223185Y959537D01*
X223205Y959604D01*
X223228Y959671D01*
X223255Y959735D01*
X223285Y959799D01*
X223319Y959861D01*
X223355Y959920D01*
X223395Y959978D01*
X223438Y960034D01*
X223483Y960087D01*
X223532Y960138D01*
X223583Y960187D01*
X223636Y960232D01*
X223692Y960275D01*
X223750Y960315D01*
X223810Y960351D01*
X223871Y960385D01*
X223935Y960415D01*
X223999Y960442D01*
X224066Y960465D01*
X224133Y960485D01*
X224201Y960502D01*
X224270Y960514D01*
X224340Y960524D01*
X224410Y960529D01*
X224480Y960531D01*
X226624Y960531D01*
X226694Y960529D01*
X226764Y960524D01*
X226834Y960514D01*
X226903Y960502D01*
X226971Y960485D01*
X227038Y960465D01*
X227105Y960442D01*
X227169Y960415D01*
X227233Y960385D01*
X227295Y960351D01*
X227354Y960315D01*
X227412Y960275D01*
X227468Y960232D01*
X227521Y960187D01*
X227572Y960138D01*
X227621Y960087D01*
X227666Y960034D01*
X227709Y959978D01*
X227749Y959920D01*
X227785Y959860D01*
X227819Y959799D01*
X227849Y959735D01*
X227876Y959671D01*
X227899Y959604D01*
X227919Y959537D01*
X227936Y959469D01*
X227948Y959400D01*
X227958Y959330D01*
X227963Y959260D01*
X227965Y959190D01*
X227965Y957850D01*
X226893Y963519D02*
X223139Y964592D01*
X226893Y963519D02*
X226893Y966200D01*
X225820Y965396D02*
X227965Y965396D01*
D16*
X206850Y986025D02*
X193200Y986025D01*
D11*
X189865Y957850D02*
X185039Y957850D01*
X185039Y959190D01*
X185041Y959260D01*
X185046Y959330D01*
X185056Y959400D01*
X185068Y959469D01*
X185085Y959537D01*
X185105Y959604D01*
X185128Y959671D01*
X185155Y959735D01*
X185185Y959799D01*
X185219Y959861D01*
X185255Y959920D01*
X185295Y959978D01*
X185338Y960034D01*
X185383Y960087D01*
X185432Y960138D01*
X185483Y960187D01*
X185536Y960232D01*
X185592Y960275D01*
X185650Y960315D01*
X185710Y960351D01*
X185771Y960385D01*
X185835Y960415D01*
X185899Y960442D01*
X185966Y960465D01*
X186033Y960485D01*
X186101Y960502D01*
X186170Y960514D01*
X186240Y960524D01*
X186310Y960529D01*
X186380Y960531D01*
X188524Y960531D01*
X188594Y960529D01*
X188664Y960524D01*
X188734Y960514D01*
X188803Y960502D01*
X188871Y960485D01*
X188938Y960465D01*
X189005Y960442D01*
X189069Y960415D01*
X189133Y960385D01*
X189195Y960351D01*
X189254Y960315D01*
X189312Y960275D01*
X189368Y960232D01*
X189421Y960187D01*
X189472Y960138D01*
X189521Y960087D01*
X189566Y960034D01*
X189609Y959978D01*
X189649Y959920D01*
X189685Y959860D01*
X189719Y959799D01*
X189749Y959735D01*
X189776Y959671D01*
X189799Y959604D01*
X189819Y959537D01*
X189836Y959469D01*
X189848Y959400D01*
X189858Y959330D01*
X189863Y959260D01*
X189865Y959190D01*
X189865Y957850D01*
X186111Y963519D02*
X185039Y964860D01*
X189865Y964860D01*
X189865Y966200D02*
X189865Y963519D01*
D16*
X269400Y986025D02*
X283050Y986025D01*
D11*
X266065Y957850D02*
X261239Y957850D01*
X261239Y959190D01*
X261241Y959260D01*
X261246Y959330D01*
X261256Y959400D01*
X261268Y959469D01*
X261285Y959537D01*
X261305Y959604D01*
X261328Y959671D01*
X261355Y959735D01*
X261385Y959799D01*
X261419Y959861D01*
X261455Y959920D01*
X261495Y959978D01*
X261538Y960034D01*
X261583Y960087D01*
X261632Y960138D01*
X261683Y960187D01*
X261736Y960232D01*
X261792Y960275D01*
X261850Y960315D01*
X261910Y960351D01*
X261971Y960385D01*
X262035Y960415D01*
X262099Y960442D01*
X262166Y960465D01*
X262233Y960485D01*
X262301Y960502D01*
X262370Y960514D01*
X262440Y960524D01*
X262510Y960529D01*
X262580Y960531D01*
X264724Y960531D01*
X264794Y960529D01*
X264864Y960524D01*
X264934Y960514D01*
X265003Y960502D01*
X265071Y960485D01*
X265138Y960465D01*
X265205Y960442D01*
X265269Y960415D01*
X265333Y960385D01*
X265395Y960351D01*
X265454Y960315D01*
X265512Y960275D01*
X265568Y960232D01*
X265621Y960187D01*
X265672Y960138D01*
X265721Y960087D01*
X265766Y960034D01*
X265809Y959978D01*
X265849Y959920D01*
X265885Y959860D01*
X265919Y959799D01*
X265949Y959735D01*
X265976Y959671D01*
X265999Y959604D01*
X266019Y959537D01*
X266036Y959469D01*
X266048Y959400D01*
X266058Y959330D01*
X266063Y959260D01*
X266065Y959190D01*
X266065Y957850D01*
X261239Y964994D02*
X261241Y965062D01*
X261247Y965129D01*
X261256Y965196D01*
X261269Y965263D01*
X261286Y965328D01*
X261307Y965393D01*
X261331Y965456D01*
X261359Y965518D01*
X261390Y965578D01*
X261424Y965636D01*
X261462Y965692D01*
X261502Y965747D01*
X261546Y965798D01*
X261593Y965847D01*
X261642Y965894D01*
X261693Y965938D01*
X261748Y965978D01*
X261804Y966016D01*
X261862Y966050D01*
X261922Y966081D01*
X261984Y966109D01*
X262047Y966133D01*
X262112Y966154D01*
X262177Y966171D01*
X262244Y966184D01*
X262311Y966193D01*
X262378Y966199D01*
X262446Y966201D01*
X261239Y964994D02*
X261241Y964916D01*
X261247Y964838D01*
X261257Y964761D01*
X261270Y964684D01*
X261288Y964608D01*
X261309Y964533D01*
X261334Y964459D01*
X261363Y964387D01*
X261395Y964316D01*
X261431Y964247D01*
X261470Y964179D01*
X261513Y964114D01*
X261559Y964051D01*
X261608Y963990D01*
X261660Y963932D01*
X261715Y963877D01*
X261772Y963824D01*
X261832Y963775D01*
X261895Y963728D01*
X261960Y963685D01*
X262026Y963645D01*
X262095Y963608D01*
X262166Y963575D01*
X262238Y963545D01*
X262312Y963519D01*
X263384Y965798D02*
X263335Y965847D01*
X263283Y965894D01*
X263228Y965937D01*
X263171Y965978D01*
X263112Y966016D01*
X263051Y966050D01*
X262988Y966081D01*
X262924Y966109D01*
X262858Y966133D01*
X262792Y966153D01*
X262724Y966170D01*
X262655Y966183D01*
X262586Y966192D01*
X262516Y966198D01*
X262446Y966200D01*
X263384Y965798D02*
X266065Y963519D01*
X266065Y966200D01*
D16*
X307500Y986025D02*
X321150Y986025D01*
D11*
X304165Y957850D02*
X299339Y957850D01*
X299339Y959190D01*
X299341Y959260D01*
X299346Y959330D01*
X299356Y959400D01*
X299368Y959469D01*
X299385Y959537D01*
X299405Y959604D01*
X299428Y959671D01*
X299455Y959735D01*
X299485Y959799D01*
X299519Y959861D01*
X299555Y959920D01*
X299595Y959978D01*
X299638Y960034D01*
X299683Y960087D01*
X299732Y960138D01*
X299783Y960187D01*
X299836Y960232D01*
X299892Y960275D01*
X299950Y960315D01*
X300010Y960351D01*
X300071Y960385D01*
X300135Y960415D01*
X300199Y960442D01*
X300266Y960465D01*
X300333Y960485D01*
X300401Y960502D01*
X300470Y960514D01*
X300540Y960524D01*
X300610Y960529D01*
X300680Y960531D01*
X302824Y960531D01*
X302894Y960529D01*
X302964Y960524D01*
X303034Y960514D01*
X303103Y960502D01*
X303171Y960485D01*
X303238Y960465D01*
X303305Y960442D01*
X303369Y960415D01*
X303433Y960385D01*
X303495Y960351D01*
X303554Y960315D01*
X303612Y960275D01*
X303668Y960232D01*
X303721Y960187D01*
X303772Y960138D01*
X303821Y960087D01*
X303866Y960034D01*
X303909Y959978D01*
X303949Y959920D01*
X303985Y959860D01*
X304019Y959799D01*
X304049Y959735D01*
X304076Y959671D01*
X304099Y959604D01*
X304119Y959537D01*
X304136Y959469D01*
X304148Y959400D01*
X304158Y959330D01*
X304163Y959260D01*
X304165Y959190D01*
X304165Y957850D01*
X304165Y963519D02*
X304165Y964860D01*
X304163Y964931D01*
X304157Y965003D01*
X304148Y965073D01*
X304135Y965143D01*
X304118Y965213D01*
X304097Y965281D01*
X304073Y965348D01*
X304045Y965414D01*
X304014Y965478D01*
X303979Y965541D01*
X303941Y965601D01*
X303900Y965660D01*
X303856Y965716D01*
X303809Y965770D01*
X303760Y965821D01*
X303707Y965869D01*
X303652Y965915D01*
X303595Y965957D01*
X303535Y965997D01*
X303474Y966033D01*
X303410Y966066D01*
X303345Y966095D01*
X303279Y966121D01*
X303211Y966144D01*
X303142Y966163D01*
X303072Y966178D01*
X303002Y966189D01*
X302931Y966197D01*
X302860Y966201D01*
X302788Y966201D01*
X302717Y966197D01*
X302646Y966189D01*
X302576Y966178D01*
X302506Y966163D01*
X302437Y966144D01*
X302369Y966121D01*
X302303Y966095D01*
X302238Y966066D01*
X302174Y966033D01*
X302113Y965997D01*
X302053Y965957D01*
X301996Y965915D01*
X301941Y965869D01*
X301888Y965821D01*
X301839Y965770D01*
X301792Y965716D01*
X301748Y965660D01*
X301707Y965601D01*
X301669Y965541D01*
X301634Y965478D01*
X301603Y965414D01*
X301575Y965348D01*
X301551Y965281D01*
X301530Y965213D01*
X301513Y965143D01*
X301500Y965073D01*
X301491Y965003D01*
X301485Y964931D01*
X301483Y964860D01*
X299339Y965128D02*
X299339Y963519D01*
X299339Y965128D02*
X299341Y965193D01*
X299347Y965257D01*
X299357Y965321D01*
X299370Y965385D01*
X299388Y965447D01*
X299409Y965508D01*
X299433Y965568D01*
X299462Y965626D01*
X299494Y965683D01*
X299529Y965737D01*
X299567Y965789D01*
X299609Y965839D01*
X299653Y965886D01*
X299700Y965930D01*
X299750Y965972D01*
X299802Y966010D01*
X299856Y966045D01*
X299913Y966077D01*
X299971Y966106D01*
X300031Y966130D01*
X300092Y966151D01*
X300154Y966169D01*
X300218Y966182D01*
X300282Y966192D01*
X300346Y966198D01*
X300411Y966200D01*
X300476Y966198D01*
X300540Y966192D01*
X300604Y966182D01*
X300668Y966169D01*
X300730Y966151D01*
X300791Y966130D01*
X300851Y966106D01*
X300909Y966077D01*
X300966Y966045D01*
X301020Y966010D01*
X301072Y965972D01*
X301122Y965930D01*
X301169Y965886D01*
X301213Y965839D01*
X301255Y965789D01*
X301293Y965737D01*
X301328Y965683D01*
X301360Y965626D01*
X301389Y965568D01*
X301413Y965508D01*
X301434Y965447D01*
X301452Y965385D01*
X301465Y965321D01*
X301475Y965257D01*
X301481Y965193D01*
X301483Y965128D01*
X301484Y965128D02*
X301484Y964055D01*
X829600Y75275D02*
X829600Y19275D01*
X829600Y5275D01*
X899600Y5275D01*
X899600Y19275D01*
X899600Y75275D01*
X829600Y75275D01*
X829600Y19275D02*
X899600Y19275D01*
D10*
X881328Y81679D02*
X881328Y90767D01*
X881327Y81679D02*
X881325Y81580D01*
X881319Y81480D01*
X881310Y81381D01*
X881297Y81283D01*
X881280Y81185D01*
X881259Y81087D01*
X881234Y80991D01*
X881206Y80896D01*
X881174Y80802D01*
X881139Y80709D01*
X881100Y80617D01*
X881057Y80527D01*
X881012Y80439D01*
X880962Y80352D01*
X880910Y80268D01*
X880854Y80185D01*
X880796Y80105D01*
X880734Y80027D01*
X880669Y79952D01*
X880601Y79879D01*
X880531Y79809D01*
X880458Y79741D01*
X880383Y79676D01*
X880305Y79614D01*
X880225Y79556D01*
X880142Y79500D01*
X880058Y79448D01*
X879971Y79398D01*
X879883Y79353D01*
X879793Y79310D01*
X879701Y79271D01*
X879608Y79236D01*
X879514Y79204D01*
X879419Y79176D01*
X879323Y79151D01*
X879225Y79130D01*
X879127Y79113D01*
X879029Y79100D01*
X878930Y79091D01*
X878830Y79085D01*
X878731Y79083D01*
X877433Y79083D01*
X890171Y90767D02*
X890278Y90765D01*
X890384Y90759D01*
X890490Y90749D01*
X890596Y90736D01*
X890702Y90718D01*
X890806Y90697D01*
X890910Y90672D01*
X891013Y90643D01*
X891114Y90611D01*
X891214Y90574D01*
X891313Y90534D01*
X891411Y90491D01*
X891507Y90444D01*
X891601Y90393D01*
X891693Y90339D01*
X891783Y90282D01*
X891871Y90222D01*
X891956Y90158D01*
X892039Y90091D01*
X892120Y90021D01*
X892198Y89949D01*
X892274Y89873D01*
X892346Y89795D01*
X892416Y89714D01*
X892483Y89631D01*
X892547Y89546D01*
X892607Y89458D01*
X892664Y89368D01*
X892718Y89276D01*
X892769Y89182D01*
X892816Y89086D01*
X892859Y88988D01*
X892899Y88889D01*
X892936Y88789D01*
X892968Y88688D01*
X892997Y88585D01*
X893022Y88481D01*
X893043Y88377D01*
X893061Y88271D01*
X893074Y88165D01*
X893084Y88059D01*
X893090Y87953D01*
X893092Y87846D01*
X890171Y90767D02*
X890050Y90765D01*
X889929Y90759D01*
X889809Y90749D01*
X889688Y90736D01*
X889569Y90718D01*
X889449Y90697D01*
X889331Y90672D01*
X889214Y90643D01*
X889097Y90610D01*
X888982Y90574D01*
X888868Y90533D01*
X888755Y90490D01*
X888643Y90442D01*
X888534Y90391D01*
X888426Y90336D01*
X888319Y90278D01*
X888215Y90217D01*
X888113Y90152D01*
X888013Y90084D01*
X887915Y90013D01*
X887819Y89939D01*
X887726Y89862D01*
X887636Y89781D01*
X887548Y89698D01*
X887463Y89612D01*
X887380Y89523D01*
X887301Y89432D01*
X887224Y89338D01*
X887151Y89242D01*
X887081Y89144D01*
X887014Y89043D01*
X886950Y88940D01*
X886890Y88835D01*
X886833Y88728D01*
X886779Y88620D01*
X886729Y88510D01*
X886683Y88398D01*
X886640Y88285D01*
X886601Y88170D01*
X892119Y85574D02*
X892198Y85651D01*
X892274Y85732D01*
X892347Y85815D01*
X892417Y85900D01*
X892484Y85988D01*
X892548Y86078D01*
X892608Y86170D01*
X892665Y86265D01*
X892719Y86361D01*
X892770Y86459D01*
X892817Y86559D01*
X892861Y86661D01*
X892901Y86764D01*
X892937Y86868D01*
X892969Y86974D01*
X892998Y87080D01*
X893023Y87188D01*
X893045Y87296D01*
X893062Y87406D01*
X893076Y87515D01*
X893085Y87625D01*
X893091Y87736D01*
X893093Y87846D01*
X892118Y85574D02*
X886601Y79083D01*
X893092Y79083D01*
D12*
X756920Y224790D02*
X759460Y227330D01*
X853440Y227330D01*
X855980Y224790D01*
X756920Y224790D02*
X755650Y195580D01*
X857250Y195580D02*
X855980Y224790D01*
D18*
X851408Y221234D03*
D19*
X806450Y187960D03*
D20*
X850265Y194310D03*
D21*
X819150Y194310D03*
X793750Y194310D03*
D20*
X762635Y194310D03*
D11*
X839204Y235712D02*
X839204Y240792D01*
X839206Y240903D01*
X839212Y241013D01*
X839221Y241124D01*
X839235Y241234D01*
X839252Y241343D01*
X839273Y241452D01*
X839298Y241560D01*
X839327Y241667D01*
X839359Y241773D01*
X839395Y241878D01*
X839435Y241981D01*
X839478Y242083D01*
X839525Y242184D01*
X839576Y242283D01*
X839629Y242380D01*
X839686Y242474D01*
X839747Y242567D01*
X839810Y242658D01*
X839877Y242747D01*
X839947Y242833D01*
X840020Y242916D01*
X840095Y242998D01*
X840173Y243076D01*
X840255Y243151D01*
X840338Y243224D01*
X840424Y243294D01*
X840513Y243361D01*
X840604Y243424D01*
X840697Y243485D01*
X840792Y243542D01*
X840888Y243595D01*
X840987Y243646D01*
X841088Y243693D01*
X841190Y243736D01*
X841293Y243776D01*
X841398Y243812D01*
X841504Y243844D01*
X841611Y243873D01*
X841719Y243898D01*
X841828Y243919D01*
X841937Y243936D01*
X842047Y243950D01*
X842158Y243959D01*
X842268Y243965D01*
X842379Y243967D01*
X842490Y243965D01*
X842600Y243959D01*
X842711Y243950D01*
X842821Y243936D01*
X842930Y243919D01*
X843039Y243898D01*
X843147Y243873D01*
X843254Y243844D01*
X843360Y243812D01*
X843465Y243776D01*
X843568Y243736D01*
X843670Y243693D01*
X843771Y243646D01*
X843870Y243595D01*
X843967Y243542D01*
X844061Y243485D01*
X844154Y243424D01*
X844245Y243361D01*
X844334Y243294D01*
X844420Y243224D01*
X844503Y243151D01*
X844585Y243076D01*
X844663Y242998D01*
X844738Y242916D01*
X844811Y242833D01*
X844881Y242747D01*
X844948Y242658D01*
X845011Y242567D01*
X845072Y242474D01*
X845129Y242380D01*
X845182Y242283D01*
X845233Y242184D01*
X845280Y242083D01*
X845323Y241981D01*
X845363Y241878D01*
X845399Y241773D01*
X845431Y241667D01*
X845460Y241560D01*
X845485Y241452D01*
X845506Y241343D01*
X845523Y241234D01*
X845537Y241124D01*
X845546Y241013D01*
X845552Y240903D01*
X845554Y240792D01*
X845554Y235712D01*
X845552Y235601D01*
X845546Y235491D01*
X845537Y235380D01*
X845523Y235270D01*
X845506Y235161D01*
X845485Y235052D01*
X845460Y234944D01*
X845431Y234837D01*
X845399Y234731D01*
X845363Y234626D01*
X845323Y234523D01*
X845280Y234421D01*
X845233Y234320D01*
X845182Y234221D01*
X845129Y234124D01*
X845072Y234030D01*
X845011Y233937D01*
X844948Y233846D01*
X844881Y233757D01*
X844811Y233671D01*
X844738Y233588D01*
X844663Y233506D01*
X844585Y233428D01*
X844503Y233353D01*
X844420Y233280D01*
X844334Y233210D01*
X844245Y233143D01*
X844154Y233080D01*
X844061Y233019D01*
X843967Y232962D01*
X843870Y232909D01*
X843771Y232858D01*
X843670Y232811D01*
X843568Y232768D01*
X843465Y232728D01*
X843360Y232692D01*
X843254Y232660D01*
X843147Y232631D01*
X843039Y232606D01*
X842930Y232585D01*
X842821Y232568D01*
X842711Y232554D01*
X842600Y232545D01*
X842490Y232539D01*
X842379Y232537D01*
X842268Y232539D01*
X842158Y232545D01*
X842047Y232554D01*
X841937Y232568D01*
X841828Y232585D01*
X841719Y232606D01*
X841611Y232631D01*
X841504Y232660D01*
X841398Y232692D01*
X841293Y232728D01*
X841190Y232768D01*
X841088Y232811D01*
X840987Y232858D01*
X840888Y232909D01*
X840792Y232962D01*
X840697Y233019D01*
X840604Y233080D01*
X840513Y233143D01*
X840424Y233210D01*
X840338Y233280D01*
X840255Y233353D01*
X840173Y233428D01*
X840095Y233506D01*
X840020Y233588D01*
X839947Y233671D01*
X839877Y233757D01*
X839810Y233846D01*
X839747Y233937D01*
X839686Y234030D01*
X839629Y234125D01*
X839576Y234221D01*
X839525Y234320D01*
X839478Y234421D01*
X839435Y234523D01*
X839395Y234626D01*
X839359Y234731D01*
X839327Y234837D01*
X839298Y234944D01*
X839273Y235052D01*
X839252Y235161D01*
X839235Y235270D01*
X839221Y235380D01*
X839212Y235491D01*
X839206Y235601D01*
X839204Y235712D01*
X844284Y235077D02*
X846824Y232537D01*
X850265Y241427D02*
X853440Y243967D01*
X853440Y232537D01*
X850265Y232537D02*
X856615Y232537D01*
D12*
X759460Y176530D02*
X756920Y173990D01*
X759460Y176530D02*
X853440Y176530D01*
X855980Y173990D01*
X756920Y173990D02*
X755650Y144780D01*
X857250Y144780D02*
X855980Y173990D01*
D18*
X851408Y170434D03*
D19*
X806450Y137160D03*
D20*
X850265Y143510D03*
D21*
X819150Y143510D03*
X793750Y143510D03*
D20*
X762635Y143510D03*
D11*
X839204Y184912D02*
X839204Y189992D01*
X839206Y190103D01*
X839212Y190213D01*
X839221Y190324D01*
X839235Y190434D01*
X839252Y190543D01*
X839273Y190652D01*
X839298Y190760D01*
X839327Y190867D01*
X839359Y190973D01*
X839395Y191078D01*
X839435Y191181D01*
X839478Y191283D01*
X839525Y191384D01*
X839576Y191483D01*
X839629Y191580D01*
X839686Y191674D01*
X839747Y191767D01*
X839810Y191858D01*
X839877Y191947D01*
X839947Y192033D01*
X840020Y192116D01*
X840095Y192198D01*
X840173Y192276D01*
X840255Y192351D01*
X840338Y192424D01*
X840424Y192494D01*
X840513Y192561D01*
X840604Y192624D01*
X840697Y192685D01*
X840792Y192742D01*
X840888Y192795D01*
X840987Y192846D01*
X841088Y192893D01*
X841190Y192936D01*
X841293Y192976D01*
X841398Y193012D01*
X841504Y193044D01*
X841611Y193073D01*
X841719Y193098D01*
X841828Y193119D01*
X841937Y193136D01*
X842047Y193150D01*
X842158Y193159D01*
X842268Y193165D01*
X842379Y193167D01*
X842490Y193165D01*
X842600Y193159D01*
X842711Y193150D01*
X842821Y193136D01*
X842930Y193119D01*
X843039Y193098D01*
X843147Y193073D01*
X843254Y193044D01*
X843360Y193012D01*
X843465Y192976D01*
X843568Y192936D01*
X843670Y192893D01*
X843771Y192846D01*
X843870Y192795D01*
X843967Y192742D01*
X844061Y192685D01*
X844154Y192624D01*
X844245Y192561D01*
X844334Y192494D01*
X844420Y192424D01*
X844503Y192351D01*
X844585Y192276D01*
X844663Y192198D01*
X844738Y192116D01*
X844811Y192033D01*
X844881Y191947D01*
X844948Y191858D01*
X845011Y191767D01*
X845072Y191674D01*
X845129Y191580D01*
X845182Y191483D01*
X845233Y191384D01*
X845280Y191283D01*
X845323Y191181D01*
X845363Y191078D01*
X845399Y190973D01*
X845431Y190867D01*
X845460Y190760D01*
X845485Y190652D01*
X845506Y190543D01*
X845523Y190434D01*
X845537Y190324D01*
X845546Y190213D01*
X845552Y190103D01*
X845554Y189992D01*
X845554Y184912D01*
X845552Y184801D01*
X845546Y184691D01*
X845537Y184580D01*
X845523Y184470D01*
X845506Y184361D01*
X845485Y184252D01*
X845460Y184144D01*
X845431Y184037D01*
X845399Y183931D01*
X845363Y183826D01*
X845323Y183723D01*
X845280Y183621D01*
X845233Y183520D01*
X845182Y183421D01*
X845129Y183324D01*
X845072Y183230D01*
X845011Y183137D01*
X844948Y183046D01*
X844881Y182957D01*
X844811Y182871D01*
X844738Y182788D01*
X844663Y182706D01*
X844585Y182628D01*
X844503Y182553D01*
X844420Y182480D01*
X844334Y182410D01*
X844245Y182343D01*
X844154Y182280D01*
X844061Y182219D01*
X843967Y182162D01*
X843870Y182109D01*
X843771Y182058D01*
X843670Y182011D01*
X843568Y181968D01*
X843465Y181928D01*
X843360Y181892D01*
X843254Y181860D01*
X843147Y181831D01*
X843039Y181806D01*
X842930Y181785D01*
X842821Y181768D01*
X842711Y181754D01*
X842600Y181745D01*
X842490Y181739D01*
X842379Y181737D01*
X842268Y181739D01*
X842158Y181745D01*
X842047Y181754D01*
X841937Y181768D01*
X841828Y181785D01*
X841719Y181806D01*
X841611Y181831D01*
X841504Y181860D01*
X841398Y181892D01*
X841293Y181928D01*
X841190Y181968D01*
X841088Y182011D01*
X840987Y182058D01*
X840888Y182109D01*
X840792Y182162D01*
X840697Y182219D01*
X840604Y182280D01*
X840513Y182343D01*
X840424Y182410D01*
X840338Y182480D01*
X840255Y182553D01*
X840173Y182628D01*
X840095Y182706D01*
X840020Y182788D01*
X839947Y182871D01*
X839877Y182957D01*
X839810Y183046D01*
X839747Y183137D01*
X839686Y183230D01*
X839629Y183325D01*
X839576Y183421D01*
X839525Y183520D01*
X839478Y183621D01*
X839435Y183723D01*
X839395Y183826D01*
X839359Y183931D01*
X839327Y184037D01*
X839298Y184144D01*
X839273Y184252D01*
X839252Y184361D01*
X839235Y184470D01*
X839221Y184580D01*
X839212Y184691D01*
X839206Y184801D01*
X839204Y184912D01*
X844284Y184277D02*
X846824Y181737D01*
X856616Y190310D02*
X856614Y190414D01*
X856608Y190519D01*
X856599Y190623D01*
X856586Y190726D01*
X856568Y190829D01*
X856548Y190931D01*
X856523Y191033D01*
X856495Y191133D01*
X856463Y191233D01*
X856427Y191331D01*
X856388Y191428D01*
X856346Y191523D01*
X856300Y191617D01*
X856250Y191709D01*
X856198Y191799D01*
X856142Y191887D01*
X856082Y191973D01*
X856020Y192057D01*
X855955Y192138D01*
X855887Y192217D01*
X855815Y192294D01*
X855742Y192367D01*
X855665Y192439D01*
X855586Y192507D01*
X855505Y192572D01*
X855421Y192634D01*
X855335Y192694D01*
X855247Y192750D01*
X855157Y192802D01*
X855065Y192852D01*
X854971Y192898D01*
X854876Y192940D01*
X854779Y192979D01*
X854681Y193015D01*
X854581Y193047D01*
X854481Y193075D01*
X854379Y193100D01*
X854277Y193120D01*
X854174Y193138D01*
X854071Y193151D01*
X853967Y193160D01*
X853862Y193166D01*
X853758Y193168D01*
X853758Y193167D02*
X853640Y193165D01*
X853521Y193159D01*
X853403Y193150D01*
X853286Y193137D01*
X853169Y193119D01*
X853052Y193099D01*
X852936Y193074D01*
X852821Y193046D01*
X852708Y193013D01*
X852595Y192978D01*
X852483Y192938D01*
X852373Y192896D01*
X852264Y192849D01*
X852156Y192799D01*
X852051Y192746D01*
X851947Y192689D01*
X851845Y192629D01*
X851745Y192566D01*
X851647Y192499D01*
X851551Y192430D01*
X851458Y192357D01*
X851367Y192281D01*
X851278Y192203D01*
X851192Y192121D01*
X851109Y192037D01*
X851028Y191951D01*
X850951Y191861D01*
X850876Y191770D01*
X850804Y191676D01*
X850735Y191579D01*
X850670Y191481D01*
X850607Y191380D01*
X850548Y191277D01*
X850492Y191173D01*
X850440Y191067D01*
X850391Y190959D01*
X850346Y190850D01*
X850304Y190739D01*
X850266Y190627D01*
X855663Y188088D02*
X855739Y188163D01*
X855814Y188242D01*
X855885Y188323D01*
X855954Y188407D01*
X856019Y188493D01*
X856081Y188581D01*
X856141Y188671D01*
X856197Y188763D01*
X856250Y188858D01*
X856299Y188954D01*
X856345Y189052D01*
X856388Y189151D01*
X856427Y189252D01*
X856462Y189354D01*
X856494Y189457D01*
X856522Y189561D01*
X856547Y189666D01*
X856568Y189773D01*
X856585Y189879D01*
X856598Y189986D01*
X856607Y190094D01*
X856613Y190202D01*
X856615Y190310D01*
X855663Y188087D02*
X850265Y181737D01*
X856615Y181737D01*
D12*
X759460Y125730D02*
X756920Y123190D01*
X759460Y125730D02*
X853440Y125730D01*
X855980Y123190D01*
X756920Y123190D02*
X755650Y93980D01*
X857250Y93980D02*
X855980Y123190D01*
D18*
X851408Y119634D03*
D19*
X806450Y86360D03*
D20*
X850265Y92710D03*
D21*
X819150Y92710D03*
X793750Y92710D03*
D20*
X762635Y92710D03*
D11*
X839204Y134112D02*
X839204Y139192D01*
X839206Y139303D01*
X839212Y139413D01*
X839221Y139524D01*
X839235Y139634D01*
X839252Y139743D01*
X839273Y139852D01*
X839298Y139960D01*
X839327Y140067D01*
X839359Y140173D01*
X839395Y140278D01*
X839435Y140381D01*
X839478Y140483D01*
X839525Y140584D01*
X839576Y140683D01*
X839629Y140780D01*
X839686Y140874D01*
X839747Y140967D01*
X839810Y141058D01*
X839877Y141147D01*
X839947Y141233D01*
X840020Y141316D01*
X840095Y141398D01*
X840173Y141476D01*
X840255Y141551D01*
X840338Y141624D01*
X840424Y141694D01*
X840513Y141761D01*
X840604Y141824D01*
X840697Y141885D01*
X840792Y141942D01*
X840888Y141995D01*
X840987Y142046D01*
X841088Y142093D01*
X841190Y142136D01*
X841293Y142176D01*
X841398Y142212D01*
X841504Y142244D01*
X841611Y142273D01*
X841719Y142298D01*
X841828Y142319D01*
X841937Y142336D01*
X842047Y142350D01*
X842158Y142359D01*
X842268Y142365D01*
X842379Y142367D01*
X842490Y142365D01*
X842600Y142359D01*
X842711Y142350D01*
X842821Y142336D01*
X842930Y142319D01*
X843039Y142298D01*
X843147Y142273D01*
X843254Y142244D01*
X843360Y142212D01*
X843465Y142176D01*
X843568Y142136D01*
X843670Y142093D01*
X843771Y142046D01*
X843870Y141995D01*
X843967Y141942D01*
X844061Y141885D01*
X844154Y141824D01*
X844245Y141761D01*
X844334Y141694D01*
X844420Y141624D01*
X844503Y141551D01*
X844585Y141476D01*
X844663Y141398D01*
X844738Y141316D01*
X844811Y141233D01*
X844881Y141147D01*
X844948Y141058D01*
X845011Y140967D01*
X845072Y140874D01*
X845129Y140780D01*
X845182Y140683D01*
X845233Y140584D01*
X845280Y140483D01*
X845323Y140381D01*
X845363Y140278D01*
X845399Y140173D01*
X845431Y140067D01*
X845460Y139960D01*
X845485Y139852D01*
X845506Y139743D01*
X845523Y139634D01*
X845537Y139524D01*
X845546Y139413D01*
X845552Y139303D01*
X845554Y139192D01*
X845554Y134112D01*
X845552Y134001D01*
X845546Y133891D01*
X845537Y133780D01*
X845523Y133670D01*
X845506Y133561D01*
X845485Y133452D01*
X845460Y133344D01*
X845431Y133237D01*
X845399Y133131D01*
X845363Y133026D01*
X845323Y132923D01*
X845280Y132821D01*
X845233Y132720D01*
X845182Y132621D01*
X845129Y132524D01*
X845072Y132430D01*
X845011Y132337D01*
X844948Y132246D01*
X844881Y132157D01*
X844811Y132071D01*
X844738Y131988D01*
X844663Y131906D01*
X844585Y131828D01*
X844503Y131753D01*
X844420Y131680D01*
X844334Y131610D01*
X844245Y131543D01*
X844154Y131480D01*
X844061Y131419D01*
X843967Y131362D01*
X843870Y131309D01*
X843771Y131258D01*
X843670Y131211D01*
X843568Y131168D01*
X843465Y131128D01*
X843360Y131092D01*
X843254Y131060D01*
X843147Y131031D01*
X843039Y131006D01*
X842930Y130985D01*
X842821Y130968D01*
X842711Y130954D01*
X842600Y130945D01*
X842490Y130939D01*
X842379Y130937D01*
X842268Y130939D01*
X842158Y130945D01*
X842047Y130954D01*
X841937Y130968D01*
X841828Y130985D01*
X841719Y131006D01*
X841611Y131031D01*
X841504Y131060D01*
X841398Y131092D01*
X841293Y131128D01*
X841190Y131168D01*
X841088Y131211D01*
X840987Y131258D01*
X840888Y131309D01*
X840792Y131362D01*
X840697Y131419D01*
X840604Y131480D01*
X840513Y131543D01*
X840424Y131610D01*
X840338Y131680D01*
X840255Y131753D01*
X840173Y131828D01*
X840095Y131906D01*
X840020Y131988D01*
X839947Y132071D01*
X839877Y132157D01*
X839810Y132246D01*
X839747Y132337D01*
X839686Y132430D01*
X839629Y132525D01*
X839576Y132621D01*
X839525Y132720D01*
X839478Y132821D01*
X839435Y132923D01*
X839395Y133026D01*
X839359Y133131D01*
X839327Y133237D01*
X839298Y133344D01*
X839273Y133452D01*
X839252Y133561D01*
X839235Y133670D01*
X839221Y133780D01*
X839212Y133891D01*
X839206Y134001D01*
X839204Y134112D01*
X844284Y133477D02*
X846824Y130937D01*
X850265Y130937D02*
X853440Y130937D01*
X853551Y130939D01*
X853661Y130945D01*
X853772Y130954D01*
X853882Y130968D01*
X853991Y130985D01*
X854100Y131006D01*
X854208Y131031D01*
X854315Y131060D01*
X854421Y131092D01*
X854526Y131128D01*
X854629Y131168D01*
X854731Y131211D01*
X854832Y131258D01*
X854931Y131309D01*
X855028Y131362D01*
X855122Y131419D01*
X855215Y131480D01*
X855306Y131543D01*
X855395Y131610D01*
X855481Y131680D01*
X855564Y131753D01*
X855646Y131828D01*
X855724Y131906D01*
X855799Y131988D01*
X855872Y132071D01*
X855942Y132157D01*
X856009Y132246D01*
X856072Y132337D01*
X856133Y132430D01*
X856190Y132524D01*
X856243Y132621D01*
X856294Y132720D01*
X856341Y132821D01*
X856384Y132923D01*
X856424Y133026D01*
X856460Y133131D01*
X856492Y133237D01*
X856521Y133344D01*
X856546Y133452D01*
X856567Y133561D01*
X856584Y133670D01*
X856598Y133780D01*
X856607Y133891D01*
X856613Y134001D01*
X856615Y134112D01*
X856613Y134223D01*
X856607Y134333D01*
X856598Y134444D01*
X856584Y134554D01*
X856567Y134663D01*
X856546Y134772D01*
X856521Y134880D01*
X856492Y134987D01*
X856460Y135093D01*
X856424Y135198D01*
X856384Y135301D01*
X856341Y135403D01*
X856294Y135504D01*
X856243Y135603D01*
X856190Y135699D01*
X856133Y135794D01*
X856072Y135887D01*
X856009Y135978D01*
X855942Y136067D01*
X855872Y136153D01*
X855799Y136236D01*
X855724Y136318D01*
X855646Y136396D01*
X855564Y136471D01*
X855481Y136544D01*
X855395Y136614D01*
X855306Y136681D01*
X855215Y136744D01*
X855122Y136805D01*
X855028Y136862D01*
X854931Y136915D01*
X854832Y136966D01*
X854731Y137013D01*
X854629Y137056D01*
X854526Y137096D01*
X854421Y137132D01*
X854315Y137164D01*
X854208Y137193D01*
X854100Y137218D01*
X853991Y137239D01*
X853882Y137256D01*
X853772Y137270D01*
X853661Y137279D01*
X853551Y137285D01*
X853440Y137287D01*
X854075Y142367D02*
X850265Y142367D01*
X854075Y142367D02*
X854175Y142365D01*
X854274Y142359D01*
X854374Y142349D01*
X854472Y142336D01*
X854571Y142318D01*
X854668Y142297D01*
X854764Y142272D01*
X854860Y142243D01*
X854954Y142210D01*
X855047Y142174D01*
X855138Y142134D01*
X855228Y142090D01*
X855316Y142043D01*
X855402Y141993D01*
X855486Y141939D01*
X855568Y141882D01*
X855647Y141822D01*
X855725Y141758D01*
X855799Y141692D01*
X855871Y141623D01*
X855940Y141551D01*
X856006Y141477D01*
X856070Y141399D01*
X856130Y141320D01*
X856187Y141238D01*
X856241Y141154D01*
X856291Y141068D01*
X856338Y140980D01*
X856382Y140890D01*
X856422Y140799D01*
X856458Y140706D01*
X856491Y140612D01*
X856520Y140516D01*
X856545Y140420D01*
X856566Y140323D01*
X856584Y140224D01*
X856597Y140126D01*
X856607Y140026D01*
X856613Y139927D01*
X856615Y139827D01*
X856613Y139727D01*
X856607Y139628D01*
X856597Y139528D01*
X856584Y139430D01*
X856566Y139331D01*
X856545Y139234D01*
X856520Y139138D01*
X856491Y139042D01*
X856458Y138948D01*
X856422Y138855D01*
X856382Y138764D01*
X856338Y138674D01*
X856291Y138586D01*
X856241Y138500D01*
X856187Y138416D01*
X856130Y138334D01*
X856070Y138255D01*
X856006Y138177D01*
X855940Y138103D01*
X855871Y138031D01*
X855799Y137962D01*
X855725Y137896D01*
X855647Y137832D01*
X855568Y137772D01*
X855486Y137715D01*
X855402Y137661D01*
X855316Y137611D01*
X855228Y137564D01*
X855138Y137520D01*
X855047Y137480D01*
X854954Y137444D01*
X854860Y137411D01*
X854764Y137382D01*
X854668Y137357D01*
X854571Y137336D01*
X854472Y137318D01*
X854374Y137305D01*
X854274Y137295D01*
X854175Y137289D01*
X854075Y137287D01*
X851535Y137287D01*
D12*
X871220Y224790D02*
X873760Y227330D01*
X967740Y227330D01*
X970280Y224790D01*
X871220Y224790D02*
X869950Y195580D01*
X971550Y195580D02*
X970280Y224790D01*
D18*
X965708Y221234D03*
D19*
X920750Y187960D03*
D20*
X964565Y194310D03*
D21*
X933450Y194310D03*
X908050Y194310D03*
D20*
X876935Y194310D03*
D11*
X953504Y235712D02*
X953504Y240792D01*
X953506Y240903D01*
X953512Y241013D01*
X953521Y241124D01*
X953535Y241234D01*
X953552Y241343D01*
X953573Y241452D01*
X953598Y241560D01*
X953627Y241667D01*
X953659Y241773D01*
X953695Y241878D01*
X953735Y241981D01*
X953778Y242083D01*
X953825Y242184D01*
X953876Y242283D01*
X953929Y242380D01*
X953986Y242474D01*
X954047Y242567D01*
X954110Y242658D01*
X954177Y242747D01*
X954247Y242833D01*
X954320Y242916D01*
X954395Y242998D01*
X954473Y243076D01*
X954555Y243151D01*
X954638Y243224D01*
X954724Y243294D01*
X954813Y243361D01*
X954904Y243424D01*
X954997Y243485D01*
X955092Y243542D01*
X955188Y243595D01*
X955287Y243646D01*
X955388Y243693D01*
X955490Y243736D01*
X955593Y243776D01*
X955698Y243812D01*
X955804Y243844D01*
X955911Y243873D01*
X956019Y243898D01*
X956128Y243919D01*
X956237Y243936D01*
X956347Y243950D01*
X956458Y243959D01*
X956568Y243965D01*
X956679Y243967D01*
X956790Y243965D01*
X956900Y243959D01*
X957011Y243950D01*
X957121Y243936D01*
X957230Y243919D01*
X957339Y243898D01*
X957447Y243873D01*
X957554Y243844D01*
X957660Y243812D01*
X957765Y243776D01*
X957868Y243736D01*
X957970Y243693D01*
X958071Y243646D01*
X958170Y243595D01*
X958267Y243542D01*
X958361Y243485D01*
X958454Y243424D01*
X958545Y243361D01*
X958634Y243294D01*
X958720Y243224D01*
X958803Y243151D01*
X958885Y243076D01*
X958963Y242998D01*
X959038Y242916D01*
X959111Y242833D01*
X959181Y242747D01*
X959248Y242658D01*
X959311Y242567D01*
X959372Y242474D01*
X959429Y242380D01*
X959482Y242283D01*
X959533Y242184D01*
X959580Y242083D01*
X959623Y241981D01*
X959663Y241878D01*
X959699Y241773D01*
X959731Y241667D01*
X959760Y241560D01*
X959785Y241452D01*
X959806Y241343D01*
X959823Y241234D01*
X959837Y241124D01*
X959846Y241013D01*
X959852Y240903D01*
X959854Y240792D01*
X959854Y235712D01*
X959852Y235601D01*
X959846Y235491D01*
X959837Y235380D01*
X959823Y235270D01*
X959806Y235161D01*
X959785Y235052D01*
X959760Y234944D01*
X959731Y234837D01*
X959699Y234731D01*
X959663Y234626D01*
X959623Y234523D01*
X959580Y234421D01*
X959533Y234320D01*
X959482Y234221D01*
X959429Y234124D01*
X959372Y234030D01*
X959311Y233937D01*
X959248Y233846D01*
X959181Y233757D01*
X959111Y233671D01*
X959038Y233588D01*
X958963Y233506D01*
X958885Y233428D01*
X958803Y233353D01*
X958720Y233280D01*
X958634Y233210D01*
X958545Y233143D01*
X958454Y233080D01*
X958361Y233019D01*
X958267Y232962D01*
X958170Y232909D01*
X958071Y232858D01*
X957970Y232811D01*
X957868Y232768D01*
X957765Y232728D01*
X957660Y232692D01*
X957554Y232660D01*
X957447Y232631D01*
X957339Y232606D01*
X957230Y232585D01*
X957121Y232568D01*
X957011Y232554D01*
X956900Y232545D01*
X956790Y232539D01*
X956679Y232537D01*
X956568Y232539D01*
X956458Y232545D01*
X956347Y232554D01*
X956237Y232568D01*
X956128Y232585D01*
X956019Y232606D01*
X955911Y232631D01*
X955804Y232660D01*
X955698Y232692D01*
X955593Y232728D01*
X955490Y232768D01*
X955388Y232811D01*
X955287Y232858D01*
X955188Y232909D01*
X955092Y232962D01*
X954997Y233019D01*
X954904Y233080D01*
X954813Y233143D01*
X954724Y233210D01*
X954638Y233280D01*
X954555Y233353D01*
X954473Y233428D01*
X954395Y233506D01*
X954320Y233588D01*
X954247Y233671D01*
X954177Y233757D01*
X954110Y233846D01*
X954047Y233937D01*
X953986Y234030D01*
X953929Y234125D01*
X953876Y234221D01*
X953825Y234320D01*
X953778Y234421D01*
X953735Y234523D01*
X953695Y234626D01*
X953659Y234731D01*
X953627Y234837D01*
X953598Y234944D01*
X953573Y235052D01*
X953552Y235161D01*
X953535Y235270D01*
X953521Y235380D01*
X953512Y235491D01*
X953506Y235601D01*
X953504Y235712D01*
X958584Y235077D02*
X961124Y232537D01*
X964565Y235077D02*
X967105Y243967D01*
X964565Y235077D02*
X970915Y235077D01*
X969010Y237617D02*
X969010Y232537D01*
D12*
X873760Y176530D02*
X871220Y173990D01*
X873760Y176530D02*
X967740Y176530D01*
X970280Y173990D01*
X871220Y173990D02*
X869950Y144780D01*
X971550Y144780D02*
X970280Y173990D01*
D18*
X965708Y170434D03*
D19*
X920750Y137160D03*
D20*
X964565Y143510D03*
D21*
X933450Y143510D03*
X908050Y143510D03*
D20*
X876935Y143510D03*
D11*
X953504Y184912D02*
X953504Y189992D01*
X953506Y190103D01*
X953512Y190213D01*
X953521Y190324D01*
X953535Y190434D01*
X953552Y190543D01*
X953573Y190652D01*
X953598Y190760D01*
X953627Y190867D01*
X953659Y190973D01*
X953695Y191078D01*
X953735Y191181D01*
X953778Y191283D01*
X953825Y191384D01*
X953876Y191483D01*
X953929Y191580D01*
X953986Y191674D01*
X954047Y191767D01*
X954110Y191858D01*
X954177Y191947D01*
X954247Y192033D01*
X954320Y192116D01*
X954395Y192198D01*
X954473Y192276D01*
X954555Y192351D01*
X954638Y192424D01*
X954724Y192494D01*
X954813Y192561D01*
X954904Y192624D01*
X954997Y192685D01*
X955092Y192742D01*
X955188Y192795D01*
X955287Y192846D01*
X955388Y192893D01*
X955490Y192936D01*
X955593Y192976D01*
X955698Y193012D01*
X955804Y193044D01*
X955911Y193073D01*
X956019Y193098D01*
X956128Y193119D01*
X956237Y193136D01*
X956347Y193150D01*
X956458Y193159D01*
X956568Y193165D01*
X956679Y193167D01*
X956790Y193165D01*
X956900Y193159D01*
X957011Y193150D01*
X957121Y193136D01*
X957230Y193119D01*
X957339Y193098D01*
X957447Y193073D01*
X957554Y193044D01*
X957660Y193012D01*
X957765Y192976D01*
X957868Y192936D01*
X957970Y192893D01*
X958071Y192846D01*
X958170Y192795D01*
X958267Y192742D01*
X958361Y192685D01*
X958454Y192624D01*
X958545Y192561D01*
X958634Y192494D01*
X958720Y192424D01*
X958803Y192351D01*
X958885Y192276D01*
X958963Y192198D01*
X959038Y192116D01*
X959111Y192033D01*
X959181Y191947D01*
X959248Y191858D01*
X959311Y191767D01*
X959372Y191674D01*
X959429Y191580D01*
X959482Y191483D01*
X959533Y191384D01*
X959580Y191283D01*
X959623Y191181D01*
X959663Y191078D01*
X959699Y190973D01*
X959731Y190867D01*
X959760Y190760D01*
X959785Y190652D01*
X959806Y190543D01*
X959823Y190434D01*
X959837Y190324D01*
X959846Y190213D01*
X959852Y190103D01*
X959854Y189992D01*
X959854Y184912D01*
X959852Y184801D01*
X959846Y184691D01*
X959837Y184580D01*
X959823Y184470D01*
X959806Y184361D01*
X959785Y184252D01*
X959760Y184144D01*
X959731Y184037D01*
X959699Y183931D01*
X959663Y183826D01*
X959623Y183723D01*
X959580Y183621D01*
X959533Y183520D01*
X959482Y183421D01*
X959429Y183324D01*
X959372Y183230D01*
X959311Y183137D01*
X959248Y183046D01*
X959181Y182957D01*
X959111Y182871D01*
X959038Y182788D01*
X958963Y182706D01*
X958885Y182628D01*
X958803Y182553D01*
X958720Y182480D01*
X958634Y182410D01*
X958545Y182343D01*
X958454Y182280D01*
X958361Y182219D01*
X958267Y182162D01*
X958170Y182109D01*
X958071Y182058D01*
X957970Y182011D01*
X957868Y181968D01*
X957765Y181928D01*
X957660Y181892D01*
X957554Y181860D01*
X957447Y181831D01*
X957339Y181806D01*
X957230Y181785D01*
X957121Y181768D01*
X957011Y181754D01*
X956900Y181745D01*
X956790Y181739D01*
X956679Y181737D01*
X956568Y181739D01*
X956458Y181745D01*
X956347Y181754D01*
X956237Y181768D01*
X956128Y181785D01*
X956019Y181806D01*
X955911Y181831D01*
X955804Y181860D01*
X955698Y181892D01*
X955593Y181928D01*
X955490Y181968D01*
X955388Y182011D01*
X955287Y182058D01*
X955188Y182109D01*
X955092Y182162D01*
X954997Y182219D01*
X954904Y182280D01*
X954813Y182343D01*
X954724Y182410D01*
X954638Y182480D01*
X954555Y182553D01*
X954473Y182628D01*
X954395Y182706D01*
X954320Y182788D01*
X954247Y182871D01*
X954177Y182957D01*
X954110Y183046D01*
X954047Y183137D01*
X953986Y183230D01*
X953929Y183325D01*
X953876Y183421D01*
X953825Y183520D01*
X953778Y183621D01*
X953735Y183723D01*
X953695Y183826D01*
X953659Y183931D01*
X953627Y184037D01*
X953598Y184144D01*
X953573Y184252D01*
X953552Y184361D01*
X953535Y184470D01*
X953521Y184580D01*
X953512Y184691D01*
X953506Y184801D01*
X953504Y184912D01*
X958584Y184277D02*
X961124Y181737D01*
X964565Y181737D02*
X968375Y181737D01*
X968475Y181739D01*
X968574Y181745D01*
X968674Y181755D01*
X968772Y181768D01*
X968871Y181786D01*
X968968Y181807D01*
X969064Y181832D01*
X969160Y181861D01*
X969254Y181894D01*
X969347Y181930D01*
X969438Y181970D01*
X969528Y182014D01*
X969616Y182061D01*
X969702Y182111D01*
X969786Y182165D01*
X969868Y182222D01*
X969947Y182282D01*
X970025Y182346D01*
X970099Y182412D01*
X970171Y182481D01*
X970240Y182553D01*
X970306Y182627D01*
X970370Y182705D01*
X970430Y182784D01*
X970487Y182866D01*
X970541Y182950D01*
X970591Y183036D01*
X970638Y183124D01*
X970682Y183214D01*
X970722Y183305D01*
X970758Y183398D01*
X970791Y183492D01*
X970820Y183588D01*
X970845Y183684D01*
X970866Y183781D01*
X970884Y183880D01*
X970897Y183978D01*
X970907Y184078D01*
X970913Y184177D01*
X970915Y184277D01*
X970915Y185547D01*
X970913Y185647D01*
X970907Y185746D01*
X970897Y185846D01*
X970884Y185944D01*
X970866Y186043D01*
X970845Y186140D01*
X970820Y186236D01*
X970791Y186332D01*
X970758Y186426D01*
X970722Y186519D01*
X970682Y186610D01*
X970638Y186700D01*
X970591Y186788D01*
X970541Y186874D01*
X970487Y186958D01*
X970430Y187040D01*
X970370Y187119D01*
X970306Y187197D01*
X970240Y187271D01*
X970171Y187343D01*
X970099Y187412D01*
X970025Y187478D01*
X969947Y187542D01*
X969868Y187602D01*
X969786Y187659D01*
X969702Y187713D01*
X969616Y187763D01*
X969528Y187810D01*
X969438Y187854D01*
X969347Y187894D01*
X969254Y187930D01*
X969160Y187963D01*
X969064Y187992D01*
X968968Y188017D01*
X968871Y188038D01*
X968772Y188056D01*
X968674Y188069D01*
X968574Y188079D01*
X968475Y188085D01*
X968375Y188087D01*
X964565Y188087D01*
X964565Y193167D01*
X970915Y193167D01*
D12*
X873760Y125730D02*
X871220Y123190D01*
X873760Y125730D02*
X967740Y125730D01*
X970280Y123190D01*
X871220Y123190D02*
X869950Y93980D01*
X971550Y93980D02*
X970280Y123190D01*
D18*
X965708Y119634D03*
D19*
X920750Y86360D03*
D20*
X964565Y92710D03*
D21*
X933450Y92710D03*
X908050Y92710D03*
D20*
X876935Y92710D03*
D11*
X953504Y134112D02*
X953504Y139192D01*
X953506Y139303D01*
X953512Y139413D01*
X953521Y139524D01*
X953535Y139634D01*
X953552Y139743D01*
X953573Y139852D01*
X953598Y139960D01*
X953627Y140067D01*
X953659Y140173D01*
X953695Y140278D01*
X953735Y140381D01*
X953778Y140483D01*
X953825Y140584D01*
X953876Y140683D01*
X953929Y140780D01*
X953986Y140874D01*
X954047Y140967D01*
X954110Y141058D01*
X954177Y141147D01*
X954247Y141233D01*
X954320Y141316D01*
X954395Y141398D01*
X954473Y141476D01*
X954555Y141551D01*
X954638Y141624D01*
X954724Y141694D01*
X954813Y141761D01*
X954904Y141824D01*
X954997Y141885D01*
X955092Y141942D01*
X955188Y141995D01*
X955287Y142046D01*
X955388Y142093D01*
X955490Y142136D01*
X955593Y142176D01*
X955698Y142212D01*
X955804Y142244D01*
X955911Y142273D01*
X956019Y142298D01*
X956128Y142319D01*
X956237Y142336D01*
X956347Y142350D01*
X956458Y142359D01*
X956568Y142365D01*
X956679Y142367D01*
X956790Y142365D01*
X956900Y142359D01*
X957011Y142350D01*
X957121Y142336D01*
X957230Y142319D01*
X957339Y142298D01*
X957447Y142273D01*
X957554Y142244D01*
X957660Y142212D01*
X957765Y142176D01*
X957868Y142136D01*
X957970Y142093D01*
X958071Y142046D01*
X958170Y141995D01*
X958267Y141942D01*
X958361Y141885D01*
X958454Y141824D01*
X958545Y141761D01*
X958634Y141694D01*
X958720Y141624D01*
X958803Y141551D01*
X958885Y141476D01*
X958963Y141398D01*
X959038Y141316D01*
X959111Y141233D01*
X959181Y141147D01*
X959248Y141058D01*
X959311Y140967D01*
X959372Y140874D01*
X959429Y140780D01*
X959482Y140683D01*
X959533Y140584D01*
X959580Y140483D01*
X959623Y140381D01*
X959663Y140278D01*
X959699Y140173D01*
X959731Y140067D01*
X959760Y139960D01*
X959785Y139852D01*
X959806Y139743D01*
X959823Y139634D01*
X959837Y139524D01*
X959846Y139413D01*
X959852Y139303D01*
X959854Y139192D01*
X959854Y134112D01*
X959852Y134001D01*
X959846Y133891D01*
X959837Y133780D01*
X959823Y133670D01*
X959806Y133561D01*
X959785Y133452D01*
X959760Y133344D01*
X959731Y133237D01*
X959699Y133131D01*
X959663Y133026D01*
X959623Y132923D01*
X959580Y132821D01*
X959533Y132720D01*
X959482Y132621D01*
X959429Y132524D01*
X959372Y132430D01*
X959311Y132337D01*
X959248Y132246D01*
X959181Y132157D01*
X959111Y132071D01*
X959038Y131988D01*
X958963Y131906D01*
X958885Y131828D01*
X958803Y131753D01*
X958720Y131680D01*
X958634Y131610D01*
X958545Y131543D01*
X958454Y131480D01*
X958361Y131419D01*
X958267Y131362D01*
X958170Y131309D01*
X958071Y131258D01*
X957970Y131211D01*
X957868Y131168D01*
X957765Y131128D01*
X957660Y131092D01*
X957554Y131060D01*
X957447Y131031D01*
X957339Y131006D01*
X957230Y130985D01*
X957121Y130968D01*
X957011Y130954D01*
X956900Y130945D01*
X956790Y130939D01*
X956679Y130937D01*
X956568Y130939D01*
X956458Y130945D01*
X956347Y130954D01*
X956237Y130968D01*
X956128Y130985D01*
X956019Y131006D01*
X955911Y131031D01*
X955804Y131060D01*
X955698Y131092D01*
X955593Y131128D01*
X955490Y131168D01*
X955388Y131211D01*
X955287Y131258D01*
X955188Y131309D01*
X955092Y131362D01*
X954997Y131419D01*
X954904Y131480D01*
X954813Y131543D01*
X954724Y131610D01*
X954638Y131680D01*
X954555Y131753D01*
X954473Y131828D01*
X954395Y131906D01*
X954320Y131988D01*
X954247Y132071D01*
X954177Y132157D01*
X954110Y132246D01*
X954047Y132337D01*
X953986Y132430D01*
X953929Y132525D01*
X953876Y132621D01*
X953825Y132720D01*
X953778Y132821D01*
X953735Y132923D01*
X953695Y133026D01*
X953659Y133131D01*
X953627Y133237D01*
X953598Y133344D01*
X953573Y133452D01*
X953552Y133561D01*
X953535Y133670D01*
X953521Y133780D01*
X953512Y133891D01*
X953506Y134001D01*
X953504Y134112D01*
X958584Y133477D02*
X961124Y130937D01*
X964565Y137287D02*
X968375Y137287D01*
X968475Y137285D01*
X968574Y137279D01*
X968674Y137269D01*
X968772Y137256D01*
X968871Y137238D01*
X968968Y137217D01*
X969064Y137192D01*
X969160Y137163D01*
X969254Y137130D01*
X969347Y137094D01*
X969438Y137054D01*
X969528Y137010D01*
X969616Y136963D01*
X969702Y136913D01*
X969786Y136859D01*
X969868Y136802D01*
X969947Y136742D01*
X970025Y136678D01*
X970099Y136612D01*
X970171Y136543D01*
X970240Y136471D01*
X970306Y136397D01*
X970370Y136319D01*
X970430Y136240D01*
X970487Y136158D01*
X970541Y136074D01*
X970591Y135988D01*
X970638Y135900D01*
X970682Y135810D01*
X970722Y135719D01*
X970758Y135626D01*
X970791Y135532D01*
X970820Y135436D01*
X970845Y135340D01*
X970866Y135243D01*
X970884Y135144D01*
X970897Y135046D01*
X970907Y134946D01*
X970913Y134847D01*
X970915Y134747D01*
X970915Y134112D01*
X970913Y134001D01*
X970907Y133891D01*
X970898Y133780D01*
X970884Y133670D01*
X970867Y133561D01*
X970846Y133452D01*
X970821Y133344D01*
X970792Y133237D01*
X970760Y133131D01*
X970724Y133026D01*
X970684Y132923D01*
X970641Y132821D01*
X970594Y132720D01*
X970543Y132621D01*
X970490Y132524D01*
X970433Y132430D01*
X970372Y132337D01*
X970309Y132246D01*
X970242Y132157D01*
X970172Y132071D01*
X970099Y131988D01*
X970024Y131906D01*
X969946Y131828D01*
X969864Y131753D01*
X969781Y131680D01*
X969695Y131610D01*
X969606Y131543D01*
X969515Y131480D01*
X969422Y131419D01*
X969328Y131362D01*
X969231Y131309D01*
X969132Y131258D01*
X969031Y131211D01*
X968929Y131168D01*
X968826Y131128D01*
X968721Y131092D01*
X968615Y131060D01*
X968508Y131031D01*
X968400Y131006D01*
X968291Y130985D01*
X968182Y130968D01*
X968072Y130954D01*
X967961Y130945D01*
X967851Y130939D01*
X967740Y130937D01*
X967629Y130939D01*
X967519Y130945D01*
X967408Y130954D01*
X967298Y130968D01*
X967189Y130985D01*
X967080Y131006D01*
X966972Y131031D01*
X966865Y131060D01*
X966759Y131092D01*
X966654Y131128D01*
X966551Y131168D01*
X966449Y131211D01*
X966348Y131258D01*
X966249Y131309D01*
X966153Y131362D01*
X966058Y131419D01*
X965965Y131480D01*
X965874Y131543D01*
X965785Y131610D01*
X965699Y131680D01*
X965616Y131753D01*
X965534Y131828D01*
X965456Y131906D01*
X965381Y131988D01*
X965308Y132071D01*
X965238Y132157D01*
X965171Y132246D01*
X965108Y132337D01*
X965047Y132430D01*
X964990Y132525D01*
X964937Y132621D01*
X964886Y132720D01*
X964839Y132821D01*
X964796Y132923D01*
X964756Y133026D01*
X964720Y133131D01*
X964688Y133237D01*
X964659Y133344D01*
X964634Y133452D01*
X964613Y133561D01*
X964596Y133670D01*
X964582Y133780D01*
X964573Y133891D01*
X964567Y134001D01*
X964565Y134112D01*
X964565Y137287D01*
X964567Y137427D01*
X964573Y137567D01*
X964582Y137707D01*
X964596Y137846D01*
X964613Y137985D01*
X964634Y138123D01*
X964659Y138261D01*
X964688Y138398D01*
X964720Y138534D01*
X964757Y138669D01*
X964797Y138803D01*
X964840Y138936D01*
X964888Y139068D01*
X964938Y139199D01*
X964993Y139328D01*
X965051Y139455D01*
X965112Y139581D01*
X965177Y139705D01*
X965246Y139827D01*
X965317Y139947D01*
X965392Y140065D01*
X965470Y140182D01*
X965552Y140296D01*
X965636Y140407D01*
X965724Y140516D01*
X965814Y140623D01*
X965908Y140728D01*
X966004Y140829D01*
X966103Y140928D01*
X966204Y141024D01*
X966309Y141118D01*
X966416Y141208D01*
X966525Y141296D01*
X966636Y141380D01*
X966750Y141462D01*
X966867Y141540D01*
X966985Y141615D01*
X967105Y141686D01*
X967227Y141755D01*
X967351Y141820D01*
X967477Y141881D01*
X967604Y141939D01*
X967733Y141994D01*
X967864Y142044D01*
X967996Y142092D01*
X968129Y142135D01*
X968263Y142175D01*
X968398Y142212D01*
X968534Y142244D01*
X968671Y142273D01*
X968809Y142298D01*
X968947Y142319D01*
X969086Y142336D01*
X969225Y142350D01*
X969365Y142359D01*
X969505Y142365D01*
X969645Y142367D01*
D12*
X885825Y292100D02*
X873125Y292100D01*
X885825Y292100D02*
X892175Y285750D01*
X892175Y273050D01*
X885825Y266700D01*
X892175Y285750D02*
X898525Y292100D01*
X911225Y292100D01*
X917575Y285750D01*
X917575Y273050D01*
X911225Y266700D01*
X898525Y266700D01*
X892175Y273050D01*
X847725Y292100D02*
X841375Y285750D01*
X847725Y292100D02*
X860425Y292100D01*
X866775Y285750D01*
X866775Y273050D01*
X860425Y266700D01*
X847725Y266700D01*
X841375Y273050D01*
X866775Y285750D02*
X873125Y292100D01*
X866775Y273050D02*
X873125Y266700D01*
X885825Y266700D01*
X809625Y292100D02*
X796925Y292100D01*
X809625Y292100D02*
X815975Y285750D01*
X815975Y273050D01*
X809625Y266700D01*
X815975Y285750D02*
X822325Y292100D01*
X835025Y292100D01*
X841375Y285750D01*
X841375Y273050D01*
X835025Y266700D01*
X822325Y266700D01*
X815975Y273050D01*
X790575Y273050D02*
X790575Y285750D01*
X796925Y292100D01*
X790575Y273050D02*
X796925Y266700D01*
X809625Y266700D01*
X923925Y292100D02*
X936625Y292100D01*
X942975Y285750D01*
X942975Y273050D01*
X936625Y266700D01*
X917575Y285750D02*
X923925Y292100D01*
X917575Y273050D02*
X923925Y266700D01*
X936625Y266700D01*
D16*
X727000Y296170D02*
X670000Y296170D01*
X670000Y186430D02*
X727000Y186430D01*
D22*
X716915Y196215D03*
D10*
X691172Y197758D02*
X679488Y197758D01*
X679488Y201004D01*
X679490Y201117D01*
X679496Y201230D01*
X679506Y201343D01*
X679520Y201456D01*
X679537Y201568D01*
X679559Y201679D01*
X679584Y201789D01*
X679614Y201899D01*
X679647Y202007D01*
X679684Y202114D01*
X679724Y202220D01*
X679769Y202324D01*
X679817Y202427D01*
X679868Y202528D01*
X679923Y202627D01*
X679981Y202724D01*
X680043Y202819D01*
X680108Y202912D01*
X680176Y203002D01*
X680247Y203090D01*
X680322Y203176D01*
X680399Y203259D01*
X680479Y203339D01*
X680562Y203416D01*
X680648Y203491D01*
X680736Y203562D01*
X680826Y203630D01*
X680919Y203695D01*
X681014Y203757D01*
X681111Y203815D01*
X681210Y203870D01*
X681311Y203921D01*
X681414Y203969D01*
X681518Y204014D01*
X681624Y204054D01*
X681731Y204091D01*
X681839Y204124D01*
X681949Y204154D01*
X682059Y204179D01*
X682170Y204201D01*
X682282Y204218D01*
X682395Y204232D01*
X682508Y204242D01*
X682621Y204248D01*
X682734Y204250D01*
X682847Y204248D01*
X682960Y204242D01*
X683073Y204232D01*
X683186Y204218D01*
X683298Y204201D01*
X683409Y204179D01*
X683519Y204154D01*
X683629Y204124D01*
X683737Y204091D01*
X683844Y204054D01*
X683950Y204014D01*
X684054Y203969D01*
X684157Y203921D01*
X684258Y203870D01*
X684357Y203815D01*
X684454Y203757D01*
X684549Y203695D01*
X684642Y203630D01*
X684732Y203562D01*
X684820Y203491D01*
X684906Y203416D01*
X684989Y203339D01*
X685069Y203259D01*
X685146Y203176D01*
X685221Y203090D01*
X685292Y203002D01*
X685360Y202912D01*
X685425Y202819D01*
X685487Y202724D01*
X685545Y202627D01*
X685600Y202528D01*
X685651Y202427D01*
X685699Y202324D01*
X685744Y202220D01*
X685784Y202114D01*
X685821Y202007D01*
X685854Y201899D01*
X685884Y201789D01*
X685909Y201679D01*
X685931Y201568D01*
X685948Y201456D01*
X685962Y201343D01*
X685972Y201230D01*
X685978Y201117D01*
X685980Y201004D01*
X685979Y201004D02*
X685979Y197758D01*
X685979Y201653D02*
X691172Y204249D01*
X682409Y215605D02*
X682302Y215603D01*
X682196Y215597D01*
X682090Y215587D01*
X681984Y215574D01*
X681878Y215556D01*
X681774Y215535D01*
X681670Y215510D01*
X681567Y215481D01*
X681466Y215449D01*
X681366Y215412D01*
X681267Y215372D01*
X681169Y215329D01*
X681073Y215282D01*
X680979Y215231D01*
X680887Y215177D01*
X680797Y215120D01*
X680709Y215060D01*
X680624Y214996D01*
X680541Y214929D01*
X680460Y214859D01*
X680382Y214787D01*
X680306Y214711D01*
X680234Y214633D01*
X680164Y214552D01*
X680097Y214469D01*
X680033Y214384D01*
X679973Y214296D01*
X679916Y214206D01*
X679862Y214114D01*
X679811Y214020D01*
X679764Y213924D01*
X679721Y213826D01*
X679681Y213727D01*
X679644Y213627D01*
X679612Y213526D01*
X679583Y213423D01*
X679558Y213319D01*
X679537Y213215D01*
X679519Y213109D01*
X679506Y213003D01*
X679496Y212897D01*
X679490Y212791D01*
X679488Y212684D01*
X679490Y212563D01*
X679496Y212442D01*
X679506Y212322D01*
X679519Y212201D01*
X679537Y212082D01*
X679558Y211962D01*
X679583Y211844D01*
X679612Y211727D01*
X679645Y211610D01*
X679681Y211495D01*
X679722Y211381D01*
X679765Y211268D01*
X679813Y211156D01*
X679864Y211047D01*
X679919Y210939D01*
X679977Y210832D01*
X680038Y210728D01*
X680103Y210626D01*
X680171Y210526D01*
X680242Y210428D01*
X680316Y210332D01*
X680393Y210239D01*
X680474Y210149D01*
X680557Y210061D01*
X680643Y209976D01*
X680732Y209893D01*
X680823Y209814D01*
X680917Y209737D01*
X681013Y209664D01*
X681111Y209594D01*
X681212Y209527D01*
X681315Y209463D01*
X681420Y209403D01*
X681527Y209345D01*
X681635Y209292D01*
X681745Y209242D01*
X681857Y209196D01*
X681970Y209153D01*
X682085Y209114D01*
X684681Y214631D02*
X684603Y214710D01*
X684523Y214786D01*
X684440Y214859D01*
X684354Y214929D01*
X684267Y214996D01*
X684176Y215060D01*
X684084Y215120D01*
X683990Y215178D01*
X683893Y215232D01*
X683795Y215282D01*
X683695Y215329D01*
X683594Y215373D01*
X683491Y215413D01*
X683386Y215449D01*
X683281Y215481D01*
X683174Y215510D01*
X683067Y215535D01*
X682958Y215557D01*
X682849Y215574D01*
X682740Y215588D01*
X682630Y215597D01*
X682519Y215603D01*
X682409Y215605D01*
X684681Y214632D02*
X691172Y209114D01*
X691172Y215605D01*
X685330Y220544D02*
X685100Y220547D01*
X684870Y220555D01*
X684641Y220569D01*
X684412Y220588D01*
X684183Y220613D01*
X683955Y220643D01*
X683728Y220678D01*
X683502Y220719D01*
X683277Y220765D01*
X683053Y220817D01*
X682830Y220874D01*
X682609Y220936D01*
X682389Y221004D01*
X682171Y221077D01*
X681955Y221155D01*
X681741Y221238D01*
X681529Y221326D01*
X681318Y221419D01*
X681111Y221518D01*
X681021Y221551D01*
X680932Y221587D01*
X680844Y221627D01*
X680759Y221671D01*
X680675Y221718D01*
X680593Y221768D01*
X680513Y221822D01*
X680436Y221878D01*
X680360Y221938D01*
X680287Y222001D01*
X680217Y222066D01*
X680149Y222135D01*
X680085Y222206D01*
X680023Y222279D01*
X679964Y222355D01*
X679908Y222433D01*
X679855Y222514D01*
X679806Y222596D01*
X679760Y222680D01*
X679717Y222767D01*
X679678Y222854D01*
X679642Y222944D01*
X679610Y223034D01*
X679582Y223126D01*
X679557Y223219D01*
X679536Y223313D01*
X679519Y223407D01*
X679505Y223502D01*
X679496Y223598D01*
X679490Y223694D01*
X679488Y223790D01*
X679490Y223886D01*
X679496Y223982D01*
X679505Y224078D01*
X679519Y224173D01*
X679536Y224267D01*
X679557Y224361D01*
X679582Y224454D01*
X679610Y224546D01*
X679642Y224636D01*
X679678Y224726D01*
X679717Y224814D01*
X679760Y224900D01*
X679806Y224984D01*
X679855Y225066D01*
X679908Y225147D01*
X679964Y225225D01*
X680023Y225301D01*
X680085Y225374D01*
X680149Y225445D01*
X680217Y225514D01*
X680287Y225579D01*
X680360Y225642D01*
X680436Y225702D01*
X680513Y225758D01*
X680593Y225812D01*
X680675Y225862D01*
X680759Y225909D01*
X680844Y225953D01*
X680932Y225993D01*
X681021Y226029D01*
X681111Y226062D01*
X681318Y226161D01*
X681529Y226254D01*
X681741Y226342D01*
X681955Y226425D01*
X682171Y226503D01*
X682389Y226576D01*
X682609Y226644D01*
X682830Y226706D01*
X683053Y226763D01*
X683277Y226815D01*
X683502Y226861D01*
X683728Y226902D01*
X683955Y226937D01*
X684183Y226967D01*
X684412Y226992D01*
X684641Y227011D01*
X684870Y227025D01*
X685100Y227033D01*
X685330Y227036D01*
X685330Y220544D02*
X685560Y220547D01*
X685790Y220555D01*
X686019Y220569D01*
X686248Y220588D01*
X686477Y220613D01*
X686705Y220643D01*
X686932Y220678D01*
X687158Y220719D01*
X687383Y220765D01*
X687607Y220817D01*
X687830Y220874D01*
X688051Y220936D01*
X688271Y221004D01*
X688489Y221077D01*
X688705Y221155D01*
X688919Y221238D01*
X689131Y221326D01*
X689342Y221419D01*
X689549Y221518D01*
X689639Y221551D01*
X689728Y221587D01*
X689816Y221628D01*
X689901Y221671D01*
X689985Y221718D01*
X690067Y221768D01*
X690147Y221822D01*
X690224Y221878D01*
X690300Y221938D01*
X690373Y222001D01*
X690443Y222066D01*
X690511Y222135D01*
X690575Y222206D01*
X690637Y222279D01*
X690696Y222355D01*
X690752Y222433D01*
X690805Y222514D01*
X690854Y222596D01*
X690900Y222680D01*
X690943Y222767D01*
X690982Y222854D01*
X691018Y222944D01*
X691050Y223034D01*
X691078Y223126D01*
X691103Y223219D01*
X691124Y223313D01*
X691141Y223407D01*
X691155Y223502D01*
X691164Y223598D01*
X691170Y223694D01*
X691172Y223790D01*
X689549Y226062D02*
X689342Y226161D01*
X689131Y226254D01*
X688919Y226342D01*
X688705Y226425D01*
X688489Y226503D01*
X688271Y226576D01*
X688051Y226644D01*
X687830Y226706D01*
X687607Y226763D01*
X687383Y226815D01*
X687158Y226861D01*
X686932Y226902D01*
X686705Y226937D01*
X686477Y226967D01*
X686248Y226992D01*
X686019Y227011D01*
X685790Y227025D01*
X685560Y227033D01*
X685330Y227036D01*
X689549Y226062D02*
X689639Y226029D01*
X689728Y225993D01*
X689816Y225953D01*
X689901Y225909D01*
X689985Y225862D01*
X690067Y225812D01*
X690147Y225758D01*
X690224Y225702D01*
X690300Y225642D01*
X690373Y225579D01*
X690443Y225514D01*
X690511Y225445D01*
X690575Y225374D01*
X690637Y225301D01*
X690696Y225225D01*
X690752Y225147D01*
X690805Y225066D01*
X690854Y224984D01*
X690900Y224900D01*
X690943Y224813D01*
X690982Y224726D01*
X691018Y224636D01*
X691050Y224546D01*
X691078Y224454D01*
X691103Y224361D01*
X691124Y224267D01*
X691141Y224173D01*
X691155Y224078D01*
X691164Y223982D01*
X691170Y223886D01*
X691172Y223790D01*
X688576Y221193D02*
X682084Y226386D01*
D12*
X673100Y41275D02*
X673100Y28575D01*
X673100Y41275D02*
X679450Y47625D01*
X673100Y53975D01*
X673100Y66675D01*
X679450Y73025D01*
X673100Y28575D02*
X679450Y22225D01*
X679450Y73025D02*
X673100Y79375D01*
X673100Y92075D01*
X679450Y98425D01*
X673100Y104775D02*
X673100Y117475D01*
X679450Y123825D01*
X673100Y130175D01*
X673100Y142875D01*
X679450Y149225D01*
X673100Y104775D02*
X679450Y98425D01*
X679450Y149225D02*
X673100Y155575D01*
X673100Y168275D01*
X679450Y174625D01*
X717550Y174625D01*
X717550Y47625D02*
X723900Y41275D01*
X723900Y66675D02*
X717550Y73025D01*
X723900Y66675D02*
X723900Y53975D01*
X717550Y47625D01*
X717550Y22225D02*
X679450Y22225D01*
X717550Y22225D02*
X723900Y28575D01*
X723900Y41275D01*
X723900Y92075D02*
X717550Y98425D01*
X723900Y92075D02*
X723900Y79375D01*
X717550Y73025D01*
X723900Y117475D02*
X717550Y123825D01*
X723900Y142875D02*
X717550Y149225D01*
X723900Y142875D02*
X723900Y130175D01*
X717550Y123825D01*
X723900Y104775D02*
X717550Y98425D01*
X723900Y104775D02*
X723900Y117475D01*
X723900Y168275D02*
X717550Y174625D01*
X723900Y168275D02*
X723900Y155575D01*
X717550Y149225D01*
D11*
X728345Y33655D02*
X730885Y30480D01*
X728345Y33655D02*
X739775Y33655D01*
X739775Y30480D02*
X739775Y36830D01*
X659765Y149860D02*
X657225Y153035D01*
X668655Y153035D01*
X668655Y149860D02*
X668655Y156210D01*
X657225Y164783D02*
X657227Y164887D01*
X657233Y164992D01*
X657242Y165096D01*
X657255Y165199D01*
X657273Y165302D01*
X657293Y165404D01*
X657318Y165506D01*
X657346Y165606D01*
X657378Y165706D01*
X657414Y165804D01*
X657453Y165901D01*
X657495Y165996D01*
X657541Y166090D01*
X657591Y166182D01*
X657643Y166272D01*
X657699Y166360D01*
X657759Y166446D01*
X657821Y166530D01*
X657886Y166611D01*
X657954Y166690D01*
X658026Y166767D01*
X658099Y166840D01*
X658176Y166912D01*
X658255Y166980D01*
X658336Y167045D01*
X658420Y167107D01*
X658506Y167167D01*
X658594Y167223D01*
X658684Y167275D01*
X658776Y167325D01*
X658870Y167371D01*
X658965Y167413D01*
X659062Y167452D01*
X659160Y167488D01*
X659260Y167520D01*
X659360Y167548D01*
X659462Y167573D01*
X659564Y167593D01*
X659667Y167611D01*
X659770Y167624D01*
X659874Y167633D01*
X659979Y167639D01*
X660083Y167641D01*
X657225Y164783D02*
X657227Y164665D01*
X657233Y164546D01*
X657242Y164428D01*
X657255Y164311D01*
X657273Y164194D01*
X657293Y164077D01*
X657318Y163961D01*
X657346Y163846D01*
X657379Y163733D01*
X657414Y163620D01*
X657454Y163508D01*
X657496Y163398D01*
X657543Y163289D01*
X657593Y163181D01*
X657646Y163076D01*
X657703Y162972D01*
X657763Y162870D01*
X657826Y162770D01*
X657893Y162672D01*
X657962Y162576D01*
X658035Y162483D01*
X658111Y162392D01*
X658189Y162303D01*
X658271Y162217D01*
X658355Y162134D01*
X658441Y162053D01*
X658531Y161976D01*
X658622Y161901D01*
X658716Y161829D01*
X658813Y161760D01*
X658911Y161695D01*
X659012Y161632D01*
X659115Y161573D01*
X659219Y161517D01*
X659325Y161465D01*
X659433Y161416D01*
X659542Y161371D01*
X659653Y161329D01*
X659765Y161291D01*
X662305Y166688D02*
X662230Y166764D01*
X662151Y166839D01*
X662070Y166910D01*
X661986Y166979D01*
X661900Y167044D01*
X661812Y167106D01*
X661722Y167166D01*
X661630Y167222D01*
X661535Y167275D01*
X661439Y167324D01*
X661341Y167370D01*
X661242Y167413D01*
X661141Y167452D01*
X661039Y167487D01*
X660936Y167519D01*
X660832Y167547D01*
X660727Y167572D01*
X660620Y167593D01*
X660514Y167610D01*
X660407Y167623D01*
X660299Y167632D01*
X660191Y167638D01*
X660083Y167640D01*
X662305Y166688D02*
X668655Y161290D01*
X668655Y167640D01*
M02*
