G04 EAGLE Gerber X2 export*
G75*
%MOMM*%
%FSLAX34Y34*%
%LPD*%
%AMOC8*
5,1,8,0,0,1.08239X$1,22.5*%
G01*
%ADD10C,3.703200*%
%ADD11C,2.235200*%
%ADD12P,2.144431X8X22.500000*%
%ADD13R,1.803200X2.203200*%
%ADD14C,1.711200*%
%ADD15R,1.803200X1.503200*%
%ADD16R,2.303200X2.303200*%
%ADD17C,3.203200*%
%ADD18C,2.387600*%
%ADD19C,1.727200*%
%ADD20R,2.203200X1.803200*%
%ADD21P,1.869504X8X112.500000*%
%ADD22C,0.959600*%
%ADD23C,1.503200*%


D10*
X549275Y260350D03*
X549275Y57150D03*
X66675Y260350D03*
X66675Y44450D03*
X66675Y152400D03*
D11*
X473075Y57150D03*
X447675Y57150D03*
X422275Y57150D03*
D12*
X28575Y266700D03*
X28575Y241300D03*
X28575Y215900D03*
X28575Y190500D03*
X28575Y165100D03*
X28575Y139700D03*
X28575Y114300D03*
X28575Y88900D03*
X28575Y63500D03*
X28575Y38100D03*
X600075Y266700D03*
X600075Y241300D03*
X600075Y215900D03*
X600075Y190500D03*
X600075Y165100D03*
X600075Y139700D03*
X600075Y114300D03*
X600075Y88900D03*
X600075Y63500D03*
X600075Y38100D03*
D13*
X420975Y22225D03*
X448975Y22225D03*
D14*
X147240Y171450D02*
X132160Y171450D01*
X443310Y171450D02*
X458390Y171450D01*
X147240Y247650D02*
X132160Y247650D01*
X443310Y247650D02*
X458390Y247650D01*
D15*
X501650Y158775D03*
X501650Y177775D03*
X523875Y158775D03*
X523875Y177775D03*
D14*
X606425Y478235D02*
X606425Y493315D01*
X631825Y493315D02*
X631825Y478235D01*
X657225Y478235D02*
X657225Y493315D01*
X682625Y493315D02*
X682625Y478235D01*
X708025Y478235D02*
X708025Y493315D01*
X733425Y493315D02*
X733425Y478235D01*
X758825Y478235D02*
X758825Y493315D01*
X784225Y493315D02*
X784225Y478235D01*
X809625Y478235D02*
X809625Y493315D01*
X835025Y493315D02*
X835025Y478235D01*
X860425Y478235D02*
X860425Y493315D01*
X885825Y493315D02*
X885825Y478235D01*
X820340Y361950D02*
X805260Y361950D01*
X805260Y336550D02*
X820340Y336550D01*
X875110Y361950D02*
X890190Y361950D01*
X890190Y336550D02*
X875110Y336550D01*
X274240Y523875D02*
X259160Y523875D01*
X259160Y549275D02*
X274240Y549275D01*
D16*
X96325Y522200D03*
X96325Y564200D03*
X96325Y606200D03*
X96325Y648200D03*
X96325Y690200D03*
X96325Y732200D03*
X96325Y774200D03*
X96325Y816200D03*
X96325Y858200D03*
X96325Y900200D03*
X151325Y522200D03*
X151325Y564200D03*
X151325Y606200D03*
X151325Y648200D03*
X151325Y690200D03*
X151325Y732200D03*
X151325Y774200D03*
X151325Y816200D03*
X151325Y858200D03*
X151325Y900200D03*
D17*
X146725Y475200D03*
X146725Y947200D03*
D18*
X322800Y390525D03*
X287800Y390525D03*
X240250Y390525D03*
X205250Y390525D03*
X157700Y390525D03*
X122700Y390525D03*
X75150Y390525D03*
X40150Y390525D03*
D19*
X354330Y739775D02*
X369570Y739775D01*
X369570Y765175D02*
X354330Y765175D01*
X354330Y790575D02*
X369570Y790575D01*
X369570Y815975D02*
X354330Y815975D01*
X354330Y841375D02*
X369570Y841375D01*
X369570Y866775D02*
X354330Y866775D01*
X354330Y892175D02*
X369570Y892175D01*
X369570Y917575D02*
X354330Y917575D01*
X354330Y942975D02*
X369570Y942975D01*
X369570Y968375D02*
X354330Y968375D01*
X925830Y968375D02*
X941070Y968375D01*
X941070Y942975D02*
X925830Y942975D01*
X925830Y917575D02*
X941070Y917575D01*
X941070Y892175D02*
X925830Y892175D01*
X925830Y866775D02*
X941070Y866775D01*
X941070Y841375D02*
X925830Y841375D01*
X925830Y815975D02*
X941070Y815975D01*
X941070Y790575D02*
X925830Y790575D01*
X925830Y765175D02*
X941070Y765175D01*
X941070Y739775D02*
X925830Y739775D01*
D14*
X434975Y398065D02*
X434975Y382985D01*
X409575Y382985D02*
X409575Y398065D01*
D20*
X206375Y900400D03*
X206375Y928400D03*
X234950Y928400D03*
X234950Y900400D03*
X279400Y843250D03*
X279400Y871250D03*
X314325Y871250D03*
X314325Y843250D03*
X234950Y843250D03*
X234950Y871250D03*
X203200Y871250D03*
X203200Y843250D03*
X311150Y900400D03*
X311150Y928400D03*
X279400Y928400D03*
X279400Y900400D03*
D18*
X881600Y41275D03*
X846600Y41275D03*
D19*
X831850Y201930D02*
X831850Y217170D01*
X806450Y217170D02*
X806450Y201930D01*
X781050Y201930D02*
X781050Y217170D01*
X831850Y166370D02*
X831850Y151130D01*
X806450Y151130D02*
X806450Y166370D01*
X781050Y166370D02*
X781050Y151130D01*
X831850Y115570D02*
X831850Y100330D01*
X806450Y100330D02*
X806450Y115570D01*
X781050Y115570D02*
X781050Y100330D01*
X946150Y201930D02*
X946150Y217170D01*
X920750Y217170D02*
X920750Y201930D01*
X895350Y201930D02*
X895350Y217170D01*
X946150Y166370D02*
X946150Y151130D01*
X920750Y151130D02*
X920750Y166370D01*
X895350Y166370D02*
X895350Y151130D01*
X946150Y115570D02*
X946150Y100330D01*
X920750Y100330D02*
X920750Y115570D01*
X895350Y115570D02*
X895350Y100330D01*
X803275Y271780D02*
X803275Y287020D01*
X828675Y287020D02*
X828675Y271780D01*
X854075Y271780D02*
X854075Y287020D01*
X879475Y287020D02*
X879475Y271780D01*
X904875Y271780D02*
X904875Y287020D01*
X930275Y287020D02*
X930275Y271780D01*
D21*
X711200Y34925D03*
X711200Y60325D03*
X711200Y85725D03*
X711200Y111125D03*
X711200Y136525D03*
X711200Y161925D03*
X685800Y34925D03*
X685800Y60325D03*
X685800Y85725D03*
X685800Y111125D03*
X685800Y136525D03*
X685800Y161925D03*
D22*
X431800Y546100D03*
D23*
X231481Y793051D03*
D22*
X342704Y507804D03*
X355600Y584200D03*
X327205Y530405D03*
X419100Y546100D03*
X485775Y469900D03*
X831850Y790575D03*
X831850Y790575D03*
X965200Y349250D03*
X238125Y958850D03*
X200025Y958850D03*
X276225Y958850D03*
X314325Y962025D03*
M02*
