G04 EAGLE Gerber X2 export*
G75*
%MOMM*%
%FSLAX34Y34*%
%LPD*%
%AMOC8*
5,1,8,0,0,1.08239X$1,22.5*%
G01*
%ADD10C,1.508000*%
%ADD11R,2.100000X2.100000*%
%ADD12P,1.814519X8X292.500000*%
%ADD13C,2.184400*%
%ADD14C,1.524000*%
%ADD15C,0.756400*%
%ADD16C,1.000000*%
%ADD17C,0.300000*%
%ADD18C,0.400000*%
%ADD19C,4.000000*%

G36*
X165130Y22864D02*
X165130Y22864D01*
X165160Y22862D01*
X165329Y22884D01*
X165497Y22901D01*
X165526Y22910D01*
X165556Y22914D01*
X165717Y22969D01*
X165879Y23019D01*
X165906Y23033D01*
X165934Y23043D01*
X166080Y23129D01*
X166229Y23210D01*
X166253Y23230D01*
X166279Y23245D01*
X166405Y23358D01*
X166535Y23468D01*
X166554Y23491D01*
X166576Y23512D01*
X166677Y23648D01*
X166783Y23781D01*
X166797Y23808D01*
X166815Y23832D01*
X166887Y23985D01*
X166964Y24137D01*
X166972Y24166D01*
X166985Y24193D01*
X167025Y24359D01*
X167070Y24522D01*
X167073Y24552D01*
X167080Y24581D01*
X167099Y24860D01*
X167099Y163452D01*
X167096Y163482D01*
X167098Y163512D01*
X167076Y163681D01*
X167059Y163849D01*
X167050Y163878D01*
X167046Y163908D01*
X166991Y164069D01*
X166941Y164231D01*
X166927Y164258D01*
X166917Y164286D01*
X166831Y164432D01*
X166750Y164581D01*
X166730Y164605D01*
X166715Y164631D01*
X166602Y164757D01*
X166492Y164887D01*
X166468Y164906D01*
X166448Y164928D01*
X166312Y165029D01*
X166179Y165135D01*
X166152Y165149D01*
X166128Y165167D01*
X165975Y165239D01*
X165823Y165316D01*
X165794Y165324D01*
X165767Y165337D01*
X165601Y165377D01*
X165438Y165422D01*
X165408Y165425D01*
X165379Y165432D01*
X165100Y165451D01*
X140290Y165451D01*
X140237Y165446D01*
X140184Y165448D01*
X140039Y165426D01*
X139893Y165411D01*
X139842Y165396D01*
X139790Y165388D01*
X139525Y165299D01*
X137884Y164619D01*
X135166Y164619D01*
X133525Y165299D01*
X133474Y165314D01*
X133427Y165337D01*
X133284Y165372D01*
X133143Y165414D01*
X133090Y165419D01*
X133039Y165432D01*
X132760Y165451D01*
X119248Y165451D01*
X119218Y165448D01*
X119188Y165450D01*
X119019Y165428D01*
X118851Y165411D01*
X118822Y165402D01*
X118792Y165398D01*
X118631Y165343D01*
X118469Y165293D01*
X118442Y165279D01*
X118414Y165269D01*
X118268Y165183D01*
X118119Y165102D01*
X118095Y165082D01*
X118069Y165067D01*
X117943Y164954D01*
X117813Y164844D01*
X117794Y164821D01*
X117772Y164800D01*
X117671Y164664D01*
X117565Y164531D01*
X117551Y164504D01*
X117533Y164480D01*
X117461Y164327D01*
X117384Y164175D01*
X117376Y164146D01*
X117363Y164119D01*
X117323Y163953D01*
X117278Y163790D01*
X117275Y163760D01*
X117268Y163731D01*
X117249Y163452D01*
X117249Y158737D01*
X115463Y156951D01*
X91937Y156951D01*
X90151Y158737D01*
X90151Y182263D01*
X91937Y184049D01*
X115463Y184049D01*
X117249Y182263D01*
X117249Y177548D01*
X117252Y177518D01*
X117250Y177488D01*
X117272Y177319D01*
X117289Y177151D01*
X117298Y177122D01*
X117302Y177092D01*
X117357Y176931D01*
X117407Y176769D01*
X117421Y176742D01*
X117431Y176714D01*
X117517Y176568D01*
X117598Y176419D01*
X117618Y176395D01*
X117633Y176369D01*
X117746Y176243D01*
X117856Y176113D01*
X117879Y176094D01*
X117900Y176072D01*
X118036Y175971D01*
X118169Y175865D01*
X118196Y175851D01*
X118220Y175833D01*
X118373Y175761D01*
X118525Y175684D01*
X118554Y175676D01*
X118581Y175663D01*
X118747Y175623D01*
X118910Y175578D01*
X118940Y175575D01*
X118969Y175568D01*
X119248Y175549D01*
X130136Y175549D01*
X130181Y175553D01*
X130226Y175551D01*
X130379Y175573D01*
X130533Y175589D01*
X130576Y175602D01*
X130621Y175609D01*
X130766Y175661D01*
X130915Y175707D01*
X130954Y175729D01*
X130997Y175744D01*
X131129Y175824D01*
X131265Y175898D01*
X131300Y175928D01*
X131338Y175951D01*
X131549Y176134D01*
X132656Y177241D01*
X135166Y178281D01*
X137884Y178281D01*
X140394Y177241D01*
X141501Y176134D01*
X141536Y176106D01*
X141566Y176072D01*
X141690Y175979D01*
X141810Y175882D01*
X141850Y175860D01*
X141887Y175833D01*
X142026Y175767D01*
X142163Y175695D01*
X142207Y175682D01*
X142248Y175663D01*
X142398Y175626D01*
X142547Y175583D01*
X142592Y175579D01*
X142636Y175568D01*
X142914Y175549D01*
X165100Y175549D01*
X165130Y175552D01*
X165160Y175550D01*
X165329Y175572D01*
X165497Y175589D01*
X165526Y175598D01*
X165556Y175602D01*
X165717Y175657D01*
X165879Y175707D01*
X165906Y175721D01*
X165934Y175731D01*
X166080Y175817D01*
X166229Y175898D01*
X166253Y175918D01*
X166279Y175933D01*
X166405Y176046D01*
X166535Y176156D01*
X166554Y176179D01*
X166576Y176200D01*
X166677Y176336D01*
X166783Y176469D01*
X166797Y176496D01*
X166815Y176520D01*
X166887Y176673D01*
X166964Y176825D01*
X166972Y176854D01*
X166985Y176881D01*
X167025Y177047D01*
X167070Y177210D01*
X167073Y177240D01*
X167080Y177269D01*
X167099Y177548D01*
X167099Y226601D01*
X342900Y226601D01*
X342930Y226604D01*
X342960Y226602D01*
X343129Y226624D01*
X343297Y226641D01*
X343326Y226650D01*
X343356Y226654D01*
X343517Y226709D01*
X343679Y226759D01*
X343706Y226773D01*
X343734Y226783D01*
X343880Y226869D01*
X344029Y226950D01*
X344053Y226970D01*
X344079Y226985D01*
X344205Y227098D01*
X344335Y227208D01*
X344354Y227232D01*
X344376Y227252D01*
X344477Y227388D01*
X344583Y227521D01*
X344597Y227548D01*
X344615Y227572D01*
X344687Y227725D01*
X344764Y227877D01*
X344772Y227906D01*
X344785Y227933D01*
X344825Y228099D01*
X344870Y228262D01*
X344873Y228292D01*
X344880Y228321D01*
X344899Y228600D01*
X344899Y302801D01*
X987840Y302801D01*
X987870Y302804D01*
X987900Y302802D01*
X988069Y302824D01*
X988237Y302841D01*
X988266Y302850D01*
X988296Y302854D01*
X988457Y302909D01*
X988619Y302959D01*
X988646Y302973D01*
X988674Y302983D01*
X988820Y303069D01*
X988969Y303150D01*
X988993Y303170D01*
X989019Y303185D01*
X989145Y303298D01*
X989275Y303408D01*
X989294Y303432D01*
X989316Y303452D01*
X989417Y303588D01*
X989523Y303721D01*
X989537Y303748D01*
X989555Y303772D01*
X989627Y303925D01*
X989704Y304077D01*
X989712Y304106D01*
X989725Y304133D01*
X989765Y304299D01*
X989810Y304462D01*
X989813Y304492D01*
X989820Y304521D01*
X989839Y304800D01*
X989839Y461830D01*
X989837Y461852D01*
X989839Y461875D01*
X989817Y462051D01*
X989799Y462227D01*
X989793Y462249D01*
X989790Y462271D01*
X989734Y462439D01*
X989681Y462609D01*
X989670Y462629D01*
X989663Y462650D01*
X989575Y462803D01*
X989490Y462959D01*
X989475Y462976D01*
X989464Y462996D01*
X989346Y463129D01*
X989232Y463264D01*
X989214Y463278D01*
X989199Y463296D01*
X989058Y463403D01*
X988919Y463513D01*
X988899Y463523D01*
X988881Y463537D01*
X988721Y463613D01*
X988563Y463693D01*
X988541Y463700D01*
X988521Y463709D01*
X988349Y463753D01*
X988178Y463800D01*
X988156Y463802D01*
X988133Y463807D01*
X987956Y463816D01*
X987780Y463828D01*
X987757Y463825D01*
X987734Y463826D01*
X987560Y463799D01*
X987384Y463776D01*
X987362Y463769D01*
X987340Y463765D01*
X987075Y463677D01*
X985609Y463069D01*
X982891Y463069D01*
X982862Y463081D01*
X982826Y463092D01*
X982792Y463109D01*
X982635Y463150D01*
X982480Y463197D01*
X982442Y463200D01*
X982405Y463210D01*
X982244Y463218D01*
X982082Y463233D01*
X982044Y463229D01*
X982007Y463231D01*
X981846Y463208D01*
X981685Y463191D01*
X981649Y463179D01*
X981611Y463174D01*
X981458Y463119D01*
X981304Y463070D01*
X981271Y463051D01*
X981236Y463038D01*
X981097Y462954D01*
X980955Y462875D01*
X980926Y462851D01*
X980894Y462831D01*
X980683Y462648D01*
X978891Y460855D01*
X974970Y459231D01*
X955485Y459231D01*
X951564Y460855D01*
X948563Y463857D01*
X946939Y467778D01*
X946939Y472022D01*
X948563Y475943D01*
X951564Y478945D01*
X955485Y480569D01*
X974970Y480569D01*
X978891Y478945D01*
X980683Y477152D01*
X980713Y477128D01*
X980738Y477100D01*
X980867Y477002D01*
X980993Y476899D01*
X981026Y476882D01*
X981056Y476859D01*
X981203Y476788D01*
X981346Y476713D01*
X981382Y476702D01*
X981416Y476686D01*
X981574Y476646D01*
X981729Y476601D01*
X981767Y476597D01*
X981804Y476588D01*
X981965Y476580D01*
X982127Y476567D01*
X982165Y476571D01*
X982203Y476569D01*
X982363Y476594D01*
X982524Y476613D01*
X982560Y476624D01*
X982597Y476630D01*
X982862Y476719D01*
X982891Y476731D01*
X985609Y476731D01*
X987075Y476123D01*
X987097Y476117D01*
X987117Y476107D01*
X987288Y476059D01*
X987457Y476008D01*
X987480Y476006D01*
X987502Y476000D01*
X987679Y475988D01*
X987855Y475971D01*
X987878Y475974D01*
X987900Y475972D01*
X988076Y475995D01*
X988252Y476014D01*
X988274Y476021D01*
X988296Y476024D01*
X988464Y476081D01*
X988633Y476135D01*
X988653Y476146D01*
X988674Y476154D01*
X988827Y476243D01*
X988982Y476329D01*
X988999Y476344D01*
X989019Y476356D01*
X989151Y476474D01*
X989285Y476589D01*
X989299Y476607D01*
X989316Y476622D01*
X989422Y476765D01*
X989531Y476904D01*
X989541Y476924D01*
X989555Y476943D01*
X989630Y477103D01*
X989709Y477261D01*
X989715Y477283D01*
X989725Y477304D01*
X989767Y477476D01*
X989813Y477647D01*
X989814Y477670D01*
X989820Y477692D01*
X989839Y477970D01*
X989839Y991040D01*
X989836Y991070D01*
X989838Y991100D01*
X989816Y991269D01*
X989799Y991437D01*
X989790Y991466D01*
X989786Y991496D01*
X989731Y991657D01*
X989681Y991819D01*
X989667Y991846D01*
X989657Y991874D01*
X989571Y992020D01*
X989490Y992169D01*
X989470Y992193D01*
X989455Y992219D01*
X989342Y992345D01*
X989232Y992475D01*
X989209Y992494D01*
X989188Y992516D01*
X989052Y992617D01*
X988919Y992723D01*
X988892Y992737D01*
X988868Y992755D01*
X988715Y992827D01*
X988563Y992904D01*
X988534Y992912D01*
X988507Y992925D01*
X988341Y992965D01*
X988178Y993010D01*
X988148Y993013D01*
X988119Y993020D01*
X987840Y993039D01*
X12160Y993039D01*
X12130Y993036D01*
X12100Y993038D01*
X11931Y993016D01*
X11763Y992999D01*
X11734Y992990D01*
X11704Y992986D01*
X11543Y992931D01*
X11381Y992881D01*
X11354Y992867D01*
X11326Y992857D01*
X11180Y992771D01*
X11031Y992690D01*
X11007Y992670D01*
X10981Y992655D01*
X10855Y992542D01*
X10725Y992432D01*
X10706Y992409D01*
X10684Y992388D01*
X10583Y992252D01*
X10477Y992119D01*
X10463Y992092D01*
X10445Y992068D01*
X10373Y991915D01*
X10296Y991763D01*
X10288Y991734D01*
X10275Y991707D01*
X10235Y991541D01*
X10190Y991378D01*
X10187Y991348D01*
X10180Y991319D01*
X10161Y991040D01*
X10161Y516019D01*
X10163Y515996D01*
X10161Y515973D01*
X10183Y515797D01*
X10201Y515621D01*
X10207Y515600D01*
X10210Y515577D01*
X10266Y515409D01*
X10319Y515240D01*
X10330Y515220D01*
X10337Y515198D01*
X10425Y515046D01*
X10510Y514889D01*
X10525Y514872D01*
X10536Y514852D01*
X10653Y514720D01*
X10768Y514584D01*
X10786Y514570D01*
X10801Y514553D01*
X10942Y514446D01*
X11081Y514336D01*
X11101Y514325D01*
X11119Y514312D01*
X11279Y514235D01*
X11437Y514155D01*
X11459Y514149D01*
X11479Y514139D01*
X11651Y514096D01*
X11822Y514048D01*
X11844Y514047D01*
X11867Y514041D01*
X12044Y514033D01*
X12220Y514020D01*
X12243Y514023D01*
X12266Y514022D01*
X12441Y514049D01*
X12616Y514072D01*
X12638Y514080D01*
X12660Y514083D01*
X12925Y514172D01*
X14516Y514831D01*
X17234Y514831D01*
X19744Y513791D01*
X21666Y511869D01*
X22706Y509359D01*
X22706Y506641D01*
X21666Y504131D01*
X19744Y502209D01*
X17234Y501169D01*
X14516Y501169D01*
X12925Y501828D01*
X12903Y501835D01*
X12883Y501845D01*
X12712Y501892D01*
X12543Y501944D01*
X12520Y501946D01*
X12498Y501952D01*
X12321Y501964D01*
X12145Y501981D01*
X12122Y501978D01*
X12100Y501980D01*
X11924Y501957D01*
X11748Y501938D01*
X11726Y501931D01*
X11704Y501928D01*
X11536Y501870D01*
X11367Y501817D01*
X11347Y501806D01*
X11326Y501798D01*
X11173Y501708D01*
X11018Y501622D01*
X11001Y501608D01*
X10981Y501596D01*
X10849Y501478D01*
X10715Y501363D01*
X10701Y501345D01*
X10684Y501330D01*
X10578Y501187D01*
X10469Y501048D01*
X10459Y501027D01*
X10445Y501009D01*
X10370Y500849D01*
X10291Y500690D01*
X10285Y500668D01*
X10275Y500648D01*
X10233Y500476D01*
X10187Y500305D01*
X10186Y500282D01*
X10180Y500260D01*
X10161Y499981D01*
X10161Y389019D01*
X10163Y388996D01*
X10161Y388973D01*
X10183Y388797D01*
X10201Y388621D01*
X10207Y388600D01*
X10210Y388577D01*
X10266Y388409D01*
X10319Y388240D01*
X10330Y388220D01*
X10337Y388198D01*
X10425Y388046D01*
X10510Y387889D01*
X10525Y387872D01*
X10536Y387852D01*
X10653Y387720D01*
X10768Y387584D01*
X10786Y387570D01*
X10801Y387553D01*
X10942Y387446D01*
X11081Y387336D01*
X11101Y387325D01*
X11119Y387312D01*
X11279Y387235D01*
X11437Y387155D01*
X11459Y387149D01*
X11479Y387139D01*
X11651Y387096D01*
X11822Y387048D01*
X11844Y387047D01*
X11867Y387041D01*
X12044Y387033D01*
X12220Y387020D01*
X12243Y387023D01*
X12266Y387022D01*
X12441Y387049D01*
X12616Y387072D01*
X12638Y387080D01*
X12660Y387083D01*
X12925Y387172D01*
X14516Y387831D01*
X17234Y387831D01*
X19744Y386791D01*
X21666Y384869D01*
X22706Y382359D01*
X22706Y379641D01*
X21666Y377131D01*
X19744Y375209D01*
X17234Y374169D01*
X14516Y374169D01*
X12925Y374828D01*
X12903Y374835D01*
X12883Y374845D01*
X12712Y374892D01*
X12543Y374944D01*
X12520Y374946D01*
X12498Y374952D01*
X12321Y374964D01*
X12145Y374981D01*
X12122Y374978D01*
X12100Y374980D01*
X11924Y374957D01*
X11748Y374938D01*
X11726Y374931D01*
X11704Y374928D01*
X11536Y374870D01*
X11367Y374817D01*
X11347Y374806D01*
X11326Y374798D01*
X11173Y374708D01*
X11018Y374622D01*
X11001Y374608D01*
X10981Y374596D01*
X10849Y374478D01*
X10715Y374363D01*
X10701Y374345D01*
X10684Y374330D01*
X10578Y374187D01*
X10469Y374048D01*
X10459Y374027D01*
X10445Y374009D01*
X10370Y373849D01*
X10291Y373690D01*
X10285Y373668D01*
X10275Y373648D01*
X10233Y373476D01*
X10187Y373305D01*
X10186Y373282D01*
X10180Y373260D01*
X10161Y372981D01*
X10161Y344569D01*
X10163Y344546D01*
X10161Y344523D01*
X10183Y344347D01*
X10201Y344171D01*
X10207Y344150D01*
X10210Y344127D01*
X10266Y343959D01*
X10319Y343790D01*
X10330Y343770D01*
X10337Y343748D01*
X10425Y343596D01*
X10510Y343439D01*
X10525Y343422D01*
X10536Y343402D01*
X10653Y343270D01*
X10768Y343134D01*
X10786Y343120D01*
X10801Y343103D01*
X10942Y342996D01*
X11081Y342886D01*
X11101Y342875D01*
X11119Y342862D01*
X11279Y342785D01*
X11437Y342705D01*
X11459Y342699D01*
X11479Y342689D01*
X11651Y342646D01*
X11822Y342598D01*
X11844Y342597D01*
X11867Y342591D01*
X12044Y342583D01*
X12220Y342570D01*
X12243Y342573D01*
X12266Y342572D01*
X12441Y342599D01*
X12616Y342622D01*
X12638Y342630D01*
X12660Y342633D01*
X12925Y342722D01*
X14516Y343381D01*
X17234Y343381D01*
X19744Y342341D01*
X21666Y340419D01*
X22706Y337909D01*
X22706Y335191D01*
X21666Y332681D01*
X19744Y330759D01*
X17234Y329719D01*
X14516Y329719D01*
X12925Y330378D01*
X12903Y330385D01*
X12883Y330395D01*
X12712Y330442D01*
X12543Y330494D01*
X12520Y330496D01*
X12498Y330502D01*
X12321Y330514D01*
X12145Y330531D01*
X12122Y330528D01*
X12100Y330530D01*
X11924Y330507D01*
X11748Y330488D01*
X11726Y330481D01*
X11704Y330478D01*
X11536Y330420D01*
X11367Y330367D01*
X11347Y330356D01*
X11326Y330348D01*
X11173Y330258D01*
X11018Y330172D01*
X11001Y330158D01*
X10981Y330146D01*
X10849Y330028D01*
X10715Y329913D01*
X10701Y329895D01*
X10684Y329880D01*
X10578Y329737D01*
X10469Y329598D01*
X10459Y329577D01*
X10445Y329559D01*
X10370Y329399D01*
X10291Y329240D01*
X10285Y329218D01*
X10275Y329198D01*
X10233Y329026D01*
X10187Y328855D01*
X10186Y328832D01*
X10180Y328810D01*
X10161Y328531D01*
X10161Y262019D01*
X10163Y261996D01*
X10161Y261973D01*
X10183Y261797D01*
X10201Y261621D01*
X10207Y261600D01*
X10210Y261577D01*
X10266Y261409D01*
X10319Y261240D01*
X10330Y261220D01*
X10337Y261198D01*
X10425Y261046D01*
X10510Y260889D01*
X10525Y260872D01*
X10536Y260852D01*
X10653Y260720D01*
X10768Y260584D01*
X10786Y260570D01*
X10801Y260553D01*
X10942Y260446D01*
X11081Y260336D01*
X11101Y260325D01*
X11119Y260312D01*
X11279Y260235D01*
X11437Y260155D01*
X11459Y260149D01*
X11479Y260139D01*
X11651Y260096D01*
X11822Y260048D01*
X11844Y260047D01*
X11867Y260041D01*
X12044Y260033D01*
X12220Y260020D01*
X12243Y260023D01*
X12266Y260022D01*
X12441Y260049D01*
X12616Y260072D01*
X12638Y260080D01*
X12660Y260083D01*
X12925Y260172D01*
X14516Y260831D01*
X17234Y260831D01*
X19744Y259791D01*
X21666Y257869D01*
X22706Y255359D01*
X22706Y252641D01*
X21666Y250131D01*
X19744Y248209D01*
X17234Y247169D01*
X14516Y247169D01*
X12925Y247828D01*
X12903Y247835D01*
X12883Y247845D01*
X12712Y247892D01*
X12543Y247944D01*
X12520Y247946D01*
X12498Y247952D01*
X12321Y247964D01*
X12145Y247981D01*
X12122Y247978D01*
X12100Y247980D01*
X11924Y247957D01*
X11748Y247938D01*
X11726Y247931D01*
X11704Y247928D01*
X11536Y247870D01*
X11367Y247817D01*
X11347Y247806D01*
X11326Y247798D01*
X11173Y247708D01*
X11018Y247622D01*
X11001Y247608D01*
X10981Y247596D01*
X10849Y247478D01*
X10715Y247363D01*
X10701Y247345D01*
X10684Y247330D01*
X10578Y247187D01*
X10469Y247048D01*
X10459Y247027D01*
X10445Y247009D01*
X10370Y246849D01*
X10291Y246690D01*
X10285Y246668D01*
X10275Y246648D01*
X10233Y246476D01*
X10187Y246305D01*
X10186Y246282D01*
X10180Y246260D01*
X10161Y245981D01*
X10161Y182644D01*
X10163Y182621D01*
X10161Y182598D01*
X10183Y182422D01*
X10201Y182246D01*
X10207Y182225D01*
X10210Y182202D01*
X10266Y182034D01*
X10319Y181865D01*
X10330Y181845D01*
X10337Y181823D01*
X10425Y181671D01*
X10510Y181514D01*
X10525Y181497D01*
X10536Y181477D01*
X10653Y181345D01*
X10768Y181209D01*
X10786Y181195D01*
X10801Y181178D01*
X10942Y181071D01*
X11081Y180961D01*
X11101Y180950D01*
X11119Y180937D01*
X11279Y180860D01*
X11437Y180780D01*
X11459Y180774D01*
X11479Y180764D01*
X11651Y180721D01*
X11822Y180673D01*
X11844Y180672D01*
X11867Y180666D01*
X12044Y180658D01*
X12220Y180645D01*
X12243Y180648D01*
X12266Y180647D01*
X12441Y180674D01*
X12616Y180697D01*
X12638Y180705D01*
X12660Y180708D01*
X12925Y180797D01*
X14516Y181456D01*
X17234Y181456D01*
X19744Y180416D01*
X21666Y178494D01*
X22706Y175984D01*
X22706Y173266D01*
X21666Y170756D01*
X19744Y168834D01*
X17234Y167794D01*
X14516Y167794D01*
X12925Y168453D01*
X12903Y168460D01*
X12883Y168470D01*
X12712Y168517D01*
X12543Y168569D01*
X12520Y168571D01*
X12498Y168577D01*
X12321Y168589D01*
X12145Y168606D01*
X12122Y168603D01*
X12100Y168605D01*
X11924Y168582D01*
X11748Y168563D01*
X11726Y168556D01*
X11704Y168553D01*
X11536Y168495D01*
X11367Y168442D01*
X11347Y168431D01*
X11326Y168423D01*
X11173Y168333D01*
X11018Y168247D01*
X11001Y168233D01*
X10981Y168221D01*
X10849Y168103D01*
X10715Y167988D01*
X10701Y167970D01*
X10684Y167955D01*
X10578Y167812D01*
X10469Y167673D01*
X10459Y167652D01*
X10445Y167634D01*
X10370Y167474D01*
X10291Y167315D01*
X10285Y167293D01*
X10275Y167273D01*
X10233Y167101D01*
X10187Y166930D01*
X10186Y166907D01*
X10180Y166885D01*
X10161Y166606D01*
X10161Y24860D01*
X10164Y24830D01*
X10162Y24800D01*
X10184Y24631D01*
X10201Y24463D01*
X10210Y24434D01*
X10214Y24404D01*
X10269Y24243D01*
X10319Y24081D01*
X10333Y24054D01*
X10343Y24026D01*
X10429Y23880D01*
X10510Y23731D01*
X10530Y23707D01*
X10545Y23681D01*
X10658Y23555D01*
X10768Y23425D01*
X10791Y23406D01*
X10812Y23384D01*
X10948Y23283D01*
X11081Y23177D01*
X11108Y23163D01*
X11132Y23145D01*
X11285Y23073D01*
X11437Y22996D01*
X11466Y22988D01*
X11493Y22975D01*
X11659Y22935D01*
X11822Y22890D01*
X11852Y22887D01*
X11881Y22880D01*
X12160Y22861D01*
X165100Y22861D01*
X165130Y22864D01*
G37*
G36*
X487304Y22863D02*
X487304Y22863D01*
X487327Y22861D01*
X487503Y22883D01*
X487679Y22901D01*
X487700Y22907D01*
X487723Y22910D01*
X487891Y22966D01*
X488060Y23019D01*
X488080Y23030D01*
X488102Y23037D01*
X488254Y23125D01*
X488411Y23210D01*
X488428Y23225D01*
X488448Y23236D01*
X488580Y23353D01*
X488716Y23468D01*
X488730Y23486D01*
X488747Y23501D01*
X488854Y23642D01*
X488964Y23781D01*
X488975Y23801D01*
X488988Y23819D01*
X489065Y23979D01*
X489145Y24137D01*
X489151Y24159D01*
X489161Y24179D01*
X489204Y24351D01*
X489252Y24522D01*
X489253Y24544D01*
X489259Y24567D01*
X489267Y24744D01*
X489280Y24920D01*
X489277Y24943D01*
X489278Y24966D01*
X489251Y25141D01*
X489228Y25316D01*
X489220Y25338D01*
X489217Y25360D01*
X489128Y25625D01*
X488469Y27216D01*
X488469Y29934D01*
X489509Y32444D01*
X491431Y34366D01*
X493941Y35406D01*
X496659Y35406D01*
X499169Y34366D01*
X501091Y32444D01*
X502131Y29934D01*
X502131Y27216D01*
X501472Y25625D01*
X501465Y25603D01*
X501455Y25583D01*
X501408Y25412D01*
X501356Y25243D01*
X501354Y25220D01*
X501348Y25198D01*
X501336Y25021D01*
X501319Y24845D01*
X501322Y24822D01*
X501320Y24800D01*
X501343Y24624D01*
X501362Y24448D01*
X501369Y24426D01*
X501372Y24404D01*
X501430Y24236D01*
X501483Y24067D01*
X501494Y24047D01*
X501502Y24026D01*
X501592Y23873D01*
X501678Y23718D01*
X501692Y23701D01*
X501704Y23681D01*
X501822Y23549D01*
X501937Y23415D01*
X501955Y23401D01*
X501970Y23384D01*
X502113Y23278D01*
X502252Y23169D01*
X502273Y23159D01*
X502291Y23145D01*
X502451Y23070D01*
X502610Y22991D01*
X502632Y22985D01*
X502652Y22975D01*
X502824Y22933D01*
X502995Y22887D01*
X503018Y22886D01*
X503040Y22880D01*
X503319Y22861D01*
X629048Y22861D01*
X629055Y22861D01*
X629063Y22861D01*
X629253Y22881D01*
X629445Y22901D01*
X629452Y22903D01*
X629460Y22904D01*
X629642Y22962D01*
X629827Y23019D01*
X629833Y23022D01*
X629841Y23025D01*
X630007Y23117D01*
X630177Y23210D01*
X630183Y23215D01*
X630190Y23219D01*
X630334Y23343D01*
X630483Y23468D01*
X630487Y23474D01*
X630493Y23479D01*
X630611Y23629D01*
X630731Y23781D01*
X630734Y23788D01*
X630739Y23794D01*
X630824Y23965D01*
X630912Y24137D01*
X630914Y24144D01*
X630917Y24151D01*
X630967Y24337D01*
X631018Y24522D01*
X631019Y24529D01*
X631021Y24537D01*
X631033Y24728D01*
X631046Y24920D01*
X631045Y24928D01*
X631046Y24935D01*
X631019Y25125D01*
X630994Y25316D01*
X630992Y25323D01*
X630991Y25331D01*
X630927Y25513D01*
X630865Y25694D01*
X630861Y25701D01*
X630858Y25708D01*
X630760Y25873D01*
X630663Y26039D01*
X630658Y26044D01*
X630654Y26051D01*
X630524Y26194D01*
X630396Y26336D01*
X630390Y26341D01*
X630385Y26346D01*
X630229Y26461D01*
X630076Y26575D01*
X630069Y26578D01*
X630063Y26582D01*
X629813Y26707D01*
X627812Y27536D01*
X624833Y30514D01*
X623221Y34406D01*
X623221Y38619D01*
X624833Y42511D01*
X627812Y45489D01*
X631704Y47101D01*
X650996Y47101D01*
X654888Y45489D01*
X657867Y42511D01*
X659479Y38619D01*
X659479Y34406D01*
X657867Y30514D01*
X654888Y27536D01*
X652887Y26707D01*
X652881Y26704D01*
X652873Y26701D01*
X652702Y26608D01*
X652535Y26518D01*
X652530Y26513D01*
X652523Y26510D01*
X652375Y26385D01*
X652228Y26263D01*
X652223Y26257D01*
X652217Y26252D01*
X652099Y26103D01*
X651977Y25952D01*
X651974Y25945D01*
X651969Y25939D01*
X651883Y25770D01*
X651794Y25597D01*
X651792Y25590D01*
X651788Y25583D01*
X651738Y25400D01*
X651684Y25213D01*
X651684Y25205D01*
X651682Y25198D01*
X651669Y25008D01*
X651654Y24815D01*
X651654Y24807D01*
X651654Y24800D01*
X651679Y24611D01*
X651702Y24418D01*
X651705Y24411D01*
X651706Y24404D01*
X651768Y24223D01*
X651829Y24040D01*
X651833Y24033D01*
X651835Y24026D01*
X651932Y23860D01*
X652029Y23694D01*
X652034Y23688D01*
X652037Y23681D01*
X652166Y23538D01*
X652293Y23394D01*
X652299Y23389D01*
X652304Y23384D01*
X652458Y23269D01*
X652611Y23153D01*
X652618Y23150D01*
X652624Y23145D01*
X652798Y23063D01*
X652972Y22980D01*
X652979Y22978D01*
X652986Y22975D01*
X653173Y22929D01*
X653359Y22882D01*
X653366Y22882D01*
X653374Y22880D01*
X653652Y22861D01*
X717948Y22861D01*
X717955Y22861D01*
X717963Y22861D01*
X718153Y22881D01*
X718345Y22901D01*
X718352Y22903D01*
X718360Y22904D01*
X718542Y22962D01*
X718727Y23019D01*
X718733Y23022D01*
X718741Y23025D01*
X718907Y23117D01*
X719077Y23210D01*
X719083Y23215D01*
X719090Y23219D01*
X719234Y23343D01*
X719383Y23468D01*
X719387Y23474D01*
X719393Y23479D01*
X719511Y23629D01*
X719631Y23781D01*
X719634Y23788D01*
X719639Y23794D01*
X719724Y23965D01*
X719812Y24137D01*
X719814Y24144D01*
X719817Y24151D01*
X719867Y24337D01*
X719918Y24522D01*
X719919Y24529D01*
X719921Y24537D01*
X719933Y24728D01*
X719946Y24920D01*
X719945Y24928D01*
X719946Y24935D01*
X719919Y25125D01*
X719894Y25316D01*
X719892Y25323D01*
X719891Y25331D01*
X719827Y25513D01*
X719765Y25694D01*
X719761Y25701D01*
X719758Y25708D01*
X719660Y25873D01*
X719563Y26039D01*
X719558Y26044D01*
X719554Y26051D01*
X719424Y26194D01*
X719296Y26336D01*
X719290Y26341D01*
X719285Y26346D01*
X719129Y26461D01*
X718976Y26575D01*
X718969Y26578D01*
X718963Y26582D01*
X718713Y26707D01*
X716712Y27536D01*
X713733Y30514D01*
X712121Y34406D01*
X712121Y38619D01*
X713733Y42511D01*
X716712Y45489D01*
X720604Y47101D01*
X739896Y47101D01*
X743788Y45489D01*
X746767Y42511D01*
X748379Y38619D01*
X748379Y34406D01*
X746767Y30514D01*
X743788Y27536D01*
X741787Y26707D01*
X741781Y26704D01*
X741773Y26701D01*
X741602Y26608D01*
X741435Y26518D01*
X741430Y26513D01*
X741423Y26510D01*
X741275Y26385D01*
X741128Y26263D01*
X741123Y26257D01*
X741117Y26252D01*
X740999Y26103D01*
X740877Y25952D01*
X740874Y25945D01*
X740869Y25939D01*
X740783Y25770D01*
X740694Y25597D01*
X740692Y25590D01*
X740688Y25583D01*
X740638Y25400D01*
X740584Y25213D01*
X740584Y25205D01*
X740582Y25198D01*
X740569Y25008D01*
X740554Y24815D01*
X740554Y24807D01*
X740554Y24800D01*
X740579Y24611D01*
X740602Y24418D01*
X740605Y24411D01*
X740606Y24404D01*
X740668Y24223D01*
X740729Y24040D01*
X740733Y24033D01*
X740735Y24026D01*
X740832Y23860D01*
X740929Y23694D01*
X740934Y23688D01*
X740937Y23681D01*
X741066Y23538D01*
X741193Y23394D01*
X741199Y23389D01*
X741204Y23384D01*
X741358Y23269D01*
X741511Y23153D01*
X741518Y23150D01*
X741524Y23145D01*
X741698Y23063D01*
X741872Y22980D01*
X741879Y22978D01*
X741886Y22975D01*
X742073Y22929D01*
X742259Y22882D01*
X742266Y22882D01*
X742274Y22880D01*
X742552Y22861D01*
X987840Y22861D01*
X987870Y22864D01*
X987900Y22862D01*
X988069Y22884D01*
X988237Y22901D01*
X988266Y22910D01*
X988296Y22914D01*
X988457Y22969D01*
X988619Y23019D01*
X988646Y23033D01*
X988674Y23043D01*
X988820Y23129D01*
X988969Y23210D01*
X988993Y23230D01*
X989019Y23245D01*
X989145Y23358D01*
X989275Y23468D01*
X989294Y23491D01*
X989316Y23512D01*
X989417Y23648D01*
X989523Y23781D01*
X989537Y23808D01*
X989555Y23832D01*
X989627Y23985D01*
X989704Y24137D01*
X989712Y24166D01*
X989725Y24193D01*
X989765Y24359D01*
X989810Y24522D01*
X989813Y24552D01*
X989820Y24581D01*
X989839Y24860D01*
X989839Y266700D01*
X989836Y266730D01*
X989838Y266760D01*
X989816Y266929D01*
X989799Y267097D01*
X989790Y267126D01*
X989786Y267156D01*
X989731Y267317D01*
X989681Y267479D01*
X989667Y267506D01*
X989657Y267534D01*
X989571Y267680D01*
X989490Y267829D01*
X989470Y267853D01*
X989455Y267879D01*
X989342Y268005D01*
X989232Y268135D01*
X989209Y268154D01*
X989188Y268176D01*
X989052Y268277D01*
X988919Y268383D01*
X988892Y268397D01*
X988868Y268415D01*
X988715Y268487D01*
X988563Y268564D01*
X988534Y268572D01*
X988507Y268585D01*
X988341Y268625D01*
X988178Y268670D01*
X988148Y268673D01*
X988119Y268680D01*
X987840Y268699D01*
X381000Y268699D01*
X380970Y268696D01*
X380940Y268698D01*
X380771Y268676D01*
X380603Y268659D01*
X380574Y268650D01*
X380544Y268646D01*
X380383Y268591D01*
X380221Y268541D01*
X380194Y268527D01*
X380166Y268517D01*
X380020Y268431D01*
X379871Y268350D01*
X379847Y268330D01*
X379821Y268315D01*
X379695Y268202D01*
X379565Y268092D01*
X379546Y268069D01*
X379524Y268048D01*
X379423Y267912D01*
X379317Y267779D01*
X379303Y267752D01*
X379285Y267728D01*
X379213Y267575D01*
X379136Y267423D01*
X379128Y267394D01*
X379115Y267367D01*
X379075Y267201D01*
X379030Y267038D01*
X379027Y267008D01*
X379020Y266979D01*
X379001Y266700D01*
X379001Y192499D01*
X329935Y192499D01*
X329890Y192495D01*
X329845Y192497D01*
X329692Y192475D01*
X329538Y192459D01*
X329495Y192446D01*
X329450Y192439D01*
X329304Y192387D01*
X329156Y192341D01*
X329116Y192320D01*
X329074Y192304D01*
X328942Y192224D01*
X328806Y192150D01*
X328771Y192120D01*
X328732Y192097D01*
X328522Y191914D01*
X303252Y166644D01*
X301580Y165951D01*
X190500Y165951D01*
X190470Y165948D01*
X190440Y165950D01*
X190271Y165928D01*
X190103Y165911D01*
X190074Y165902D01*
X190044Y165898D01*
X189883Y165843D01*
X189721Y165793D01*
X189694Y165779D01*
X189666Y165769D01*
X189520Y165683D01*
X189371Y165602D01*
X189347Y165582D01*
X189321Y165567D01*
X189195Y165454D01*
X189065Y165344D01*
X189046Y165321D01*
X189024Y165300D01*
X188923Y165164D01*
X188817Y165031D01*
X188803Y165004D01*
X188785Y164980D01*
X188713Y164827D01*
X188636Y164675D01*
X188628Y164646D01*
X188615Y164619D01*
X188575Y164453D01*
X188530Y164290D01*
X188527Y164260D01*
X188520Y164231D01*
X188501Y163952D01*
X188501Y162367D01*
X188505Y162322D01*
X188503Y162277D01*
X188525Y162124D01*
X188541Y161970D01*
X188554Y161927D01*
X188561Y161882D01*
X188613Y161736D01*
X188659Y161588D01*
X188681Y161549D01*
X188696Y161506D01*
X188776Y161374D01*
X188850Y161238D01*
X188880Y161203D01*
X188903Y161164D01*
X189086Y160954D01*
X268206Y81834D01*
X268241Y81806D01*
X268271Y81772D01*
X268395Y81680D01*
X268515Y81581D01*
X268555Y81560D01*
X268591Y81533D01*
X268731Y81467D01*
X268868Y81395D01*
X268912Y81382D01*
X268953Y81363D01*
X269103Y81326D01*
X269252Y81283D01*
X269297Y81279D01*
X269341Y81268D01*
X269619Y81249D01*
X407310Y81249D01*
X407356Y81253D01*
X407401Y81251D01*
X407554Y81273D01*
X407708Y81289D01*
X407751Y81302D01*
X407796Y81309D01*
X407942Y81361D01*
X408089Y81407D01*
X408129Y81428D01*
X408172Y81444D01*
X408304Y81524D01*
X408440Y81598D01*
X408475Y81628D01*
X408513Y81651D01*
X408724Y81834D01*
X408881Y81991D01*
X411391Y83031D01*
X414109Y83031D01*
X416619Y81991D01*
X418541Y80069D01*
X419581Y77559D01*
X419581Y74841D01*
X418541Y72331D01*
X416619Y70409D01*
X414109Y69369D01*
X411391Y69369D01*
X408881Y70409D01*
X408724Y70566D01*
X408689Y70594D01*
X408659Y70628D01*
X408535Y70720D01*
X408415Y70819D01*
X408375Y70840D01*
X408338Y70867D01*
X408199Y70933D01*
X408062Y71005D01*
X408018Y71018D01*
X407977Y71037D01*
X407827Y71074D01*
X407678Y71117D01*
X407633Y71121D01*
X407589Y71132D01*
X407310Y71151D01*
X285524Y71151D01*
X285501Y71149D01*
X285479Y71151D01*
X285303Y71129D01*
X285127Y71111D01*
X285105Y71105D01*
X285082Y71102D01*
X284915Y71046D01*
X284745Y70993D01*
X284725Y70982D01*
X284703Y70975D01*
X284551Y70887D01*
X284394Y70802D01*
X284377Y70787D01*
X284357Y70776D01*
X284224Y70658D01*
X284089Y70544D01*
X284075Y70526D01*
X284058Y70511D01*
X283951Y70370D01*
X283841Y70231D01*
X283831Y70211D01*
X283817Y70193D01*
X283740Y70033D01*
X283660Y69875D01*
X283654Y69853D01*
X283644Y69833D01*
X283601Y69660D01*
X283554Y69490D01*
X283552Y69468D01*
X283546Y69445D01*
X283538Y69268D01*
X283526Y69092D01*
X283529Y69069D01*
X283527Y69046D01*
X283554Y68871D01*
X283577Y68696D01*
X283585Y68674D01*
X283588Y68652D01*
X283677Y68387D01*
X284829Y65606D01*
X284829Y61394D01*
X283217Y57502D01*
X280238Y54523D01*
X276346Y52911D01*
X257054Y52911D01*
X253162Y54523D01*
X250183Y57502D01*
X248571Y61394D01*
X248571Y65606D01*
X250183Y69498D01*
X253162Y72477D01*
X257121Y74116D01*
X257242Y74129D01*
X257257Y74133D01*
X257272Y74135D01*
X257447Y74192D01*
X257624Y74247D01*
X257637Y74254D01*
X257651Y74259D01*
X257811Y74349D01*
X257974Y74438D01*
X257986Y74448D01*
X257999Y74456D01*
X258138Y74577D01*
X258280Y74696D01*
X258289Y74708D01*
X258300Y74718D01*
X258413Y74864D01*
X258528Y75009D01*
X258535Y75022D01*
X258544Y75034D01*
X258625Y75200D01*
X258709Y75365D01*
X258713Y75379D01*
X258719Y75393D01*
X258766Y75572D01*
X258815Y75750D01*
X258816Y75765D01*
X258820Y75780D01*
X258830Y75963D01*
X258843Y76148D01*
X258841Y76163D01*
X258842Y76178D01*
X258815Y76361D01*
X258791Y76544D01*
X258786Y76559D01*
X258784Y76574D01*
X258721Y76748D01*
X258662Y76922D01*
X258654Y76935D01*
X258649Y76949D01*
X258553Y77107D01*
X258460Y77267D01*
X258449Y77278D01*
X258442Y77291D01*
X258258Y77502D01*
X191914Y143846D01*
X191902Y143856D01*
X191892Y143868D01*
X191748Y143982D01*
X191604Y144099D01*
X191591Y144106D01*
X191579Y144116D01*
X191414Y144199D01*
X191251Y144285D01*
X191237Y144290D01*
X191223Y144297D01*
X191045Y144346D01*
X190868Y144398D01*
X190853Y144399D01*
X190838Y144403D01*
X190655Y144416D01*
X190470Y144432D01*
X190455Y144430D01*
X190440Y144431D01*
X190256Y144407D01*
X190073Y144386D01*
X190059Y144381D01*
X190044Y144379D01*
X189869Y144319D01*
X189693Y144262D01*
X189680Y144254D01*
X189666Y144250D01*
X189506Y144156D01*
X189346Y144065D01*
X189334Y144055D01*
X189321Y144047D01*
X189184Y143924D01*
X189044Y143803D01*
X189035Y143791D01*
X189024Y143781D01*
X188914Y143633D01*
X188801Y143486D01*
X188794Y143473D01*
X188785Y143461D01*
X188707Y143294D01*
X188625Y143128D01*
X188622Y143113D01*
X188615Y143099D01*
X188571Y142919D01*
X188525Y142741D01*
X188524Y142726D01*
X188520Y142711D01*
X188501Y142433D01*
X188501Y24860D01*
X188504Y24830D01*
X188502Y24800D01*
X188524Y24631D01*
X188541Y24463D01*
X188550Y24434D01*
X188554Y24404D01*
X188609Y24243D01*
X188659Y24081D01*
X188673Y24054D01*
X188683Y24026D01*
X188769Y23880D01*
X188850Y23731D01*
X188870Y23707D01*
X188885Y23681D01*
X188998Y23555D01*
X189108Y23425D01*
X189132Y23406D01*
X189152Y23384D01*
X189288Y23283D01*
X189421Y23177D01*
X189448Y23163D01*
X189472Y23145D01*
X189625Y23073D01*
X189777Y22996D01*
X189806Y22988D01*
X189833Y22975D01*
X189999Y22935D01*
X190162Y22890D01*
X190192Y22887D01*
X190221Y22880D01*
X190500Y22861D01*
X487281Y22861D01*
X487304Y22863D01*
G37*
%LPC*%
G36*
X36937Y240951D02*
X36937Y240951D01*
X35151Y242737D01*
X35151Y266263D01*
X36937Y268049D01*
X60463Y268049D01*
X62249Y266263D01*
X62249Y264548D01*
X62252Y264518D01*
X62250Y264488D01*
X62272Y264319D01*
X62289Y264151D01*
X62298Y264122D01*
X62302Y264092D01*
X62357Y263931D01*
X62407Y263769D01*
X62421Y263742D01*
X62431Y263714D01*
X62517Y263568D01*
X62598Y263419D01*
X62618Y263395D01*
X62633Y263369D01*
X62746Y263243D01*
X62856Y263113D01*
X62879Y263094D01*
X62900Y263072D01*
X63036Y262971D01*
X63169Y262865D01*
X63196Y262851D01*
X63220Y262833D01*
X63373Y262761D01*
X63525Y262684D01*
X63554Y262676D01*
X63581Y262663D01*
X63747Y262623D01*
X63910Y262578D01*
X63940Y262575D01*
X63969Y262568D01*
X64248Y262549D01*
X72502Y262549D01*
X72532Y262552D01*
X72562Y262550D01*
X72731Y262572D01*
X72899Y262589D01*
X72928Y262598D01*
X72958Y262602D01*
X73119Y262657D01*
X73281Y262707D01*
X73308Y262721D01*
X73336Y262731D01*
X73482Y262817D01*
X73631Y262898D01*
X73655Y262918D01*
X73681Y262933D01*
X73807Y263046D01*
X73937Y263156D01*
X73956Y263179D01*
X73978Y263200D01*
X74079Y263336D01*
X74185Y263469D01*
X74199Y263496D01*
X74217Y263520D01*
X74289Y263673D01*
X74366Y263825D01*
X74374Y263854D01*
X74387Y263881D01*
X74427Y264047D01*
X74472Y264210D01*
X74475Y264240D01*
X74482Y264269D01*
X74501Y264548D01*
X74501Y328452D01*
X74498Y328482D01*
X74500Y328512D01*
X74478Y328681D01*
X74461Y328849D01*
X74452Y328878D01*
X74448Y328908D01*
X74393Y329069D01*
X74343Y329231D01*
X74329Y329258D01*
X74319Y329286D01*
X74233Y329432D01*
X74152Y329581D01*
X74132Y329605D01*
X74117Y329631D01*
X74004Y329757D01*
X73894Y329887D01*
X73871Y329906D01*
X73850Y329928D01*
X73714Y330029D01*
X73581Y330135D01*
X73554Y330149D01*
X73530Y330167D01*
X73377Y330239D01*
X73225Y330316D01*
X73196Y330324D01*
X73169Y330337D01*
X73003Y330377D01*
X72840Y330422D01*
X72810Y330425D01*
X72781Y330432D01*
X72502Y330451D01*
X64248Y330451D01*
X64218Y330448D01*
X64188Y330450D01*
X64019Y330428D01*
X63851Y330411D01*
X63822Y330402D01*
X63792Y330398D01*
X63631Y330343D01*
X63469Y330293D01*
X63442Y330279D01*
X63414Y330269D01*
X63268Y330183D01*
X63119Y330102D01*
X63095Y330082D01*
X63069Y330067D01*
X62943Y329954D01*
X62813Y329844D01*
X62794Y329821D01*
X62772Y329800D01*
X62671Y329664D01*
X62565Y329531D01*
X62551Y329504D01*
X62533Y329480D01*
X62461Y329327D01*
X62384Y329175D01*
X62376Y329146D01*
X62363Y329119D01*
X62323Y328953D01*
X62278Y328790D01*
X62275Y328760D01*
X62268Y328731D01*
X62249Y328452D01*
X62249Y326737D01*
X60463Y324951D01*
X36937Y324951D01*
X35151Y326737D01*
X35151Y350263D01*
X36937Y352049D01*
X60463Y352049D01*
X62249Y350263D01*
X62249Y348548D01*
X62252Y348518D01*
X62250Y348488D01*
X62272Y348319D01*
X62289Y348151D01*
X62298Y348122D01*
X62302Y348092D01*
X62357Y347931D01*
X62407Y347769D01*
X62421Y347742D01*
X62431Y347714D01*
X62517Y347568D01*
X62598Y347419D01*
X62618Y347395D01*
X62633Y347369D01*
X62746Y347243D01*
X62856Y347113D01*
X62879Y347094D01*
X62900Y347072D01*
X63036Y346971D01*
X63169Y346865D01*
X63196Y346851D01*
X63220Y346833D01*
X63373Y346761D01*
X63525Y346684D01*
X63554Y346676D01*
X63581Y346663D01*
X63747Y346623D01*
X63910Y346578D01*
X63940Y346575D01*
X63969Y346568D01*
X64248Y346549D01*
X74088Y346549D01*
X74118Y346552D01*
X74148Y346550D01*
X74317Y346572D01*
X74485Y346589D01*
X74514Y346598D01*
X74544Y346602D01*
X74705Y346657D01*
X74867Y346707D01*
X74894Y346721D01*
X74922Y346731D01*
X75068Y346817D01*
X75217Y346898D01*
X75241Y346918D01*
X75267Y346933D01*
X75393Y347046D01*
X75523Y347156D01*
X75542Y347179D01*
X75564Y347200D01*
X75665Y347336D01*
X75771Y347469D01*
X75785Y347496D01*
X75803Y347520D01*
X75875Y347673D01*
X75952Y347825D01*
X75960Y347854D01*
X75973Y347881D01*
X76013Y348047D01*
X76058Y348210D01*
X76061Y348240D01*
X76068Y348269D01*
X76087Y348548D01*
X76087Y466101D01*
X77313Y469059D01*
X79577Y471323D01*
X82535Y472549D01*
X88152Y472549D01*
X88182Y472552D01*
X88212Y472550D01*
X88381Y472572D01*
X88549Y472589D01*
X88578Y472598D01*
X88608Y472602D01*
X88769Y472657D01*
X88931Y472707D01*
X88958Y472721D01*
X88986Y472731D01*
X89132Y472817D01*
X89281Y472898D01*
X89305Y472918D01*
X89331Y472933D01*
X89457Y473046D01*
X89587Y473156D01*
X89606Y473179D01*
X89628Y473200D01*
X89729Y473336D01*
X89835Y473469D01*
X89849Y473496D01*
X89867Y473520D01*
X89939Y473673D01*
X90016Y473825D01*
X90024Y473854D01*
X90037Y473881D01*
X90077Y474047D01*
X90122Y474210D01*
X90125Y474240D01*
X90132Y474269D01*
X90151Y474548D01*
X90151Y476263D01*
X91937Y478049D01*
X93652Y478049D01*
X93682Y478052D01*
X93712Y478050D01*
X93881Y478072D01*
X94049Y478089D01*
X94078Y478098D01*
X94108Y478102D01*
X94269Y478157D01*
X94431Y478207D01*
X94458Y478221D01*
X94486Y478231D01*
X94632Y478317D01*
X94781Y478398D01*
X94805Y478418D01*
X94831Y478433D01*
X94957Y478546D01*
X95087Y478656D01*
X95106Y478679D01*
X95128Y478700D01*
X95229Y478836D01*
X95335Y478969D01*
X95349Y478996D01*
X95367Y479020D01*
X95439Y479173D01*
X95516Y479325D01*
X95524Y479354D01*
X95537Y479381D01*
X95577Y479547D01*
X95622Y479710D01*
X95625Y479740D01*
X95632Y479769D01*
X95651Y480048D01*
X95651Y490952D01*
X95648Y490982D01*
X95650Y491012D01*
X95628Y491181D01*
X95611Y491349D01*
X95602Y491378D01*
X95598Y491408D01*
X95543Y491569D01*
X95493Y491731D01*
X95479Y491758D01*
X95469Y491786D01*
X95383Y491932D01*
X95302Y492081D01*
X95282Y492105D01*
X95267Y492131D01*
X95154Y492257D01*
X95044Y492387D01*
X95021Y492406D01*
X95000Y492428D01*
X94864Y492529D01*
X94731Y492635D01*
X94704Y492649D01*
X94680Y492667D01*
X94527Y492739D01*
X94375Y492816D01*
X94346Y492824D01*
X94319Y492837D01*
X94153Y492877D01*
X93990Y492922D01*
X93960Y492925D01*
X93931Y492932D01*
X93652Y492951D01*
X91937Y492951D01*
X90151Y494737D01*
X90151Y518263D01*
X91937Y520049D01*
X115463Y520049D01*
X117249Y518263D01*
X117249Y494737D01*
X115463Y492951D01*
X113748Y492951D01*
X113718Y492948D01*
X113688Y492950D01*
X113519Y492928D01*
X113351Y492911D01*
X113322Y492902D01*
X113292Y492898D01*
X113131Y492843D01*
X112969Y492793D01*
X112942Y492779D01*
X112914Y492769D01*
X112768Y492683D01*
X112619Y492602D01*
X112595Y492582D01*
X112569Y492567D01*
X112443Y492454D01*
X112313Y492344D01*
X112294Y492321D01*
X112272Y492300D01*
X112171Y492164D01*
X112065Y492031D01*
X112051Y492004D01*
X112033Y491980D01*
X111961Y491827D01*
X111884Y491675D01*
X111876Y491646D01*
X111863Y491619D01*
X111823Y491453D01*
X111778Y491290D01*
X111775Y491260D01*
X111768Y491231D01*
X111749Y490952D01*
X111749Y480048D01*
X111752Y480018D01*
X111750Y479988D01*
X111772Y479819D01*
X111789Y479651D01*
X111798Y479622D01*
X111802Y479592D01*
X111857Y479431D01*
X111907Y479269D01*
X111921Y479242D01*
X111931Y479214D01*
X112017Y479068D01*
X112098Y478919D01*
X112118Y478895D01*
X112133Y478869D01*
X112246Y478743D01*
X112356Y478613D01*
X112379Y478594D01*
X112400Y478572D01*
X112536Y478471D01*
X112669Y478365D01*
X112696Y478351D01*
X112720Y478333D01*
X112873Y478261D01*
X113025Y478184D01*
X113054Y478176D01*
X113081Y478163D01*
X113247Y478123D01*
X113410Y478078D01*
X113440Y478075D01*
X113469Y478068D01*
X113748Y478049D01*
X115463Y478049D01*
X117249Y476263D01*
X117249Y452737D01*
X115463Y450951D01*
X94184Y450951D01*
X94154Y450948D01*
X94124Y450950D01*
X93955Y450928D01*
X93787Y450911D01*
X93758Y450902D01*
X93728Y450898D01*
X93567Y450843D01*
X93405Y450793D01*
X93378Y450779D01*
X93350Y450769D01*
X93204Y450683D01*
X93055Y450602D01*
X93031Y450582D01*
X93005Y450567D01*
X92879Y450454D01*
X92749Y450344D01*
X92730Y450321D01*
X92708Y450300D01*
X92607Y450164D01*
X92501Y450031D01*
X92487Y450004D01*
X92469Y449980D01*
X92397Y449827D01*
X92320Y449675D01*
X92312Y449646D01*
X92299Y449619D01*
X92259Y449453D01*
X92214Y449290D01*
X92211Y449260D01*
X92204Y449231D01*
X92185Y448952D01*
X92185Y438048D01*
X92188Y438018D01*
X92186Y437988D01*
X92208Y437819D01*
X92225Y437651D01*
X92234Y437622D01*
X92238Y437592D01*
X92293Y437431D01*
X92343Y437269D01*
X92357Y437242D01*
X92367Y437214D01*
X92453Y437068D01*
X92534Y436919D01*
X92554Y436895D01*
X92569Y436869D01*
X92682Y436743D01*
X92792Y436613D01*
X92815Y436594D01*
X92836Y436572D01*
X92972Y436471D01*
X93105Y436365D01*
X93132Y436351D01*
X93156Y436333D01*
X93309Y436261D01*
X93461Y436184D01*
X93490Y436176D01*
X93517Y436163D01*
X93683Y436123D01*
X93846Y436078D01*
X93876Y436075D01*
X93905Y436068D01*
X94184Y436049D01*
X115463Y436049D01*
X117249Y434263D01*
X117249Y410737D01*
X115463Y408951D01*
X94184Y408951D01*
X94154Y408948D01*
X94124Y408950D01*
X93955Y408928D01*
X93787Y408911D01*
X93758Y408902D01*
X93728Y408898D01*
X93567Y408843D01*
X93405Y408793D01*
X93378Y408779D01*
X93350Y408769D01*
X93204Y408683D01*
X93055Y408602D01*
X93031Y408582D01*
X93005Y408567D01*
X92879Y408454D01*
X92749Y408344D01*
X92730Y408321D01*
X92708Y408300D01*
X92607Y408164D01*
X92501Y408031D01*
X92487Y408004D01*
X92469Y407980D01*
X92397Y407827D01*
X92320Y407675D01*
X92312Y407646D01*
X92299Y407619D01*
X92259Y407453D01*
X92214Y407290D01*
X92211Y407260D01*
X92204Y407231D01*
X92185Y406952D01*
X92185Y396048D01*
X92188Y396018D01*
X92186Y395988D01*
X92208Y395819D01*
X92225Y395651D01*
X92234Y395622D01*
X92238Y395592D01*
X92293Y395431D01*
X92343Y395269D01*
X92357Y395242D01*
X92367Y395214D01*
X92453Y395068D01*
X92534Y394919D01*
X92554Y394895D01*
X92569Y394869D01*
X92682Y394743D01*
X92792Y394613D01*
X92815Y394594D01*
X92836Y394572D01*
X92972Y394471D01*
X93105Y394365D01*
X93132Y394351D01*
X93156Y394333D01*
X93309Y394261D01*
X93461Y394184D01*
X93490Y394176D01*
X93517Y394163D01*
X93683Y394123D01*
X93846Y394078D01*
X93876Y394075D01*
X93905Y394068D01*
X94184Y394049D01*
X115463Y394049D01*
X117249Y392263D01*
X117249Y368737D01*
X115463Y366951D01*
X94184Y366951D01*
X94154Y366948D01*
X94124Y366950D01*
X93955Y366928D01*
X93787Y366911D01*
X93758Y366902D01*
X93728Y366898D01*
X93567Y366843D01*
X93405Y366793D01*
X93378Y366779D01*
X93350Y366769D01*
X93204Y366683D01*
X93055Y366602D01*
X93031Y366582D01*
X93005Y366567D01*
X92879Y366454D01*
X92749Y366344D01*
X92730Y366321D01*
X92708Y366300D01*
X92607Y366164D01*
X92501Y366031D01*
X92487Y366004D01*
X92469Y365980D01*
X92397Y365827D01*
X92320Y365675D01*
X92312Y365646D01*
X92299Y365619D01*
X92259Y365453D01*
X92214Y365290D01*
X92211Y365260D01*
X92204Y365231D01*
X92185Y364952D01*
X92185Y354048D01*
X92188Y354018D01*
X92186Y353988D01*
X92208Y353819D01*
X92225Y353651D01*
X92234Y353622D01*
X92238Y353592D01*
X92293Y353431D01*
X92343Y353269D01*
X92357Y353242D01*
X92367Y353214D01*
X92453Y353068D01*
X92534Y352919D01*
X92554Y352895D01*
X92569Y352869D01*
X92682Y352743D01*
X92792Y352613D01*
X92815Y352594D01*
X92836Y352572D01*
X92972Y352471D01*
X93105Y352365D01*
X93132Y352351D01*
X93156Y352333D01*
X93309Y352261D01*
X93461Y352184D01*
X93490Y352176D01*
X93517Y352163D01*
X93683Y352123D01*
X93846Y352078D01*
X93876Y352075D01*
X93905Y352068D01*
X94184Y352049D01*
X115463Y352049D01*
X117249Y350263D01*
X117249Y336286D01*
X117258Y336194D01*
X117257Y336101D01*
X117278Y335996D01*
X117289Y335889D01*
X117316Y335800D01*
X117334Y335709D01*
X117375Y335610D01*
X117407Y335507D01*
X117451Y335426D01*
X117487Y335340D01*
X117547Y335251D01*
X117598Y335157D01*
X117658Y335086D01*
X117710Y335009D01*
X117786Y334934D01*
X117856Y334851D01*
X117929Y334794D01*
X117995Y334729D01*
X118084Y334670D01*
X118169Y334603D01*
X118252Y334561D01*
X118329Y334511D01*
X118429Y334471D01*
X118525Y334422D01*
X118614Y334398D01*
X118701Y334363D01*
X118806Y334344D01*
X118910Y334316D01*
X119002Y334309D01*
X119094Y334293D01*
X119201Y334295D01*
X119308Y334288D01*
X119400Y334300D01*
X119493Y334302D01*
X119598Y334326D01*
X119704Y334340D01*
X119792Y334370D01*
X119883Y334390D01*
X119981Y334435D01*
X120082Y334469D01*
X120162Y334516D01*
X120247Y334554D01*
X120334Y334617D01*
X120427Y334671D01*
X120496Y334733D01*
X120571Y334788D01*
X120683Y334901D01*
X120724Y334938D01*
X120739Y334958D01*
X120767Y334986D01*
X344209Y596107D01*
X344309Y596251D01*
X344412Y596392D01*
X344426Y596419D01*
X344437Y596435D01*
X344457Y596482D01*
X344537Y596642D01*
X344539Y596646D01*
X345395Y597502D01*
X345428Y597543D01*
X345500Y597616D01*
X346287Y598536D01*
X346292Y598538D01*
X346439Y598633D01*
X346589Y598724D01*
X346611Y598744D01*
X346628Y598754D01*
X346665Y598790D01*
X346800Y598907D01*
X346803Y598910D01*
X347921Y599374D01*
X347967Y599398D01*
X348062Y599439D01*
X349142Y599987D01*
X349147Y599988D01*
X349319Y600019D01*
X349492Y600045D01*
X349520Y600055D01*
X349540Y600058D01*
X349588Y600077D01*
X349757Y600134D01*
X349761Y600136D01*
X350972Y600136D01*
X351024Y600141D01*
X351127Y600142D01*
X352334Y600236D01*
X352339Y600234D01*
X352510Y600197D01*
X352680Y600155D01*
X352710Y600153D01*
X352729Y600149D01*
X352781Y600148D01*
X352958Y600136D01*
X805927Y600136D01*
X805957Y600139D01*
X805987Y600137D01*
X806156Y600159D01*
X806324Y600176D01*
X806353Y600185D01*
X806383Y600189D01*
X806544Y600244D01*
X806706Y600294D01*
X806733Y600308D01*
X806761Y600318D01*
X806907Y600404D01*
X807056Y600485D01*
X807080Y600505D01*
X807106Y600520D01*
X807232Y600633D01*
X807362Y600743D01*
X807381Y600766D01*
X807403Y600787D01*
X807504Y600923D01*
X807610Y601056D01*
X807624Y601083D01*
X807642Y601107D01*
X807714Y601260D01*
X807791Y601412D01*
X807799Y601441D01*
X807812Y601468D01*
X807852Y601634D01*
X807897Y601797D01*
X807900Y601827D01*
X807907Y601856D01*
X807926Y602135D01*
X807926Y703277D01*
X807923Y703307D01*
X807925Y703337D01*
X807903Y703506D01*
X807886Y703674D01*
X807877Y703703D01*
X807873Y703733D01*
X807818Y703894D01*
X807768Y704056D01*
X807754Y704083D01*
X807744Y704111D01*
X807658Y704257D01*
X807577Y704406D01*
X807557Y704430D01*
X807542Y704456D01*
X807429Y704582D01*
X807319Y704712D01*
X807296Y704731D01*
X807275Y704753D01*
X807139Y704854D01*
X807006Y704960D01*
X806979Y704974D01*
X806955Y704992D01*
X806802Y705064D01*
X806650Y705141D01*
X806621Y705149D01*
X806594Y705162D01*
X806428Y705202D01*
X806265Y705247D01*
X806235Y705250D01*
X806206Y705257D01*
X805927Y705276D01*
X774537Y705276D01*
X774492Y705272D01*
X774447Y705274D01*
X774294Y705252D01*
X774140Y705236D01*
X774096Y705223D01*
X774051Y705216D01*
X773906Y705164D01*
X773758Y705118D01*
X773718Y705097D01*
X773675Y705081D01*
X773543Y705001D01*
X773408Y704927D01*
X773373Y704897D01*
X773334Y704874D01*
X773123Y704691D01*
X769914Y701481D01*
X764779Y699354D01*
X759221Y699354D01*
X754086Y701481D01*
X750156Y705411D01*
X748029Y710546D01*
X748029Y716104D01*
X750156Y721239D01*
X754086Y725169D01*
X759221Y727296D01*
X764779Y727296D01*
X769914Y725169D01*
X773123Y721959D01*
X773158Y721931D01*
X773189Y721897D01*
X773313Y721805D01*
X773433Y721706D01*
X773473Y721685D01*
X773509Y721658D01*
X773649Y721592D01*
X773786Y721520D01*
X773829Y721507D01*
X773870Y721488D01*
X774021Y721451D01*
X774169Y721408D01*
X774214Y721404D01*
X774258Y721393D01*
X774537Y721374D01*
X805927Y721374D01*
X805957Y721377D01*
X805987Y721375D01*
X806156Y721397D01*
X806324Y721414D01*
X806353Y721423D01*
X806383Y721427D01*
X806544Y721482D01*
X806706Y721532D01*
X806733Y721546D01*
X806761Y721556D01*
X806907Y721642D01*
X807056Y721723D01*
X807080Y721743D01*
X807106Y721758D01*
X807232Y721871D01*
X807362Y721981D01*
X807381Y722004D01*
X807403Y722025D01*
X807504Y722161D01*
X807610Y722294D01*
X807624Y722321D01*
X807642Y722345D01*
X807714Y722498D01*
X807791Y722650D01*
X807799Y722679D01*
X807812Y722706D01*
X807852Y722872D01*
X807897Y723035D01*
X807900Y723065D01*
X807907Y723094D01*
X807926Y723373D01*
X807926Y782652D01*
X807923Y782682D01*
X807925Y782712D01*
X807903Y782881D01*
X807886Y783049D01*
X807877Y783078D01*
X807873Y783108D01*
X807818Y783269D01*
X807768Y783431D01*
X807754Y783458D01*
X807744Y783486D01*
X807658Y783632D01*
X807577Y783781D01*
X807557Y783805D01*
X807542Y783831D01*
X807429Y783957D01*
X807319Y784087D01*
X807296Y784106D01*
X807275Y784128D01*
X807139Y784229D01*
X807006Y784335D01*
X806979Y784349D01*
X806955Y784367D01*
X806802Y784439D01*
X806650Y784516D01*
X806621Y784524D01*
X806594Y784537D01*
X806428Y784577D01*
X806265Y784622D01*
X806235Y784625D01*
X806206Y784632D01*
X805927Y784651D01*
X774537Y784651D01*
X774492Y784647D01*
X774446Y784649D01*
X774293Y784627D01*
X774140Y784611D01*
X774096Y784598D01*
X774051Y784591D01*
X773905Y784539D01*
X773758Y784493D01*
X773718Y784472D01*
X773675Y784456D01*
X773543Y784376D01*
X773407Y784302D01*
X773373Y784272D01*
X773334Y784249D01*
X773123Y784066D01*
X769914Y780856D01*
X764779Y778729D01*
X759221Y778729D01*
X754086Y780856D01*
X750156Y784786D01*
X748029Y789921D01*
X748029Y795479D01*
X750156Y800614D01*
X754086Y804544D01*
X759221Y806671D01*
X764779Y806671D01*
X769914Y804544D01*
X773123Y801334D01*
X773158Y801306D01*
X773189Y801272D01*
X773312Y801180D01*
X773432Y801081D01*
X773473Y801060D01*
X773509Y801033D01*
X773649Y800967D01*
X773786Y800895D01*
X773829Y800882D01*
X773870Y800863D01*
X774021Y800826D01*
X774169Y800783D01*
X774214Y800779D01*
X774258Y800768D01*
X774537Y800749D01*
X805927Y800749D01*
X805957Y800752D01*
X805987Y800750D01*
X806156Y800772D01*
X806324Y800789D01*
X806353Y800798D01*
X806383Y800802D01*
X806544Y800857D01*
X806706Y800907D01*
X806733Y800921D01*
X806761Y800931D01*
X806907Y801017D01*
X807056Y801098D01*
X807080Y801118D01*
X807106Y801133D01*
X807232Y801246D01*
X807362Y801356D01*
X807381Y801379D01*
X807403Y801400D01*
X807504Y801536D01*
X807610Y801669D01*
X807624Y801696D01*
X807642Y801720D01*
X807714Y801873D01*
X807791Y802025D01*
X807799Y802054D01*
X807812Y802081D01*
X807852Y802247D01*
X807897Y802410D01*
X807900Y802440D01*
X807907Y802469D01*
X807926Y802748D01*
X807926Y863077D01*
X807923Y863107D01*
X807925Y863137D01*
X807903Y863306D01*
X807886Y863474D01*
X807877Y863503D01*
X807873Y863533D01*
X807818Y863694D01*
X807768Y863856D01*
X807754Y863883D01*
X807744Y863911D01*
X807658Y864057D01*
X807577Y864206D01*
X807557Y864230D01*
X807542Y864256D01*
X807429Y864382D01*
X807319Y864512D01*
X807296Y864531D01*
X807275Y864553D01*
X807139Y864654D01*
X807006Y864760D01*
X806979Y864774D01*
X806955Y864792D01*
X806802Y864864D01*
X806650Y864941D01*
X806621Y864949D01*
X806594Y864962D01*
X806428Y865002D01*
X806265Y865047D01*
X806235Y865050D01*
X806206Y865057D01*
X805927Y865076D01*
X775559Y865076D01*
X775520Y865072D01*
X775482Y865075D01*
X775322Y865053D01*
X775161Y865036D01*
X775125Y865025D01*
X775087Y865020D01*
X774934Y864966D01*
X774780Y864918D01*
X774746Y864900D01*
X774710Y864887D01*
X774571Y864804D01*
X774429Y864727D01*
X774400Y864702D01*
X774367Y864682D01*
X774247Y864573D01*
X774124Y864469D01*
X774100Y864439D01*
X774072Y864413D01*
X774005Y864323D01*
X769914Y860231D01*
X764779Y858104D01*
X759221Y858104D01*
X754086Y860231D01*
X750156Y864161D01*
X748029Y869296D01*
X748029Y874854D01*
X750156Y879989D01*
X754086Y883919D01*
X759221Y886046D01*
X764779Y886046D01*
X769914Y883919D01*
X772073Y881759D01*
X772108Y881731D01*
X772139Y881697D01*
X772262Y881605D01*
X772382Y881506D01*
X772423Y881485D01*
X772459Y881458D01*
X772599Y881392D01*
X772736Y881320D01*
X772779Y881307D01*
X772820Y881288D01*
X772971Y881251D01*
X773119Y881208D01*
X773164Y881204D01*
X773208Y881193D01*
X773487Y881174D01*
X805927Y881174D01*
X805957Y881177D01*
X805987Y881175D01*
X806156Y881197D01*
X806324Y881214D01*
X806353Y881223D01*
X806383Y881227D01*
X806544Y881282D01*
X806706Y881332D01*
X806733Y881346D01*
X806761Y881356D01*
X806907Y881442D01*
X807056Y881523D01*
X807080Y881543D01*
X807106Y881558D01*
X807232Y881671D01*
X807362Y881781D01*
X807381Y881804D01*
X807403Y881825D01*
X807504Y881961D01*
X807610Y882094D01*
X807624Y882121D01*
X807642Y882145D01*
X807714Y882298D01*
X807791Y882450D01*
X807799Y882479D01*
X807812Y882506D01*
X807852Y882672D01*
X807897Y882835D01*
X807900Y882865D01*
X807907Y882894D01*
X807926Y883173D01*
X807926Y941402D01*
X807923Y941432D01*
X807925Y941462D01*
X807903Y941631D01*
X807886Y941799D01*
X807877Y941828D01*
X807873Y941858D01*
X807818Y942019D01*
X807768Y942181D01*
X807754Y942208D01*
X807744Y942236D01*
X807658Y942382D01*
X807577Y942531D01*
X807557Y942555D01*
X807542Y942581D01*
X807429Y942707D01*
X807319Y942837D01*
X807296Y942856D01*
X807275Y942878D01*
X807139Y942979D01*
X807006Y943085D01*
X806979Y943099D01*
X806955Y943117D01*
X806802Y943189D01*
X806650Y943266D01*
X806621Y943274D01*
X806594Y943287D01*
X806428Y943327D01*
X806265Y943372D01*
X806235Y943375D01*
X806206Y943382D01*
X805927Y943401D01*
X774537Y943401D01*
X774492Y943397D01*
X774447Y943399D01*
X774294Y943377D01*
X774140Y943361D01*
X774096Y943348D01*
X774051Y943341D01*
X773906Y943289D01*
X773758Y943243D01*
X773718Y943222D01*
X773675Y943206D01*
X773543Y943126D01*
X773408Y943052D01*
X773373Y943022D01*
X773334Y942999D01*
X773123Y942816D01*
X769914Y939606D01*
X764779Y937479D01*
X759221Y937479D01*
X754086Y939606D01*
X750156Y943536D01*
X748029Y948671D01*
X748029Y954229D01*
X750156Y959364D01*
X754086Y963294D01*
X759221Y965421D01*
X764779Y965421D01*
X769914Y963294D01*
X773123Y960084D01*
X773158Y960056D01*
X773189Y960022D01*
X773313Y959930D01*
X773433Y959831D01*
X773473Y959810D01*
X773509Y959783D01*
X773649Y959717D01*
X773786Y959645D01*
X773829Y959632D01*
X773870Y959613D01*
X774021Y959576D01*
X774169Y959533D01*
X774214Y959529D01*
X774258Y959518D01*
X774537Y959499D01*
X817576Y959499D01*
X820534Y958273D01*
X822798Y956009D01*
X824024Y953051D01*
X824024Y791912D01*
X824028Y791867D01*
X824026Y791822D01*
X824048Y791669D01*
X824064Y791515D01*
X824077Y791472D01*
X824084Y791427D01*
X824136Y791281D01*
X824182Y791133D01*
X824203Y791093D01*
X824219Y791051D01*
X824299Y790919D01*
X824373Y790783D01*
X824403Y790748D01*
X824426Y790709D01*
X824609Y790499D01*
X843081Y772026D01*
X843123Y771993D01*
X843158Y771954D01*
X843277Y771867D01*
X843391Y771774D01*
X843437Y771749D01*
X843480Y771718D01*
X843730Y771593D01*
X845244Y770966D01*
X847166Y769044D01*
X848206Y766534D01*
X848206Y763816D01*
X847166Y761306D01*
X845244Y759384D01*
X842734Y758344D01*
X840016Y758344D01*
X837506Y759384D01*
X835584Y761306D01*
X834544Y763816D01*
X834544Y766870D01*
X834540Y766915D01*
X834542Y766960D01*
X834520Y767113D01*
X834504Y767267D01*
X834491Y767310D01*
X834484Y767355D01*
X834432Y767501D01*
X834386Y767649D01*
X834365Y767689D01*
X834349Y767731D01*
X834269Y767863D01*
X834195Y767999D01*
X834165Y768034D01*
X834142Y768073D01*
X833959Y768283D01*
X827437Y774805D01*
X827425Y774815D01*
X827415Y774827D01*
X827271Y774941D01*
X827127Y775058D01*
X827114Y775065D01*
X827102Y775075D01*
X826937Y775159D01*
X826774Y775245D01*
X826760Y775249D01*
X826746Y775256D01*
X826569Y775305D01*
X826391Y775357D01*
X826376Y775358D01*
X826361Y775362D01*
X826178Y775375D01*
X825993Y775391D01*
X825978Y775389D01*
X825963Y775390D01*
X825779Y775366D01*
X825596Y775345D01*
X825582Y775340D01*
X825567Y775338D01*
X825392Y775278D01*
X825216Y775221D01*
X825203Y775214D01*
X825189Y775209D01*
X825029Y775115D01*
X824869Y775024D01*
X824857Y775014D01*
X824844Y775007D01*
X824707Y774883D01*
X824567Y774762D01*
X824558Y774750D01*
X824547Y774740D01*
X824437Y774593D01*
X824324Y774445D01*
X824317Y774432D01*
X824308Y774420D01*
X824230Y774253D01*
X824148Y774087D01*
X824145Y774072D01*
X824138Y774058D01*
X824094Y773878D01*
X824048Y773700D01*
X824047Y773685D01*
X824043Y773670D01*
X824024Y773392D01*
X824024Y590486D01*
X822798Y587528D01*
X820534Y585264D01*
X817576Y584038D01*
X408696Y584038D01*
X408681Y584037D01*
X408666Y584038D01*
X408482Y584017D01*
X408299Y583998D01*
X408284Y583994D01*
X408269Y583992D01*
X408094Y583935D01*
X407917Y583880D01*
X407904Y583873D01*
X407889Y583868D01*
X407730Y583778D01*
X407567Y583689D01*
X407555Y583679D01*
X407542Y583671D01*
X407403Y583551D01*
X407261Y583431D01*
X407252Y583419D01*
X407240Y583409D01*
X407128Y583263D01*
X407013Y583118D01*
X407006Y583105D01*
X406997Y583093D01*
X406916Y582927D01*
X406832Y582762D01*
X406828Y582747D01*
X406822Y582734D01*
X406775Y582555D01*
X406726Y582377D01*
X406725Y582362D01*
X406721Y582347D01*
X406711Y582164D01*
X406698Y581979D01*
X406700Y581964D01*
X406699Y581949D01*
X406726Y581766D01*
X406750Y581583D01*
X406755Y581568D01*
X406757Y581553D01*
X406820Y581378D01*
X406879Y581205D01*
X406887Y581192D01*
X406892Y581178D01*
X406988Y581020D01*
X407081Y580860D01*
X407091Y580849D01*
X407099Y580836D01*
X407282Y580625D01*
X410365Y577543D01*
X411989Y573622D01*
X411989Y569378D01*
X410365Y565457D01*
X407363Y562455D01*
X403442Y560831D01*
X383958Y560831D01*
X380037Y562455D01*
X377035Y565457D01*
X375411Y569378D01*
X375411Y573622D01*
X377035Y577543D01*
X380118Y580625D01*
X380127Y580637D01*
X380139Y580647D01*
X380253Y580791D01*
X380370Y580935D01*
X380377Y580948D01*
X380387Y580960D01*
X380470Y581124D01*
X380557Y581288D01*
X380561Y581302D01*
X380568Y581316D01*
X380617Y581493D01*
X380669Y581671D01*
X380670Y581686D01*
X380674Y581701D01*
X380687Y581884D01*
X380703Y582069D01*
X380701Y582084D01*
X380702Y582099D01*
X380678Y582283D01*
X380657Y582466D01*
X380652Y582480D01*
X380650Y582495D01*
X380590Y582670D01*
X380533Y582846D01*
X380526Y582859D01*
X380521Y582873D01*
X380427Y583032D01*
X380336Y583193D01*
X380326Y583205D01*
X380319Y583218D01*
X380196Y583355D01*
X380074Y583495D01*
X380062Y583504D01*
X380052Y583515D01*
X379905Y583625D01*
X379758Y583738D01*
X379744Y583745D01*
X379732Y583754D01*
X379565Y583832D01*
X379399Y583914D01*
X379384Y583917D01*
X379370Y583924D01*
X379190Y583968D01*
X379012Y584014D01*
X378997Y584015D01*
X378982Y584019D01*
X378704Y584038D01*
X355988Y584038D01*
X355866Y584026D01*
X355743Y584023D01*
X355668Y584006D01*
X355591Y583998D01*
X355474Y583962D01*
X355354Y583935D01*
X355283Y583903D01*
X355209Y583880D01*
X355102Y583821D01*
X354990Y583771D01*
X354927Y583726D01*
X354859Y583689D01*
X354765Y583609D01*
X354665Y583538D01*
X354593Y583465D01*
X354554Y583431D01*
X354526Y583396D01*
X354469Y583339D01*
X132530Y323973D01*
X132437Y323841D01*
X132340Y323712D01*
X132319Y323670D01*
X132302Y323646D01*
X132279Y323593D01*
X132212Y323464D01*
X129668Y317556D01*
X129665Y317546D01*
X129657Y317531D01*
X129049Y316062D01*
X127910Y314954D01*
X127903Y314946D01*
X127890Y314935D01*
X126766Y313810D01*
X125290Y313223D01*
X125280Y313218D01*
X125264Y313212D01*
X123795Y312604D01*
X122207Y312626D01*
X122195Y312625D01*
X122179Y312626D01*
X117712Y312626D01*
X117697Y312625D01*
X117682Y312626D01*
X117498Y312605D01*
X117314Y312586D01*
X117300Y312582D01*
X117285Y312580D01*
X117109Y312523D01*
X116933Y312468D01*
X116920Y312461D01*
X116905Y312456D01*
X116745Y312366D01*
X116582Y312277D01*
X116571Y312267D01*
X116558Y312259D01*
X116419Y312139D01*
X116277Y312019D01*
X116268Y312007D01*
X116256Y311997D01*
X116144Y311851D01*
X116029Y311706D01*
X116022Y311693D01*
X116013Y311681D01*
X115932Y311515D01*
X115848Y311350D01*
X115844Y311335D01*
X115837Y311322D01*
X115791Y311144D01*
X115741Y310965D01*
X115740Y310950D01*
X115737Y310935D01*
X115727Y310752D01*
X115714Y310567D01*
X115716Y310552D01*
X115715Y310537D01*
X115741Y310355D01*
X115765Y310171D01*
X115770Y310156D01*
X115773Y310141D01*
X115835Y309968D01*
X115895Y309793D01*
X115903Y309780D01*
X115908Y309766D01*
X116003Y309608D01*
X116097Y309448D01*
X116107Y309437D01*
X116115Y309424D01*
X116298Y309213D01*
X117249Y308263D01*
X117249Y284737D01*
X115463Y282951D01*
X92598Y282951D01*
X92568Y282948D01*
X92538Y282950D01*
X92369Y282928D01*
X92201Y282911D01*
X92172Y282902D01*
X92142Y282898D01*
X91981Y282843D01*
X91819Y282793D01*
X91792Y282779D01*
X91764Y282769D01*
X91618Y282683D01*
X91469Y282602D01*
X91445Y282582D01*
X91419Y282567D01*
X91293Y282454D01*
X91163Y282344D01*
X91144Y282321D01*
X91122Y282300D01*
X91021Y282164D01*
X90915Y282031D01*
X90901Y282004D01*
X90883Y281980D01*
X90811Y281827D01*
X90734Y281675D01*
X90726Y281646D01*
X90713Y281619D01*
X90673Y281453D01*
X90628Y281290D01*
X90625Y281260D01*
X90618Y281231D01*
X90599Y280952D01*
X90599Y270048D01*
X90602Y270018D01*
X90600Y269988D01*
X90622Y269819D01*
X90639Y269651D01*
X90648Y269622D01*
X90652Y269592D01*
X90707Y269431D01*
X90757Y269269D01*
X90771Y269242D01*
X90781Y269214D01*
X90867Y269068D01*
X90948Y268919D01*
X90968Y268895D01*
X90983Y268869D01*
X91096Y268743D01*
X91206Y268613D01*
X91229Y268594D01*
X91250Y268572D01*
X91386Y268471D01*
X91519Y268365D01*
X91546Y268351D01*
X91570Y268333D01*
X91723Y268261D01*
X91875Y268184D01*
X91904Y268176D01*
X91931Y268163D01*
X92097Y268123D01*
X92260Y268078D01*
X92290Y268075D01*
X92319Y268068D01*
X92598Y268049D01*
X115463Y268049D01*
X117249Y266263D01*
X117249Y242737D01*
X115463Y240951D01*
X91937Y240951D01*
X90151Y242737D01*
X90151Y245945D01*
X90149Y245967D01*
X90151Y245990D01*
X90129Y246166D01*
X90111Y246342D01*
X90105Y246364D01*
X90102Y246386D01*
X90046Y246554D01*
X89993Y246724D01*
X89982Y246743D01*
X89975Y246765D01*
X89887Y246918D01*
X89802Y247074D01*
X89787Y247091D01*
X89776Y247111D01*
X89659Y247244D01*
X89544Y247379D01*
X89526Y247394D01*
X89511Y247411D01*
X89370Y247517D01*
X89231Y247628D01*
X89211Y247638D01*
X89193Y247652D01*
X89033Y247728D01*
X88875Y247808D01*
X88853Y247815D01*
X88833Y247824D01*
X88661Y247868D01*
X88490Y247915D01*
X88468Y247917D01*
X88445Y247922D01*
X88268Y247931D01*
X88092Y247943D01*
X88069Y247940D01*
X88046Y247941D01*
X87871Y247914D01*
X87696Y247891D01*
X87674Y247884D01*
X87652Y247880D01*
X87387Y247792D01*
X84151Y246451D01*
X64248Y246451D01*
X64218Y246448D01*
X64188Y246450D01*
X64019Y246428D01*
X63851Y246411D01*
X63822Y246402D01*
X63792Y246398D01*
X63631Y246343D01*
X63469Y246293D01*
X63442Y246279D01*
X63414Y246269D01*
X63268Y246183D01*
X63119Y246102D01*
X63095Y246082D01*
X63069Y246067D01*
X62943Y245954D01*
X62813Y245844D01*
X62794Y245821D01*
X62772Y245800D01*
X62671Y245664D01*
X62565Y245531D01*
X62551Y245504D01*
X62533Y245480D01*
X62461Y245327D01*
X62384Y245175D01*
X62376Y245146D01*
X62363Y245119D01*
X62323Y244953D01*
X62278Y244790D01*
X62275Y244760D01*
X62268Y244731D01*
X62249Y244452D01*
X62249Y242737D01*
X60463Y240951D01*
X36937Y240951D01*
G37*
%LPD*%
%LPC*%
G36*
X442940Y629919D02*
X442940Y629919D01*
X436244Y636615D01*
X436244Y646085D01*
X442796Y652636D01*
X442815Y652660D01*
X442838Y652680D01*
X442941Y652814D01*
X443049Y652946D01*
X443063Y652972D01*
X443081Y652996D01*
X443156Y653149D01*
X443235Y653299D01*
X443243Y653328D01*
X443257Y653355D01*
X443299Y653519D01*
X443347Y653682D01*
X443350Y653712D01*
X443357Y653742D01*
X443367Y653910D01*
X443381Y654080D01*
X443378Y654110D01*
X443379Y654140D01*
X443355Y654308D01*
X443335Y654477D01*
X443326Y654506D01*
X443322Y654536D01*
X443264Y654696D01*
X443211Y654857D01*
X443197Y654883D01*
X443186Y654912D01*
X443098Y655057D01*
X443015Y655204D01*
X442995Y655227D01*
X442979Y655253D01*
X442796Y655464D01*
X436244Y662015D01*
X436244Y671485D01*
X442796Y678036D01*
X442815Y678060D01*
X442838Y678080D01*
X442941Y678214D01*
X443049Y678346D01*
X443063Y678372D01*
X443081Y678396D01*
X443156Y678549D01*
X443235Y678699D01*
X443243Y678728D01*
X443257Y678755D01*
X443299Y678919D01*
X443347Y679082D01*
X443350Y679112D01*
X443357Y679142D01*
X443367Y679310D01*
X443381Y679480D01*
X443378Y679510D01*
X443379Y679540D01*
X443355Y679708D01*
X443335Y679877D01*
X443326Y679906D01*
X443322Y679936D01*
X443264Y680096D01*
X443211Y680257D01*
X443197Y680283D01*
X443186Y680312D01*
X443098Y680457D01*
X443015Y680604D01*
X442995Y680627D01*
X442979Y680653D01*
X442796Y680864D01*
X436244Y687415D01*
X436244Y696885D01*
X442796Y703436D01*
X442815Y703460D01*
X442838Y703480D01*
X442941Y703614D01*
X443049Y703746D01*
X443063Y703772D01*
X443081Y703796D01*
X443156Y703949D01*
X443235Y704099D01*
X443243Y704128D01*
X443257Y704155D01*
X443299Y704319D01*
X443347Y704482D01*
X443350Y704512D01*
X443357Y704542D01*
X443367Y704710D01*
X443381Y704880D01*
X443378Y704910D01*
X443379Y704940D01*
X443355Y705108D01*
X443335Y705277D01*
X443326Y705306D01*
X443322Y705336D01*
X443264Y705496D01*
X443211Y705657D01*
X443197Y705683D01*
X443186Y705712D01*
X443098Y705857D01*
X443015Y706004D01*
X442995Y706027D01*
X442979Y706053D01*
X442796Y706264D01*
X436244Y712815D01*
X436244Y722285D01*
X442796Y728836D01*
X442815Y728860D01*
X442838Y728880D01*
X442941Y729014D01*
X443049Y729146D01*
X443063Y729172D01*
X443081Y729196D01*
X443156Y729349D01*
X443235Y729499D01*
X443243Y729528D01*
X443257Y729555D01*
X443299Y729719D01*
X443347Y729882D01*
X443350Y729912D01*
X443357Y729942D01*
X443367Y730110D01*
X443381Y730280D01*
X443378Y730310D01*
X443379Y730340D01*
X443355Y730508D01*
X443335Y730677D01*
X443326Y730706D01*
X443322Y730736D01*
X443264Y730896D01*
X443211Y731057D01*
X443197Y731083D01*
X443186Y731112D01*
X443098Y731257D01*
X443015Y731404D01*
X442995Y731427D01*
X442979Y731453D01*
X442796Y731664D01*
X436244Y738215D01*
X436244Y747685D01*
X442796Y754236D01*
X442815Y754260D01*
X442838Y754280D01*
X442941Y754414D01*
X443049Y754546D01*
X443063Y754572D01*
X443081Y754596D01*
X443156Y754749D01*
X443235Y754899D01*
X443243Y754928D01*
X443257Y754955D01*
X443299Y755119D01*
X443347Y755282D01*
X443350Y755312D01*
X443357Y755342D01*
X443367Y755510D01*
X443381Y755680D01*
X443378Y755710D01*
X443379Y755740D01*
X443355Y755908D01*
X443335Y756077D01*
X443326Y756106D01*
X443322Y756136D01*
X443264Y756296D01*
X443211Y756457D01*
X443197Y756483D01*
X443186Y756512D01*
X443098Y756657D01*
X443015Y756804D01*
X442995Y756827D01*
X442979Y756853D01*
X442796Y757064D01*
X436244Y763615D01*
X436244Y773085D01*
X442796Y779636D01*
X442815Y779660D01*
X442838Y779680D01*
X442941Y779814D01*
X443049Y779946D01*
X443063Y779972D01*
X443081Y779996D01*
X443156Y780149D01*
X443235Y780299D01*
X443243Y780328D01*
X443257Y780355D01*
X443299Y780519D01*
X443347Y780682D01*
X443350Y780712D01*
X443357Y780742D01*
X443367Y780910D01*
X443381Y781080D01*
X443378Y781110D01*
X443379Y781140D01*
X443355Y781308D01*
X443335Y781477D01*
X443326Y781506D01*
X443322Y781536D01*
X443264Y781696D01*
X443211Y781857D01*
X443197Y781883D01*
X443186Y781912D01*
X443098Y782057D01*
X443015Y782204D01*
X442995Y782227D01*
X442979Y782253D01*
X442796Y782464D01*
X436244Y789015D01*
X436244Y798485D01*
X442796Y805036D01*
X442815Y805060D01*
X442838Y805080D01*
X442941Y805214D01*
X443049Y805346D01*
X443063Y805372D01*
X443081Y805396D01*
X443156Y805549D01*
X443235Y805699D01*
X443243Y805728D01*
X443257Y805755D01*
X443299Y805919D01*
X443347Y806082D01*
X443350Y806112D01*
X443357Y806142D01*
X443367Y806310D01*
X443381Y806480D01*
X443378Y806510D01*
X443379Y806540D01*
X443355Y806708D01*
X443335Y806877D01*
X443326Y806906D01*
X443322Y806936D01*
X443264Y807096D01*
X443211Y807257D01*
X443197Y807283D01*
X443186Y807312D01*
X443098Y807457D01*
X443015Y807604D01*
X442995Y807627D01*
X442979Y807653D01*
X442796Y807864D01*
X436244Y814415D01*
X436244Y823885D01*
X442796Y830436D01*
X442815Y830460D01*
X442838Y830480D01*
X442941Y830614D01*
X443049Y830746D01*
X443063Y830772D01*
X443081Y830796D01*
X443156Y830949D01*
X443235Y831099D01*
X443243Y831128D01*
X443257Y831155D01*
X443299Y831319D01*
X443347Y831482D01*
X443350Y831512D01*
X443357Y831542D01*
X443367Y831710D01*
X443381Y831880D01*
X443378Y831910D01*
X443379Y831940D01*
X443355Y832108D01*
X443335Y832277D01*
X443326Y832306D01*
X443322Y832336D01*
X443264Y832496D01*
X443211Y832657D01*
X443197Y832683D01*
X443186Y832712D01*
X443098Y832857D01*
X443015Y833004D01*
X442995Y833027D01*
X442979Y833053D01*
X442796Y833264D01*
X436244Y839815D01*
X436244Y849285D01*
X442796Y855836D01*
X442815Y855860D01*
X442838Y855880D01*
X442941Y856014D01*
X443049Y856146D01*
X443063Y856172D01*
X443081Y856196D01*
X443156Y856349D01*
X443235Y856499D01*
X443243Y856528D01*
X443257Y856555D01*
X443299Y856719D01*
X443347Y856882D01*
X443350Y856912D01*
X443357Y856942D01*
X443367Y857110D01*
X443381Y857280D01*
X443378Y857310D01*
X443379Y857340D01*
X443355Y857508D01*
X443335Y857677D01*
X443326Y857706D01*
X443322Y857736D01*
X443264Y857896D01*
X443211Y858057D01*
X443197Y858083D01*
X443186Y858112D01*
X443098Y858257D01*
X443015Y858404D01*
X442995Y858427D01*
X442979Y858453D01*
X442796Y858664D01*
X436244Y865215D01*
X436244Y874685D01*
X442796Y881236D01*
X442815Y881260D01*
X442838Y881280D01*
X442941Y881414D01*
X443049Y881546D01*
X443063Y881572D01*
X443081Y881596D01*
X443156Y881749D01*
X443235Y881899D01*
X443243Y881928D01*
X443257Y881955D01*
X443299Y882119D01*
X443347Y882282D01*
X443350Y882312D01*
X443357Y882342D01*
X443367Y882510D01*
X443381Y882680D01*
X443378Y882710D01*
X443379Y882740D01*
X443355Y882908D01*
X443335Y883077D01*
X443326Y883106D01*
X443322Y883136D01*
X443264Y883296D01*
X443211Y883457D01*
X443197Y883483D01*
X443186Y883512D01*
X443098Y883657D01*
X443015Y883804D01*
X442995Y883827D01*
X442979Y883853D01*
X442796Y884064D01*
X436244Y890615D01*
X436244Y900085D01*
X442796Y906636D01*
X442815Y906660D01*
X442838Y906680D01*
X442941Y906814D01*
X443049Y906946D01*
X443063Y906972D01*
X443081Y906996D01*
X443156Y907149D01*
X443235Y907299D01*
X443243Y907328D01*
X443257Y907355D01*
X443299Y907519D01*
X443347Y907682D01*
X443350Y907712D01*
X443357Y907742D01*
X443367Y907910D01*
X443381Y908080D01*
X443378Y908110D01*
X443379Y908140D01*
X443355Y908308D01*
X443335Y908477D01*
X443326Y908506D01*
X443322Y908536D01*
X443264Y908696D01*
X443211Y908857D01*
X443197Y908883D01*
X443186Y908912D01*
X443098Y909057D01*
X443015Y909204D01*
X442995Y909227D01*
X442979Y909253D01*
X442796Y909464D01*
X436244Y916015D01*
X436244Y925485D01*
X442796Y932036D01*
X442815Y932060D01*
X442838Y932080D01*
X442941Y932214D01*
X443049Y932346D01*
X443063Y932372D01*
X443081Y932396D01*
X443156Y932549D01*
X443235Y932699D01*
X443243Y932728D01*
X443257Y932755D01*
X443299Y932919D01*
X443347Y933082D01*
X443350Y933112D01*
X443357Y933142D01*
X443367Y933310D01*
X443381Y933480D01*
X443378Y933510D01*
X443379Y933540D01*
X443355Y933708D01*
X443335Y933877D01*
X443326Y933906D01*
X443322Y933936D01*
X443264Y934096D01*
X443211Y934257D01*
X443197Y934283D01*
X443186Y934312D01*
X443098Y934457D01*
X443015Y934604D01*
X442995Y934627D01*
X442979Y934653D01*
X442796Y934864D01*
X436244Y941415D01*
X436244Y950885D01*
X442796Y957436D01*
X442815Y957460D01*
X442838Y957480D01*
X442941Y957614D01*
X443049Y957746D01*
X443063Y957772D01*
X443081Y957796D01*
X443156Y957949D01*
X443235Y958099D01*
X443243Y958128D01*
X443257Y958155D01*
X443299Y958319D01*
X443347Y958482D01*
X443350Y958512D01*
X443357Y958542D01*
X443367Y958710D01*
X443381Y958880D01*
X443378Y958910D01*
X443379Y958940D01*
X443355Y959108D01*
X443335Y959277D01*
X443326Y959306D01*
X443322Y959336D01*
X443264Y959496D01*
X443211Y959657D01*
X443197Y959683D01*
X443186Y959711D01*
X443098Y959857D01*
X443015Y960004D01*
X442995Y960027D01*
X442979Y960053D01*
X442796Y960264D01*
X436244Y966815D01*
X436244Y976285D01*
X442940Y982981D01*
X452410Y982981D01*
X458961Y976429D01*
X458985Y976410D01*
X459005Y976387D01*
X459139Y976284D01*
X459271Y976176D01*
X459297Y976162D01*
X459321Y976144D01*
X459474Y976069D01*
X459624Y975990D01*
X459653Y975982D01*
X459680Y975968D01*
X459844Y975926D01*
X460007Y975878D01*
X460037Y975875D01*
X460067Y975868D01*
X460235Y975858D01*
X460405Y975844D01*
X460435Y975847D01*
X460465Y975846D01*
X460633Y975870D01*
X460802Y975890D01*
X460831Y975899D01*
X460861Y975903D01*
X461021Y975961D01*
X461182Y976014D01*
X461208Y976028D01*
X461237Y976039D01*
X461382Y976127D01*
X461529Y976210D01*
X461552Y976230D01*
X461578Y976246D01*
X461789Y976429D01*
X468340Y982981D01*
X477810Y982981D01*
X484506Y976285D01*
X484506Y966815D01*
X477954Y960264D01*
X477935Y960240D01*
X477912Y960220D01*
X477809Y960086D01*
X477701Y959954D01*
X477687Y959928D01*
X477669Y959904D01*
X477594Y959751D01*
X477515Y959601D01*
X477507Y959572D01*
X477493Y959545D01*
X477451Y959381D01*
X477403Y959218D01*
X477400Y959188D01*
X477393Y959158D01*
X477383Y958990D01*
X477369Y958820D01*
X477372Y958790D01*
X477371Y958760D01*
X477395Y958592D01*
X477415Y958423D01*
X477424Y958394D01*
X477428Y958364D01*
X477486Y958204D01*
X477539Y958043D01*
X477553Y958017D01*
X477564Y957989D01*
X477652Y957843D01*
X477735Y957696D01*
X477755Y957673D01*
X477771Y957647D01*
X477954Y957436D01*
X484506Y950885D01*
X484506Y941415D01*
X477954Y934864D01*
X477935Y934840D01*
X477912Y934820D01*
X477809Y934686D01*
X477701Y934554D01*
X477687Y934528D01*
X477669Y934504D01*
X477594Y934351D01*
X477515Y934201D01*
X477507Y934172D01*
X477493Y934145D01*
X477451Y933981D01*
X477403Y933818D01*
X477400Y933788D01*
X477393Y933758D01*
X477383Y933590D01*
X477369Y933420D01*
X477372Y933390D01*
X477371Y933360D01*
X477395Y933192D01*
X477415Y933023D01*
X477424Y932994D01*
X477428Y932964D01*
X477486Y932804D01*
X477539Y932643D01*
X477553Y932617D01*
X477564Y932589D01*
X477652Y932443D01*
X477735Y932296D01*
X477755Y932273D01*
X477771Y932247D01*
X477954Y932036D01*
X484506Y925485D01*
X484506Y916015D01*
X477954Y909464D01*
X477935Y909440D01*
X477912Y909420D01*
X477809Y909286D01*
X477701Y909154D01*
X477687Y909128D01*
X477669Y909104D01*
X477594Y908951D01*
X477515Y908801D01*
X477507Y908772D01*
X477493Y908745D01*
X477451Y908581D01*
X477403Y908418D01*
X477400Y908388D01*
X477393Y908358D01*
X477383Y908190D01*
X477369Y908020D01*
X477372Y907990D01*
X477371Y907960D01*
X477395Y907792D01*
X477415Y907623D01*
X477424Y907594D01*
X477428Y907564D01*
X477486Y907404D01*
X477539Y907243D01*
X477553Y907217D01*
X477564Y907189D01*
X477652Y907043D01*
X477735Y906896D01*
X477755Y906873D01*
X477771Y906847D01*
X477954Y906636D01*
X484506Y900085D01*
X484506Y890615D01*
X477954Y884064D01*
X477935Y884040D01*
X477912Y884020D01*
X477809Y883886D01*
X477701Y883754D01*
X477687Y883728D01*
X477669Y883704D01*
X477594Y883551D01*
X477515Y883401D01*
X477507Y883372D01*
X477493Y883345D01*
X477451Y883181D01*
X477403Y883018D01*
X477400Y882988D01*
X477393Y882958D01*
X477383Y882790D01*
X477369Y882620D01*
X477372Y882590D01*
X477371Y882560D01*
X477395Y882392D01*
X477415Y882223D01*
X477424Y882194D01*
X477428Y882164D01*
X477486Y882004D01*
X477539Y881843D01*
X477553Y881817D01*
X477564Y881789D01*
X477652Y881643D01*
X477735Y881496D01*
X477755Y881473D01*
X477771Y881447D01*
X477954Y881236D01*
X484506Y874685D01*
X484506Y865215D01*
X477954Y858664D01*
X477935Y858640D01*
X477912Y858620D01*
X477809Y858486D01*
X477701Y858354D01*
X477687Y858328D01*
X477669Y858304D01*
X477594Y858151D01*
X477515Y858001D01*
X477507Y857972D01*
X477493Y857945D01*
X477451Y857781D01*
X477403Y857618D01*
X477400Y857588D01*
X477393Y857558D01*
X477383Y857390D01*
X477369Y857220D01*
X477372Y857190D01*
X477371Y857160D01*
X477395Y856992D01*
X477415Y856823D01*
X477424Y856794D01*
X477428Y856764D01*
X477486Y856604D01*
X477539Y856443D01*
X477553Y856417D01*
X477564Y856389D01*
X477652Y856243D01*
X477735Y856096D01*
X477755Y856073D01*
X477771Y856047D01*
X477954Y855836D01*
X484506Y849285D01*
X484506Y839815D01*
X477954Y833264D01*
X477935Y833240D01*
X477912Y833220D01*
X477809Y833086D01*
X477701Y832954D01*
X477687Y832928D01*
X477669Y832904D01*
X477594Y832751D01*
X477515Y832601D01*
X477507Y832572D01*
X477493Y832545D01*
X477451Y832381D01*
X477403Y832218D01*
X477400Y832188D01*
X477393Y832158D01*
X477383Y831990D01*
X477369Y831820D01*
X477372Y831790D01*
X477371Y831760D01*
X477395Y831592D01*
X477415Y831423D01*
X477424Y831394D01*
X477428Y831364D01*
X477486Y831204D01*
X477539Y831043D01*
X477553Y831017D01*
X477564Y830989D01*
X477652Y830843D01*
X477735Y830696D01*
X477755Y830673D01*
X477771Y830647D01*
X477954Y830436D01*
X484506Y823885D01*
X484506Y814415D01*
X477954Y807864D01*
X477935Y807840D01*
X477912Y807820D01*
X477809Y807686D01*
X477701Y807554D01*
X477687Y807528D01*
X477669Y807504D01*
X477594Y807351D01*
X477515Y807201D01*
X477507Y807172D01*
X477493Y807145D01*
X477451Y806981D01*
X477403Y806818D01*
X477400Y806788D01*
X477393Y806758D01*
X477383Y806590D01*
X477369Y806420D01*
X477372Y806390D01*
X477371Y806360D01*
X477395Y806192D01*
X477415Y806023D01*
X477424Y805994D01*
X477428Y805964D01*
X477486Y805804D01*
X477539Y805643D01*
X477553Y805617D01*
X477564Y805589D01*
X477652Y805443D01*
X477735Y805296D01*
X477755Y805273D01*
X477771Y805247D01*
X477954Y805036D01*
X484506Y798485D01*
X484506Y789015D01*
X477954Y782464D01*
X477935Y782440D01*
X477912Y782420D01*
X477809Y782286D01*
X477701Y782154D01*
X477687Y782128D01*
X477669Y782104D01*
X477594Y781951D01*
X477515Y781801D01*
X477507Y781772D01*
X477493Y781745D01*
X477451Y781581D01*
X477403Y781418D01*
X477400Y781388D01*
X477393Y781358D01*
X477383Y781190D01*
X477369Y781020D01*
X477372Y780990D01*
X477371Y780960D01*
X477395Y780792D01*
X477415Y780623D01*
X477424Y780594D01*
X477428Y780564D01*
X477486Y780404D01*
X477539Y780243D01*
X477553Y780217D01*
X477564Y780189D01*
X477652Y780043D01*
X477735Y779896D01*
X477755Y779873D01*
X477771Y779847D01*
X477954Y779636D01*
X484506Y773085D01*
X484506Y763615D01*
X477954Y757064D01*
X477935Y757040D01*
X477912Y757020D01*
X477809Y756886D01*
X477701Y756754D01*
X477687Y756728D01*
X477669Y756704D01*
X477594Y756551D01*
X477515Y756401D01*
X477507Y756372D01*
X477493Y756345D01*
X477451Y756181D01*
X477403Y756018D01*
X477400Y755988D01*
X477393Y755958D01*
X477383Y755790D01*
X477369Y755620D01*
X477372Y755590D01*
X477371Y755560D01*
X477395Y755392D01*
X477415Y755223D01*
X477424Y755194D01*
X477428Y755164D01*
X477486Y755004D01*
X477539Y754843D01*
X477553Y754817D01*
X477564Y754789D01*
X477652Y754643D01*
X477735Y754496D01*
X477755Y754473D01*
X477771Y754447D01*
X477954Y754236D01*
X484506Y747685D01*
X484506Y738215D01*
X477954Y731664D01*
X477935Y731640D01*
X477912Y731620D01*
X477809Y731486D01*
X477701Y731354D01*
X477687Y731328D01*
X477669Y731304D01*
X477594Y731151D01*
X477515Y731001D01*
X477507Y730972D01*
X477493Y730945D01*
X477451Y730781D01*
X477403Y730618D01*
X477400Y730588D01*
X477393Y730558D01*
X477383Y730390D01*
X477369Y730220D01*
X477372Y730190D01*
X477371Y730160D01*
X477395Y729992D01*
X477415Y729823D01*
X477424Y729794D01*
X477428Y729764D01*
X477486Y729604D01*
X477539Y729443D01*
X477553Y729417D01*
X477564Y729389D01*
X477652Y729243D01*
X477735Y729096D01*
X477755Y729073D01*
X477771Y729047D01*
X477954Y728836D01*
X484506Y722285D01*
X484506Y712815D01*
X477954Y706264D01*
X477935Y706240D01*
X477912Y706220D01*
X477809Y706086D01*
X477701Y705954D01*
X477687Y705928D01*
X477669Y705904D01*
X477594Y705751D01*
X477515Y705601D01*
X477507Y705572D01*
X477493Y705545D01*
X477451Y705381D01*
X477403Y705218D01*
X477400Y705188D01*
X477393Y705158D01*
X477383Y704990D01*
X477369Y704820D01*
X477372Y704790D01*
X477371Y704760D01*
X477395Y704592D01*
X477415Y704423D01*
X477424Y704394D01*
X477428Y704364D01*
X477486Y704204D01*
X477539Y704043D01*
X477553Y704017D01*
X477564Y703989D01*
X477652Y703843D01*
X477735Y703696D01*
X477755Y703673D01*
X477771Y703647D01*
X477954Y703436D01*
X484506Y696885D01*
X484506Y687415D01*
X477954Y680864D01*
X477935Y680840D01*
X477912Y680820D01*
X477809Y680686D01*
X477701Y680554D01*
X477687Y680528D01*
X477669Y680504D01*
X477594Y680351D01*
X477515Y680201D01*
X477507Y680172D01*
X477493Y680145D01*
X477451Y679981D01*
X477403Y679818D01*
X477400Y679788D01*
X477393Y679758D01*
X477383Y679590D01*
X477369Y679420D01*
X477372Y679390D01*
X477371Y679360D01*
X477395Y679192D01*
X477415Y679023D01*
X477424Y678994D01*
X477428Y678964D01*
X477486Y678804D01*
X477539Y678643D01*
X477553Y678617D01*
X477564Y678589D01*
X477652Y678443D01*
X477735Y678296D01*
X477755Y678273D01*
X477771Y678247D01*
X477954Y678036D01*
X484506Y671485D01*
X484506Y662015D01*
X477954Y655464D01*
X477935Y655440D01*
X477912Y655420D01*
X477809Y655286D01*
X477701Y655154D01*
X477687Y655128D01*
X477669Y655104D01*
X477594Y654951D01*
X477515Y654801D01*
X477507Y654772D01*
X477493Y654745D01*
X477451Y654581D01*
X477403Y654418D01*
X477400Y654388D01*
X477393Y654358D01*
X477383Y654190D01*
X477369Y654020D01*
X477372Y653990D01*
X477371Y653960D01*
X477395Y653792D01*
X477415Y653623D01*
X477424Y653594D01*
X477428Y653564D01*
X477486Y653404D01*
X477539Y653243D01*
X477553Y653217D01*
X477564Y653189D01*
X477652Y653043D01*
X477735Y652896D01*
X477755Y652873D01*
X477771Y652847D01*
X477954Y652636D01*
X484506Y646085D01*
X484506Y636615D01*
X477810Y629919D01*
X468340Y629919D01*
X461789Y636471D01*
X461765Y636490D01*
X461745Y636513D01*
X461611Y636616D01*
X461479Y636724D01*
X461453Y636738D01*
X461429Y636756D01*
X461276Y636831D01*
X461126Y636910D01*
X461097Y636918D01*
X461070Y636932D01*
X460906Y636974D01*
X460743Y637022D01*
X460713Y637025D01*
X460683Y637032D01*
X460515Y637042D01*
X460345Y637056D01*
X460315Y637053D01*
X460285Y637054D01*
X460117Y637030D01*
X459948Y637010D01*
X459919Y637001D01*
X459889Y636997D01*
X459729Y636939D01*
X459568Y636886D01*
X459542Y636872D01*
X459513Y636861D01*
X459368Y636773D01*
X459221Y636690D01*
X459198Y636670D01*
X459172Y636654D01*
X458961Y636471D01*
X452410Y629919D01*
X442940Y629919D01*
G37*
%LPD*%
%LPC*%
G36*
X509615Y629919D02*
X509615Y629919D01*
X502919Y636615D01*
X502919Y646085D01*
X509471Y652636D01*
X509490Y652660D01*
X509513Y652680D01*
X509616Y652814D01*
X509724Y652946D01*
X509738Y652972D01*
X509756Y652996D01*
X509831Y653149D01*
X509910Y653299D01*
X509918Y653328D01*
X509932Y653355D01*
X509974Y653519D01*
X510022Y653682D01*
X510025Y653712D01*
X510032Y653742D01*
X510042Y653910D01*
X510056Y654080D01*
X510053Y654110D01*
X510054Y654140D01*
X510030Y654308D01*
X510010Y654477D01*
X510001Y654506D01*
X509997Y654536D01*
X509939Y654696D01*
X509886Y654857D01*
X509872Y654883D01*
X509861Y654912D01*
X509773Y655057D01*
X509690Y655204D01*
X509670Y655227D01*
X509654Y655253D01*
X509471Y655464D01*
X502919Y662015D01*
X502919Y671485D01*
X509471Y678036D01*
X509490Y678060D01*
X509513Y678080D01*
X509616Y678214D01*
X509724Y678346D01*
X509738Y678372D01*
X509756Y678396D01*
X509831Y678549D01*
X509910Y678699D01*
X509918Y678728D01*
X509932Y678755D01*
X509974Y678919D01*
X510022Y679082D01*
X510025Y679112D01*
X510032Y679142D01*
X510042Y679310D01*
X510056Y679480D01*
X510053Y679510D01*
X510054Y679540D01*
X510030Y679708D01*
X510010Y679877D01*
X510001Y679906D01*
X509997Y679936D01*
X509939Y680096D01*
X509886Y680257D01*
X509872Y680283D01*
X509861Y680312D01*
X509773Y680457D01*
X509690Y680604D01*
X509670Y680627D01*
X509654Y680653D01*
X509471Y680864D01*
X502919Y687415D01*
X502919Y696885D01*
X509471Y703436D01*
X509490Y703460D01*
X509513Y703480D01*
X509616Y703614D01*
X509724Y703746D01*
X509738Y703772D01*
X509756Y703796D01*
X509831Y703949D01*
X509910Y704099D01*
X509918Y704128D01*
X509932Y704155D01*
X509974Y704319D01*
X510022Y704482D01*
X510025Y704512D01*
X510032Y704542D01*
X510042Y704710D01*
X510056Y704880D01*
X510053Y704910D01*
X510054Y704940D01*
X510030Y705108D01*
X510010Y705277D01*
X510001Y705306D01*
X509997Y705336D01*
X509939Y705496D01*
X509886Y705657D01*
X509872Y705683D01*
X509861Y705712D01*
X509773Y705857D01*
X509690Y706004D01*
X509670Y706027D01*
X509654Y706053D01*
X509471Y706264D01*
X502919Y712815D01*
X502919Y722285D01*
X509615Y728981D01*
X519085Y728981D01*
X525636Y722429D01*
X525660Y722410D01*
X525680Y722387D01*
X525814Y722284D01*
X525946Y722176D01*
X525972Y722162D01*
X525996Y722144D01*
X526149Y722069D01*
X526299Y721990D01*
X526328Y721982D01*
X526355Y721968D01*
X526519Y721926D01*
X526682Y721878D01*
X526712Y721875D01*
X526742Y721868D01*
X526910Y721858D01*
X527080Y721844D01*
X527110Y721847D01*
X527140Y721846D01*
X527308Y721870D01*
X527477Y721890D01*
X527506Y721899D01*
X527536Y721903D01*
X527696Y721961D01*
X527857Y722014D01*
X527883Y722028D01*
X527911Y722039D01*
X528057Y722127D01*
X528204Y722210D01*
X528227Y722230D01*
X528253Y722246D01*
X528464Y722429D01*
X535015Y728981D01*
X544485Y728981D01*
X551181Y722285D01*
X551181Y712815D01*
X544629Y706264D01*
X544610Y706240D01*
X544587Y706220D01*
X544484Y706086D01*
X544376Y705954D01*
X544362Y705928D01*
X544344Y705904D01*
X544269Y705751D01*
X544190Y705601D01*
X544182Y705572D01*
X544168Y705545D01*
X544126Y705381D01*
X544078Y705218D01*
X544075Y705188D01*
X544068Y705158D01*
X544058Y704990D01*
X544044Y704820D01*
X544047Y704790D01*
X544046Y704760D01*
X544070Y704592D01*
X544090Y704423D01*
X544099Y704394D01*
X544103Y704364D01*
X544161Y704204D01*
X544214Y704043D01*
X544228Y704017D01*
X544239Y703989D01*
X544327Y703843D01*
X544410Y703696D01*
X544430Y703673D01*
X544446Y703647D01*
X544629Y703436D01*
X551181Y696885D01*
X551181Y687415D01*
X544629Y680864D01*
X544610Y680840D01*
X544587Y680820D01*
X544484Y680686D01*
X544376Y680554D01*
X544362Y680528D01*
X544344Y680504D01*
X544269Y680351D01*
X544190Y680201D01*
X544182Y680172D01*
X544168Y680145D01*
X544126Y679981D01*
X544078Y679818D01*
X544075Y679788D01*
X544068Y679758D01*
X544058Y679590D01*
X544044Y679420D01*
X544047Y679390D01*
X544046Y679360D01*
X544070Y679192D01*
X544090Y679023D01*
X544099Y678994D01*
X544103Y678964D01*
X544161Y678804D01*
X544214Y678643D01*
X544228Y678617D01*
X544239Y678589D01*
X544327Y678443D01*
X544410Y678296D01*
X544430Y678273D01*
X544446Y678247D01*
X544629Y678036D01*
X551181Y671485D01*
X551181Y662015D01*
X544629Y655464D01*
X544610Y655440D01*
X544587Y655420D01*
X544484Y655286D01*
X544376Y655154D01*
X544362Y655128D01*
X544344Y655104D01*
X544269Y654951D01*
X544190Y654801D01*
X544182Y654772D01*
X544168Y654745D01*
X544126Y654581D01*
X544078Y654418D01*
X544075Y654388D01*
X544068Y654358D01*
X544058Y654190D01*
X544044Y654020D01*
X544047Y653990D01*
X544046Y653960D01*
X544070Y653792D01*
X544090Y653623D01*
X544099Y653594D01*
X544103Y653564D01*
X544161Y653404D01*
X544214Y653243D01*
X544228Y653217D01*
X544239Y653189D01*
X544327Y653043D01*
X544410Y652896D01*
X544430Y652873D01*
X544446Y652847D01*
X544629Y652636D01*
X551181Y646085D01*
X551181Y636615D01*
X544485Y629919D01*
X535015Y629919D01*
X528464Y636471D01*
X528440Y636490D01*
X528420Y636513D01*
X528286Y636616D01*
X528154Y636724D01*
X528128Y636738D01*
X528104Y636756D01*
X527951Y636831D01*
X527801Y636910D01*
X527772Y636918D01*
X527745Y636932D01*
X527581Y636974D01*
X527418Y637022D01*
X527388Y637025D01*
X527358Y637032D01*
X527190Y637042D01*
X527020Y637056D01*
X526990Y637053D01*
X526960Y637054D01*
X526792Y637030D01*
X526623Y637010D01*
X526594Y637001D01*
X526564Y636997D01*
X526404Y636939D01*
X526243Y636886D01*
X526217Y636872D01*
X526188Y636861D01*
X526043Y636773D01*
X525896Y636690D01*
X525873Y636670D01*
X525847Y636654D01*
X525636Y636471D01*
X519085Y629919D01*
X509615Y629919D01*
G37*
%LPD*%
G36*
X298008Y175053D02*
X298008Y175053D01*
X298053Y175051D01*
X298206Y175073D01*
X298360Y175089D01*
X298403Y175102D01*
X298448Y175109D01*
X298594Y175161D01*
X298742Y175207D01*
X298782Y175228D01*
X298824Y175244D01*
X298956Y175324D01*
X299092Y175398D01*
X299127Y175428D01*
X299166Y175451D01*
X299376Y175634D01*
X312828Y189086D01*
X312838Y189098D01*
X312850Y189108D01*
X312964Y189252D01*
X313081Y189396D01*
X313088Y189409D01*
X313098Y189421D01*
X313182Y189586D01*
X313268Y189749D01*
X313272Y189763D01*
X313279Y189777D01*
X313328Y189955D01*
X313380Y190132D01*
X313381Y190147D01*
X313385Y190162D01*
X313398Y190345D01*
X313414Y190530D01*
X313412Y190545D01*
X313413Y190560D01*
X313389Y190744D01*
X313368Y190927D01*
X313363Y190941D01*
X313361Y190956D01*
X313301Y191131D01*
X313244Y191307D01*
X313237Y191320D01*
X313232Y191334D01*
X313138Y191494D01*
X313047Y191654D01*
X313037Y191666D01*
X313030Y191679D01*
X312906Y191816D01*
X312785Y191956D01*
X312773Y191965D01*
X312763Y191976D01*
X312615Y192086D01*
X312468Y192199D01*
X312455Y192206D01*
X312443Y192215D01*
X312276Y192293D01*
X312110Y192375D01*
X312095Y192378D01*
X312081Y192385D01*
X311901Y192429D01*
X311723Y192475D01*
X311708Y192476D01*
X311693Y192480D01*
X311415Y192499D01*
X190500Y192499D01*
X190470Y192496D01*
X190440Y192498D01*
X190271Y192476D01*
X190103Y192459D01*
X190074Y192450D01*
X190044Y192446D01*
X189883Y192391D01*
X189721Y192341D01*
X189694Y192327D01*
X189666Y192317D01*
X189520Y192231D01*
X189371Y192150D01*
X189347Y192130D01*
X189321Y192115D01*
X189195Y192002D01*
X189065Y191892D01*
X189046Y191869D01*
X189024Y191848D01*
X188923Y191712D01*
X188817Y191579D01*
X188803Y191552D01*
X188785Y191528D01*
X188713Y191375D01*
X188636Y191223D01*
X188628Y191194D01*
X188615Y191167D01*
X188575Y191001D01*
X188530Y190838D01*
X188527Y190808D01*
X188520Y190779D01*
X188501Y190500D01*
X188501Y177048D01*
X188504Y177018D01*
X188502Y176988D01*
X188524Y176819D01*
X188541Y176651D01*
X188550Y176622D01*
X188554Y176592D01*
X188609Y176431D01*
X188659Y176269D01*
X188673Y176242D01*
X188683Y176214D01*
X188769Y176068D01*
X188850Y175919D01*
X188870Y175895D01*
X188885Y175869D01*
X188998Y175743D01*
X189108Y175613D01*
X189132Y175594D01*
X189152Y175572D01*
X189288Y175471D01*
X189421Y175365D01*
X189448Y175351D01*
X189472Y175333D01*
X189625Y175261D01*
X189777Y175184D01*
X189806Y175176D01*
X189833Y175163D01*
X189999Y175123D01*
X190162Y175078D01*
X190192Y175075D01*
X190221Y175068D01*
X190500Y175049D01*
X297963Y175049D01*
X298008Y175053D01*
G37*
%LPC*%
G36*
X95787Y528339D02*
X95787Y528339D01*
X89388Y530054D01*
X83651Y533366D01*
X78966Y538051D01*
X75654Y543788D01*
X73939Y550187D01*
X73939Y556813D01*
X75654Y563212D01*
X78966Y568949D01*
X83651Y573634D01*
X89388Y576946D01*
X95787Y578661D01*
X102413Y578661D01*
X108812Y576946D01*
X114549Y573634D01*
X119234Y568949D01*
X122546Y563212D01*
X124261Y556813D01*
X124261Y550187D01*
X122546Y543788D01*
X119234Y538051D01*
X114549Y533366D01*
X108812Y530054D01*
X102413Y528339D01*
X95787Y528339D01*
G37*
%LPD*%
%LPC*%
G36*
X95787Y56339D02*
X95787Y56339D01*
X89388Y58054D01*
X83651Y61366D01*
X78966Y66051D01*
X75654Y71788D01*
X73939Y78187D01*
X73939Y84813D01*
X75654Y91212D01*
X78966Y96949D01*
X83651Y101634D01*
X89388Y104946D01*
X95787Y106661D01*
X102413Y106661D01*
X108812Y104946D01*
X114549Y101634D01*
X119234Y96949D01*
X122546Y91212D01*
X124261Y84813D01*
X124261Y78187D01*
X122546Y71788D01*
X119234Y66051D01*
X114549Y61366D01*
X108812Y58054D01*
X102413Y56339D01*
X95787Y56339D01*
G37*
%LPD*%
%LPC*%
G36*
X502901Y177642D02*
X502901Y177642D01*
X494430Y181151D01*
X487946Y187634D01*
X484437Y196106D01*
X484437Y205275D01*
X487946Y213746D01*
X494430Y220230D01*
X502901Y223739D01*
X512071Y223739D01*
X520542Y220230D01*
X527026Y213746D01*
X530535Y205275D01*
X530535Y196106D01*
X527026Y187634D01*
X520542Y181151D01*
X512071Y177642D01*
X502901Y177642D01*
G37*
%LPD*%
%LPC*%
G36*
X883901Y177642D02*
X883901Y177642D01*
X875430Y181151D01*
X868946Y187634D01*
X865437Y196106D01*
X865437Y205275D01*
X868946Y213746D01*
X875430Y220230D01*
X883901Y223739D01*
X893071Y223739D01*
X901542Y220230D01*
X908026Y213746D01*
X911535Y205275D01*
X911535Y196106D01*
X908026Y187634D01*
X901542Y181151D01*
X893071Y177642D01*
X883901Y177642D01*
G37*
%LPD*%
%LPC*%
G36*
X36937Y198951D02*
X36937Y198951D01*
X35151Y200737D01*
X35151Y224263D01*
X36937Y226049D01*
X60463Y226049D01*
X62249Y224263D01*
X62249Y200737D01*
X60463Y198951D01*
X36937Y198951D01*
G37*
%LPD*%
%LPC*%
G36*
X36937Y450951D02*
X36937Y450951D01*
X35151Y452737D01*
X35151Y476263D01*
X36937Y478049D01*
X60463Y478049D01*
X62249Y476263D01*
X62249Y452737D01*
X60463Y450951D01*
X36937Y450951D01*
G37*
%LPD*%
%LPC*%
G36*
X91937Y114951D02*
X91937Y114951D01*
X90151Y116737D01*
X90151Y140263D01*
X91937Y142049D01*
X115463Y142049D01*
X117249Y140263D01*
X117249Y116737D01*
X115463Y114951D01*
X91937Y114951D01*
G37*
%LPD*%
%LPC*%
G36*
X36937Y114951D02*
X36937Y114951D01*
X35151Y116737D01*
X35151Y140263D01*
X36937Y142049D01*
X60463Y142049D01*
X62249Y140263D01*
X62249Y116737D01*
X60463Y114951D01*
X36937Y114951D01*
G37*
%LPD*%
%LPC*%
G36*
X91937Y198951D02*
X91937Y198951D01*
X90151Y200737D01*
X90151Y224263D01*
X91937Y226049D01*
X115463Y226049D01*
X117249Y224263D01*
X117249Y200737D01*
X115463Y198951D01*
X91937Y198951D01*
G37*
%LPD*%
%LPC*%
G36*
X36937Y156951D02*
X36937Y156951D01*
X35151Y158737D01*
X35151Y182263D01*
X36937Y184049D01*
X60463Y184049D01*
X62249Y182263D01*
X62249Y158737D01*
X60463Y156951D01*
X36937Y156951D01*
G37*
%LPD*%
%LPC*%
G36*
X36937Y282951D02*
X36937Y282951D01*
X35151Y284737D01*
X35151Y308263D01*
X36937Y310049D01*
X60463Y310049D01*
X62249Y308263D01*
X62249Y284737D01*
X60463Y282951D01*
X36937Y282951D01*
G37*
%LPD*%
%LPC*%
G36*
X36937Y492951D02*
X36937Y492951D01*
X35151Y494737D01*
X35151Y518263D01*
X36937Y520049D01*
X60463Y520049D01*
X62249Y518263D01*
X62249Y494737D01*
X60463Y492951D01*
X36937Y492951D01*
G37*
%LPD*%
%LPC*%
G36*
X36937Y366951D02*
X36937Y366951D01*
X35151Y368737D01*
X35151Y392263D01*
X36937Y394049D01*
X60463Y394049D01*
X62249Y392263D01*
X62249Y368737D01*
X60463Y366951D01*
X36937Y366951D01*
G37*
%LPD*%
%LPC*%
G36*
X36937Y408951D02*
X36937Y408951D01*
X35151Y410737D01*
X35151Y434263D01*
X36937Y436049D01*
X60463Y436049D01*
X62249Y434263D01*
X62249Y410737D01*
X60463Y408951D01*
X36937Y408951D01*
G37*
%LPD*%
%LPC*%
G36*
X955485Y433831D02*
X955485Y433831D01*
X951564Y435455D01*
X948563Y438457D01*
X946939Y442378D01*
X946939Y446622D01*
X948563Y450543D01*
X951564Y453545D01*
X955485Y455169D01*
X974970Y455169D01*
X978891Y453545D01*
X981892Y450543D01*
X983516Y446622D01*
X983516Y442378D01*
X981892Y438457D01*
X978891Y435455D01*
X974970Y433831D01*
X955485Y433831D01*
G37*
%LPD*%
%LPC*%
G36*
X383958Y459231D02*
X383958Y459231D01*
X380037Y460855D01*
X377035Y463857D01*
X375411Y467778D01*
X375411Y472022D01*
X377035Y475943D01*
X380037Y478945D01*
X383958Y480569D01*
X403442Y480569D01*
X407363Y478945D01*
X410365Y475943D01*
X411989Y472022D01*
X411989Y467778D01*
X410365Y463857D01*
X407363Y460855D01*
X403442Y459231D01*
X383958Y459231D01*
G37*
%LPD*%
%LPC*%
G36*
X383958Y332231D02*
X383958Y332231D01*
X380037Y333855D01*
X377035Y336857D01*
X375411Y340778D01*
X375411Y345022D01*
X377035Y348943D01*
X380037Y351945D01*
X383958Y353569D01*
X403442Y353569D01*
X407363Y351945D01*
X410365Y348943D01*
X411989Y345022D01*
X411989Y340778D01*
X410365Y336857D01*
X407363Y333855D01*
X403442Y332231D01*
X383958Y332231D01*
G37*
%LPD*%
%LPC*%
G36*
X955485Y535431D02*
X955485Y535431D01*
X951564Y537055D01*
X948563Y540057D01*
X946939Y543978D01*
X946939Y548222D01*
X948563Y552143D01*
X951564Y555145D01*
X955485Y556769D01*
X974970Y556769D01*
X978891Y555145D01*
X981892Y552143D01*
X983516Y548222D01*
X983516Y543978D01*
X981892Y540057D01*
X978891Y537055D01*
X974970Y535431D01*
X955485Y535431D01*
G37*
%LPD*%
%LPC*%
G36*
X955485Y332231D02*
X955485Y332231D01*
X951564Y333855D01*
X948563Y336857D01*
X946939Y340778D01*
X946939Y345022D01*
X948563Y348943D01*
X951564Y351945D01*
X955485Y353569D01*
X974970Y353569D01*
X978891Y351945D01*
X981892Y348943D01*
X983516Y345022D01*
X983516Y340778D01*
X981892Y336857D01*
X978891Y333855D01*
X974970Y332231D01*
X955485Y332231D01*
G37*
%LPD*%
%LPC*%
G36*
X955485Y484631D02*
X955485Y484631D01*
X951564Y486255D01*
X948563Y489257D01*
X946939Y493178D01*
X946939Y497422D01*
X948563Y501343D01*
X951564Y504345D01*
X955485Y505969D01*
X974970Y505969D01*
X978891Y504345D01*
X981892Y501343D01*
X983516Y497422D01*
X983516Y493178D01*
X981892Y489257D01*
X978891Y486255D01*
X974970Y484631D01*
X955485Y484631D01*
G37*
%LPD*%
%LPC*%
G36*
X383958Y357631D02*
X383958Y357631D01*
X380037Y359255D01*
X377035Y362257D01*
X375411Y366178D01*
X375411Y370422D01*
X377035Y374343D01*
X380037Y377345D01*
X383958Y378969D01*
X403442Y378969D01*
X407363Y377345D01*
X410365Y374343D01*
X411989Y370422D01*
X411989Y366178D01*
X410365Y362257D01*
X407363Y359255D01*
X403442Y357631D01*
X383958Y357631D01*
G37*
%LPD*%
%LPC*%
G36*
X955485Y357631D02*
X955485Y357631D01*
X951564Y359255D01*
X948563Y362257D01*
X946939Y366178D01*
X946939Y370422D01*
X948563Y374343D01*
X951564Y377345D01*
X955485Y378969D01*
X974970Y378969D01*
X978891Y377345D01*
X981892Y374343D01*
X983516Y370422D01*
X983516Y366178D01*
X981892Y362257D01*
X978891Y359255D01*
X974970Y357631D01*
X955485Y357631D01*
G37*
%LPD*%
%LPC*%
G36*
X383958Y408431D02*
X383958Y408431D01*
X380037Y410055D01*
X377035Y413057D01*
X375411Y416978D01*
X375411Y421222D01*
X377035Y425143D01*
X380037Y428145D01*
X383958Y429769D01*
X403442Y429769D01*
X407363Y428145D01*
X410365Y425143D01*
X411989Y421222D01*
X411989Y416978D01*
X410365Y413057D01*
X407363Y410055D01*
X403442Y408431D01*
X383958Y408431D01*
G37*
%LPD*%
%LPC*%
G36*
X955485Y510031D02*
X955485Y510031D01*
X951564Y511655D01*
X948563Y514657D01*
X946939Y518578D01*
X946939Y522822D01*
X948563Y526743D01*
X951564Y529745D01*
X955485Y531369D01*
X974970Y531369D01*
X978891Y529745D01*
X981892Y526743D01*
X983516Y522822D01*
X983516Y518578D01*
X981892Y514657D01*
X978891Y511655D01*
X974970Y510031D01*
X955485Y510031D01*
G37*
%LPD*%
%LPC*%
G36*
X955485Y383031D02*
X955485Y383031D01*
X951564Y384655D01*
X948563Y387657D01*
X946939Y391578D01*
X946939Y395822D01*
X948563Y399743D01*
X951564Y402745D01*
X955485Y404369D01*
X974970Y404369D01*
X978891Y402745D01*
X981892Y399743D01*
X983516Y395822D01*
X983516Y391578D01*
X981892Y387657D01*
X978891Y384655D01*
X974970Y383031D01*
X955485Y383031D01*
G37*
%LPD*%
%LPC*%
G36*
X383958Y383031D02*
X383958Y383031D01*
X380037Y384655D01*
X377035Y387657D01*
X375411Y391578D01*
X375411Y395822D01*
X377035Y399743D01*
X380037Y402745D01*
X383958Y404369D01*
X403442Y404369D01*
X407363Y402745D01*
X410365Y399743D01*
X411989Y395822D01*
X411989Y391578D01*
X410365Y387657D01*
X407363Y384655D01*
X403442Y383031D01*
X383958Y383031D01*
G37*
%LPD*%
%LPC*%
G36*
X955485Y408431D02*
X955485Y408431D01*
X951564Y410055D01*
X948563Y413057D01*
X946939Y416978D01*
X946939Y421222D01*
X948563Y425143D01*
X951564Y428145D01*
X955485Y429769D01*
X974970Y429769D01*
X978891Y428145D01*
X981892Y425143D01*
X983516Y421222D01*
X983516Y416978D01*
X981892Y413057D01*
X978891Y410055D01*
X974970Y408431D01*
X955485Y408431D01*
G37*
%LPD*%
%LPC*%
G36*
X383958Y510031D02*
X383958Y510031D01*
X380037Y511655D01*
X377035Y514657D01*
X375411Y518578D01*
X375411Y522822D01*
X377035Y526743D01*
X380037Y529745D01*
X383958Y531369D01*
X403442Y531369D01*
X407363Y529745D01*
X410365Y526743D01*
X411989Y522822D01*
X411989Y518578D01*
X410365Y514657D01*
X407363Y511655D01*
X403442Y510031D01*
X383958Y510031D01*
G37*
%LPD*%
%LPC*%
G36*
X383958Y535431D02*
X383958Y535431D01*
X380037Y537055D01*
X377035Y540057D01*
X375411Y543978D01*
X375411Y548222D01*
X377035Y552143D01*
X380037Y555145D01*
X383958Y556769D01*
X403442Y556769D01*
X407363Y555145D01*
X410365Y552143D01*
X411989Y548222D01*
X411989Y543978D01*
X410365Y540057D01*
X407363Y537055D01*
X403442Y535431D01*
X383958Y535431D01*
G37*
%LPD*%
%LPC*%
G36*
X383958Y484631D02*
X383958Y484631D01*
X380037Y486255D01*
X377035Y489257D01*
X375411Y493178D01*
X375411Y497422D01*
X377035Y501343D01*
X380037Y504345D01*
X383958Y505969D01*
X403442Y505969D01*
X407363Y504345D01*
X410365Y501343D01*
X411989Y497422D01*
X411989Y493178D01*
X410365Y489257D01*
X407363Y486255D01*
X403442Y484631D01*
X383958Y484631D01*
G37*
%LPD*%
%LPC*%
G36*
X383958Y433831D02*
X383958Y433831D01*
X380037Y435455D01*
X377035Y438457D01*
X375411Y442378D01*
X375411Y446622D01*
X377035Y450543D01*
X380037Y453545D01*
X383958Y455169D01*
X403442Y455169D01*
X407363Y453545D01*
X410365Y450543D01*
X411989Y446622D01*
X411989Y442378D01*
X410365Y438457D01*
X407363Y435455D01*
X403442Y433831D01*
X383958Y433831D01*
G37*
%LPD*%
%LPC*%
G36*
X955485Y560831D02*
X955485Y560831D01*
X951564Y562455D01*
X948563Y565457D01*
X946939Y569378D01*
X946939Y573622D01*
X948563Y577543D01*
X951564Y580545D01*
X955485Y582169D01*
X974970Y582169D01*
X978891Y580545D01*
X981892Y577543D01*
X983516Y573622D01*
X983516Y569378D01*
X981892Y565457D01*
X978891Y562455D01*
X974970Y560831D01*
X955485Y560831D01*
G37*
%LPD*%
%LPC*%
G36*
X130054Y967311D02*
X130054Y967311D01*
X126162Y968923D01*
X123183Y971902D01*
X121571Y975794D01*
X121571Y980006D01*
X123183Y983898D01*
X126162Y986877D01*
X130054Y988489D01*
X149346Y988489D01*
X153238Y986877D01*
X156217Y983898D01*
X157829Y980006D01*
X157829Y975794D01*
X156217Y971902D01*
X153238Y968923D01*
X149346Y967311D01*
X130054Y967311D01*
G37*
%LPD*%
%LPC*%
G36*
X631704Y51324D02*
X631704Y51324D01*
X627812Y52936D01*
X624833Y55914D01*
X623221Y59806D01*
X623221Y64019D01*
X624833Y67911D01*
X627812Y70889D01*
X631704Y72501D01*
X650996Y72501D01*
X654888Y70889D01*
X657867Y67911D01*
X659479Y64019D01*
X659479Y59806D01*
X657867Y55914D01*
X654888Y52936D01*
X650996Y51324D01*
X631704Y51324D01*
G37*
%LPD*%
%LPC*%
G36*
X257054Y27511D02*
X257054Y27511D01*
X253162Y29123D01*
X250183Y32102D01*
X248571Y35994D01*
X248571Y40206D01*
X250183Y44098D01*
X253162Y47077D01*
X257054Y48689D01*
X276346Y48689D01*
X280238Y47077D01*
X283217Y44098D01*
X284829Y40206D01*
X284829Y35994D01*
X283217Y32102D01*
X280238Y29123D01*
X276346Y27511D01*
X257054Y27511D01*
G37*
%LPD*%
%LPC*%
G36*
X130054Y941911D02*
X130054Y941911D01*
X126162Y943523D01*
X123183Y946502D01*
X121571Y950394D01*
X121571Y954606D01*
X123183Y958498D01*
X126162Y961477D01*
X130054Y963089D01*
X149346Y963089D01*
X153238Y961477D01*
X156217Y958498D01*
X157829Y954606D01*
X157829Y950394D01*
X156217Y946502D01*
X153238Y943523D01*
X149346Y941911D01*
X130054Y941911D01*
G37*
%LPD*%
%LPC*%
G36*
X130054Y916511D02*
X130054Y916511D01*
X126162Y918123D01*
X123183Y921102D01*
X121571Y924994D01*
X121571Y929206D01*
X123183Y933098D01*
X126162Y936077D01*
X130054Y937689D01*
X149346Y937689D01*
X153238Y936077D01*
X156217Y933098D01*
X157829Y929206D01*
X157829Y924994D01*
X156217Y921102D01*
X153238Y918123D01*
X149346Y916511D01*
X130054Y916511D01*
G37*
%LPD*%
%LPC*%
G36*
X130054Y865711D02*
X130054Y865711D01*
X126162Y867323D01*
X123183Y870302D01*
X121571Y874194D01*
X121571Y878406D01*
X123183Y882298D01*
X126162Y885277D01*
X130054Y886889D01*
X149346Y886889D01*
X153238Y885277D01*
X156217Y882298D01*
X157829Y878406D01*
X157829Y874194D01*
X156217Y870302D01*
X153238Y867323D01*
X149346Y865711D01*
X130054Y865711D01*
G37*
%LPD*%
%LPC*%
G36*
X130054Y840311D02*
X130054Y840311D01*
X126162Y841923D01*
X123183Y844902D01*
X121571Y848794D01*
X121571Y853006D01*
X123183Y856898D01*
X126162Y859877D01*
X130054Y861489D01*
X149346Y861489D01*
X153238Y859877D01*
X156217Y856898D01*
X157829Y853006D01*
X157829Y848794D01*
X156217Y844902D01*
X153238Y841923D01*
X149346Y840311D01*
X130054Y840311D01*
G37*
%LPD*%
%LPC*%
G36*
X130054Y814911D02*
X130054Y814911D01*
X126162Y816523D01*
X123183Y819502D01*
X121571Y823394D01*
X121571Y827606D01*
X123183Y831498D01*
X126162Y834477D01*
X130054Y836089D01*
X149346Y836089D01*
X153238Y834477D01*
X156217Y831498D01*
X157829Y827606D01*
X157829Y823394D01*
X156217Y819502D01*
X153238Y816523D01*
X149346Y814911D01*
X130054Y814911D01*
G37*
%LPD*%
%LPC*%
G36*
X130054Y789511D02*
X130054Y789511D01*
X126162Y791123D01*
X123183Y794102D01*
X121571Y797994D01*
X121571Y802206D01*
X123183Y806098D01*
X126162Y809077D01*
X130054Y810689D01*
X149346Y810689D01*
X153238Y809077D01*
X156217Y806098D01*
X157829Y802206D01*
X157829Y797994D01*
X156217Y794102D01*
X153238Y791123D01*
X149346Y789511D01*
X130054Y789511D01*
G37*
%LPD*%
%LPC*%
G36*
X130054Y751411D02*
X130054Y751411D01*
X126162Y753023D01*
X123183Y756002D01*
X121571Y759894D01*
X121571Y764106D01*
X123183Y767998D01*
X126162Y770977D01*
X130054Y772589D01*
X149346Y772589D01*
X153238Y770977D01*
X156217Y767998D01*
X157829Y764106D01*
X157829Y759894D01*
X156217Y756002D01*
X153238Y753023D01*
X149346Y751411D01*
X130054Y751411D01*
G37*
%LPD*%
%LPC*%
G36*
X130054Y726011D02*
X130054Y726011D01*
X126162Y727623D01*
X123183Y730602D01*
X121571Y734494D01*
X121571Y738706D01*
X123183Y742598D01*
X126162Y745577D01*
X130054Y747189D01*
X149346Y747189D01*
X153238Y745577D01*
X156217Y742598D01*
X157829Y738706D01*
X157829Y734494D01*
X156217Y730602D01*
X153238Y727623D01*
X149346Y726011D01*
X130054Y726011D01*
G37*
%LPD*%
%LPC*%
G36*
X130054Y700611D02*
X130054Y700611D01*
X126162Y702223D01*
X123183Y705202D01*
X121571Y709094D01*
X121571Y713306D01*
X123183Y717198D01*
X126162Y720177D01*
X130054Y721789D01*
X149346Y721789D01*
X153238Y720177D01*
X156217Y717198D01*
X157829Y713306D01*
X157829Y709094D01*
X156217Y705202D01*
X153238Y702223D01*
X149346Y700611D01*
X130054Y700611D01*
G37*
%LPD*%
%LPC*%
G36*
X130054Y675211D02*
X130054Y675211D01*
X126162Y676823D01*
X123183Y679802D01*
X121571Y683694D01*
X121571Y687906D01*
X123183Y691798D01*
X126162Y694777D01*
X130054Y696389D01*
X149346Y696389D01*
X153238Y694777D01*
X156217Y691798D01*
X157829Y687906D01*
X157829Y683694D01*
X156217Y679802D01*
X153238Y676823D01*
X149346Y675211D01*
X130054Y675211D01*
G37*
%LPD*%
%LPC*%
G36*
X130054Y649811D02*
X130054Y649811D01*
X126162Y651423D01*
X123183Y654402D01*
X121571Y658294D01*
X121571Y662506D01*
X123183Y666398D01*
X126162Y669377D01*
X130054Y670989D01*
X149346Y670989D01*
X153238Y669377D01*
X156217Y666398D01*
X157829Y662506D01*
X157829Y658294D01*
X156217Y654402D01*
X153238Y651423D01*
X149346Y649811D01*
X130054Y649811D01*
G37*
%LPD*%
%LPC*%
G36*
X130054Y624411D02*
X130054Y624411D01*
X126162Y626023D01*
X123183Y629002D01*
X121571Y632894D01*
X121571Y637106D01*
X123183Y640998D01*
X126162Y643977D01*
X130054Y645589D01*
X149346Y645589D01*
X153238Y643977D01*
X156217Y640998D01*
X157829Y637106D01*
X157829Y632894D01*
X156217Y629002D01*
X153238Y626023D01*
X149346Y624411D01*
X130054Y624411D01*
G37*
%LPD*%
%LPC*%
G36*
X239194Y585121D02*
X239194Y585121D01*
X235302Y586733D01*
X232323Y589712D01*
X230711Y593604D01*
X230711Y612896D01*
X232323Y616788D01*
X235302Y619767D01*
X239194Y621379D01*
X243406Y621379D01*
X247298Y619767D01*
X250277Y616788D01*
X251889Y612896D01*
X251889Y593604D01*
X250277Y589712D01*
X247298Y586733D01*
X243406Y585121D01*
X239194Y585121D01*
G37*
%LPD*%
%LPC*%
G36*
X315394Y585121D02*
X315394Y585121D01*
X311502Y586733D01*
X308523Y589712D01*
X306911Y593604D01*
X306911Y612896D01*
X308523Y616788D01*
X311502Y619767D01*
X315394Y621379D01*
X319606Y621379D01*
X323498Y619767D01*
X326477Y616788D01*
X328089Y612896D01*
X328089Y593604D01*
X326477Y589712D01*
X323498Y586733D01*
X319606Y585121D01*
X315394Y585121D01*
G37*
%LPD*%
%LPC*%
G36*
X130054Y599011D02*
X130054Y599011D01*
X126162Y600623D01*
X123183Y603602D01*
X121571Y607494D01*
X121571Y611706D01*
X123183Y615598D01*
X126162Y618577D01*
X130054Y620189D01*
X149346Y620189D01*
X153238Y618577D01*
X156217Y615598D01*
X157829Y611706D01*
X157829Y607494D01*
X156217Y603602D01*
X153238Y600623D01*
X149346Y599011D01*
X130054Y599011D01*
G37*
%LPD*%
%LPC*%
G36*
X130054Y573611D02*
X130054Y573611D01*
X126162Y575223D01*
X123183Y578202D01*
X121571Y582094D01*
X121571Y586306D01*
X123183Y590198D01*
X126162Y593177D01*
X130054Y594789D01*
X149346Y594789D01*
X153238Y593177D01*
X156217Y590198D01*
X157829Y586306D01*
X157829Y582094D01*
X156217Y578202D01*
X153238Y575223D01*
X149346Y573611D01*
X130054Y573611D01*
G37*
%LPD*%
%LPC*%
G36*
X130054Y891111D02*
X130054Y891111D01*
X126162Y892723D01*
X123183Y895702D01*
X121571Y899594D01*
X121571Y903806D01*
X123183Y907698D01*
X126162Y910677D01*
X130054Y912289D01*
X149346Y912289D01*
X153238Y910677D01*
X156217Y907698D01*
X157829Y903806D01*
X157829Y899594D01*
X156217Y895702D01*
X153238Y892723D01*
X149346Y891111D01*
X130054Y891111D01*
G37*
%LPD*%
%LPC*%
G36*
X315394Y273971D02*
X315394Y273971D01*
X311502Y275583D01*
X308523Y278562D01*
X306911Y282454D01*
X306911Y301746D01*
X308523Y305638D01*
X311502Y308617D01*
X315394Y310229D01*
X319606Y310229D01*
X323498Y308617D01*
X326477Y305638D01*
X328089Y301746D01*
X328089Y282454D01*
X326477Y278562D01*
X323498Y275583D01*
X319606Y273971D01*
X315394Y273971D01*
G37*
%LPD*%
%LPC*%
G36*
X239194Y273971D02*
X239194Y273971D01*
X235302Y275583D01*
X232323Y278562D01*
X230711Y282454D01*
X230711Y301746D01*
X232323Y305638D01*
X235302Y308617D01*
X239194Y310229D01*
X243406Y310229D01*
X247298Y308617D01*
X250277Y305638D01*
X251889Y301746D01*
X251889Y282454D01*
X250277Y278562D01*
X247298Y275583D01*
X243406Y273971D01*
X239194Y273971D01*
G37*
%LPD*%
%LPC*%
G36*
X607494Y181896D02*
X607494Y181896D01*
X603602Y183508D01*
X600623Y186487D01*
X599011Y190379D01*
X599011Y209671D01*
X600623Y213563D01*
X603602Y216542D01*
X607494Y218154D01*
X611706Y218154D01*
X615598Y216542D01*
X618577Y213563D01*
X620189Y209671D01*
X620189Y190379D01*
X618577Y186487D01*
X615598Y183508D01*
X611706Y181896D01*
X607494Y181896D01*
G37*
%LPD*%
%LPC*%
G36*
X582094Y181896D02*
X582094Y181896D01*
X578202Y183508D01*
X575223Y186487D01*
X573611Y190379D01*
X573611Y209671D01*
X575223Y213563D01*
X578202Y216542D01*
X582094Y218154D01*
X586306Y218154D01*
X590198Y216542D01*
X593177Y213563D01*
X594789Y209671D01*
X594789Y190379D01*
X593177Y186487D01*
X590198Y183508D01*
X586306Y181896D01*
X582094Y181896D01*
G37*
%LPD*%
%LPC*%
G36*
X709094Y181896D02*
X709094Y181896D01*
X705202Y183508D01*
X702223Y186487D01*
X700611Y190379D01*
X700611Y209671D01*
X702223Y213563D01*
X705202Y216542D01*
X709094Y218154D01*
X713306Y218154D01*
X717198Y216542D01*
X720177Y213563D01*
X721789Y209671D01*
X721789Y190379D01*
X720177Y186487D01*
X717198Y183508D01*
X713306Y181896D01*
X709094Y181896D01*
G37*
%LPD*%
%LPC*%
G36*
X734494Y181896D02*
X734494Y181896D01*
X730602Y183508D01*
X727623Y186487D01*
X726011Y190379D01*
X726011Y209671D01*
X727623Y213563D01*
X730602Y216542D01*
X734494Y218154D01*
X738706Y218154D01*
X742598Y216542D01*
X745577Y213563D01*
X747189Y209671D01*
X747189Y190379D01*
X745577Y186487D01*
X742598Y183508D01*
X738706Y181896D01*
X734494Y181896D01*
G37*
%LPD*%
%LPC*%
G36*
X556694Y181896D02*
X556694Y181896D01*
X552802Y183508D01*
X549823Y186487D01*
X548211Y190379D01*
X548211Y209671D01*
X549823Y213563D01*
X552802Y216542D01*
X556694Y218154D01*
X560906Y218154D01*
X564798Y216542D01*
X567777Y213563D01*
X569389Y209671D01*
X569389Y190379D01*
X567777Y186487D01*
X564798Y183508D01*
X560906Y181896D01*
X556694Y181896D01*
G37*
%LPD*%
%LPC*%
G36*
X759894Y181896D02*
X759894Y181896D01*
X756002Y183508D01*
X753023Y186487D01*
X751411Y190379D01*
X751411Y209671D01*
X753023Y213563D01*
X756002Y216542D01*
X759894Y218154D01*
X764106Y218154D01*
X767998Y216542D01*
X770977Y213563D01*
X772589Y209671D01*
X772589Y190379D01*
X770977Y186487D01*
X767998Y183508D01*
X764106Y181896D01*
X759894Y181896D01*
G37*
%LPD*%
%LPC*%
G36*
X810694Y181896D02*
X810694Y181896D01*
X806802Y183508D01*
X803823Y186487D01*
X802211Y190379D01*
X802211Y209671D01*
X803823Y213563D01*
X806802Y216542D01*
X810694Y218154D01*
X814906Y218154D01*
X818798Y216542D01*
X821777Y213563D01*
X823389Y209671D01*
X823389Y190379D01*
X821777Y186487D01*
X818798Y183508D01*
X814906Y181896D01*
X810694Y181896D01*
G37*
%LPD*%
%LPC*%
G36*
X785294Y181896D02*
X785294Y181896D01*
X781402Y183508D01*
X778423Y186487D01*
X776811Y190379D01*
X776811Y209671D01*
X778423Y213563D01*
X781402Y216542D01*
X785294Y218154D01*
X789506Y218154D01*
X793398Y216542D01*
X796377Y213563D01*
X797989Y209671D01*
X797989Y190379D01*
X796377Y186487D01*
X793398Y183508D01*
X789506Y181896D01*
X785294Y181896D01*
G37*
%LPD*%
%LPC*%
G36*
X836094Y181896D02*
X836094Y181896D01*
X832202Y183508D01*
X829223Y186487D01*
X827611Y190379D01*
X827611Y209671D01*
X829223Y213563D01*
X832202Y216542D01*
X836094Y218154D01*
X840306Y218154D01*
X844198Y216542D01*
X847177Y213563D01*
X848789Y209671D01*
X848789Y190379D01*
X847177Y186487D01*
X844198Y183508D01*
X840306Y181896D01*
X836094Y181896D01*
G37*
%LPD*%
%LPC*%
G36*
X683694Y181896D02*
X683694Y181896D01*
X679802Y183508D01*
X676823Y186487D01*
X675211Y190379D01*
X675211Y209671D01*
X676823Y213563D01*
X679802Y216542D01*
X683694Y218154D01*
X687906Y218154D01*
X691798Y216542D01*
X694777Y213563D01*
X696389Y209671D01*
X696389Y190379D01*
X694777Y186487D01*
X691798Y183508D01*
X687906Y181896D01*
X683694Y181896D01*
G37*
%LPD*%
%LPC*%
G36*
X658294Y181896D02*
X658294Y181896D01*
X654402Y183508D01*
X651423Y186487D01*
X649811Y190379D01*
X649811Y209671D01*
X651423Y213563D01*
X654402Y216542D01*
X658294Y218154D01*
X662506Y218154D01*
X666398Y216542D01*
X669377Y213563D01*
X670989Y209671D01*
X670989Y190379D01*
X669377Y186487D01*
X666398Y183508D01*
X662506Y181896D01*
X658294Y181896D01*
G37*
%LPD*%
%LPC*%
G36*
X632894Y181896D02*
X632894Y181896D01*
X629002Y183508D01*
X626023Y186487D01*
X624411Y190379D01*
X624411Y209671D01*
X626023Y213563D01*
X629002Y216542D01*
X632894Y218154D01*
X637106Y218154D01*
X640998Y216542D01*
X643977Y213563D01*
X645589Y209671D01*
X645589Y190379D01*
X643977Y186487D01*
X640998Y183508D01*
X637106Y181896D01*
X632894Y181896D01*
G37*
%LPD*%
%LPC*%
G36*
X720604Y51324D02*
X720604Y51324D01*
X716712Y52936D01*
X713733Y55914D01*
X712121Y59806D01*
X712121Y64019D01*
X713733Y67911D01*
X716712Y70889D01*
X720604Y72501D01*
X739896Y72501D01*
X743788Y70889D01*
X746767Y67911D01*
X748379Y64019D01*
X748379Y59806D01*
X746767Y55914D01*
X743788Y52936D01*
X739896Y51324D01*
X720604Y51324D01*
G37*
%LPD*%
%LPC*%
G36*
X632221Y823104D02*
X632221Y823104D01*
X627086Y825231D01*
X623156Y829161D01*
X621029Y834296D01*
X621029Y839854D01*
X623156Y844989D01*
X627086Y848919D01*
X632221Y851046D01*
X637779Y851046D01*
X642914Y848919D01*
X646844Y844989D01*
X648971Y839854D01*
X648971Y834296D01*
X646844Y829161D01*
X642914Y825231D01*
X637779Y823104D01*
X632221Y823104D01*
G37*
%LPD*%
%LPC*%
G36*
X632221Y858104D02*
X632221Y858104D01*
X627086Y860231D01*
X623156Y864161D01*
X621029Y869296D01*
X621029Y874854D01*
X623156Y879989D01*
X627086Y883919D01*
X632221Y886046D01*
X637779Y886046D01*
X642914Y883919D01*
X646844Y879989D01*
X648971Y874854D01*
X648971Y869296D01*
X646844Y864161D01*
X642914Y860231D01*
X637779Y858104D01*
X632221Y858104D01*
G37*
%LPD*%
%LPC*%
G36*
X632221Y699354D02*
X632221Y699354D01*
X627086Y701481D01*
X623156Y705411D01*
X621029Y710546D01*
X621029Y716104D01*
X623156Y721239D01*
X627086Y725169D01*
X632221Y727296D01*
X637779Y727296D01*
X642914Y725169D01*
X646844Y721239D01*
X648971Y716104D01*
X648971Y710546D01*
X646844Y705411D01*
X642914Y701481D01*
X637779Y699354D01*
X632221Y699354D01*
G37*
%LPD*%
%LPC*%
G36*
X632221Y743729D02*
X632221Y743729D01*
X627086Y745856D01*
X623156Y749786D01*
X621029Y754921D01*
X621029Y760479D01*
X623156Y765614D01*
X627086Y769544D01*
X632221Y771671D01*
X637779Y771671D01*
X642914Y769544D01*
X646844Y765614D01*
X648971Y760479D01*
X648971Y754921D01*
X646844Y749786D01*
X642914Y745856D01*
X637779Y743729D01*
X632221Y743729D01*
G37*
%LPD*%
%LPC*%
G36*
X632221Y778729D02*
X632221Y778729D01*
X627086Y780856D01*
X623156Y784786D01*
X621029Y789921D01*
X621029Y795479D01*
X623156Y800614D01*
X627086Y804544D01*
X632221Y806671D01*
X637779Y806671D01*
X642914Y804544D01*
X646844Y800614D01*
X648971Y795479D01*
X648971Y789921D01*
X646844Y784786D01*
X642914Y780856D01*
X637779Y778729D01*
X632221Y778729D01*
G37*
%LPD*%
%LPC*%
G36*
X759221Y902479D02*
X759221Y902479D01*
X754086Y904606D01*
X750156Y908536D01*
X748029Y913671D01*
X748029Y919229D01*
X750156Y924364D01*
X754086Y928294D01*
X759221Y930421D01*
X764779Y930421D01*
X769914Y928294D01*
X773844Y924364D01*
X775971Y919229D01*
X775971Y913671D01*
X773844Y908536D01*
X769914Y904606D01*
X764779Y902479D01*
X759221Y902479D01*
G37*
%LPD*%
%LPC*%
G36*
X759221Y664354D02*
X759221Y664354D01*
X754086Y666481D01*
X750156Y670411D01*
X748029Y675546D01*
X748029Y681104D01*
X750156Y686239D01*
X754086Y690169D01*
X759221Y692296D01*
X764779Y692296D01*
X769914Y690169D01*
X773844Y686239D01*
X775971Y681104D01*
X775971Y675546D01*
X773844Y670411D01*
X769914Y666481D01*
X764779Y664354D01*
X759221Y664354D01*
G37*
%LPD*%
%LPC*%
G36*
X759221Y743729D02*
X759221Y743729D01*
X754086Y745856D01*
X750156Y749786D01*
X748029Y754921D01*
X748029Y760479D01*
X750156Y765614D01*
X754086Y769544D01*
X759221Y771671D01*
X764779Y771671D01*
X769914Y769544D01*
X773844Y765614D01*
X775971Y760479D01*
X775971Y754921D01*
X773844Y749786D01*
X769914Y745856D01*
X764779Y743729D01*
X759221Y743729D01*
G37*
%LPD*%
%LPC*%
G36*
X632221Y664354D02*
X632221Y664354D01*
X627086Y666481D01*
X623156Y670411D01*
X621029Y675546D01*
X621029Y681104D01*
X623156Y686239D01*
X627086Y690169D01*
X632221Y692296D01*
X637779Y692296D01*
X642914Y690169D01*
X646844Y686239D01*
X648971Y681104D01*
X648971Y675546D01*
X646844Y670411D01*
X642914Y666481D01*
X637779Y664354D01*
X632221Y664354D01*
G37*
%LPD*%
%LPC*%
G36*
X759221Y823104D02*
X759221Y823104D01*
X754086Y825231D01*
X750156Y829161D01*
X748029Y834296D01*
X748029Y839854D01*
X750156Y844989D01*
X754086Y848919D01*
X759221Y851046D01*
X764779Y851046D01*
X769914Y848919D01*
X773844Y844989D01*
X775971Y839854D01*
X775971Y834296D01*
X773844Y829161D01*
X769914Y825231D01*
X764779Y823104D01*
X759221Y823104D01*
G37*
%LPD*%
%LPC*%
G36*
X632221Y937479D02*
X632221Y937479D01*
X627086Y939606D01*
X623156Y943536D01*
X621029Y948671D01*
X621029Y954229D01*
X623156Y959364D01*
X627086Y963294D01*
X632221Y965421D01*
X637779Y965421D01*
X642914Y963294D01*
X646844Y959364D01*
X648971Y954229D01*
X648971Y948671D01*
X646844Y943536D01*
X642914Y939606D01*
X637779Y937479D01*
X632221Y937479D01*
G37*
%LPD*%
%LPC*%
G36*
X632221Y902479D02*
X632221Y902479D01*
X627086Y904606D01*
X623156Y908536D01*
X621029Y913671D01*
X621029Y919229D01*
X623156Y924364D01*
X627086Y928294D01*
X632221Y930421D01*
X637779Y930421D01*
X642914Y928294D01*
X646844Y924364D01*
X648971Y919229D01*
X648971Y913671D01*
X646844Y908536D01*
X642914Y904606D01*
X637779Y902479D01*
X632221Y902479D01*
G37*
%LPD*%
G36*
X460435Y848847D02*
X460435Y848847D01*
X460465Y848846D01*
X460633Y848870D01*
X460802Y848890D01*
X460831Y848899D01*
X460861Y848903D01*
X461021Y848961D01*
X461182Y849014D01*
X461208Y849028D01*
X461236Y849039D01*
X461382Y849127D01*
X461529Y849210D01*
X461552Y849230D01*
X461578Y849246D01*
X461789Y849429D01*
X468196Y855836D01*
X468215Y855860D01*
X468238Y855880D01*
X468341Y856014D01*
X468449Y856146D01*
X468463Y856172D01*
X468481Y856196D01*
X468556Y856349D01*
X468635Y856499D01*
X468643Y856528D01*
X468657Y856555D01*
X468699Y856719D01*
X468747Y856882D01*
X468750Y856912D01*
X468757Y856942D01*
X468767Y857110D01*
X468781Y857280D01*
X468778Y857310D01*
X468779Y857340D01*
X468755Y857508D01*
X468735Y857677D01*
X468726Y857706D01*
X468722Y857736D01*
X468664Y857896D01*
X468611Y858057D01*
X468597Y858083D01*
X468586Y858112D01*
X468498Y858257D01*
X468415Y858404D01*
X468395Y858427D01*
X468379Y858453D01*
X468196Y858664D01*
X461789Y865071D01*
X461765Y865090D01*
X461745Y865113D01*
X461611Y865216D01*
X461479Y865324D01*
X461453Y865338D01*
X461429Y865356D01*
X461276Y865431D01*
X461126Y865510D01*
X461097Y865518D01*
X461070Y865532D01*
X460906Y865574D01*
X460743Y865622D01*
X460713Y865625D01*
X460683Y865632D01*
X460515Y865642D01*
X460345Y865656D01*
X460315Y865653D01*
X460285Y865654D01*
X460117Y865630D01*
X459948Y865610D01*
X459919Y865601D01*
X459889Y865597D01*
X459729Y865539D01*
X459568Y865486D01*
X459542Y865472D01*
X459513Y865461D01*
X459368Y865373D01*
X459221Y865290D01*
X459198Y865270D01*
X459172Y865254D01*
X458961Y865071D01*
X452554Y858664D01*
X452535Y858640D01*
X452512Y858620D01*
X452409Y858486D01*
X452301Y858354D01*
X452287Y858328D01*
X452269Y858304D01*
X452194Y858151D01*
X452115Y858001D01*
X452107Y857972D01*
X452093Y857945D01*
X452051Y857781D01*
X452003Y857618D01*
X452000Y857588D01*
X451993Y857558D01*
X451983Y857390D01*
X451969Y857220D01*
X451972Y857190D01*
X451971Y857160D01*
X451995Y856992D01*
X452015Y856823D01*
X452024Y856794D01*
X452028Y856764D01*
X452086Y856604D01*
X452139Y856443D01*
X452153Y856417D01*
X452164Y856389D01*
X452252Y856243D01*
X452335Y856096D01*
X452355Y856073D01*
X452371Y856047D01*
X452554Y855836D01*
X458961Y849429D01*
X458985Y849410D01*
X459005Y849387D01*
X459139Y849284D01*
X459271Y849176D01*
X459297Y849162D01*
X459321Y849144D01*
X459474Y849069D01*
X459624Y848990D01*
X459653Y848982D01*
X459680Y848968D01*
X459844Y848926D01*
X460007Y848878D01*
X460037Y848875D01*
X460067Y848868D01*
X460235Y848858D01*
X460405Y848844D01*
X460435Y848847D01*
G37*
G36*
X460435Y925047D02*
X460435Y925047D01*
X460465Y925046D01*
X460633Y925070D01*
X460802Y925090D01*
X460831Y925099D01*
X460861Y925103D01*
X461021Y925161D01*
X461182Y925214D01*
X461208Y925228D01*
X461236Y925239D01*
X461382Y925327D01*
X461529Y925410D01*
X461552Y925430D01*
X461578Y925446D01*
X461789Y925629D01*
X468196Y932036D01*
X468215Y932060D01*
X468238Y932080D01*
X468341Y932214D01*
X468449Y932346D01*
X468463Y932372D01*
X468481Y932396D01*
X468556Y932549D01*
X468635Y932699D01*
X468643Y932728D01*
X468657Y932755D01*
X468699Y932919D01*
X468747Y933082D01*
X468750Y933112D01*
X468757Y933142D01*
X468767Y933310D01*
X468781Y933480D01*
X468778Y933510D01*
X468779Y933540D01*
X468755Y933708D01*
X468735Y933877D01*
X468726Y933906D01*
X468722Y933936D01*
X468664Y934096D01*
X468611Y934257D01*
X468597Y934283D01*
X468586Y934312D01*
X468498Y934457D01*
X468415Y934604D01*
X468395Y934627D01*
X468379Y934653D01*
X468196Y934864D01*
X461789Y941271D01*
X461765Y941290D01*
X461745Y941313D01*
X461611Y941416D01*
X461479Y941524D01*
X461453Y941538D01*
X461429Y941556D01*
X461276Y941631D01*
X461126Y941710D01*
X461097Y941718D01*
X461070Y941732D01*
X460906Y941774D01*
X460743Y941822D01*
X460713Y941825D01*
X460683Y941832D01*
X460515Y941842D01*
X460345Y941856D01*
X460315Y941853D01*
X460285Y941854D01*
X460117Y941830D01*
X459948Y941810D01*
X459919Y941801D01*
X459889Y941797D01*
X459729Y941739D01*
X459568Y941686D01*
X459542Y941672D01*
X459513Y941661D01*
X459368Y941573D01*
X459221Y941490D01*
X459198Y941470D01*
X459172Y941454D01*
X458961Y941271D01*
X452554Y934864D01*
X452535Y934840D01*
X452512Y934820D01*
X452409Y934686D01*
X452301Y934554D01*
X452287Y934528D01*
X452269Y934504D01*
X452194Y934351D01*
X452115Y934201D01*
X452107Y934172D01*
X452093Y934145D01*
X452051Y933981D01*
X452003Y933818D01*
X452000Y933788D01*
X451993Y933758D01*
X451983Y933590D01*
X451969Y933420D01*
X451972Y933390D01*
X451971Y933360D01*
X451995Y933192D01*
X452015Y933023D01*
X452024Y932994D01*
X452028Y932964D01*
X452086Y932804D01*
X452139Y932643D01*
X452153Y932617D01*
X452164Y932589D01*
X452252Y932443D01*
X452335Y932296D01*
X452355Y932273D01*
X452371Y932247D01*
X452554Y932036D01*
X458961Y925629D01*
X458985Y925610D01*
X459005Y925587D01*
X459139Y925484D01*
X459271Y925376D01*
X459297Y925362D01*
X459321Y925344D01*
X459474Y925269D01*
X459624Y925190D01*
X459653Y925182D01*
X459680Y925168D01*
X459844Y925126D01*
X460007Y925078D01*
X460037Y925075D01*
X460067Y925068D01*
X460235Y925058D01*
X460405Y925044D01*
X460435Y925047D01*
G37*
G36*
X460435Y772647D02*
X460435Y772647D01*
X460465Y772646D01*
X460633Y772670D01*
X460802Y772690D01*
X460831Y772699D01*
X460861Y772703D01*
X461021Y772761D01*
X461182Y772814D01*
X461208Y772828D01*
X461236Y772839D01*
X461382Y772927D01*
X461529Y773010D01*
X461552Y773030D01*
X461578Y773046D01*
X461789Y773229D01*
X468196Y779636D01*
X468215Y779660D01*
X468238Y779680D01*
X468341Y779814D01*
X468449Y779946D01*
X468463Y779972D01*
X468481Y779996D01*
X468556Y780149D01*
X468635Y780299D01*
X468643Y780328D01*
X468657Y780355D01*
X468699Y780519D01*
X468747Y780682D01*
X468750Y780712D01*
X468757Y780742D01*
X468767Y780910D01*
X468781Y781080D01*
X468778Y781110D01*
X468779Y781140D01*
X468755Y781308D01*
X468735Y781477D01*
X468726Y781506D01*
X468722Y781536D01*
X468664Y781696D01*
X468611Y781857D01*
X468597Y781883D01*
X468586Y781912D01*
X468498Y782057D01*
X468415Y782204D01*
X468395Y782227D01*
X468379Y782253D01*
X468196Y782464D01*
X461789Y788871D01*
X461765Y788890D01*
X461745Y788913D01*
X461611Y789016D01*
X461479Y789124D01*
X461453Y789138D01*
X461429Y789156D01*
X461276Y789231D01*
X461126Y789310D01*
X461097Y789318D01*
X461070Y789332D01*
X460906Y789374D01*
X460743Y789422D01*
X460713Y789425D01*
X460683Y789432D01*
X460515Y789442D01*
X460345Y789456D01*
X460315Y789453D01*
X460285Y789454D01*
X460117Y789430D01*
X459948Y789410D01*
X459919Y789401D01*
X459889Y789397D01*
X459729Y789339D01*
X459568Y789286D01*
X459542Y789272D01*
X459513Y789261D01*
X459368Y789173D01*
X459221Y789090D01*
X459198Y789070D01*
X459172Y789054D01*
X458961Y788871D01*
X452554Y782464D01*
X452535Y782440D01*
X452512Y782420D01*
X452409Y782286D01*
X452301Y782154D01*
X452287Y782128D01*
X452269Y782104D01*
X452194Y781951D01*
X452115Y781801D01*
X452107Y781772D01*
X452093Y781745D01*
X452051Y781581D01*
X452003Y781418D01*
X452000Y781388D01*
X451993Y781358D01*
X451983Y781190D01*
X451969Y781020D01*
X451972Y780990D01*
X451971Y780960D01*
X451995Y780792D01*
X452015Y780623D01*
X452024Y780594D01*
X452028Y780564D01*
X452086Y780404D01*
X452139Y780243D01*
X452153Y780217D01*
X452164Y780189D01*
X452252Y780043D01*
X452335Y779896D01*
X452355Y779873D01*
X452371Y779847D01*
X452554Y779636D01*
X458961Y773229D01*
X458985Y773210D01*
X459005Y773187D01*
X459139Y773084D01*
X459271Y772976D01*
X459297Y772962D01*
X459321Y772944D01*
X459474Y772869D01*
X459624Y772790D01*
X459653Y772782D01*
X459680Y772768D01*
X459844Y772726D01*
X460007Y772678D01*
X460037Y772675D01*
X460067Y772668D01*
X460235Y772658D01*
X460405Y772644D01*
X460435Y772647D01*
G37*
G36*
X460435Y798047D02*
X460435Y798047D01*
X460465Y798046D01*
X460633Y798070D01*
X460802Y798090D01*
X460831Y798099D01*
X460861Y798103D01*
X461021Y798161D01*
X461182Y798214D01*
X461208Y798228D01*
X461236Y798239D01*
X461382Y798327D01*
X461529Y798410D01*
X461552Y798430D01*
X461578Y798446D01*
X461789Y798629D01*
X468196Y805036D01*
X468215Y805060D01*
X468238Y805080D01*
X468341Y805214D01*
X468449Y805346D01*
X468463Y805372D01*
X468481Y805396D01*
X468556Y805549D01*
X468635Y805699D01*
X468643Y805728D01*
X468657Y805755D01*
X468699Y805919D01*
X468747Y806082D01*
X468750Y806112D01*
X468757Y806142D01*
X468767Y806310D01*
X468781Y806480D01*
X468778Y806510D01*
X468779Y806540D01*
X468755Y806708D01*
X468735Y806877D01*
X468726Y806906D01*
X468722Y806936D01*
X468664Y807096D01*
X468611Y807257D01*
X468597Y807283D01*
X468586Y807312D01*
X468498Y807457D01*
X468415Y807604D01*
X468395Y807627D01*
X468379Y807653D01*
X468196Y807864D01*
X461789Y814271D01*
X461765Y814290D01*
X461745Y814313D01*
X461611Y814416D01*
X461479Y814524D01*
X461453Y814538D01*
X461429Y814556D01*
X461276Y814631D01*
X461126Y814710D01*
X461097Y814718D01*
X461070Y814732D01*
X460906Y814774D01*
X460743Y814822D01*
X460713Y814825D01*
X460683Y814832D01*
X460515Y814842D01*
X460345Y814856D01*
X460315Y814853D01*
X460285Y814854D01*
X460117Y814830D01*
X459948Y814810D01*
X459919Y814801D01*
X459889Y814797D01*
X459729Y814739D01*
X459568Y814686D01*
X459542Y814672D01*
X459513Y814661D01*
X459368Y814573D01*
X459221Y814490D01*
X459198Y814470D01*
X459172Y814454D01*
X458961Y814271D01*
X452554Y807864D01*
X452535Y807840D01*
X452512Y807820D01*
X452409Y807686D01*
X452301Y807554D01*
X452287Y807528D01*
X452269Y807504D01*
X452194Y807351D01*
X452115Y807201D01*
X452107Y807172D01*
X452093Y807145D01*
X452051Y806981D01*
X452003Y806818D01*
X452000Y806788D01*
X451993Y806758D01*
X451983Y806590D01*
X451969Y806420D01*
X451972Y806390D01*
X451971Y806360D01*
X451995Y806192D01*
X452015Y806023D01*
X452024Y805994D01*
X452028Y805964D01*
X452086Y805804D01*
X452139Y805643D01*
X452153Y805617D01*
X452164Y805589D01*
X452252Y805443D01*
X452335Y805296D01*
X452355Y805273D01*
X452371Y805247D01*
X452554Y805036D01*
X458961Y798629D01*
X458985Y798610D01*
X459005Y798587D01*
X459139Y798484D01*
X459271Y798376D01*
X459297Y798362D01*
X459321Y798344D01*
X459474Y798269D01*
X459624Y798190D01*
X459653Y798182D01*
X459680Y798168D01*
X459844Y798126D01*
X460007Y798078D01*
X460037Y798075D01*
X460067Y798068D01*
X460235Y798058D01*
X460405Y798044D01*
X460435Y798047D01*
G37*
G36*
X460435Y823447D02*
X460435Y823447D01*
X460465Y823446D01*
X460633Y823470D01*
X460802Y823490D01*
X460831Y823499D01*
X460861Y823503D01*
X461021Y823561D01*
X461182Y823614D01*
X461208Y823628D01*
X461236Y823639D01*
X461382Y823727D01*
X461529Y823810D01*
X461552Y823830D01*
X461578Y823846D01*
X461789Y824029D01*
X468196Y830436D01*
X468215Y830460D01*
X468238Y830480D01*
X468341Y830614D01*
X468449Y830746D01*
X468463Y830772D01*
X468481Y830796D01*
X468556Y830949D01*
X468635Y831099D01*
X468643Y831128D01*
X468657Y831155D01*
X468699Y831319D01*
X468747Y831482D01*
X468750Y831512D01*
X468757Y831542D01*
X468767Y831710D01*
X468781Y831880D01*
X468778Y831910D01*
X468779Y831940D01*
X468755Y832108D01*
X468735Y832277D01*
X468726Y832306D01*
X468722Y832336D01*
X468664Y832496D01*
X468611Y832657D01*
X468597Y832683D01*
X468586Y832712D01*
X468498Y832857D01*
X468415Y833004D01*
X468395Y833027D01*
X468379Y833053D01*
X468196Y833264D01*
X461789Y839671D01*
X461765Y839690D01*
X461745Y839713D01*
X461611Y839816D01*
X461479Y839924D01*
X461453Y839938D01*
X461429Y839956D01*
X461276Y840031D01*
X461126Y840110D01*
X461097Y840118D01*
X461070Y840132D01*
X460906Y840174D01*
X460743Y840222D01*
X460713Y840225D01*
X460683Y840232D01*
X460515Y840242D01*
X460345Y840256D01*
X460315Y840253D01*
X460285Y840254D01*
X460117Y840230D01*
X459948Y840210D01*
X459919Y840201D01*
X459889Y840197D01*
X459729Y840139D01*
X459568Y840086D01*
X459542Y840072D01*
X459513Y840061D01*
X459368Y839973D01*
X459221Y839890D01*
X459198Y839870D01*
X459172Y839854D01*
X458961Y839671D01*
X452554Y833264D01*
X452535Y833240D01*
X452512Y833220D01*
X452409Y833086D01*
X452301Y832954D01*
X452287Y832928D01*
X452269Y832904D01*
X452194Y832751D01*
X452115Y832601D01*
X452107Y832572D01*
X452093Y832545D01*
X452051Y832381D01*
X452003Y832218D01*
X452000Y832188D01*
X451993Y832158D01*
X451983Y831990D01*
X451969Y831820D01*
X451972Y831790D01*
X451971Y831760D01*
X451995Y831592D01*
X452015Y831423D01*
X452024Y831394D01*
X452028Y831364D01*
X452086Y831204D01*
X452139Y831043D01*
X452153Y831017D01*
X452164Y830989D01*
X452252Y830843D01*
X452335Y830696D01*
X452355Y830673D01*
X452371Y830647D01*
X452554Y830436D01*
X458961Y824029D01*
X458985Y824010D01*
X459005Y823987D01*
X459139Y823884D01*
X459271Y823776D01*
X459297Y823762D01*
X459321Y823744D01*
X459474Y823669D01*
X459624Y823590D01*
X459653Y823582D01*
X459680Y823568D01*
X459844Y823526D01*
X460007Y823478D01*
X460037Y823475D01*
X460067Y823468D01*
X460235Y823458D01*
X460405Y823444D01*
X460435Y823447D01*
G37*
G36*
X527110Y645647D02*
X527110Y645647D01*
X527140Y645646D01*
X527308Y645670D01*
X527477Y645690D01*
X527506Y645699D01*
X527536Y645703D01*
X527696Y645761D01*
X527857Y645814D01*
X527883Y645828D01*
X527911Y645839D01*
X528057Y645927D01*
X528204Y646010D01*
X528227Y646030D01*
X528253Y646046D01*
X528464Y646229D01*
X534871Y652636D01*
X534890Y652660D01*
X534913Y652680D01*
X535016Y652814D01*
X535124Y652946D01*
X535138Y652972D01*
X535156Y652996D01*
X535231Y653149D01*
X535310Y653299D01*
X535318Y653328D01*
X535332Y653355D01*
X535374Y653519D01*
X535422Y653682D01*
X535425Y653712D01*
X535432Y653742D01*
X535442Y653910D01*
X535456Y654080D01*
X535453Y654110D01*
X535454Y654140D01*
X535430Y654308D01*
X535410Y654477D01*
X535401Y654506D01*
X535397Y654536D01*
X535339Y654696D01*
X535286Y654857D01*
X535272Y654883D01*
X535261Y654912D01*
X535173Y655057D01*
X535090Y655204D01*
X535070Y655227D01*
X535054Y655253D01*
X534871Y655464D01*
X528464Y661871D01*
X528440Y661890D01*
X528420Y661913D01*
X528286Y662016D01*
X528154Y662124D01*
X528128Y662138D01*
X528104Y662156D01*
X527951Y662231D01*
X527801Y662310D01*
X527772Y662318D01*
X527745Y662332D01*
X527581Y662374D01*
X527418Y662422D01*
X527388Y662425D01*
X527358Y662432D01*
X527190Y662442D01*
X527020Y662456D01*
X526990Y662453D01*
X526960Y662454D01*
X526792Y662430D01*
X526623Y662410D01*
X526594Y662401D01*
X526564Y662397D01*
X526404Y662339D01*
X526243Y662286D01*
X526217Y662272D01*
X526188Y662261D01*
X526043Y662173D01*
X525896Y662090D01*
X525873Y662070D01*
X525847Y662054D01*
X525636Y661871D01*
X519229Y655464D01*
X519210Y655440D01*
X519187Y655420D01*
X519084Y655286D01*
X518976Y655154D01*
X518962Y655128D01*
X518944Y655104D01*
X518869Y654951D01*
X518790Y654801D01*
X518782Y654772D01*
X518768Y654745D01*
X518726Y654581D01*
X518678Y654418D01*
X518675Y654388D01*
X518668Y654358D01*
X518658Y654190D01*
X518644Y654020D01*
X518647Y653990D01*
X518646Y653960D01*
X518670Y653792D01*
X518690Y653623D01*
X518699Y653594D01*
X518703Y653564D01*
X518761Y653404D01*
X518814Y653243D01*
X518828Y653217D01*
X518839Y653189D01*
X518927Y653043D01*
X519010Y652896D01*
X519030Y652873D01*
X519046Y652847D01*
X519229Y652636D01*
X525636Y646229D01*
X525660Y646210D01*
X525680Y646187D01*
X525814Y646084D01*
X525946Y645976D01*
X525972Y645962D01*
X525996Y645944D01*
X526149Y645869D01*
X526299Y645790D01*
X526328Y645782D01*
X526355Y645768D01*
X526519Y645726D01*
X526682Y645678D01*
X526712Y645675D01*
X526742Y645668D01*
X526910Y645658D01*
X527080Y645644D01*
X527110Y645647D01*
G37*
G36*
X460435Y874247D02*
X460435Y874247D01*
X460465Y874246D01*
X460633Y874270D01*
X460802Y874290D01*
X460831Y874299D01*
X460861Y874303D01*
X461021Y874361D01*
X461182Y874414D01*
X461208Y874428D01*
X461236Y874439D01*
X461382Y874527D01*
X461529Y874610D01*
X461552Y874630D01*
X461578Y874646D01*
X461789Y874829D01*
X468196Y881236D01*
X468215Y881260D01*
X468238Y881280D01*
X468341Y881414D01*
X468449Y881546D01*
X468463Y881572D01*
X468481Y881596D01*
X468556Y881749D01*
X468635Y881899D01*
X468643Y881928D01*
X468657Y881955D01*
X468699Y882119D01*
X468747Y882282D01*
X468750Y882312D01*
X468757Y882342D01*
X468767Y882510D01*
X468781Y882680D01*
X468778Y882710D01*
X468779Y882740D01*
X468755Y882908D01*
X468735Y883077D01*
X468726Y883106D01*
X468722Y883136D01*
X468664Y883296D01*
X468611Y883457D01*
X468597Y883483D01*
X468586Y883512D01*
X468498Y883657D01*
X468415Y883804D01*
X468395Y883827D01*
X468379Y883853D01*
X468196Y884064D01*
X461789Y890471D01*
X461765Y890490D01*
X461745Y890513D01*
X461611Y890616D01*
X461479Y890724D01*
X461453Y890738D01*
X461429Y890756D01*
X461276Y890831D01*
X461126Y890910D01*
X461097Y890918D01*
X461070Y890932D01*
X460906Y890974D01*
X460743Y891022D01*
X460713Y891025D01*
X460683Y891032D01*
X460515Y891042D01*
X460345Y891056D01*
X460315Y891053D01*
X460285Y891054D01*
X460117Y891030D01*
X459948Y891010D01*
X459919Y891001D01*
X459889Y890997D01*
X459729Y890939D01*
X459568Y890886D01*
X459542Y890872D01*
X459513Y890861D01*
X459368Y890773D01*
X459221Y890690D01*
X459198Y890670D01*
X459172Y890654D01*
X458961Y890471D01*
X452554Y884064D01*
X452535Y884040D01*
X452512Y884020D01*
X452409Y883886D01*
X452301Y883754D01*
X452287Y883728D01*
X452269Y883704D01*
X452194Y883551D01*
X452115Y883401D01*
X452107Y883372D01*
X452093Y883345D01*
X452051Y883181D01*
X452003Y883018D01*
X452000Y882988D01*
X451993Y882958D01*
X451983Y882790D01*
X451969Y882620D01*
X451972Y882590D01*
X451971Y882560D01*
X451995Y882392D01*
X452015Y882223D01*
X452024Y882194D01*
X452028Y882164D01*
X452086Y882004D01*
X452139Y881843D01*
X452153Y881817D01*
X452164Y881789D01*
X452252Y881643D01*
X452335Y881496D01*
X452355Y881473D01*
X452371Y881447D01*
X452554Y881236D01*
X458961Y874829D01*
X458985Y874810D01*
X459005Y874787D01*
X459139Y874684D01*
X459271Y874576D01*
X459297Y874562D01*
X459321Y874544D01*
X459474Y874469D01*
X459624Y874390D01*
X459653Y874382D01*
X459680Y874368D01*
X459844Y874326D01*
X460007Y874278D01*
X460037Y874275D01*
X460067Y874268D01*
X460235Y874258D01*
X460405Y874244D01*
X460435Y874247D01*
G37*
G36*
X460435Y645647D02*
X460435Y645647D01*
X460465Y645646D01*
X460633Y645670D01*
X460802Y645690D01*
X460831Y645699D01*
X460861Y645703D01*
X461021Y645761D01*
X461182Y645814D01*
X461208Y645828D01*
X461236Y645839D01*
X461382Y645927D01*
X461529Y646010D01*
X461552Y646030D01*
X461578Y646046D01*
X461789Y646229D01*
X468196Y652636D01*
X468215Y652660D01*
X468238Y652680D01*
X468341Y652814D01*
X468449Y652946D01*
X468463Y652972D01*
X468481Y652996D01*
X468556Y653149D01*
X468635Y653299D01*
X468643Y653328D01*
X468657Y653355D01*
X468699Y653519D01*
X468747Y653682D01*
X468750Y653712D01*
X468757Y653742D01*
X468767Y653910D01*
X468781Y654080D01*
X468778Y654110D01*
X468779Y654140D01*
X468755Y654308D01*
X468735Y654477D01*
X468726Y654506D01*
X468722Y654536D01*
X468664Y654696D01*
X468611Y654857D01*
X468597Y654883D01*
X468586Y654912D01*
X468498Y655057D01*
X468415Y655204D01*
X468395Y655227D01*
X468379Y655253D01*
X468196Y655464D01*
X461789Y661871D01*
X461765Y661890D01*
X461745Y661913D01*
X461611Y662016D01*
X461479Y662124D01*
X461453Y662138D01*
X461429Y662156D01*
X461276Y662231D01*
X461126Y662310D01*
X461097Y662318D01*
X461070Y662332D01*
X460906Y662374D01*
X460743Y662422D01*
X460713Y662425D01*
X460683Y662432D01*
X460515Y662442D01*
X460345Y662456D01*
X460315Y662453D01*
X460285Y662454D01*
X460117Y662430D01*
X459948Y662410D01*
X459919Y662401D01*
X459889Y662397D01*
X459729Y662339D01*
X459568Y662286D01*
X459542Y662272D01*
X459513Y662261D01*
X459368Y662173D01*
X459221Y662090D01*
X459198Y662070D01*
X459172Y662054D01*
X458961Y661871D01*
X452554Y655464D01*
X452535Y655440D01*
X452512Y655420D01*
X452409Y655286D01*
X452301Y655154D01*
X452287Y655128D01*
X452269Y655104D01*
X452194Y654951D01*
X452115Y654801D01*
X452107Y654772D01*
X452093Y654745D01*
X452051Y654581D01*
X452003Y654418D01*
X452000Y654388D01*
X451993Y654358D01*
X451983Y654190D01*
X451969Y654020D01*
X451972Y653990D01*
X451971Y653960D01*
X451995Y653792D01*
X452015Y653623D01*
X452024Y653594D01*
X452028Y653564D01*
X452086Y653404D01*
X452139Y653243D01*
X452153Y653217D01*
X452164Y653189D01*
X452252Y653043D01*
X452335Y652896D01*
X452355Y652873D01*
X452371Y652847D01*
X452554Y652636D01*
X458961Y646229D01*
X458985Y646210D01*
X459005Y646187D01*
X459139Y646084D01*
X459271Y645976D01*
X459297Y645962D01*
X459321Y645944D01*
X459474Y645869D01*
X459624Y645790D01*
X459653Y645782D01*
X459680Y645768D01*
X459844Y645726D01*
X460007Y645678D01*
X460037Y645675D01*
X460067Y645668D01*
X460235Y645658D01*
X460405Y645644D01*
X460435Y645647D01*
G37*
G36*
X527110Y671047D02*
X527110Y671047D01*
X527140Y671046D01*
X527308Y671070D01*
X527477Y671090D01*
X527506Y671099D01*
X527536Y671103D01*
X527696Y671161D01*
X527857Y671214D01*
X527883Y671228D01*
X527911Y671239D01*
X528057Y671327D01*
X528204Y671410D01*
X528227Y671430D01*
X528253Y671446D01*
X528464Y671629D01*
X534871Y678036D01*
X534890Y678060D01*
X534913Y678080D01*
X535016Y678214D01*
X535124Y678346D01*
X535138Y678372D01*
X535156Y678396D01*
X535231Y678549D01*
X535310Y678699D01*
X535318Y678728D01*
X535332Y678755D01*
X535374Y678919D01*
X535422Y679082D01*
X535425Y679112D01*
X535432Y679142D01*
X535442Y679310D01*
X535456Y679480D01*
X535453Y679510D01*
X535454Y679540D01*
X535430Y679708D01*
X535410Y679877D01*
X535401Y679906D01*
X535397Y679936D01*
X535339Y680096D01*
X535286Y680257D01*
X535272Y680283D01*
X535261Y680312D01*
X535173Y680457D01*
X535090Y680604D01*
X535070Y680627D01*
X535054Y680653D01*
X534871Y680864D01*
X528464Y687271D01*
X528440Y687290D01*
X528420Y687313D01*
X528286Y687416D01*
X528154Y687524D01*
X528128Y687538D01*
X528104Y687556D01*
X527951Y687631D01*
X527801Y687710D01*
X527772Y687718D01*
X527745Y687732D01*
X527581Y687774D01*
X527418Y687822D01*
X527388Y687825D01*
X527358Y687832D01*
X527190Y687842D01*
X527020Y687856D01*
X526990Y687853D01*
X526960Y687854D01*
X526792Y687830D01*
X526623Y687810D01*
X526594Y687801D01*
X526564Y687797D01*
X526404Y687739D01*
X526243Y687686D01*
X526217Y687672D01*
X526188Y687661D01*
X526043Y687573D01*
X525896Y687490D01*
X525873Y687470D01*
X525847Y687454D01*
X525636Y687271D01*
X519229Y680864D01*
X519210Y680840D01*
X519187Y680820D01*
X519084Y680686D01*
X518976Y680554D01*
X518962Y680528D01*
X518944Y680504D01*
X518869Y680351D01*
X518790Y680201D01*
X518782Y680172D01*
X518768Y680145D01*
X518726Y679981D01*
X518678Y679818D01*
X518675Y679788D01*
X518668Y679758D01*
X518658Y679590D01*
X518644Y679420D01*
X518647Y679390D01*
X518646Y679360D01*
X518670Y679192D01*
X518690Y679023D01*
X518699Y678994D01*
X518703Y678964D01*
X518761Y678804D01*
X518814Y678643D01*
X518828Y678617D01*
X518839Y678589D01*
X518927Y678443D01*
X519010Y678296D01*
X519030Y678273D01*
X519046Y678247D01*
X519229Y678036D01*
X525636Y671629D01*
X525660Y671610D01*
X525680Y671587D01*
X525814Y671484D01*
X525946Y671376D01*
X525972Y671362D01*
X525996Y671344D01*
X526149Y671269D01*
X526299Y671190D01*
X526328Y671182D01*
X526355Y671168D01*
X526519Y671126D01*
X526682Y671078D01*
X526712Y671075D01*
X526742Y671068D01*
X526910Y671058D01*
X527080Y671044D01*
X527110Y671047D01*
G37*
G36*
X460435Y721847D02*
X460435Y721847D01*
X460465Y721846D01*
X460633Y721870D01*
X460802Y721890D01*
X460831Y721899D01*
X460861Y721903D01*
X461021Y721961D01*
X461182Y722014D01*
X461208Y722028D01*
X461236Y722039D01*
X461382Y722127D01*
X461529Y722210D01*
X461552Y722230D01*
X461578Y722246D01*
X461789Y722429D01*
X468196Y728836D01*
X468215Y728860D01*
X468238Y728880D01*
X468341Y729014D01*
X468449Y729146D01*
X468463Y729172D01*
X468481Y729196D01*
X468556Y729349D01*
X468635Y729499D01*
X468643Y729528D01*
X468657Y729555D01*
X468699Y729719D01*
X468747Y729882D01*
X468750Y729912D01*
X468757Y729942D01*
X468767Y730110D01*
X468781Y730280D01*
X468778Y730310D01*
X468779Y730340D01*
X468755Y730508D01*
X468735Y730677D01*
X468726Y730706D01*
X468722Y730736D01*
X468664Y730896D01*
X468611Y731057D01*
X468597Y731083D01*
X468586Y731112D01*
X468498Y731257D01*
X468415Y731404D01*
X468395Y731427D01*
X468379Y731453D01*
X468196Y731664D01*
X461789Y738071D01*
X461765Y738090D01*
X461745Y738113D01*
X461611Y738216D01*
X461479Y738324D01*
X461453Y738338D01*
X461429Y738356D01*
X461276Y738431D01*
X461126Y738510D01*
X461097Y738518D01*
X461070Y738532D01*
X460906Y738574D01*
X460743Y738622D01*
X460713Y738625D01*
X460683Y738632D01*
X460515Y738642D01*
X460345Y738656D01*
X460315Y738653D01*
X460285Y738654D01*
X460117Y738630D01*
X459948Y738610D01*
X459919Y738601D01*
X459889Y738597D01*
X459729Y738539D01*
X459568Y738486D01*
X459542Y738472D01*
X459513Y738461D01*
X459368Y738373D01*
X459221Y738290D01*
X459198Y738270D01*
X459172Y738254D01*
X458961Y738071D01*
X452554Y731664D01*
X452535Y731640D01*
X452512Y731620D01*
X452409Y731486D01*
X452301Y731354D01*
X452287Y731328D01*
X452269Y731304D01*
X452194Y731151D01*
X452115Y731001D01*
X452107Y730972D01*
X452093Y730945D01*
X452051Y730781D01*
X452003Y730618D01*
X452000Y730588D01*
X451993Y730558D01*
X451983Y730390D01*
X451969Y730220D01*
X451972Y730190D01*
X451971Y730160D01*
X451995Y729992D01*
X452015Y729823D01*
X452024Y729794D01*
X452028Y729764D01*
X452086Y729604D01*
X452139Y729443D01*
X452153Y729417D01*
X452164Y729389D01*
X452252Y729243D01*
X452335Y729096D01*
X452355Y729073D01*
X452371Y729047D01*
X452554Y728836D01*
X458961Y722429D01*
X458985Y722410D01*
X459005Y722387D01*
X459139Y722284D01*
X459271Y722176D01*
X459297Y722162D01*
X459321Y722144D01*
X459474Y722069D01*
X459624Y721990D01*
X459653Y721982D01*
X459680Y721968D01*
X459844Y721926D01*
X460007Y721878D01*
X460037Y721875D01*
X460067Y721868D01*
X460235Y721858D01*
X460405Y721844D01*
X460435Y721847D01*
G37*
G36*
X527110Y696447D02*
X527110Y696447D01*
X527140Y696446D01*
X527308Y696470D01*
X527477Y696490D01*
X527506Y696499D01*
X527536Y696503D01*
X527696Y696561D01*
X527857Y696614D01*
X527883Y696628D01*
X527911Y696639D01*
X528057Y696727D01*
X528204Y696810D01*
X528227Y696830D01*
X528253Y696846D01*
X528464Y697029D01*
X534871Y703436D01*
X534890Y703460D01*
X534913Y703480D01*
X535016Y703614D01*
X535124Y703746D01*
X535138Y703772D01*
X535156Y703796D01*
X535231Y703949D01*
X535310Y704099D01*
X535318Y704128D01*
X535332Y704155D01*
X535374Y704319D01*
X535422Y704482D01*
X535425Y704512D01*
X535432Y704542D01*
X535442Y704710D01*
X535456Y704880D01*
X535453Y704910D01*
X535454Y704940D01*
X535430Y705108D01*
X535410Y705277D01*
X535401Y705306D01*
X535397Y705336D01*
X535339Y705496D01*
X535286Y705657D01*
X535272Y705683D01*
X535261Y705712D01*
X535173Y705857D01*
X535090Y706004D01*
X535070Y706027D01*
X535054Y706053D01*
X534871Y706264D01*
X528464Y712671D01*
X528440Y712690D01*
X528420Y712713D01*
X528286Y712816D01*
X528154Y712924D01*
X528128Y712938D01*
X528104Y712956D01*
X527951Y713031D01*
X527801Y713110D01*
X527772Y713118D01*
X527745Y713132D01*
X527581Y713174D01*
X527418Y713222D01*
X527388Y713225D01*
X527358Y713232D01*
X527190Y713242D01*
X527020Y713256D01*
X526990Y713253D01*
X526960Y713254D01*
X526792Y713230D01*
X526623Y713210D01*
X526594Y713201D01*
X526564Y713197D01*
X526404Y713139D01*
X526243Y713086D01*
X526217Y713072D01*
X526188Y713061D01*
X526043Y712973D01*
X525896Y712890D01*
X525873Y712870D01*
X525847Y712854D01*
X525636Y712671D01*
X519229Y706264D01*
X519210Y706240D01*
X519187Y706220D01*
X519084Y706086D01*
X518976Y705954D01*
X518962Y705928D01*
X518944Y705904D01*
X518869Y705751D01*
X518790Y705601D01*
X518782Y705572D01*
X518768Y705545D01*
X518726Y705381D01*
X518678Y705218D01*
X518675Y705188D01*
X518668Y705158D01*
X518658Y704990D01*
X518644Y704820D01*
X518647Y704790D01*
X518646Y704760D01*
X518670Y704592D01*
X518690Y704423D01*
X518699Y704394D01*
X518703Y704364D01*
X518761Y704204D01*
X518814Y704043D01*
X518828Y704017D01*
X518839Y703989D01*
X518927Y703843D01*
X519010Y703696D01*
X519030Y703673D01*
X519046Y703647D01*
X519229Y703436D01*
X525636Y697029D01*
X525660Y697010D01*
X525680Y696987D01*
X525814Y696884D01*
X525946Y696776D01*
X525972Y696762D01*
X525996Y696744D01*
X526149Y696669D01*
X526299Y696590D01*
X526328Y696582D01*
X526355Y696568D01*
X526519Y696526D01*
X526682Y696478D01*
X526712Y696475D01*
X526742Y696468D01*
X526910Y696458D01*
X527080Y696444D01*
X527110Y696447D01*
G37*
G36*
X460435Y696447D02*
X460435Y696447D01*
X460465Y696446D01*
X460633Y696470D01*
X460802Y696490D01*
X460831Y696499D01*
X460861Y696503D01*
X461021Y696561D01*
X461182Y696614D01*
X461208Y696628D01*
X461236Y696639D01*
X461382Y696727D01*
X461529Y696810D01*
X461552Y696830D01*
X461578Y696846D01*
X461789Y697029D01*
X468196Y703436D01*
X468215Y703460D01*
X468238Y703480D01*
X468341Y703614D01*
X468449Y703746D01*
X468463Y703772D01*
X468481Y703796D01*
X468556Y703949D01*
X468635Y704099D01*
X468643Y704128D01*
X468657Y704155D01*
X468699Y704319D01*
X468747Y704482D01*
X468750Y704512D01*
X468757Y704542D01*
X468767Y704710D01*
X468781Y704880D01*
X468778Y704910D01*
X468779Y704940D01*
X468755Y705108D01*
X468735Y705277D01*
X468726Y705306D01*
X468722Y705336D01*
X468664Y705496D01*
X468611Y705657D01*
X468597Y705683D01*
X468586Y705712D01*
X468498Y705857D01*
X468415Y706004D01*
X468395Y706027D01*
X468379Y706053D01*
X468196Y706264D01*
X461789Y712671D01*
X461765Y712690D01*
X461745Y712713D01*
X461611Y712816D01*
X461479Y712924D01*
X461453Y712938D01*
X461429Y712956D01*
X461276Y713031D01*
X461126Y713110D01*
X461097Y713118D01*
X461070Y713132D01*
X460906Y713174D01*
X460743Y713222D01*
X460713Y713225D01*
X460683Y713232D01*
X460515Y713242D01*
X460345Y713256D01*
X460315Y713253D01*
X460285Y713254D01*
X460117Y713230D01*
X459948Y713210D01*
X459919Y713201D01*
X459889Y713197D01*
X459729Y713139D01*
X459568Y713086D01*
X459542Y713072D01*
X459513Y713061D01*
X459368Y712973D01*
X459221Y712890D01*
X459198Y712870D01*
X459172Y712854D01*
X458961Y712671D01*
X452554Y706264D01*
X452535Y706240D01*
X452512Y706220D01*
X452409Y706086D01*
X452301Y705954D01*
X452287Y705928D01*
X452269Y705904D01*
X452194Y705751D01*
X452115Y705601D01*
X452107Y705572D01*
X452093Y705545D01*
X452051Y705381D01*
X452003Y705218D01*
X452000Y705188D01*
X451993Y705158D01*
X451983Y704990D01*
X451969Y704820D01*
X451972Y704790D01*
X451971Y704760D01*
X451995Y704592D01*
X452015Y704423D01*
X452024Y704394D01*
X452028Y704364D01*
X452086Y704204D01*
X452139Y704043D01*
X452153Y704017D01*
X452164Y703989D01*
X452252Y703843D01*
X452335Y703696D01*
X452355Y703673D01*
X452371Y703647D01*
X452554Y703436D01*
X458961Y697029D01*
X458985Y697010D01*
X459005Y696987D01*
X459139Y696884D01*
X459271Y696776D01*
X459297Y696762D01*
X459321Y696744D01*
X459474Y696669D01*
X459624Y696590D01*
X459653Y696582D01*
X459680Y696568D01*
X459844Y696526D01*
X460007Y696478D01*
X460037Y696475D01*
X460067Y696468D01*
X460235Y696458D01*
X460405Y696444D01*
X460435Y696447D01*
G37*
G36*
X460435Y671047D02*
X460435Y671047D01*
X460465Y671046D01*
X460633Y671070D01*
X460802Y671090D01*
X460831Y671099D01*
X460861Y671103D01*
X461021Y671161D01*
X461182Y671214D01*
X461208Y671228D01*
X461236Y671239D01*
X461382Y671327D01*
X461529Y671410D01*
X461552Y671430D01*
X461578Y671446D01*
X461789Y671629D01*
X468196Y678036D01*
X468215Y678060D01*
X468238Y678080D01*
X468341Y678214D01*
X468449Y678346D01*
X468463Y678372D01*
X468481Y678396D01*
X468556Y678549D01*
X468635Y678699D01*
X468643Y678728D01*
X468657Y678755D01*
X468699Y678919D01*
X468747Y679082D01*
X468750Y679112D01*
X468757Y679142D01*
X468767Y679310D01*
X468781Y679480D01*
X468778Y679510D01*
X468779Y679540D01*
X468755Y679708D01*
X468735Y679877D01*
X468726Y679906D01*
X468722Y679936D01*
X468664Y680096D01*
X468611Y680257D01*
X468597Y680283D01*
X468586Y680312D01*
X468498Y680457D01*
X468415Y680604D01*
X468395Y680627D01*
X468379Y680653D01*
X468196Y680864D01*
X461789Y687271D01*
X461765Y687290D01*
X461745Y687313D01*
X461611Y687416D01*
X461479Y687524D01*
X461453Y687538D01*
X461429Y687556D01*
X461276Y687631D01*
X461126Y687710D01*
X461097Y687718D01*
X461070Y687732D01*
X460906Y687774D01*
X460743Y687822D01*
X460713Y687825D01*
X460683Y687832D01*
X460515Y687842D01*
X460345Y687856D01*
X460315Y687853D01*
X460285Y687854D01*
X460117Y687830D01*
X459948Y687810D01*
X459919Y687801D01*
X459889Y687797D01*
X459729Y687739D01*
X459568Y687686D01*
X459542Y687672D01*
X459513Y687661D01*
X459368Y687573D01*
X459221Y687490D01*
X459198Y687470D01*
X459172Y687454D01*
X458961Y687271D01*
X452554Y680864D01*
X452535Y680840D01*
X452512Y680820D01*
X452409Y680686D01*
X452301Y680554D01*
X452287Y680528D01*
X452269Y680504D01*
X452194Y680351D01*
X452115Y680201D01*
X452107Y680172D01*
X452093Y680145D01*
X452051Y679981D01*
X452003Y679818D01*
X452000Y679788D01*
X451993Y679758D01*
X451983Y679590D01*
X451969Y679420D01*
X451972Y679390D01*
X451971Y679360D01*
X451995Y679192D01*
X452015Y679023D01*
X452024Y678994D01*
X452028Y678964D01*
X452086Y678804D01*
X452139Y678643D01*
X452153Y678617D01*
X452164Y678589D01*
X452252Y678443D01*
X452335Y678296D01*
X452355Y678273D01*
X452371Y678247D01*
X452554Y678036D01*
X458961Y671629D01*
X458985Y671610D01*
X459005Y671587D01*
X459139Y671484D01*
X459271Y671376D01*
X459297Y671362D01*
X459321Y671344D01*
X459474Y671269D01*
X459624Y671190D01*
X459653Y671182D01*
X459680Y671168D01*
X459844Y671126D01*
X460007Y671078D01*
X460037Y671075D01*
X460067Y671068D01*
X460235Y671058D01*
X460405Y671044D01*
X460435Y671047D01*
G37*
G36*
X460435Y950447D02*
X460435Y950447D01*
X460465Y950446D01*
X460633Y950470D01*
X460802Y950490D01*
X460831Y950499D01*
X460861Y950503D01*
X461021Y950561D01*
X461182Y950614D01*
X461208Y950628D01*
X461236Y950639D01*
X461382Y950727D01*
X461529Y950810D01*
X461552Y950830D01*
X461578Y950846D01*
X461789Y951029D01*
X468196Y957436D01*
X468215Y957460D01*
X468238Y957480D01*
X468341Y957614D01*
X468449Y957746D01*
X468463Y957772D01*
X468481Y957796D01*
X468556Y957949D01*
X468635Y958099D01*
X468643Y958128D01*
X468657Y958155D01*
X468699Y958319D01*
X468747Y958482D01*
X468750Y958512D01*
X468757Y958542D01*
X468767Y958710D01*
X468781Y958880D01*
X468778Y958910D01*
X468779Y958940D01*
X468755Y959108D01*
X468735Y959277D01*
X468726Y959306D01*
X468722Y959336D01*
X468664Y959496D01*
X468611Y959657D01*
X468597Y959683D01*
X468586Y959712D01*
X468498Y959857D01*
X468415Y960004D01*
X468395Y960027D01*
X468379Y960053D01*
X468196Y960264D01*
X461789Y966671D01*
X461765Y966690D01*
X461745Y966713D01*
X461611Y966816D01*
X461479Y966924D01*
X461453Y966938D01*
X461429Y966956D01*
X461276Y967031D01*
X461126Y967110D01*
X461097Y967118D01*
X461070Y967132D01*
X460906Y967174D01*
X460743Y967222D01*
X460713Y967225D01*
X460683Y967232D01*
X460515Y967242D01*
X460345Y967256D01*
X460315Y967253D01*
X460285Y967254D01*
X460117Y967230D01*
X459948Y967210D01*
X459919Y967201D01*
X459889Y967197D01*
X459729Y967139D01*
X459568Y967086D01*
X459542Y967072D01*
X459514Y967061D01*
X459368Y966973D01*
X459221Y966890D01*
X459198Y966870D01*
X459172Y966854D01*
X458961Y966671D01*
X452554Y960264D01*
X452535Y960240D01*
X452512Y960220D01*
X452409Y960086D01*
X452301Y959954D01*
X452287Y959928D01*
X452269Y959904D01*
X452194Y959751D01*
X452115Y959601D01*
X452107Y959572D01*
X452093Y959545D01*
X452051Y959381D01*
X452003Y959218D01*
X452000Y959188D01*
X451993Y959158D01*
X451983Y958990D01*
X451969Y958820D01*
X451972Y958790D01*
X451971Y958760D01*
X451995Y958592D01*
X452015Y958423D01*
X452024Y958394D01*
X452028Y958364D01*
X452086Y958204D01*
X452139Y958043D01*
X452153Y958017D01*
X452164Y957988D01*
X452252Y957843D01*
X452335Y957696D01*
X452355Y957673D01*
X452371Y957647D01*
X452554Y957436D01*
X458961Y951029D01*
X458985Y951010D01*
X459005Y950987D01*
X459139Y950884D01*
X459271Y950776D01*
X459297Y950762D01*
X459321Y950744D01*
X459474Y950669D01*
X459624Y950590D01*
X459653Y950582D01*
X459680Y950568D01*
X459844Y950526D01*
X460007Y950478D01*
X460037Y950475D01*
X460067Y950468D01*
X460235Y950458D01*
X460405Y950444D01*
X460435Y950447D01*
G37*
G36*
X460435Y899647D02*
X460435Y899647D01*
X460465Y899646D01*
X460633Y899670D01*
X460802Y899690D01*
X460831Y899699D01*
X460861Y899703D01*
X461021Y899761D01*
X461182Y899814D01*
X461208Y899828D01*
X461236Y899839D01*
X461382Y899927D01*
X461529Y900010D01*
X461552Y900030D01*
X461578Y900046D01*
X461789Y900229D01*
X468196Y906636D01*
X468215Y906660D01*
X468238Y906680D01*
X468341Y906814D01*
X468449Y906946D01*
X468463Y906972D01*
X468481Y906996D01*
X468556Y907149D01*
X468635Y907299D01*
X468643Y907328D01*
X468657Y907355D01*
X468699Y907519D01*
X468747Y907682D01*
X468750Y907712D01*
X468757Y907742D01*
X468767Y907910D01*
X468781Y908080D01*
X468778Y908110D01*
X468779Y908140D01*
X468755Y908308D01*
X468735Y908477D01*
X468726Y908506D01*
X468722Y908536D01*
X468664Y908696D01*
X468611Y908857D01*
X468597Y908883D01*
X468586Y908912D01*
X468498Y909057D01*
X468415Y909204D01*
X468395Y909227D01*
X468379Y909253D01*
X468196Y909464D01*
X461789Y915871D01*
X461765Y915890D01*
X461745Y915913D01*
X461611Y916016D01*
X461479Y916124D01*
X461453Y916138D01*
X461429Y916156D01*
X461276Y916231D01*
X461126Y916310D01*
X461097Y916318D01*
X461070Y916332D01*
X460906Y916374D01*
X460743Y916422D01*
X460713Y916425D01*
X460683Y916432D01*
X460515Y916442D01*
X460345Y916456D01*
X460315Y916453D01*
X460285Y916454D01*
X460117Y916430D01*
X459948Y916410D01*
X459919Y916401D01*
X459889Y916397D01*
X459729Y916339D01*
X459568Y916286D01*
X459542Y916272D01*
X459513Y916261D01*
X459368Y916173D01*
X459221Y916090D01*
X459198Y916070D01*
X459172Y916054D01*
X458961Y915871D01*
X452554Y909464D01*
X452535Y909440D01*
X452512Y909420D01*
X452409Y909286D01*
X452301Y909154D01*
X452287Y909128D01*
X452269Y909104D01*
X452194Y908951D01*
X452115Y908801D01*
X452107Y908772D01*
X452093Y908745D01*
X452051Y908581D01*
X452003Y908418D01*
X452000Y908388D01*
X451993Y908358D01*
X451983Y908190D01*
X451969Y908020D01*
X451972Y907990D01*
X451971Y907960D01*
X451995Y907792D01*
X452015Y907623D01*
X452024Y907594D01*
X452028Y907564D01*
X452086Y907404D01*
X452139Y907243D01*
X452153Y907217D01*
X452164Y907189D01*
X452252Y907043D01*
X452335Y906896D01*
X452355Y906873D01*
X452371Y906847D01*
X452554Y906636D01*
X458961Y900229D01*
X458985Y900210D01*
X459005Y900187D01*
X459139Y900084D01*
X459271Y899976D01*
X459297Y899962D01*
X459321Y899944D01*
X459474Y899869D01*
X459624Y899790D01*
X459653Y899782D01*
X459680Y899768D01*
X459844Y899726D01*
X460007Y899678D01*
X460037Y899675D01*
X460067Y899668D01*
X460235Y899658D01*
X460405Y899644D01*
X460435Y899647D01*
G37*
G36*
X460435Y747247D02*
X460435Y747247D01*
X460465Y747246D01*
X460633Y747270D01*
X460802Y747290D01*
X460831Y747299D01*
X460861Y747303D01*
X461021Y747361D01*
X461182Y747414D01*
X461208Y747428D01*
X461236Y747439D01*
X461382Y747527D01*
X461529Y747610D01*
X461552Y747630D01*
X461578Y747646D01*
X461789Y747829D01*
X468196Y754236D01*
X468215Y754260D01*
X468238Y754280D01*
X468341Y754414D01*
X468449Y754546D01*
X468463Y754572D01*
X468481Y754596D01*
X468556Y754749D01*
X468635Y754899D01*
X468643Y754928D01*
X468657Y754955D01*
X468699Y755119D01*
X468747Y755282D01*
X468750Y755312D01*
X468757Y755342D01*
X468767Y755510D01*
X468781Y755680D01*
X468778Y755710D01*
X468779Y755740D01*
X468755Y755908D01*
X468735Y756077D01*
X468726Y756106D01*
X468722Y756136D01*
X468664Y756296D01*
X468611Y756457D01*
X468597Y756483D01*
X468586Y756512D01*
X468498Y756657D01*
X468415Y756804D01*
X468395Y756827D01*
X468379Y756853D01*
X468196Y757064D01*
X461789Y763471D01*
X461765Y763490D01*
X461745Y763513D01*
X461611Y763616D01*
X461479Y763724D01*
X461453Y763738D01*
X461429Y763756D01*
X461276Y763831D01*
X461126Y763910D01*
X461097Y763918D01*
X461070Y763932D01*
X460906Y763974D01*
X460743Y764022D01*
X460713Y764025D01*
X460683Y764032D01*
X460515Y764042D01*
X460345Y764056D01*
X460315Y764053D01*
X460285Y764054D01*
X460117Y764030D01*
X459948Y764010D01*
X459919Y764001D01*
X459889Y763997D01*
X459729Y763939D01*
X459568Y763886D01*
X459542Y763872D01*
X459513Y763861D01*
X459368Y763773D01*
X459221Y763690D01*
X459198Y763670D01*
X459172Y763654D01*
X458961Y763471D01*
X452554Y757064D01*
X452535Y757040D01*
X452512Y757020D01*
X452409Y756886D01*
X452301Y756754D01*
X452287Y756728D01*
X452269Y756704D01*
X452194Y756551D01*
X452115Y756401D01*
X452107Y756372D01*
X452093Y756345D01*
X452051Y756181D01*
X452003Y756018D01*
X452000Y755988D01*
X451993Y755958D01*
X451983Y755790D01*
X451969Y755620D01*
X451972Y755590D01*
X451971Y755560D01*
X451995Y755392D01*
X452015Y755223D01*
X452024Y755194D01*
X452028Y755164D01*
X452086Y755004D01*
X452139Y754843D01*
X452153Y754817D01*
X452164Y754789D01*
X452252Y754643D01*
X452335Y754496D01*
X452355Y754473D01*
X452371Y754447D01*
X452554Y754236D01*
X458961Y747829D01*
X458985Y747810D01*
X459005Y747787D01*
X459139Y747684D01*
X459271Y747576D01*
X459297Y747562D01*
X459321Y747544D01*
X459474Y747469D01*
X459624Y747390D01*
X459653Y747382D01*
X459680Y747368D01*
X459844Y747326D01*
X460007Y747278D01*
X460037Y747275D01*
X460067Y747268D01*
X460235Y747258D01*
X460405Y747244D01*
X460435Y747247D01*
G37*
%LPC*%
G36*
X135166Y374169D02*
X135166Y374169D01*
X132656Y375209D01*
X130734Y377131D01*
X129694Y379641D01*
X129694Y382359D01*
X130734Y384869D01*
X132656Y386791D01*
X135166Y387831D01*
X137884Y387831D01*
X140394Y386791D01*
X142316Y384869D01*
X143356Y382359D01*
X143356Y379641D01*
X142316Y377131D01*
X140394Y375209D01*
X137884Y374169D01*
X135166Y374169D01*
G37*
%LPD*%
%LPC*%
G36*
X135166Y459894D02*
X135166Y459894D01*
X132656Y460934D01*
X130734Y462856D01*
X129694Y465366D01*
X129694Y468084D01*
X130734Y470594D01*
X132656Y472516D01*
X135166Y473556D01*
X137884Y473556D01*
X140394Y472516D01*
X142316Y470594D01*
X143356Y468084D01*
X143356Y465366D01*
X142316Y462856D01*
X140394Y460934D01*
X137884Y459894D01*
X135166Y459894D01*
G37*
%LPD*%
%LPC*%
G36*
X135166Y247169D02*
X135166Y247169D01*
X132656Y248209D01*
X130734Y250131D01*
X129694Y252641D01*
X129694Y255359D01*
X130734Y257869D01*
X132656Y259791D01*
X135166Y260831D01*
X137884Y260831D01*
X140394Y259791D01*
X142316Y257869D01*
X143356Y255359D01*
X143356Y252641D01*
X142316Y250131D01*
X140394Y248209D01*
X137884Y247169D01*
X135166Y247169D01*
G37*
%LPD*%
%LPC*%
G36*
X846366Y650394D02*
X846366Y650394D01*
X843856Y651434D01*
X841934Y653356D01*
X840894Y655866D01*
X840894Y658584D01*
X841934Y661094D01*
X843856Y663016D01*
X846366Y664056D01*
X849084Y664056D01*
X851594Y663016D01*
X853516Y661094D01*
X854556Y658584D01*
X854556Y655866D01*
X853516Y653356D01*
X851594Y651434D01*
X849084Y650394D01*
X846366Y650394D01*
G37*
%LPD*%
%LPC*%
G36*
X846366Y929794D02*
X846366Y929794D01*
X843856Y930834D01*
X841934Y932756D01*
X840894Y935266D01*
X840894Y937984D01*
X841934Y940494D01*
X843856Y942416D01*
X846366Y943456D01*
X849084Y943456D01*
X851594Y942416D01*
X853516Y940494D01*
X854556Y937984D01*
X854556Y935266D01*
X853516Y932756D01*
X851594Y930834D01*
X849084Y929794D01*
X846366Y929794D01*
G37*
%LPD*%
%LPC*%
G36*
X135166Y120169D02*
X135166Y120169D01*
X132656Y121209D01*
X130734Y123131D01*
X129694Y125641D01*
X129694Y128359D01*
X130734Y130869D01*
X132656Y132791D01*
X135166Y133831D01*
X137884Y133831D01*
X140394Y132791D01*
X142316Y130869D01*
X143356Y128359D01*
X143356Y125641D01*
X142316Y123131D01*
X140394Y121209D01*
X137884Y120169D01*
X135166Y120169D01*
G37*
%LPD*%
%LPC*%
G36*
X271691Y107469D02*
X271691Y107469D01*
X269181Y108509D01*
X267259Y110431D01*
X266219Y112941D01*
X266219Y115659D01*
X267259Y118169D01*
X269181Y120091D01*
X271691Y121131D01*
X274409Y121131D01*
X276919Y120091D01*
X278841Y118169D01*
X279881Y115659D01*
X279881Y112941D01*
X278841Y110431D01*
X276919Y108509D01*
X274409Y107469D01*
X271691Y107469D01*
G37*
%LPD*%
%LPC*%
G36*
X303441Y971069D02*
X303441Y971069D01*
X300931Y972109D01*
X299009Y974031D01*
X297969Y976541D01*
X297969Y979259D01*
X299009Y981769D01*
X300931Y983691D01*
X303441Y984731D01*
X306159Y984731D01*
X308669Y983691D01*
X310591Y981769D01*
X311631Y979259D01*
X311631Y976541D01*
X310591Y974031D01*
X308669Y972109D01*
X306159Y971069D01*
X303441Y971069D01*
G37*
%LPD*%
%LPC*%
G36*
X903516Y63019D02*
X903516Y63019D01*
X901006Y64059D01*
X899084Y65981D01*
X898044Y68491D01*
X898044Y71209D01*
X899084Y73719D01*
X901006Y75641D01*
X903516Y76681D01*
X906234Y76681D01*
X908744Y75641D01*
X910666Y73719D01*
X911706Y71209D01*
X911706Y68491D01*
X910666Y65981D01*
X908744Y64059D01*
X906234Y63019D01*
X903516Y63019D01*
G37*
%LPD*%
%LPC*%
G36*
X836841Y63019D02*
X836841Y63019D01*
X834331Y64059D01*
X832409Y65981D01*
X831369Y68491D01*
X831369Y71209D01*
X832409Y73719D01*
X834331Y75641D01*
X836841Y76681D01*
X839559Y76681D01*
X842069Y75641D01*
X843991Y73719D01*
X845031Y71209D01*
X845031Y68491D01*
X843991Y65981D01*
X842069Y64059D01*
X839559Y63019D01*
X836841Y63019D01*
G37*
%LPD*%
%LPC*%
G36*
X49441Y580544D02*
X49441Y580544D01*
X46931Y581584D01*
X45009Y583506D01*
X43969Y586016D01*
X43969Y588734D01*
X45009Y591244D01*
X46931Y593166D01*
X49441Y594206D01*
X52159Y594206D01*
X54669Y593166D01*
X56591Y591244D01*
X57631Y588734D01*
X57631Y586016D01*
X56591Y583506D01*
X54669Y581584D01*
X52159Y580544D01*
X49441Y580544D01*
G37*
%LPD*%
%LPC*%
G36*
X55791Y780569D02*
X55791Y780569D01*
X53281Y781609D01*
X51359Y783531D01*
X50319Y786041D01*
X50319Y788759D01*
X51359Y791269D01*
X53281Y793191D01*
X55791Y794231D01*
X58509Y794231D01*
X61019Y793191D01*
X62941Y791269D01*
X63981Y788759D01*
X63981Y786041D01*
X62941Y783531D01*
X61019Y781609D01*
X58509Y780569D01*
X55791Y780569D01*
G37*
%LPD*%
%LPC*%
G36*
X135166Y205894D02*
X135166Y205894D01*
X132656Y206934D01*
X130734Y208856D01*
X129694Y211366D01*
X129694Y214084D01*
X130734Y216594D01*
X132656Y218516D01*
X135166Y219556D01*
X137884Y219556D01*
X140394Y218516D01*
X142316Y216594D01*
X143356Y214084D01*
X143356Y211366D01*
X142316Y208856D01*
X140394Y206934D01*
X137884Y205894D01*
X135166Y205894D01*
G37*
%LPD*%
%LPC*%
G36*
X217716Y31269D02*
X217716Y31269D01*
X215206Y32309D01*
X213284Y34231D01*
X212244Y36741D01*
X212244Y39459D01*
X213284Y41969D01*
X215206Y43891D01*
X217716Y44931D01*
X220434Y44931D01*
X222944Y43891D01*
X224866Y41969D01*
X225906Y39459D01*
X225906Y36741D01*
X224866Y34231D01*
X222944Y32309D01*
X220434Y31269D01*
X217716Y31269D01*
G37*
%LPD*%
D10*
X132160Y977900D02*
X147240Y977900D01*
X147240Y952500D02*
X132160Y952500D01*
X132160Y927100D02*
X147240Y927100D01*
X147240Y901700D02*
X132160Y901700D01*
X132160Y876300D02*
X147240Y876300D01*
X147240Y850900D02*
X132160Y850900D01*
X132160Y825500D02*
X147240Y825500D01*
X147240Y800100D02*
X132160Y800100D01*
X558800Y207565D02*
X558800Y192485D01*
X584200Y192485D02*
X584200Y207565D01*
X609600Y207565D02*
X609600Y192485D01*
X635000Y192485D02*
X635000Y207565D01*
X660400Y207565D02*
X660400Y192485D01*
X685800Y192485D02*
X685800Y207565D01*
X711200Y207565D02*
X711200Y192485D01*
X736600Y192485D02*
X736600Y207565D01*
X762000Y207565D02*
X762000Y192485D01*
X787400Y192485D02*
X787400Y207565D01*
X812800Y207565D02*
X812800Y192485D01*
X838200Y192485D02*
X838200Y207565D01*
X147240Y762000D02*
X132160Y762000D01*
X132160Y736600D02*
X147240Y736600D01*
X147240Y711200D02*
X132160Y711200D01*
X132160Y685800D02*
X147240Y685800D01*
X147240Y660400D02*
X132160Y660400D01*
X132160Y635000D02*
X147240Y635000D01*
X147240Y609600D02*
X132160Y609600D01*
X132160Y584200D02*
X147240Y584200D01*
X722710Y61913D02*
X737790Y61913D01*
X737790Y36513D02*
X722710Y36513D01*
X648890Y61913D02*
X633810Y61913D01*
X633810Y36513D02*
X648890Y36513D01*
X274240Y38100D02*
X259160Y38100D01*
X259160Y63500D02*
X274240Y63500D01*
D11*
X48700Y128500D03*
X48700Y170500D03*
X48700Y212500D03*
X48700Y254500D03*
X48700Y296500D03*
X48700Y338500D03*
X48700Y380500D03*
X48700Y422500D03*
X48700Y464500D03*
X48700Y506500D03*
X103700Y128500D03*
X103700Y170500D03*
X103700Y212500D03*
X103700Y254500D03*
X103700Y296500D03*
X103700Y338500D03*
X103700Y380500D03*
X103700Y422500D03*
X103700Y464500D03*
X103700Y506500D03*
D10*
X317500Y595710D02*
X317500Y610790D01*
X317500Y299640D02*
X317500Y284560D01*
X241300Y595710D02*
X241300Y610790D01*
X241300Y299640D02*
X241300Y284560D01*
D12*
X514350Y717550D03*
X539750Y717550D03*
X514350Y692150D03*
X539750Y692150D03*
X514350Y666750D03*
X539750Y666750D03*
X514350Y641350D03*
X539750Y641350D03*
X447675Y971550D03*
X473075Y971550D03*
X447675Y946150D03*
X473075Y946150D03*
X447675Y920750D03*
X473075Y920750D03*
X447675Y895350D03*
X473075Y895350D03*
X447675Y869950D03*
X473075Y869950D03*
X447675Y844550D03*
X473075Y844550D03*
X447675Y819150D03*
X473075Y819150D03*
X447675Y793750D03*
X473075Y793750D03*
X447675Y768350D03*
X473075Y768350D03*
X447675Y742950D03*
X473075Y742950D03*
X447675Y717550D03*
X473075Y717550D03*
X447675Y692150D03*
X473075Y692150D03*
X447675Y666750D03*
X473075Y666750D03*
X447675Y641350D03*
X473075Y641350D03*
D13*
X635000Y713325D03*
X635000Y678325D03*
X635000Y792700D03*
X635000Y757700D03*
X635000Y872075D03*
X635000Y837075D03*
X635000Y951450D03*
X635000Y916450D03*
X762000Y713325D03*
X762000Y678325D03*
X762000Y792700D03*
X762000Y757700D03*
X762000Y872075D03*
X762000Y837075D03*
X762000Y951450D03*
X762000Y916450D03*
D14*
X401320Y342900D02*
X386080Y342900D01*
X386080Y368300D02*
X401320Y368300D01*
X401320Y393700D02*
X386080Y393700D01*
X386080Y419100D02*
X401320Y419100D01*
X401320Y444500D02*
X386080Y444500D01*
X386080Y469900D02*
X401320Y469900D01*
X401320Y495300D02*
X386080Y495300D01*
X386080Y520700D02*
X401320Y520700D01*
X401320Y546100D02*
X386080Y546100D01*
X386080Y571500D02*
X401320Y571500D01*
X957608Y571500D02*
X972848Y571500D01*
X972848Y546100D02*
X957608Y546100D01*
X957608Y520700D02*
X972848Y520700D01*
X972848Y495300D02*
X957608Y495300D01*
X957608Y469900D02*
X972848Y469900D01*
X972848Y444500D02*
X957608Y444500D01*
X957608Y419100D02*
X972848Y419100D01*
X972848Y393700D02*
X957608Y393700D01*
X957608Y368300D02*
X972848Y368300D01*
X972848Y342900D02*
X957608Y342900D01*
D15*
X15875Y381000D03*
X136525Y381000D03*
X136525Y254000D03*
X136525Y212725D03*
X904875Y69850D03*
X847725Y936625D03*
X847725Y657225D03*
X273050Y114300D03*
X15875Y508000D03*
X304800Y977900D03*
D16*
X762000Y713325D02*
X815975Y713325D01*
X815975Y792700D01*
X815975Y873125D01*
X815975Y951450D01*
X762000Y951450D01*
X762000Y873125D02*
X762000Y872075D01*
X762000Y873125D02*
X815975Y873125D01*
X815975Y792700D02*
X762000Y792700D01*
X103700Y506500D02*
X103700Y464500D01*
X84136Y464500D01*
X84136Y338500D02*
X82550Y338500D01*
X48700Y338500D01*
X84136Y338500D02*
X84136Y464500D01*
X82550Y338500D02*
X82550Y320675D01*
X82550Y254500D01*
X48700Y254500D01*
X82550Y320675D02*
X122248Y320675D01*
X125423Y328048D01*
X351362Y592087D01*
X815975Y592087D01*
X815975Y713325D01*
D17*
X841375Y767300D02*
X815975Y792700D01*
X841375Y767300D02*
X841375Y765175D01*
D15*
X841375Y765175D03*
X15875Y254000D03*
X15875Y336550D03*
X136525Y466725D03*
X219075Y38100D03*
X838200Y69850D03*
X15875Y174625D03*
X136525Y127000D03*
D18*
X127000Y170500D02*
X103700Y170500D01*
D15*
X412750Y76200D03*
D18*
X130175Y170500D02*
X127000Y170500D01*
X130175Y170500D02*
X171450Y170500D01*
X172400Y170500D01*
X174625Y168275D01*
X266700Y76200D01*
X412750Y76200D01*
D17*
X300675Y170500D02*
X171450Y170500D01*
X300675Y170500D02*
X355600Y225425D01*
D15*
X355600Y225425D03*
X136525Y171450D03*
D18*
X136525Y170500D01*
X130175Y170500D01*
D19*
X507486Y200690D03*
X888486Y200690D03*
D15*
X984250Y469900D03*
X57150Y787400D03*
X50800Y587375D03*
X495300Y28575D03*
M02*
