M48
;GenerationSoftware,Autodesk,EAGLE,9.0.1*%
;CreationDate,2018-05-25T16:42:25Z*%
FMAT,2
ICI,OFF
METRIC,TZ,000.000
T6C0.350
T5C1.000
T4C1.016
T3C1.400
T2C2.286
T1C3.000
%
G90
M71
T1
X9910Y8150
X9910Y55350
T2
X50749Y20069
X88849Y20069
T3
X4870Y25450
X4870Y29650
X4870Y33850
X4870Y38050
X4870Y42250
X4870Y46450
X4870Y50650
X10370Y12850
X10370Y17050
X10370Y21250
X10370Y25450
X10370Y29650
X10370Y33850
X10370Y50650
X10370Y38050
X10370Y46450
X10370Y42250
X4870Y12850
X4870Y17050
X4870Y21250
T4
X51435Y71755
X53975Y71755
X51435Y69215
X53975Y69215
X51435Y66675
X53975Y66675
X51435Y64135
X53975Y64135
X44767Y97155
X47307Y97155
X44767Y94615
X44767Y92075
X47307Y92075
X44767Y89535
X47307Y89535
X44767Y86995
X47307Y86995
X44767Y84455
X47307Y84455
X47307Y94615
X44767Y81915
X47307Y81915
X44767Y79375
X47307Y79375
X44767Y76835
X47307Y76835
X44767Y74295
X47307Y74295
X44767Y71755
X47307Y71755
X44767Y69215
X47307Y69215
X44767Y66675
X47307Y66675
X44767Y64135
X47307Y64135
X39370Y36830
X39370Y39370
X39370Y41910
X39370Y44450
X39370Y46990
X39370Y49530
X39370Y52070
X39370Y54610
X39370Y57150
X96523Y57150
X96523Y54610
X96523Y52070
X96523Y49530
X96523Y46990
X96523Y44450
X96523Y41910
X96523Y39370
X96523Y36830
X96523Y34290
X39370Y34290
T5
X58420Y20003
X76200Y75770
X76200Y87208
X76200Y83708
X76200Y95145
X76200Y91645
X31750Y29210
X24130Y60325
X24130Y29210
X73660Y20003
X26670Y6350
X26670Y3810
X64135Y6191
X31750Y60325
X64135Y3651
X63500Y71333
X63500Y79270
X63500Y75770
X63500Y87208
X63500Y83708
X63500Y95145
X63500Y91645
X76200Y71333
X76200Y67833
X13970Y97790
X13970Y95250
X13970Y92710
X13970Y90170
X13970Y87630
X13970Y85090
X13970Y82550
X13970Y80010
X55880Y20003
X76200Y79270
X60960Y20003
X63500Y20003
X66040Y20003
X68580Y20003
X71120Y20003
X63500Y67833
X76200Y20003
X78740Y20003
X81280Y20003
X83820Y20003
X13970Y76200
X13970Y73660
X13970Y71120
X13970Y68580
X13970Y66040
X13970Y63500
X13970Y60960
X13970Y58420
X73025Y6191
X73025Y3651
T6
X13652Y38100
X13652Y25400
X13652Y21273
X90487Y6985
X84773Y93662
X84773Y65723
X27305Y11430
X1587Y50800
X84138Y76518
X1587Y25400
X1587Y33655
X13652Y46672
X21907Y3810
X83820Y6985
X1587Y17463
X13652Y12700
X41275Y7620
X13652Y17145
X98425Y46990
X5715Y78740
X5080Y58737
X49530Y2857
X35560Y22542
X30480Y97790
X1587Y38100
M30