G04 EAGLE Gerber X2 export*
G75*
%MOMM*%
%FSLAX34Y34*%
%LPD*%
%AMOC8*
5,1,8,0,0,1.08239X$1,22.5*%
G01*
%ADD10C,0.254000*%


D10*
X0Y12700D02*
X1000000Y12700D01*
X1000000Y1003200D01*
X0Y1003200D01*
X0Y12700D01*
X98564Y66500D02*
X97496Y66576D01*
X96435Y66729D01*
X95388Y66957D01*
X94360Y67259D01*
X93356Y67633D01*
X92381Y68078D01*
X91441Y68592D01*
X90540Y69171D01*
X89682Y69813D01*
X88872Y70515D01*
X88115Y71272D01*
X87413Y72082D01*
X86771Y72940D01*
X86192Y73841D01*
X85678Y74781D01*
X85233Y75756D01*
X84859Y76760D01*
X84557Y77788D01*
X84329Y78835D01*
X84176Y79896D01*
X84100Y80964D01*
X84100Y82036D01*
X84176Y83104D01*
X84329Y84165D01*
X84557Y85212D01*
X84859Y86240D01*
X85233Y87244D01*
X85678Y88219D01*
X86192Y89159D01*
X86771Y90060D01*
X87413Y90918D01*
X88115Y91728D01*
X88872Y92485D01*
X89682Y93187D01*
X90540Y93829D01*
X91441Y94408D01*
X92381Y94922D01*
X93356Y95367D01*
X94360Y95741D01*
X95388Y96043D01*
X96435Y96271D01*
X97496Y96424D01*
X98564Y96500D01*
X99636Y96500D01*
X100704Y96424D01*
X101765Y96271D01*
X102812Y96043D01*
X103840Y95741D01*
X104844Y95367D01*
X105819Y94922D01*
X106759Y94408D01*
X107660Y93829D01*
X108518Y93187D01*
X109328Y92485D01*
X110085Y91728D01*
X110787Y90918D01*
X111429Y90060D01*
X112008Y89159D01*
X112522Y88219D01*
X112967Y87244D01*
X113341Y86240D01*
X113643Y85212D01*
X113871Y84165D01*
X114024Y83104D01*
X114100Y82036D01*
X114100Y80964D01*
X114024Y79896D01*
X113871Y78835D01*
X113643Y77788D01*
X113341Y76760D01*
X112967Y75756D01*
X112522Y74781D01*
X112008Y73841D01*
X111429Y72940D01*
X110787Y72082D01*
X110085Y71272D01*
X109328Y70515D01*
X108518Y69813D01*
X107660Y69171D01*
X106759Y68592D01*
X105819Y68078D01*
X104844Y67633D01*
X103840Y67259D01*
X102812Y66957D01*
X101765Y66729D01*
X100704Y66576D01*
X99636Y66500D01*
X98564Y66500D01*
X98564Y538500D02*
X97496Y538576D01*
X96435Y538729D01*
X95388Y538957D01*
X94360Y539259D01*
X93356Y539633D01*
X92381Y540078D01*
X91441Y540592D01*
X90540Y541171D01*
X89682Y541813D01*
X88872Y542515D01*
X88115Y543272D01*
X87413Y544082D01*
X86771Y544940D01*
X86192Y545841D01*
X85678Y546781D01*
X85233Y547756D01*
X84859Y548760D01*
X84557Y549788D01*
X84329Y550835D01*
X84176Y551896D01*
X84100Y552964D01*
X84100Y554036D01*
X84176Y555104D01*
X84329Y556165D01*
X84557Y557212D01*
X84859Y558240D01*
X85233Y559244D01*
X85678Y560219D01*
X86192Y561159D01*
X86771Y562060D01*
X87413Y562918D01*
X88115Y563728D01*
X88872Y564485D01*
X89682Y565187D01*
X90540Y565829D01*
X91441Y566408D01*
X92381Y566922D01*
X93356Y567367D01*
X94360Y567741D01*
X95388Y568043D01*
X96435Y568271D01*
X97496Y568424D01*
X98564Y568500D01*
X99636Y568500D01*
X100704Y568424D01*
X101765Y568271D01*
X102812Y568043D01*
X103840Y567741D01*
X104844Y567367D01*
X105819Y566922D01*
X106759Y566408D01*
X107660Y565829D01*
X108518Y565187D01*
X109328Y564485D01*
X110085Y563728D01*
X110787Y562918D01*
X111429Y562060D01*
X112008Y561159D01*
X112522Y560219D01*
X112967Y559244D01*
X113341Y558240D01*
X113643Y557212D01*
X113871Y556165D01*
X114024Y555104D01*
X114100Y554036D01*
X114100Y552964D01*
X114024Y551896D01*
X113871Y550835D01*
X113643Y549788D01*
X113341Y548760D01*
X112967Y547756D01*
X112522Y546781D01*
X112008Y545841D01*
X111429Y544940D01*
X110787Y544082D01*
X110085Y543272D01*
X109328Y542515D01*
X108518Y541813D01*
X107660Y541171D01*
X106759Y540592D01*
X105819Y540078D01*
X104844Y539633D01*
X103840Y539259D01*
X102812Y538957D01*
X101765Y538729D01*
X100704Y538576D01*
X99636Y538500D01*
X98564Y538500D01*
M02*
