G04 EAGLE Gerber X2 export*
G75*
%MOMM*%
%FSLAX34Y34*%
%LPD*%
%AMOC8*
5,1,8,0,0,1.08239X$1,22.5*%
G01*
%ADD10C,1.711200*%
%ADD11R,2.303200X2.303200*%
%ADD12C,3.203200*%
%ADD13P,2.034460X8X292.500000*%
%ADD14C,2.387600*%
%ADD15C,1.727200*%
%ADD16C,0.959600*%
%ADD17C,4.203200*%


D10*
X132160Y977900D02*
X147240Y977900D01*
X147240Y952500D02*
X132160Y952500D01*
X132160Y927100D02*
X147240Y927100D01*
X147240Y901700D02*
X132160Y901700D01*
X132160Y876300D02*
X147240Y876300D01*
X147240Y850900D02*
X132160Y850900D01*
X132160Y825500D02*
X147240Y825500D01*
X147240Y800100D02*
X132160Y800100D01*
X558800Y207565D02*
X558800Y192485D01*
X584200Y192485D02*
X584200Y207565D01*
X609600Y207565D02*
X609600Y192485D01*
X635000Y192485D02*
X635000Y207565D01*
X660400Y207565D02*
X660400Y192485D01*
X685800Y192485D02*
X685800Y207565D01*
X711200Y207565D02*
X711200Y192485D01*
X736600Y192485D02*
X736600Y207565D01*
X762000Y207565D02*
X762000Y192485D01*
X787400Y192485D02*
X787400Y207565D01*
X812800Y207565D02*
X812800Y192485D01*
X838200Y192485D02*
X838200Y207565D01*
X147240Y762000D02*
X132160Y762000D01*
X132160Y736600D02*
X147240Y736600D01*
X147240Y711200D02*
X132160Y711200D01*
X132160Y685800D02*
X147240Y685800D01*
X147240Y660400D02*
X132160Y660400D01*
X132160Y635000D02*
X147240Y635000D01*
X147240Y609600D02*
X132160Y609600D01*
X132160Y584200D02*
X147240Y584200D01*
X722710Y61913D02*
X737790Y61913D01*
X737790Y36513D02*
X722710Y36513D01*
X648890Y61913D02*
X633810Y61913D01*
X633810Y36513D02*
X648890Y36513D01*
X274240Y38100D02*
X259160Y38100D01*
X259160Y63500D02*
X274240Y63500D01*
D11*
X48700Y128500D03*
X48700Y170500D03*
X48700Y212500D03*
X48700Y254500D03*
X48700Y296500D03*
X48700Y338500D03*
X48700Y380500D03*
X48700Y422500D03*
X48700Y464500D03*
X48700Y506500D03*
X103700Y128500D03*
X103700Y170500D03*
X103700Y212500D03*
X103700Y254500D03*
X103700Y296500D03*
X103700Y338500D03*
X103700Y380500D03*
X103700Y422500D03*
X103700Y464500D03*
X103700Y506500D03*
D12*
X99100Y81500D03*
X99100Y553500D03*
D10*
X317500Y595710D02*
X317500Y610790D01*
X317500Y299640D02*
X317500Y284560D01*
X241300Y595710D02*
X241300Y610790D01*
X241300Y299640D02*
X241300Y284560D01*
D13*
X514350Y717550D03*
X539750Y717550D03*
X514350Y692150D03*
X539750Y692150D03*
X514350Y666750D03*
X539750Y666750D03*
X514350Y641350D03*
X539750Y641350D03*
X447675Y971550D03*
X473075Y971550D03*
X447675Y946150D03*
X473075Y946150D03*
X447675Y920750D03*
X473075Y920750D03*
X447675Y895350D03*
X473075Y895350D03*
X447675Y869950D03*
X473075Y869950D03*
X447675Y844550D03*
X473075Y844550D03*
X447675Y819150D03*
X473075Y819150D03*
X447675Y793750D03*
X473075Y793750D03*
X447675Y768350D03*
X473075Y768350D03*
X447675Y742950D03*
X473075Y742950D03*
X447675Y717550D03*
X473075Y717550D03*
X447675Y692150D03*
X473075Y692150D03*
X447675Y666750D03*
X473075Y666750D03*
X447675Y641350D03*
X473075Y641350D03*
D14*
X635000Y713325D03*
X635000Y678325D03*
X635000Y792700D03*
X635000Y757700D03*
X635000Y872075D03*
X635000Y837075D03*
X635000Y951450D03*
X635000Y916450D03*
X762000Y713325D03*
X762000Y678325D03*
X762000Y792700D03*
X762000Y757700D03*
X762000Y872075D03*
X762000Y837075D03*
X762000Y951450D03*
X762000Y916450D03*
D15*
X401320Y342900D02*
X386080Y342900D01*
X386080Y368300D02*
X401320Y368300D01*
X401320Y393700D02*
X386080Y393700D01*
X386080Y419100D02*
X401320Y419100D01*
X401320Y444500D02*
X386080Y444500D01*
X386080Y469900D02*
X401320Y469900D01*
X401320Y495300D02*
X386080Y495300D01*
X386080Y520700D02*
X401320Y520700D01*
X401320Y546100D02*
X386080Y546100D01*
X386080Y571500D02*
X401320Y571500D01*
X957608Y571500D02*
X972848Y571500D01*
X972848Y546100D02*
X957608Y546100D01*
X957608Y520700D02*
X972848Y520700D01*
X972848Y495300D02*
X957608Y495300D01*
X957608Y469900D02*
X972848Y469900D01*
X972848Y444500D02*
X957608Y444500D01*
X957608Y419100D02*
X972848Y419100D01*
X972848Y393700D02*
X957608Y393700D01*
X957608Y368300D02*
X972848Y368300D01*
X972848Y342900D02*
X957608Y342900D01*
D16*
X15875Y381000D03*
X136525Y381000D03*
X136525Y254000D03*
X136525Y212725D03*
X904875Y69850D03*
X847725Y936625D03*
X847725Y657225D03*
X273050Y114300D03*
X15875Y508000D03*
X304800Y977900D03*
X841375Y765175D03*
X15875Y254000D03*
X15875Y336550D03*
X136525Y466725D03*
X219075Y38100D03*
X838200Y69850D03*
X15875Y174625D03*
X136525Y127000D03*
X412750Y76200D03*
X355600Y225425D03*
X136525Y171450D03*
D17*
X507486Y200690D03*
X888486Y200690D03*
D16*
X984250Y469900D03*
X57150Y787400D03*
X50800Y587375D03*
X495300Y28575D03*
M02*
