G04 EAGLE Gerber X2 export*
G75*
%MOMM*%
%FSLAX34Y34*%
%LPD*%
%AMOC8*
5,1,8,0,0,1.08239X$1,22.5*%
G01*
%ADD10R,0.558800X1.981200*%
%ADD11R,1.800000X1.600000*%
%ADD12R,1.600000X1.800000*%
%ADD13R,2.000000X1.600000*%
%ADD14R,1.600000X2.000000*%
%ADD15R,0.900000X1.600000*%
%ADD16R,1.300000X1.300000*%
%ADD17R,3.500000X0.420000*%
%ADD18R,6.300000X14.000000*%
%ADD19R,1.500000X0.700000*%
%ADD20R,1.200000X1.400000*%


D10*
X390525Y48387D03*
X403225Y48387D03*
X415925Y48387D03*
X428625Y48387D03*
X428625Y97663D03*
X415925Y97663D03*
X403225Y97663D03*
X390525Y97663D03*
D11*
X660400Y122525D03*
X660400Y150525D03*
D12*
X426750Y123825D03*
X398750Y123825D03*
X449550Y79375D03*
X477550Y79375D03*
D13*
X365125Y61625D03*
X365125Y33625D03*
X527050Y43150D03*
X527050Y71150D03*
D14*
X585500Y149225D03*
X557500Y149225D03*
X737900Y149225D03*
X709900Y149225D03*
D15*
X446375Y32300D03*
X474375Y32300D03*
D16*
X460375Y56600D03*
D17*
X228620Y939800D03*
X228620Y933300D03*
X228620Y926960D03*
X228620Y920760D03*
X228620Y914260D03*
X228620Y907920D03*
X228620Y901720D03*
X228620Y895220D03*
X228620Y888880D03*
X228620Y882680D03*
X228620Y876180D03*
X228620Y869980D03*
X228620Y863480D03*
X228620Y857140D03*
X228620Y850940D03*
X228620Y844440D03*
X228620Y838100D03*
X228620Y831900D03*
X384110Y831900D03*
X384110Y838400D03*
X384110Y844600D03*
X384110Y851100D03*
X384110Y857300D03*
X384110Y863800D03*
X384110Y870000D03*
X384110Y876500D03*
X384110Y882700D03*
X384110Y889200D03*
X384110Y895400D03*
X384110Y901900D03*
X384110Y908100D03*
X384110Y914600D03*
D18*
X305965Y885830D03*
D17*
X384110Y920780D03*
X384110Y927280D03*
X384110Y933620D03*
X384110Y939960D03*
X228620Y774700D03*
X228620Y768200D03*
X228620Y761860D03*
X228620Y755660D03*
X228620Y749160D03*
X228620Y742820D03*
X228620Y736620D03*
X228620Y730120D03*
X228620Y723780D03*
X228620Y717580D03*
X228620Y711080D03*
X228620Y704880D03*
X228620Y698380D03*
X228620Y692040D03*
X228620Y685840D03*
X228620Y679340D03*
X228620Y673000D03*
X228620Y666800D03*
X384110Y666800D03*
X384110Y673300D03*
X384110Y679500D03*
X384110Y686000D03*
X384110Y692200D03*
X384110Y698700D03*
X384110Y704900D03*
X384110Y711400D03*
X384110Y717600D03*
X384110Y724100D03*
X384110Y730300D03*
X384110Y736800D03*
X384110Y743000D03*
X384110Y749500D03*
D18*
X305965Y720730D03*
D17*
X384110Y755680D03*
X384110Y762180D03*
X384110Y768520D03*
X384110Y774860D03*
D12*
X369600Y82550D03*
X341600Y82550D03*
X369600Y107950D03*
X341600Y107950D03*
X814100Y123825D03*
X786100Y123825D03*
X814100Y149225D03*
X786100Y149225D03*
D14*
X160000Y38100D03*
X188000Y38100D03*
D19*
X96960Y641350D03*
X96960Y654050D03*
X96960Y666750D03*
X96960Y679450D03*
X96960Y692150D03*
X96960Y704850D03*
X96960Y717550D03*
X96960Y730250D03*
X30040Y730250D03*
X30040Y717550D03*
X30040Y704850D03*
X30040Y692150D03*
X30040Y679450D03*
X30040Y666750D03*
X30040Y654050D03*
X30040Y641350D03*
X96960Y844550D03*
X96960Y857250D03*
X96960Y869950D03*
X96960Y882650D03*
X96960Y895350D03*
X96960Y908050D03*
X96960Y920750D03*
X96960Y933450D03*
X30040Y933450D03*
X30040Y920750D03*
X30040Y908050D03*
X30040Y895350D03*
X30040Y882650D03*
X30040Y869950D03*
X30040Y857250D03*
X30040Y844550D03*
D13*
X635000Y122525D03*
X635000Y150525D03*
D14*
X313025Y60325D03*
X341025Y60325D03*
D20*
X950200Y828675D03*
X980200Y828675D03*
D14*
X865475Y812800D03*
X893475Y812800D03*
X893475Y844550D03*
X865475Y844550D03*
D20*
X950200Y892175D03*
X980200Y892175D03*
D14*
X865475Y876300D03*
X893475Y876300D03*
X893475Y908050D03*
X865475Y908050D03*
D20*
X950200Y765175D03*
X980200Y765175D03*
D14*
X865475Y749300D03*
X893475Y749300D03*
X893475Y781050D03*
X865475Y781050D03*
D20*
X950200Y701675D03*
X980200Y701675D03*
D14*
X865475Y685800D03*
X893475Y685800D03*
X893475Y717550D03*
X865475Y717550D03*
M02*
